<svg width="64" height="64" viewBox="0 0 64 64" fill="none" xmlns="http://www.w3.org/2000/svg">
<g id="Group 1000007774">
<g id="Group 1000007788">
<g id="Ellipse 41">
<circle cx="32" cy="32" r="32" fill="white"/>
<circle cx="32" cy="32" r="31.5" stroke="#02A0A0" stroke-opacity="0.07"/>
</g>
<g id="Group 1000007772">
<path id="Vector" opacity="0.08" d="M32.8643 50.6755C33.8898 51.2824 35.1664 51.2824 36.3174 50.9267C37.5311 50.55 38.5984 49.8594 39.6448 49.1269C40.5656 48.4782 41.5073 47.7876 42.0724 46.8249C42.6583 45.8623 42.8048 44.5438 42.1352 43.644C41.4027 42.6604 39.9169 42.472 38.7659 42.9115C37.6149 43.351 36.2337 44.5229 36.2337 44.5229C35.564 45.1717 34.6222 45.4856 33.7642 45.8623C32.9062 46.239 32.0273 46.7831 31.6715 47.6411C31.232 48.7293 31.8389 50.0687 32.8643 50.6755Z" fill="black"/>
<path id="Vector_2" opacity="0.08" d="M31.1901 40.337C30.2274 39.6255 28.9509 39.5209 27.779 39.772C26.5442 40.0231 25.3932 40.63 24.305 41.2579C23.3214 41.8229 22.3378 42.4089 21.6682 43.3297C20.9985 44.2086 20.7474 45.5061 21.3124 46.4688C21.9402 47.5151 23.4051 47.85 24.598 47.5151C25.7909 47.1803 27.2767 46.1548 27.2767 46.1548C28.0092 45.5689 28.9718 45.3596 29.8508 45.0666C30.7506 44.7736 31.6714 44.3132 32.09 43.4762C32.655 42.4089 32.1528 41.0277 31.1901 40.337Z" fill="black"/>
<g id="Group">
<g id="Group_2">
<g id="Group_3">
<g id="Group_4">
<path id="Vector_3" d="M40.335 31.9922C40.3769 32.4526 40.1257 32.7037 40.1257 33.1641C40.1257 33.2688 40.1257 33.5408 40.1885 33.6245C40.2513 33.7082 40.3559 33.7501 40.4606 33.7082C40.5443 33.6664 40.5652 33.6455 40.5652 33.5408C40.5234 33.771 40.5234 33.8756 40.628 34.0849C40.6698 34.1686 40.7117 34.2523 40.7954 34.2733C40.9 34.2942 41.0256 34.2523 41.1093 34.1896C41.2767 34.0431 41.4442 33.8966 41.5069 33.6873C41.5697 33.4571 41.5279 33.2269 41.4651 32.9967C41.3814 32.6828 41.3186 32.3689 41.2349 32.0759L40.335 31.9922Z" fill="#F0B387"/>
<path id="Vector_4" d="M41.3395 32.0156L41.3814 32.3295C41.3814 32.3295 40.9419 32.6853 40.1885 32.476L40.1467 32.1621L41.3395 32.0156Z" fill="#A8B3F5"/>
<path id="Vector_5" d="M37.9283 22.5115C37.9283 22.5115 39.2468 20.3141 40.4396 22.0302C41.193 23.0975 41.3604 32.0335 41.3604 32.0335C41.3604 32.0335 40.7745 32.3474 40.0839 32.1799C39.5397 29.1873 39.3723 26.2994 39.0584 24.1648C38.6817 21.4233 37.9283 22.5115 37.9283 22.5115Z" fill="#1A1826"/>
</g>
<path id="Vector_6" d="M38.912 45.3682C38.912 45.3682 38.5143 44.8868 38.0121 45.117C37.5098 45.3472 38.4725 46.561 39.4979 47.0005C40.5234 47.44 40.3769 46.4145 40.3559 46.2262C40.3141 46.0378 40.2722 45.4937 40.2722 45.4937L38.912 45.3682Z" fill="#11141C"/>
<path id="Vector_7" d="M37.2168 47.1646C37.2378 47.1855 37.2796 48.211 37.2587 48.3993C37.2378 48.5877 36.2332 48.5458 36.003 48.4412C35.7728 48.3366 35.3543 48.3784 35.0613 48.3366C34.7683 48.2947 33.994 47.9808 33.994 47.625C33.994 47.2693 34.6637 47.2274 34.9357 47.2274C35.2078 47.2274 36.0868 47.2693 36.0868 47.2693L36.1077 47.0391L37.2168 47.1646Z" fill="#11141C"/>
<path id="Vector_8" d="M40.335 45.5941L40.8582 33.3516C40.8582 33.1842 40.8582 32.9959 40.8582 32.8285L40.7954 31.5938C39.0166 32.8703 35.3961 32.0751 35.3961 32.0751C35.3961 32.0751 35.2915 33.6446 35.2706 34.6701L35.8984 47.2893C35.8984 47.2893 36.6727 47.7915 37.2796 47.2893L37.8237 39.6717L38.2423 34.5026L38.4515 34.4608L38.8491 39.5671L38.8073 45.636C38.8282 45.5941 39.4351 45.9918 40.335 45.5941Z" fill="#1A1826"/>
<path id="Vector_9" d="M38.4515 34.4171L38.8282 34.3125L38.8701 39.5234L38.7445 38.0794L38.4515 34.4171Z" fill="#11111C"/>
<path id="Vector_10" d="M35.2496 23.2068C35.438 22.5999 36.1495 21.8256 37.5307 21.5536C38.9119 21.2815 40.2513 20.8211 40.5442 23.0604C40.8582 25.4042 40.6489 27.6225 40.6489 27.6225L40.9 32.7079C40.3978 33.1264 39.5607 33.2938 38.8491 33.3357C38.7026 33.3357 38.598 32.3312 38.598 32.3312C38.598 32.3312 38.5561 33.3775 38.3259 33.3985C36.1495 33.524 35.2287 33.1683 35.2287 33.1683L35.438 27.8527C35.4589 27.8527 35.145 23.5626 35.2496 23.2068Z" fill="#262338"/>
<g id="Group_5">
<g id="Group_6">
<path id="Vector_11" d="M36.4425 21.1822C36.4425 21.2032 36.3378 21.9147 36.3378 21.9147C36.3378 21.9147 37.5935 22.7309 38.3259 21.7263L38.2213 20.9311L37.3423 20.6172L36.4425 21.1822Z" fill="#F0B387"/>
<path id="Vector_12" d="M38.2213 20.9286V21.2006C38.1585 21.2425 38.0957 21.2844 38.0329 21.3053C37.8865 21.3681 37.74 21.389 37.5935 21.4308C37.2377 21.5564 37.0284 20.9704 36.7982 21.2634C36.6308 21.4518 36.5052 21.682 36.3797 21.9122C36.3588 21.8912 36.3378 21.8912 36.3378 21.8912C36.3378 21.8912 36.4425 21.1797 36.4425 21.1588L37.3423 20.5938L38.2213 20.9286Z" fill="#DE9D72"/>
</g>
<path id="Vector_13" d="M37.2168 17.6157C38.1167 17.5529 38.6189 17.9714 38.8282 18.3481C39.0375 18.7457 39.0584 19.7921 38.2841 20.692C37.5098 21.5709 35.5217 21.3198 35.5217 21.3198C35.438 21.3198 35.3961 21.257 35.3543 21.1733C35.3124 21.0896 35.3124 21.0059 35.3124 20.9222C35.2915 20.5455 35.2706 20.1897 35.3543 19.813C35.3752 19.6875 35.4171 19.5619 35.4171 19.4154C35.4171 19.2689 35.3752 19.1434 35.3543 18.9969C35.3333 18.7876 35.4171 18.5783 35.5008 18.4109C35.6054 18.2435 35.7519 18.0761 35.8775 17.9296C35.8984 17.9505 36.6308 17.6366 37.2168 17.6157Z" fill="#F0B387"/>
<path id="Vector_14" d="M38.2841 20.6938C37.6982 21.3634 36.4007 21.3844 35.8356 21.3425C36.0658 21.196 36.2123 20.8821 36.1495 20.61C36.1077 20.4636 36.0449 20.3171 35.9612 20.1706C35.8984 20.0241 35.8356 19.8776 35.8566 19.7102C35.8775 19.5637 35.9403 19.4381 35.9612 19.3126C35.9821 19.1661 35.9193 19.0196 35.9193 18.8731C35.9193 18.7057 35.9821 18.5592 36.0868 18.4545C36.1914 18.3499 36.3588 18.2871 36.5262 18.2871L38.0539 18.308L38.7027 18.1406C38.7655 18.2243 38.8282 18.2871 38.8701 18.3708C39.0375 18.7475 39.0584 19.7939 38.2841 20.6938Z" fill="#E7A477"/>
<path id="Vector_15" d="M37.3842 21.2607C37.2586 21.2607 37.2168 21.0933 37.1749 20.9678C37.1331 20.8631 37.1121 20.7376 37.0703 20.6329C37.0284 20.5283 36.9657 20.4237 36.861 20.3609C36.7564 20.2981 36.6517 20.2981 36.5471 20.2981C36.4215 20.2981 36.296 20.2772 36.1913 20.2772C36.2541 20.0679 36.2751 19.8586 36.2123 19.6493C36.1704 19.5028 36.0867 19.3564 36.0658 19.1889C36.003 18.9169 36.0867 18.6239 36.2751 18.4356L37.5307 18.2891L38.8282 18.3728C38.8282 18.3728 39.184 18.5611 39.0375 19.4191C38.891 20.2772 38.4515 20.5283 38.3469 20.8841C38.2422 21.2189 38.012 21.2817 37.3842 21.2607Z" fill="#47270B"/>
<path id="Vector_16" d="M36.4844 20.7376C36.5681 20.7585 36.6518 20.7376 36.7355 20.7167C36.8192 20.6748 36.882 20.633 36.9448 20.5702C37.0285 20.4655 37.1122 20.3609 37.1122 20.2144C37.1331 20.0888 37.0912 19.9423 36.9866 19.8586C36.882 19.7749 36.7355 19.7331 36.6308 19.7959C36.5262 19.8586 36.4634 19.9633 36.4216 20.0679C36.3797 20.1725 36.3379 20.2981 36.2542 20.3818L36.4844 20.7376Z" fill="#E7A477"/>
<path id="Vector_17" d="M38.9119 18.3696C38.8282 18.537 38.6399 18.6417 38.4515 18.7044C37.8865 18.8928 37.2587 18.9137 36.6936 18.7463C36.4425 18.6835 36.1914 18.5789 35.9821 18.4115C35.7728 18.244 35.6472 18.1813 35.5845 17.9301C35.5217 17.679 35.7728 17.3232 36.0239 17.2814C36.1914 17.2395 36.3797 17.2395 36.5471 17.2814C37.154 17.386 37.7818 17.2814 38.3469 17.5116C38.5143 17.5744 38.6817 17.679 38.7863 17.8464C38.9119 17.972 38.9956 18.2022 38.9119 18.3696Z" fill="#502C0C"/>
<path id="Vector_18" d="M35.8356 17.0312C35.8356 17.0312 35.3542 17.8683 35.6891 18.1823L36.0867 17.8265C36.1076 17.8265 35.8565 17.3661 35.8356 17.0312Z" fill="#502C0C"/>
<path id="Vector_19" d="M36.2541 16.9688C36.2541 16.9688 35.5217 17.5966 35.7519 18.0151L36.2541 17.8268C36.2332 17.8058 36.1495 17.3036 36.2541 16.9688Z" fill="#502C0C"/>
<path id="Vector_20" d="M36.4425 17.0938C36.4425 17.0938 35.71 17.7216 35.9402 18.1401L36.4425 17.9518C36.4425 17.9518 36.3378 17.4286 36.4425 17.0938Z" fill="#502C0C"/>
</g>
<path id="Vector_21" d="M38.2632 21.4062C38.1377 21.6783 37.9702 21.762 37.6982 21.8876C37.4261 22.0131 37.1331 22.055 36.8192 22.0759C36.6309 22.0759 36.5053 22.0759 36.3588 21.9922C36.2333 22.0759 36.2542 22.1178 36.2123 22.2015C36.1914 22.2852 36.1705 22.3898 36.2123 22.4526C36.2542 22.4945 36.317 22.5363 36.3588 22.5573C36.9239 22.7665 37.5517 22.7247 38.0958 22.4526C38.1795 22.4108 38.2841 22.348 38.326 22.2643C38.3679 22.1806 38.3679 22.0759 38.3679 21.9922C38.3888 21.7411 38.4516 21.5318 38.2632 21.4062Z" fill="#262338"/>
<g id="Group_7">
<path id="Vector_22" d="M31.6083 26.3007C31.6083 26.3007 30.4782 25.7775 30.3317 25.4217C30.2271 25.1706 30.1852 24.5847 30.1852 24.3126C30.1852 24.2289 30.248 24.1452 30.3527 24.1243L30.4782 24.1033C30.7294 24.0824 30.9596 24.2498 30.9805 24.5009L31.0223 24.8358C31.0223 24.8358 31.7757 24.5009 31.9431 25.338L32.2361 25.6519L32.1943 26.1333L31.6083 26.3007Z" fill="#F0B387"/>
<path id="Vector_23" d="M31.6501 26.6147L31.2734 26.1962C31.2734 26.1962 31.7757 25.966 32.1105 25.4219L32.5291 25.8404L31.6501 26.6147Z" fill="#A8B3F5"/>
<path id="Vector_24" d="M36.1286 22.1172C36.1286 22.1172 34.1405 22.8287 34.2661 27.2235L32.3617 25.5702C32.3617 25.5702 32.0896 26.3027 31.4618 26.4701C31.4618 26.4701 33.429 30.0486 34.6427 30.0486C35.8356 30.0696 35.9612 27.2444 35.9612 27.2444L35.8147 25.0679L36.1286 22.1172Z" fill="#262338"/>
<path id="Vector_25" d="M31.5664 26.1776C31.5246 26.2195 31.5037 26.2822 31.5455 26.345L31.7966 26.6589C31.8385 26.7008 31.9013 26.7217 31.9641 26.6799C32.0059 26.638 32.0268 26.5752 31.985 26.5124L31.7339 26.1985C31.692 26.1358 31.6083 26.1358 31.5664 26.1776Z" fill="#A8B3F5"/>
</g>
<path id="Vector_26" d="M36.2542 22.1167L36.3588 21.6563C36.3588 21.6563 37.6772 21.8446 38.2422 21.0703L38.3469 21.447L38.1585 21.7609L37.5098 22.1795L36.9029 22.2632L36.2542 22.1167Z" fill="#262338"/>
</g>
<path id="Vector_27" d="M35.3961 29.5222C35.3961 29.5222 36.3797 27.9736 36.1914 25.1484L36.4843 26.5924C36.4843 26.6133 36.296 28.8735 35.3961 29.5222Z" fill="#1A1826"/>
</g>
<g id="Group_8">
<path id="Vector_28" d="M29.0552 17.276C28.7203 16.7528 28.239 16.7109 28.239 16.7109L28.7831 19.4524L29.8713 20.4569L29.9341 20.5406L31.0014 20.3104C30.2899 19.2013 29.2226 17.569 29.0552 17.276Z" fill="#002944"/>
<path id="Vector_29" d="M24.3256 43.2709C24.3256 43.2709 24.3675 43.5639 23.8861 44.3801C23.4048 45.1962 23.635 45.8031 24.0117 45.8868C24.4302 45.9706 25.2255 45.4264 25.2673 44.694C25.3092 43.9825 25.644 44.0452 25.7068 43.815C25.7696 43.5848 25.644 43.25 25.644 43.25L24.3256 43.2709Z" fill="#11141C"/>
<path id="Vector_30" d="M29.5574 28.0754L29.4946 26.757V26.5268L23.8024 25.7734V27.2593C23.7815 27.2593 23.7815 27.2593 23.7815 27.2593L23.7605 27.3221C23.5722 28.2847 23.5303 29.059 23.5931 30.0217L24.2628 43.457C24.2628 43.457 24.9116 43.9384 25.7696 43.2268L26.3137 35.3372L26.7741 29.8124L27.0043 29.7706L27.4228 35.2117L27.381 41.4062C27.381 41.4062 28.0297 41.8456 28.9924 41.4062L29.5574 28.6405C29.5574 28.4521 29.5574 28.2638 29.5574 28.0754Z" fill="#002238"/>
<path id="Vector_31" d="M26.8787 26.3412L26.8997 29.1036C27.1926 29.0618 27.4019 28.8107 27.4019 28.5177L27.381 26.3203L26.8787 26.3412Z" fill="#001D30"/>
<path id="Vector_32" d="M27.0043 29.7921L27.381 29.6875L27.4228 35.2332L27.2973 33.6846L27.0043 29.7921Z" fill="#001D30"/>
<g id="Group_9">
<path id="Vector_33" d="M29.3481 42.2204C29.3481 42.1995 29.3272 42.1995 29.3272 42.1786C29.2435 42.0321 29.0342 41.9902 28.8877 42.0739C28.7412 42.1576 28.6994 42.346 28.7831 42.5134C28.7831 42.5343 28.804 42.5343 28.804 42.5552C28.8877 42.7017 29.097 42.7436 29.2435 42.6599C29.39 42.5552 29.4318 42.3669 29.3481 42.2204Z" fill="#11141C"/>
</g>
<path id="Vector_34" d="M24.3046 28.2256L24.2 24.375L24.6604 28.2675L24.3046 28.2256Z" fill="#002238"/>
<path id="Vector_35" d="M27.4228 41.0522V41.9521C27.4228 42.0776 27.5065 42.1823 27.6321 42.2032C27.8413 42.245 28.1343 42.2869 28.3436 42.5799C28.6366 43.0193 29.5155 43.6053 30.248 43.124C30.3526 43.0612 30.4154 42.9147 30.3945 42.7891C30.3526 42.6636 30.2689 42.4752 30.0387 42.2869C29.5992 41.9521 28.7831 41.5126 28.7621 41.0312H27.4228V41.0522Z" fill="#11141C"/>
<path id="Vector_36" d="M23.6141 18.5695C23.8024 17.9207 24.5767 17.1046 26.0626 16.8116C27.5275 16.5186 28.9715 16.0373 29.2854 18.4021C29.6202 20.8924 29.2435 23.1735 29.2435 23.1735L29.6411 27.652C29.6411 27.652 27.9669 28.3216 27.5484 27.9868C27.1508 27.6938 27.2136 26.0196 27.2136 26.0196C27.2136 26.0196 27.2345 27.6729 26.8578 27.9868C26.2509 28.4681 23.7187 27.8403 23.7187 27.8403L23.9907 23.9478C23.928 23.9687 23.4885 18.9462 23.6141 18.5695Z" fill="#002944"/>
<g id="Group_10">
<g id="Group_11">
<path id="Vector_37" d="M27.3182 16.6541C27.4019 16.8005 27.3391 17.0517 27.2764 17.1982C27.2136 17.3447 27.1717 17.4702 27.1508 17.6376C27.1508 17.6795 27.1508 17.7004 27.1508 17.7423C27.1299 17.9934 26.9415 18.1817 26.6904 18.2027C25.2464 18.2236 24.9325 17.2191 24.9325 17.2191C25.2046 16.8843 25.372 16.4448 25.351 15.9844L26.5858 16.4239L27.3182 16.6541Z" fill="#F0B387"/>
<path id="Vector_38" d="M27.3391 16.9654C27.088 17.1329 26.795 17.2166 26.4811 17.2166C26.2718 17.2166 26.0626 17.1747 25.8533 17.1329C25.644 17.091 25.4347 17.0701 25.2255 17.091C25.1208 17.1119 25.0162 17.1329 24.9116 17.1956C25.1836 16.8608 25.351 16.4213 25.3301 15.9609L26.5648 16.4004L27.2973 16.6515C27.3601 16.7352 27.3601 16.8608 27.3391 16.9654Z" fill="#DE9D72"/>
</g>
<path id="Vector_39" d="M27.7995 16.6663L27.6321 16.7291C27.4228 16.8128 27.1717 16.8128 26.9415 16.75L26.0625 16.5407C25.916 16.4989 25.7695 16.4361 25.644 16.3314C25.3091 16.0803 24.7022 15.5153 24.4511 14.8456C24.1163 13.9248 24.1581 12.711 25.2464 12.3971C26.3346 12.0832 27.9669 12.439 28.0088 13.6527C28.0088 13.6527 28.0506 14.0294 27.9669 14.2596C27.8832 14.4898 28.0088 14.6991 28.0715 14.8456C28.1134 14.9712 28.0925 15.9966 27.9669 16.457C27.9251 16.5826 27.8832 16.6454 27.7995 16.6663Z" fill="#F0B387"/>
<path id="Vector_40" d="M27.5484 16.7552C27.36 16.797 27.1508 16.797 26.9624 16.7552L26.0835 16.5459C25.937 16.5041 25.7905 16.4413 25.6649 16.3366C25.3301 16.0855 24.7232 15.5205 24.4721 14.8508C24.2837 14.3485 24.2209 13.7626 24.3674 13.2812L25.8951 13.6998C25.9579 13.6579 26.0626 13.7626 26.1044 13.8254C26.1463 13.8881 26.1463 14.0346 26.1672 14.1183C26.1881 14.2021 26.209 14.2858 26.2509 14.3276C26.3137 14.3904 26.3974 14.4113 26.4183 14.495C26.4183 14.5578 26.3974 14.5997 26.3555 14.6415C26.2928 14.7462 26.23 14.8717 26.209 14.9973C26.1881 15.1229 26.23 15.2693 26.3346 15.3531C26.502 15.4995 26.7741 15.4577 26.9206 15.6042C27.0043 15.6879 27.0461 15.8135 27.0671 15.939C27.088 16.0646 27.088 16.1901 27.1089 16.3157C27.1717 16.525 27.3391 16.6924 27.5484 16.7552Z" fill="#E7A477"/>
<path id="Vector_41" d="M25.5812 15.5403C25.6649 15.4984 25.6649 15.2892 25.7486 15.2473C25.8533 15.1845 25.8951 15.059 25.8533 14.9334C25.8114 14.766 25.7905 14.5776 25.8323 14.3893C25.8742 14.1382 25.9998 13.887 26.1881 13.7196C25.6649 13.3848 25.058 13.1546 24.4721 12.9453C24.2209 13.4057 24.1581 13.9289 24.2628 14.4312C24.3465 14.7869 24.493 15.1008 24.7023 15.3938C24.7023 15.3938 25.0371 15.917 25.351 16.1263C25.3301 16.1263 25.3719 15.6868 25.5812 15.5403Z" fill="#002942"/>
<path id="Vector_42" d="M25.5603 15.8315C25.3928 15.7688 25.2463 15.6432 25.1417 15.4967C25.0371 15.3502 24.9743 15.1619 24.9952 14.9735C24.9952 14.9107 24.9952 14.8689 25.0161 14.827C25.0371 14.7852 25.058 14.7224 25.1208 14.7015C25.1626 14.6805 25.2254 14.6596 25.2673 14.6805C25.3091 14.6805 25.3719 14.7015 25.4138 14.7433C25.5184 14.8061 25.6021 14.9107 25.6649 15.0154C25.7067 15.0991 25.7068 15.1619 25.7486 15.2456C25.7695 15.3293 25.8114 15.3921 25.8951 15.4339L25.5603 15.8315Z" fill="#E7A477"/>
<path id="Vector_43" d="M25.7487 12.0033C27.2345 11.9405 27.9879 12.7985 27.946 13.3008C27.9042 13.803 26.1044 13.8449 26.1044 13.8449C25.9579 13.8658 25.8533 13.8449 25.7277 13.7821C25.4348 13.6774 25.1627 13.5519 24.8697 13.4891C24.7232 13.4472 24.5767 13.4263 24.4303 13.4891C24.3256 13.531 24.2419 13.6356 24.2 13.7402C24.1791 13.3008 24.3047 12.8822 24.5977 12.5683C24.8907 12.2544 25.3301 12.0242 25.7487 12.0033Z" fill="#001624"/>
</g>
<path id="Vector_44" d="M24.8069 17.2542L25.1208 16.8984C25.1208 16.8984 25.351 17.9239 26.7531 17.882C26.7531 17.882 27.088 17.9029 27.1507 17.6309C27.1507 17.6309 27.2345 17.7565 27.2345 17.9657C27.2345 18.0076 27.2345 18.0285 27.2135 18.0704C27.1298 18.2796 26.8996 18.3843 26.6694 18.4052C26.1253 18.4471 25.058 18.0913 24.8069 17.2542Z" fill="#D3D8F5"/>
<path id="Vector_45" d="M24.8069 17.2578C24.8069 17.2578 25.0162 19.4343 27.1089 22.1548C27.1089 22.1548 27.8623 18.9111 27.1717 17.6973L26.8368 18.1577H26.1672L25.4766 17.8019L24.8069 17.2578Z" fill="#D3D8F5"/>
<g id="Group_12">
<path id="Vector_46" d="M27.1089 22.157L28.0088 19.1435L27.2135 17.3438L27.1507 17.6577L27.4437 19.2063L27.1089 22.157Z" fill="#003A61"/>
<path id="Vector_47" d="M27.1089 22.1548L24.9115 19.5389L24.5139 17.4462L24.8069 17.2578L25.4766 19.1831L27.1089 22.1548Z" fill="#003A61"/>
</g>
<path id="Vector_48" d="M27.1089 22.1492L26.5439 21.1238C26.5439 21.1238 26.6904 19.3449 26.3346 17.9847C26.3137 17.9009 26.7531 17.9009 26.7741 17.9847C27.0461 18.6962 27.2135 21.04 27.2135 21.04L27.1089 22.1492Z" fill="#C9213A"/>
<path id="Vector_49" d="M26.3555 17.9037C26.4601 17.8828 26.6066 17.8619 26.7531 17.9247C26.795 17.9456 26.8159 17.9665 26.8368 18.0084L26.8787 18.1967C26.8996 18.3014 26.8996 18.3432 26.795 18.3223H26.3974C26.3346 18.3223 26.2927 18.2804 26.2927 18.2176L26.2718 18.0712C26.2509 17.9874 26.2927 17.9247 26.3555 17.9037Z" fill="#C9213A"/>
<path id="Vector_50" d="M24.1163 17.7812L23.8024 18.0324C23.0071 18.6811 22.8606 19.8321 23.4466 20.6692L24.9743 22.9922C25.3091 23.5153 26.0207 23.6618 26.5439 23.327L29.0342 21.7784C29.0342 21.7784 28.6994 20.9203 28.0715 20.8994L26.5857 21.9458L24.1163 17.7812Z" fill="#002944"/>
<path id="Vector_51" d="M26.0835 20.8994C26.0835 20.8994 25.7068 21.0877 25.7277 21.3389C25.7486 21.59 26.3137 22.4062 26.502 22.3852C26.6694 22.3643 27.2554 21.9876 27.2973 21.8411C27.36 21.6946 27.3182 21.2133 27.2345 21.1296C27.1508 21.0459 26.7322 20.5436 26.0835 20.8994Z" fill="#F0B387"/>
<path id="Vector_52" d="M31.3153 20.7963C31.1688 20.5661 31.1897 20.608 31.0223 20.3359L29.955 20.5452L29.9132 20.4824L28.0297 21.0056L27.946 22.2612L30.7712 21.8009C31.2316 21.7381 31.5664 21.194 31.3153 20.7963Z" fill="#002944"/>
<path id="Vector_53" d="M23.6978 21.0469L23.8652 23.1605L23.9489 21.7584L24.6813 22.5327L23.6978 21.0469Z" fill="#002238"/>
<path id="Vector_54" d="M29.1598 19.9945L28.804 18.9062L28.9296 20.0363L29.1598 19.9945Z" fill="#002238"/>
<path id="Vector_55" d="M28.3018 20.8351C28.3018 20.8351 28.4901 19.8306 29.2435 19.9562C29.9969 20.0817 29.9759 20.5212 29.9759 20.5212C29.9759 20.5212 29.3063 20.9607 28.9924 20.9607C28.6784 20.9816 28.3018 20.8351 28.3018 20.8351Z" fill="#F0B387"/>
<path id="Vector_56" d="M29.3481 22.0078L29.2853 22.7821L29.2644 22.1543L28.6157 22.1334L29.3272 22.0078" fill="#002238"/>
</g>
</g>
</g>
</g>
</g>
</svg>
