<svg width="36.000000" height="36.000000" viewBox="0 0 36 36" fill="none" xmlns="http://www.w3.org/2000/svg" xmlns:xlink="http://www.w3.org/1999/xlink">
	<desc>
			Created with Pixso.
	</desc>
	<defs>
		<clipPath id="clip1355_87976">
			<rect id="ep:back" width="36.000000" height="36.000000" fill="white" fill-opacity="0"/>
		</clipPath>
	</defs>
	<rect id="ep:back" width="36.000000" height="36.000000" fill="#FFFFFF" fill-opacity="0"/>
	<g clip-path="url(#clip1355_87976)">
		<path id="Vector" d="M7.98438 16.875L30.4844 16.875C30.7832 16.875 31.0684 16.9932 31.2793 17.2041C31.4902 17.415 31.6094 17.7012 31.6094 18C31.6094 18.2988 31.4902 18.585 31.2793 18.7959C31.0684 19.0068 30.7832 19.125 30.4844 19.125L7.98438 19.125C7.68555 19.125 7.40039 19.0068 7.18945 18.7959C6.97852 18.585 6.85938 18.2988 6.85938 18C6.85938 17.7012 6.97852 17.415 7.18945 17.2041C7.40039 16.9932 7.68555 16.875 7.98438 16.875Z" fill="#000000" fill-opacity="1.000000" fill-rule="nonzero"/>
		<path id="Vector" d="M8.33984 17.999L17.6719 27.3281C17.8828 27.5391 18.002 27.8262 18.002 28.124C18.002 28.4229 17.8828 28.71 17.6719 28.9209C17.4609 29.1318 17.1738 29.251 16.875 29.251C16.5762 29.251 16.2891 29.1318 16.0781 28.9209L5.95312 18.7959C5.84961 18.6914 5.76562 18.5674 5.70898 18.4307C5.65234 18.2939 5.62305 18.1475 5.62305 17.999C5.62305 17.8516 5.65234 17.7051 5.70898 17.5684C5.76562 17.4316 5.84961 17.3076 5.95312 17.2031L16.0781 7.07812C16.2891 6.86719 16.5762 6.74805 16.875 6.74805C17.1738 6.74805 17.4609 6.86719 17.6719 7.07812C17.8828 7.28906 18.002 7.57617 18.002 7.87402C18.002 8.17285 17.8828 8.45996 17.6719 8.6709L8.33984 17.999Z" fill="#000000" fill-opacity="1.000000" fill-rule="nonzero"/>
	</g>
</svg>
