<svg width="40.000000" height="40.000000" viewBox="0 0 40 40" fill="none" xmlns="http://www.w3.org/2000/svg" xmlns:xlink="http://www.w3.org/1999/xlink">
	<desc>
			Created with Pixso.
	</desc>
	<defs/>
	<path id="Vector" d="M24.7207 24.46C23.3828 25.5381 21.7168 26.126 20 26.126C18.2832 26.126 16.6172 25.5381 15.2793 24.46C14.8711 24.1201 14.3457 23.957 13.8164 24.0059C13.2871 24.0547 12.7988 24.3115 12.4609 24.7197C12.1211 25.1289 11.957 25.6553 12.0059 26.1836C12.0547 26.7129 12.3125 27.2002 12.7207 27.54C14.7617 29.2451 17.3398 30.1797 20 30.1797C22.6602 30.1797 25.2383 29.2451 27.2793 27.54C27.6875 27.2002 27.9453 26.7129 27.9941 26.1836C28.043 25.6553 27.8789 25.1289 27.5391 24.7197C27.3711 24.5176 27.166 24.3506 26.9336 24.2285C26.7012 24.1055 26.4453 24.0303 26.1836 24.0059C25.6543 23.957 25.1289 24.1201 24.7207 24.46ZM14 18C14.3965 18 14.7832 17.8828 15.1113 17.6631C15.4395 17.4434 15.6973 17.1309 15.8477 16.7656C16 16.4004 16.0391 15.998 15.9609 15.6094C15.8848 15.2217 15.6934 14.8652 15.4141 14.5859C15.1348 14.3057 14.7773 14.1152 14.3906 14.0381C14.002 13.9609 13.5996 14.001 13.2344 14.1523C12.8691 14.3037 12.5566 14.5596 12.3379 14.8887C12.1172 15.2178 12 15.6045 12 16C12 16.5303 12.2109 17.0391 12.5859 17.4141C12.9609 17.7891 13.4688 18 14 18ZM26 14C25.6035 14 25.2168 14.1172 24.8887 14.3369C24.5605 14.5566 24.3027 14.8691 24.1523 15.2344C24 15.5996 23.9609 16.002 24.0391 16.3906C24.1152 16.7783 24.3066 17.1348 24.5859 17.4141C24.8652 17.6943 25.2227 17.8848 25.6094 17.9619C25.998 18.0391 26.4004 17.999 26.7656 17.8477C27.1309 17.6963 27.4434 17.4404 27.6621 17.1113C27.8828 16.7822 28 16.3955 28 16C28 15.4697 27.7891 14.9609 27.4141 14.5859C27.0391 14.2109 26.5312 14 26 14ZM20 0C16.0449 0 12.1777 1.17285 8.88867 3.37109C5.59961 5.56836 3.03711 8.69141 1.52148 12.3467C0.0078125 16.001 -0.386719 20.0225 0.384766 23.9014C1.15625 27.7812 3.06055 31.3447 5.85742 34.1426C8.6543 36.9395 12.2188 38.8438 16.0977 39.6152C19.9785 40.3877 24 39.9912 27.6543 38.4775C31.3086 36.9639 34.4316 34.4004 36.6289 31.1113C38.8262 27.8223 40 23.9561 40 20C40 17.374 39.4824 14.7725 38.4785 12.3467C37.4727 9.91992 36 7.71484 34.1426 5.85742C32.2852 4.00098 30.0801 2.52734 27.6543 1.52246C25.2266 0.517578 22.627 0 20 0ZM20 36C16.8359 36 13.7422 35.0615 11.1113 33.3037C8.48047 31.5449 6.42969 29.0469 5.21875 26.123C4.00781 23.1992 3.68945 19.9824 4.30664 16.8789C4.92578 13.7744 6.44922 10.9238 8.68555 8.68652C10.9238 6.44824 13.7754 4.9248 16.8789 4.30762C19.9824 3.69043 23.1992 4.00684 26.123 5.21777C29.0469 6.42871 31.5449 8.47949 33.3027 11.1113C35.0625 13.7422 36 16.8359 36 20C36 24.2432 34.3145 28.3135 31.3145 31.3135C28.3125 34.3145 24.2441 36 20 36Z" fill="#7C7C7C" fill-opacity="1.000000" fill-rule="nonzero"/>
</svg>
