<svg width="26.908203" height="26.011719" viewBox="0 0 26.9082 26.0117" fill="none" xmlns="http://www.w3.org/2000/svg" xmlns:xlink="http://www.w3.org/1999/xlink">
	<desc>
			Created with Pixso.
	</desc>
	<defs/>
	<path id="Vector" d="M22.4238 0C22.5996 0 22.7715 0.0517578 22.918 0.149414C23.0645 0.24707 23.1797 0.384766 23.248 0.546875L23.2852 0.654297L25.0781 6.93359C25.1133 7.05859 25.1211 7.18945 25.0996 7.31738C25.0781 7.44531 25.0293 7.56641 24.957 7.67383C24.8848 7.78125 24.791 7.87207 24.6797 7.93945C24.5684 8.00684 24.4453 8.04883 24.3164 8.06348L24.2168 8.07227L21.5273 8.07227L21.5273 12.5576L26.9082 12.5576L26.9082 14.3516L25.1152 14.3516L25.1152 26.0117L23.3203 26.0117L23.3203 23.7334C22.8477 24.0088 22.3164 24.1719 21.7695 24.209L21.5273 24.2178L5.38086 24.2178C4.75195 24.2178 4.13281 24.0498 3.58789 23.7334L3.58789 26.0117L1.79297 26.0117L1.79297 14.3516L0 14.3516L0 12.5576L4.48438 12.5576L4.48438 8.96973C4.48242 8.74902 4.5625 8.53613 4.70898 8.37012C4.85352 8.20508 5.05469 8.09863 5.27344 8.07227L5.59766 8.07227L4.56641 5.74023L6.19727 5.02246L7.56055 8.07227L9.86719 8.07227C10.0859 8.07129 10.3008 8.15039 10.4648 8.2959C10.6309 8.44141 10.7363 8.64355 10.7637 8.8623L10.7637 12.5576L19.7324 12.5576L19.7324 8.07227L17.043 8.07227C16.9121 8.07324 16.7832 8.04492 16.6641 7.99023C16.5469 7.93652 16.4414 7.85645 16.3574 7.75781C16.2734 7.65918 16.2109 7.54297 16.1758 7.41699C16.1406 7.29199 16.1328 7.16016 16.1543 7.03223L16.1816 6.93359L17.9746 0.654297C18.0234 0.485352 18.1211 0.333008 18.2539 0.217773C18.3887 0.103516 18.5527 0.0302734 18.7285 0.00878906L18.8359 0L22.4238 0ZM23.3203 14.3516L3.58789 14.3516L3.58789 20.6299C3.58789 21.0596 3.74023 21.4746 4.02148 21.8008C4.30078 22.127 4.6875 22.3418 5.11328 22.4062L5.24805 22.415L5.38086 22.4238L21.5273 22.4238C21.9805 22.4248 22.418 22.2549 22.75 21.9463C23.082 21.6387 23.2871 21.2168 23.3203 20.7646L23.3203 14.3516ZM8.96875 9.86621L6.2793 9.86621L6.2793 12.5576L8.96875 12.5576L8.96875 9.86621ZM21.7422 1.79395L19.5078 1.79395L18.2266 6.27832L23.0254 6.27832L21.7422 1.79395Z" fill="#222222" fill-opacity="1.000000" fill-rule="nonzero"/>
</svg>
