<svg width="42" height="40" viewBox="0 0 42 40" fill="none" xmlns="http://www.w3.org/2000/svg">
<path id="Vector" d="M38.9219 11.5963H28.738C29.6869 11.1769 30.5681 10.6187 31.3528 9.94001C31.897 9.45614 32.3353 8.86506 32.6402 8.20384C32.9452 7.54262 33.1102 6.82551 33.125 6.0975C33.1485 5.29073 33.0069 4.48766 32.7089 3.73757C32.4109 2.98748 31.9628 2.30618 31.392 1.73546C30.8213 1.16474 30.14 0.716641 29.3899 0.418644C28.6398 0.120647 27.8368 -0.0209612 27.03 0.002505C26.302 0.0172855 25.5849 0.182332 24.9237 0.487292C24.2624 0.792253 23.6714 1.23055 23.1875 1.77469C21.9639 3.15559 21.1938 4.95469 20.7031 6.67926C20.2166 4.95469 19.4464 3.15973 18.2188 1.77469C17.7349 1.23055 17.1438 0.792253 16.4826 0.487292C15.8214 0.182332 15.1043 0.0172855 14.3763 0.002505C13.5695 -0.0209612 12.7664 0.120647 12.0163 0.418644C11.2662 0.716641 10.5849 1.16474 10.0142 1.73546C9.44349 2.30618 8.99539 2.98748 8.69739 3.73757C8.39939 4.48766 8.25778 5.29073 8.28125 6.0975C8.29603 6.82551 8.46108 7.54262 8.76604 8.20384C9.071 8.86506 9.50929 9.45614 10.0534 9.94001C10.8381 10.6187 11.7194 11.1769 12.6682 11.5963H2.48438C1.82548 11.5963 1.19357 11.858 0.727657 12.3239C0.261746 12.7898 0 13.4217 0 14.0806V20.7056C0 21.3645 0.261746 21.9964 0.727657 22.4623C1.19357 22.9283 1.82548 23.19 2.48438 23.19H3.3125V37.2681C3.3125 37.927 3.57425 38.5589 4.04016 39.0248C4.50607 39.4908 5.13798 39.7525 5.79688 39.7525H35.6094C36.2683 39.7525 36.9002 39.4908 37.3661 39.0248C37.832 38.5589 38.0938 37.927 38.0938 37.2681V23.19H38.9219C39.5808 23.19 40.2127 22.9283 40.6786 22.4623C41.1445 21.9964 41.4062 21.3645 41.4062 20.7056V14.0806C41.4062 13.4217 41.1445 12.7898 40.6786 12.3239C40.2127 11.858 39.5808 11.5963 38.9219 11.5963ZM24.4297 2.87196C24.7641 2.49816 25.172 2.19746 25.628 1.98869C26.084 1.77993 26.5782 1.6676 27.0797 1.65875H27.206C27.7763 1.65936 28.3407 1.77424 28.8659 1.99662C29.3911 2.21899 29.8665 2.54436 30.2638 2.95349C30.6612 3.36262 30.9725 3.84723 31.1795 4.37869C31.3864 4.91016 31.4848 5.47771 31.4688 6.04782C31.4598 6.54924 31.3474 7.04341 31.1386 7.4994C30.9299 7.95539 30.6292 8.36337 30.2555 8.69782C27.7525 10.9131 23.409 11.4327 21.5602 11.5528C21.6886 9.71848 22.2062 5.38532 24.4297 2.87196ZM9.9375 6.04782C9.92146 5.47771 10.0198 4.91016 10.2268 4.37869C10.4337 3.84723 10.7451 3.36262 11.1424 2.95349C11.5398 2.54436 12.0151 2.21899 12.5403 1.99662C13.0655 1.77424 13.6299 1.65936 14.2003 1.65875H14.3266C14.828 1.6676 15.3222 1.77993 15.7782 1.98869C16.2342 2.19746 16.6422 2.49816 16.9766 2.87196C19.1939 5.37497 19.7114 9.71848 19.8315 11.5673C17.991 11.4472 13.6475 10.9275 11.1362 8.71231C10.7634 8.37493 10.4644 7.96403 10.2581 7.50547C10.0518 7.04691 9.94265 6.55062 9.9375 6.04782ZM1.65625 20.7056V14.0806C1.65625 13.861 1.7435 13.6504 1.8988 13.4951C2.05411 13.3398 2.26474 13.2525 2.48438 13.2525H19.875V21.5338H2.48438C2.26474 21.5338 2.05411 21.4465 1.8988 21.2912C1.7435 21.1359 1.65625 20.9253 1.65625 20.7056ZM4.96875 37.2681V23.19H19.875V38.0963H5.79688C5.57724 38.0963 5.36661 38.009 5.2113 37.8537C5.056 37.6984 4.96875 37.4878 4.96875 37.2681ZM36.4375 37.2681C36.4375 37.4878 36.3503 37.6984 36.195 37.8537C36.0396 38.009 35.829 38.0963 35.6094 38.0963H21.5312V23.19H36.4375V37.2681ZM39.75 20.7056C39.75 20.9253 39.6628 21.1359 39.5075 21.2912C39.3521 21.4465 39.1415 21.5338 38.9219 21.5338H21.5312V13.2525H38.9219C39.1415 13.2525 39.3521 13.3398 39.5075 13.4951C39.6628 13.6504 39.75 13.861 39.75 14.0806V20.7056Z" fill="black"/>
</svg>
