<svg width="47" height="46" viewBox="0 0 47 46" fill="none" xmlns="http://www.w3.org/2000/svg">
<path d="M34.5222 21.3614C37.7216 21.3614 40.7899 22.6324 43.0523 24.8947C45.3146 27.157 46.5855 30.2254 46.5855 33.4248C46.5855 36.6242 45.3146 39.6925 43.0523 41.9549C40.7899 44.2172 37.7216 45.4881 34.5222 45.4881C31.3228 45.4881 28.2544 44.2172 25.9921 41.9549C23.7298 39.6925 22.4588 36.6242 22.4588 33.4248C22.4588 30.2254 23.7298 27.157 25.9921 24.8947C28.2544 22.6324 31.3228 21.3614 34.5222 21.3614ZM34.5222 25.7481L34.3248 25.7656C34.1056 25.8057 33.9039 25.9115 33.7464 26.069C33.5889 26.2265 33.4831 26.4282 33.443 26.6474L33.4255 26.8448V32.3281H27.9378L27.7404 32.3478C27.5212 32.3879 27.3195 32.4937 27.162 32.6512C27.0045 32.8087 26.8987 33.0104 26.8586 33.2296L26.8411 33.427L26.8586 33.6244C26.8987 33.8435 27.0045 34.0452 27.162 34.2027C27.3195 34.3602 27.5212 34.4661 27.7404 34.5061L27.9378 34.5236H33.4255V40.0136L33.443 40.211C33.4831 40.4301 33.5889 40.6318 33.7464 40.7893C33.9039 40.9468 34.1056 41.0527 34.3248 41.0927L34.5222 41.1102L34.7196 41.0927C34.9387 41.0527 35.1404 40.9468 35.2979 40.7893C35.4554 40.6318 35.5613 40.4301 35.6013 40.211L35.6188 40.0136V34.5214H41.111L41.3084 34.5061C41.5275 34.4661 41.7292 34.3602 41.8867 34.2027C42.0442 34.0452 42.1501 33.8435 42.1901 33.6244L42.2076 33.427L42.1901 33.2296C42.1499 33.0101 42.0438 32.8082 41.8858 32.6506C41.7279 32.4931 41.5257 32.3875 41.3062 32.3478L41.1088 32.3303H35.6188V26.8469L35.6013 26.6495C35.5617 26.43 35.456 26.2278 35.2985 26.0699C35.1409 25.9119 34.939 25.8058 34.7196 25.7656L34.5222 25.7481ZM26.681 0.533443C27.5409 0.533374 28.3858 0.757986 29.1322 1.18502C29.8786 1.61206 30.5004 2.22671 30.9361 2.96805L32.7214 6.01021H37.2638C39.154 6.01021 40.9668 6.76093 42.3036 8.09729C43.6403 9.43364 44.3916 11.2462 44.3922 13.1364V23.138C43.4138 22.1987 42.3068 21.4033 41.1044 20.7758L41.1022 13.1364C41.1022 12.1184 40.6978 11.1421 39.978 10.4223C39.2581 9.70243 38.2818 9.29803 37.2638 9.29803H31.7805C31.4937 9.29818 31.2119 9.22337 30.963 9.08102C30.7141 8.93867 30.5067 8.73372 30.3614 8.4865L28.0979 4.6328C27.9528 4.3859 27.7457 4.18115 27.4972 4.03882C27.2487 3.89648 26.9674 3.82149 26.681 3.82126H18.3397C18.0997 3.82146 17.8626 3.87418 17.6451 3.97572C17.4276 4.07727 17.235 4.22518 17.0807 4.40908L16.9382 4.60648L14.5408 8.51282C14.3938 8.7526 14.1878 8.95068 13.9424 9.08815C13.6971 9.22562 13.4205 9.29788 13.1393 9.29803H7.65594C7.1517 9.29774 6.65234 9.39681 6.1864 9.58958C5.72045 9.78234 5.29706 10.065 4.9404 10.4215C4.58375 10.7779 4.30082 11.2012 4.10779 11.667C3.91476 12.1328 3.8154 12.6321 3.8154 13.1364V33.9731C3.8154 36.0919 5.53498 37.8115 7.65375 37.8115H20.952C21.3314 38.9805 21.8556 40.0859 22.507 41.1015H7.65375C5.76319 41.1015 3.95006 40.3504 2.61324 39.0136C1.27641 37.6768 0.525391 35.8637 0.525391 33.9731V13.1364C0.525391 11.2458 1.27641 9.43269 2.61324 8.09587C3.95006 6.75904 5.76319 6.00802 7.65375 6.00802H12.2159L14.1351 2.8847C14.5763 2.16577 15.1945 1.57195 15.9306 1.15994C16.6667 0.747924 17.4961 0.531473 18.3397 0.53125L26.681 0.533443ZM22.4588 12.588C24.5454 12.5879 26.5785 13.2488 28.2662 14.4759C29.9539 15.7029 31.2095 17.4331 31.8529 19.4181C30.7562 19.6265 29.7034 19.9599 28.7098 20.4029C28.2237 18.9135 27.222 17.6465 25.8849 16.83C24.5479 16.0134 22.9632 15.7009 21.4163 15.9487C19.8693 16.1965 18.4615 16.9883 17.4464 18.1816C16.4312 19.3749 15.8754 20.8914 15.8788 22.4581C15.8788 25.5945 18.0721 28.2156 21.0068 28.878C20.6558 29.9204 20.4276 31.0003 20.3269 32.0956C17.9578 31.5646 15.8675 30.1792 14.4554 28.2042C13.0434 26.2293 12.4086 23.8032 12.6724 21.3898C12.9362 18.9763 14.08 16.7447 15.8854 15.1214C17.6907 13.4981 20.031 12.597 22.4588 12.5902V12.588Z" fill="black"/>
</svg>
