<svg width="53" height="53" viewBox="0 0 53 53" fill="none" xmlns="http://www.w3.org/2000/svg">
<path id="Vector" d="M26.5 12.8889C25.056 12.8889 23.6712 12.3153 22.6502 11.2942C21.6292 10.2732 21.0556 8.8884 21.0556 7.44444C21.0556 6.00049 21.6292 4.61567 22.6502 3.59464C23.6712 2.57361 25.056 2 26.5 2C27.944 2 29.3288 2.57361 30.3498 3.59464C31.3708 4.61567 31.9444 6.00049 31.9444 7.44444C31.9444 8.8884 31.3708 10.2732 30.3498 11.2942C29.3288 12.3153 27.944 12.8889 26.5 12.8889ZM26.5 12.8889V23.7778M26.5 23.7778C28.6659 23.7778 30.7432 24.6382 32.2747 26.1697C33.8063 27.7013 34.6667 29.7785 34.6667 31.9444C34.6667 34.1104 33.8063 36.1876 32.2747 37.7192C30.7432 39.2507 28.6659 40.1111 26.5 40.1111C24.3341 40.1111 22.2568 39.2507 20.7253 37.7192C19.1937 36.1876 18.3333 34.1104 18.3333 31.9444C18.3333 29.7785 19.1937 27.7013 20.7253 26.1697C22.2568 24.6382 24.3341 23.7778 26.5 23.7778ZM12.0722 42.2889L19.6944 36.8444M40.9278 42.2889L33.3056 36.8444M2 45.5556C2 46.9995 2.57361 48.3843 3.59464 49.4054C4.61567 50.4264 6.00049 51 7.44444 51C8.8884 51 10.2732 50.4264 11.2942 49.4054C12.3153 48.3843 12.8889 46.9995 12.8889 45.5556C12.8889 44.1116 12.3153 42.7268 11.2942 41.7058C10.2732 40.6847 8.8884 40.1111 7.44444 40.1111C6.00049 40.1111 4.61567 40.6847 3.59464 41.7058C2.57361 42.7268 2 44.1116 2 45.5556ZM40.1111 45.5556C40.1111 46.9995 40.6847 48.3843 41.7058 49.4054C42.7268 50.4264 44.1116 51 45.5556 51C46.9995 51 48.3843 50.4264 49.4054 49.4054C50.4264 48.3843 51 46.9995 51 45.5556C51 44.1116 50.4264 42.7268 49.4054 41.7058C48.3843 40.6847 46.9995 40.1111 45.5556 40.1111C44.1116 40.1111 42.7268 40.6847 41.7058 41.7058C40.6847 42.7268 40.1111 44.1116 40.1111 45.5556Z" stroke="black" stroke-width="4" stroke-linecap="round" stroke-linejoin="round"/>
</svg>
