<svg width="21" height="25" viewBox="0 0 21 25" fill="none" xmlns="http://www.w3.org/2000/svg">
<path d="M16.5 9.77191C16.5 7.86234 15.8679 6.03099 14.7426 4.68072C13.6174 3.33045 12.0913 2.57188 10.5 2.57188C8.9087 2.57188 7.38258 3.33045 6.25736 4.68072C5.13214 6.03099 4.5 7.86234 4.5 9.77191V22.972H2.5C1.96957 22.972 1.46086 22.7191 1.08579 22.269C0.710714 21.8189 0.5 21.2085 0.5 20.5719V15.7719C0.5 15.1354 0.710714 14.525 1.08579 14.0749C1.46086 13.6248 1.96957 13.3719 2.5 13.3719V9.77191C2.5 7.22582 3.34285 4.78401 4.84315 2.98366C6.34344 1.1833 8.37827 0.171875 10.5 0.171875C12.6217 0.171875 14.6566 1.1833 16.1569 2.98366C17.6571 4.78401 18.5 7.22582 18.5 9.77191V13.3719C19.0304 13.3719 19.5391 13.6248 19.9142 14.0749C20.2893 14.525 20.5 15.1354 20.5 15.7719V20.5719C20.5 21.2085 20.2893 21.8189 19.9142 22.269C19.5391 22.7191 19.0304 22.972 18.5 22.972H16.5V9.77191ZM12.5 12.1719H15.5V24.172H12.5V12.1719ZM5.5 12.1719H8.5V24.172H5.5V12.1719Z" fill="black"/>
</svg>
