<svg width="22" height="12" viewBox="0 0 22 12" fill="none" xmlns="http://www.w3.org/2000/svg">
<path d="M0.29434 11.3223H21.2906C21.4475 11.3223 21.5849 11.1849 21.5849 11.028C21.5849 11.0083 21.5849 10.9887 21.5849 10.9691C21.5849 10.9102 21.5849 10.8514 21.5653 10.8121C21.5457 10.7729 21.5653 10.714 21.5457 10.6748C21.526 10.6355 21.526 10.557 21.526 10.5178C21.526 10.4785 21.5064 10.4197 21.5064 10.3804C21.5064 10.3412 21.4868 10.2823 21.4672 10.2234C21.4475 10.1646 21.4475 10.1253 21.4279 10.0861C21.4083 10.0468 21.3887 9.98796 21.3691 9.94871C21.3494 9.90947 21.3298 9.8506 21.3102 9.81135C21.2906 9.77211 21.2709 9.73286 21.2513 9.69362C21.2317 9.65437 21.2121 9.61513 21.1925 9.55626C21.1728 9.49739 21.1532 9.47777 21.114 9.43852C21.0747 9.39928 21.0551 9.36003 21.0355 9.30116C21.0159 9.24229 20.9766 9.24229 20.957 9.20305C20.9374 9.1638 20.8981 9.12456 20.8589 9.08531L20.7804 9.00682C20.7411 8.96758 20.7019 8.92833 20.6626 8.88909L20.5842 8.8106C20.5449 8.77135 20.5057 8.7321 20.4664 8.69286L20.3879 8.63399L20.2506 8.51625L20.1721 8.45739C20.1132 8.41814 20.074 8.3789 20.0151 8.35927L19.9366 8.30041C19.8777 8.26116 19.8385 8.24154 19.7796 8.20229L19.7011 8.16305C19.6423 8.14342 19.603 8.10418 19.5442 8.08455L19.4657 8.04531C19.4068 8.02569 19.3675 7.98644 19.3087 7.96682L19.2106 7.92757L19.0536 7.86871C18.9751 7.82946 18.8966 7.80984 18.7985 7.79021L18.5238 7.71172C18.406 7.67248 18.2883 7.63323 18.1509 7.57436L17.9547 7.49587L17.8958 7.47625C17.5426 7.33889 17.1502 7.18191 16.7381 7.00531C15.7374 6.57361 14.7366 6.08304 13.9125 5.63172L14.403 5.00379C14.5011 4.86643 14.4815 4.68983 14.3442 4.59171C14.2068 4.4936 14.0302 4.51322 13.9321 4.65058L13.3826 5.357C12.9117 5.1019 12.48 4.78794 12.0483 4.45435L12.6958 3.64982C12.794 3.53209 12.7743 3.33586 12.6566 3.23775C12.5389 3.13963 12.3426 3.15926 12.2445 3.27699L11.6362 4.04228C11.283 3.6302 10.9494 3.17888 10.6747 2.68831L10.9887 2.29586C11.0868 2.17812 11.0672 1.98189 10.9494 1.88378C10.8317 1.78567 10.6355 1.80529 10.5374 1.92303L10.3804 2.11925C9.9683 1.33434 9.71321 0.667172 9.71321 0.667172C9.67396 0.588681 9.63472 0.529813 9.59547 0.451322C9.39925 0.176604 9.08528 0.0196227 8.7517 0.0196227H8.33962C7.77057 0.0196227 7.29962 0.490568 7.29962 1.05963C7.29962 2.39397 6.20076 3.47322 4.86642 3.47322C4.82717 3.47322 4.78793 3.47322 4.74868 3.47322C4.12076 3.43397 3.53208 3.15926 3.12 2.68831C2.6883 2.21737 2.45283 1.60906 2.45283 0.961513C2.45283 0.4317 2.02113 0 1.49132 0H1.04C0.470943 0.0196227 0 0.490568 0 1.05963C0 1.05963 0 1.05963 0 1.07925V11.0476C0 11.2046 0.137359 11.3223 0.29434 11.3223ZM0.588679 10.7336V8.96758H4.02264C4.86642 8.96758 5.61208 9.69362 5.92604 10.7532L0.588679 10.7336ZM16.7185 7.65286L16.7577 7.67248L16.8951 7.73135L17.0717 7.79021L17.1894 7.82946L17.3464 7.88833L17.4642 7.92757L17.6211 7.98644L17.7192 8.02569L17.8762 8.08455L17.9743 8.1238L18.1313 8.18267L18.2098 8.22191L18.3668 8.28078L18.4257 8.30041L18.6219 8.35927C18.6808 8.3789 18.7592 8.39852 18.8181 8.41814L18.8966 8.45739L19.0143 8.49663L19.1125 8.53588L19.2106 8.57512L19.3087 8.61437L19.4068 8.67324C19.446 8.69286 19.4657 8.71248 19.5049 8.73211L19.603 8.79097L19.7011 8.84984L19.7796 8.90871L19.8777 8.96758L19.9562 9.02645C19.9955 9.04607 20.0151 9.08531 20.0347 9.10494L20.1132 9.1638L20.1917 9.2423L20.2702 9.32079L20.3487 9.39928L20.4272 9.47777C20.4468 9.51701 20.4664 9.53664 20.486 9.57588L20.5449 9.65437L20.6038 9.75249C20.6234 9.79173 20.643 9.81135 20.6626 9.8506C20.6823 9.88984 20.7019 9.90947 20.7215 9.94871C20.7411 9.98796 20.7608 10.0076 20.7804 10.0468C20.8 10.0861 20.8 10.1057 20.8196 10.1449C20.8392 10.1842 20.8589 10.2234 20.8589 10.2431C20.8589 10.2627 20.8785 10.3215 20.8981 10.3412C20.9177 10.3608 20.9177 10.4197 20.9374 10.4589C20.957 10.4981 20.957 10.5374 20.957 10.5766L20.9766 10.6748H15.8747C15.914 9.51701 16.2279 8.41814 16.7185 7.65286ZM11.1457 5.5336C11.1457 5.71021 10.9887 5.86719 10.8121 5.86719C10.6355 5.86719 10.4785 5.71021 10.4785 5.5336C10.4785 5.357 10.6355 5.20002 10.8121 5.20002C11.0083 5.20002 11.1457 5.357 11.1457 5.5336ZM1.04 0.627927H1.51094C1.70717 0.627927 1.88377 0.784908 1.88377 1.00076C1.88377 1.78567 2.17811 2.53133 2.70792 3.12001C3.23774 3.70869 3.96377 4.04228 4.74868 4.08152C6.39698 4.14039 7.80981 2.86492 7.8883 1.19699C7.8883 1.15774 7.8883 1.09887 7.8883 1.05963C7.8883 0.824154 8.08453 0.608304 8.32 0.608304H8.73208C8.86943 0.608304 9.00679 0.686795 9.10491 0.804531C9.12453 0.824154 9.14415 0.863399 9.14415 0.883022C9.37962 1.4717 9.65434 2.06038 9.9683 2.62944L9.37962 3.35548C8.90868 3.17888 8.37887 3.43397 8.20226 3.90492C8.02566 4.37586 8.28076 4.90568 8.7517 5.08228C9.22264 5.25889 9.75245 5.00379 9.92906 4.53285C9.9683 4.43473 9.98793 4.317 9.98793 4.21888C9.98793 4.04228 9.92906 3.86567 9.83094 3.72831L10.2626 3.17888C10.5374 3.64982 10.8709 4.10115 11.2438 4.51322L11.126 4.6702C10.6551 4.4936 10.1253 4.7487 9.94868 5.21964C9.77208 5.69059 10.0272 6.2204 10.4981 6.397C10.9691 6.57361 11.4989 6.31851 11.6755 5.84757C11.7147 5.74945 11.7343 5.65134 11.7343 5.5336C11.7343 5.357 11.6755 5.1804 11.5774 5.04304L11.6755 4.9253C12.0875 5.25889 12.5389 5.55323 13.0098 5.80832L12.8332 6.02417C12.3623 5.84757 11.8325 6.10266 11.6559 6.57361C11.4792 7.04455 11.7343 7.57437 12.2053 7.75097C12.6762 7.92757 13.206 7.67248 13.3826 7.20153C13.4219 7.10342 13.4415 7.00531 13.4415 6.88757C13.4415 6.71097 13.3826 6.53436 13.2845 6.397L13.52 6.10266C14.3638 6.57361 15.3057 7.02493 16.1691 7.41738C15.6196 8.28078 15.3057 9.47777 15.2664 10.7336H6.53434C6.18113 9.34041 5.16076 8.3789 4.02264 8.3789H0.588679V1.05963C0.588679 0.824154 0.784906 0.627927 1.04 0.627927ZM9.39925 4.2385C9.39925 4.41511 9.24226 4.57209 9.06566 4.57209C8.88906 4.57209 8.73208 4.41511 8.73208 4.2385C8.73208 4.0619 8.88906 3.90492 9.06566 3.90492C9.26189 3.8853 9.39925 4.04228 9.39925 4.2385ZM12.8528 6.90719C12.8528 7.0838 12.6959 7.24078 12.5192 7.24078C12.3426 7.24078 12.1857 7.0838 12.1857 6.90719C12.1857 6.73059 12.3426 6.57361 12.5192 6.57361C12.5977 6.57361 12.6566 6.59323 12.7155 6.6521C12.794 6.69134 12.8528 6.78946 12.8528 6.90719Z" fill="black"/>
</svg>
