<svg width="14" height="25" viewBox="0 0 14 25" fill="none" xmlns="http://www.w3.org/2000/svg">
<path d="M3.62109 0.109375C3.09066 0.109375 2.58195 0.362232 2.20688 0.812321C1.83181 1.26241 1.62109 1.87286 1.62109 2.50938V4.05739C2.08409 3.83419 2.59109 3.70939 3.12109 3.70939H9.12109C9.63508 3.70866 10.1444 3.82682 10.6211 4.05739V2.50938C10.6211 1.87286 10.4104 1.26241 10.0353 0.812321C9.66023 0.362232 9.15153 0.109375 8.62109 0.109375H3.62109ZM3.12109 4.90939C2.32544 4.90939 1.56238 5.28868 0.999773 5.96381C0.437164 6.63894 0.121094 7.55462 0.121094 8.5094V15.7094C0.121094 16.6642 0.437164 17.5799 0.999773 18.255C1.56238 18.9302 2.32544 19.3094 3.12109 19.3094H9.12109C9.91674 19.3094 10.6798 18.9302 11.2424 18.255C11.805 17.5799 12.1211 16.6642 12.1211 15.7094V13.3094C12.3863 13.3094 12.6407 13.183 12.8282 12.9579C13.0157 12.7329 13.1211 12.4277 13.1211 12.1094V10.9094C13.1211 10.5912 13.0157 10.2859 12.8282 10.0609C12.6407 9.83584 12.3863 9.70941 12.1211 9.70941V8.5094C12.1211 7.55462 11.805 6.63894 11.2424 5.96381C10.6798 5.28868 9.91674 4.90939 9.12109 4.90939H3.12109ZM3.12109 20.5094C2.60711 20.5102 2.09782 20.392 1.62109 20.1614V21.7094C1.62109 22.346 1.83181 22.9564 2.20688 23.4065C2.58195 23.8566 3.09066 24.1095 3.62109 24.1095H8.62109C9.15153 24.1095 9.66023 23.8566 10.0353 23.4065C10.4104 22.9564 10.6211 22.346 10.6211 21.7094V20.1614C10.1444 20.392 9.63508 20.5102 9.12109 20.5094H3.12109Z" fill="black"/>
</svg>
