<svg width="23" height="24" viewBox="0 0 23 24" fill="none" xmlns="http://www.w3.org/2000/svg">
<path d="M0.441509 19.3465C0.176604 19.3465 0 19.5224 0 19.7862V21.545C0 21.8088 0.176604 21.9847 0.441509 21.9847H0.883019V23.3038C0.883019 23.5676 1.05962 23.7435 1.32453 23.7435H3.09057C3.35547 23.7435 3.53208 23.5676 3.53208 23.3038V21.9847H15.8943V21.1053H0.883019V20.2259H22.0755V21.1053H18.5434V21.9847H19.4264V23.3038C19.4264 23.5676 19.603 23.7435 19.8679 23.7435H21.634C21.8989 23.7435 22.0755 23.5676 22.0755 23.3038V21.9847H22.517C22.7819 21.9847 22.9585 21.8088 22.9585 21.545V19.7862C22.9585 19.5224 22.7819 19.3465 22.517 19.3465H16.7774C19.294 19.3465 21.4132 17.5438 21.8106 15.0815L22.0755 13.7185C22.0755 13.5865 22.0755 13.4546 21.9872 13.3667C21.8989 13.2348 21.7664 13.1908 21.634 13.1908H20.3977L21.6781 11.9157C22.2079 11.3881 22.2079 10.5527 21.6781 10.069C21.1483 9.58533 20.3094 9.58533 19.8238 10.069L16.6891 13.1908H16.3358V8.35419C16.3358 8.22228 16.2917 8.09037 16.1592 8.00243L14.1283 6.37556V4.39694H14.5698C14.8347 4.39694 15.0113 4.22106 15.0113 3.95725V2.19847C15.0113 1.93465 14.8347 1.75878 14.5698 1.75878H14.4374L14.5698 0.483663C14.5698 0.351755 14.5257 0.219847 14.4374 0.131908C14.3932 0.0439694 14.2608 0 14.1283 0H10.5962C10.4638 0 10.3313 0.0439694 10.2872 0.131908C10.1989 0.219847 10.1547 0.351755 10.1547 0.483663L10.2872 1.75878H10.1547C9.88981 1.75878 9.71321 1.93465 9.71321 2.19847V3.95725C9.71321 4.22106 9.88981 4.39694 10.1547 4.39694H10.5962V6.37556L8.56528 8.00243C8.43283 8.09037 8.38868 8.22228 8.38868 8.35419V13.7185L8.16792 13.8064C7.90302 13.1029 7.46151 12.4433 6.88755 11.9597C6.71094 11.8278 6.49019 11.8278 6.31358 11.9597C5.73962 12.4433 5.29811 13.0589 5.03321 13.8064C4.32679 13.4986 3.57623 13.3667 2.82566 13.4107C2.60491 13.4107 2.4283 13.5865 2.4283 13.8064C2.4283 13.9383 2.4283 14.0262 2.4283 14.1581C2.4283 14.8177 2.56075 15.4333 2.82566 16.0049C2.11925 16.2687 1.50113 16.7084 1.01547 17.28C0.883019 17.4559 0.883019 17.6757 1.01547 17.8516C1.50113 18.4671 2.11925 18.9068 2.86981 19.1707C2.82566 19.2146 2.82566 19.3026 2.78151 19.3465H0.441509ZM1.76604 21.9847H2.64906V22.8641H1.76604V21.9847ZM21.1925 22.8641H20.3094V21.9847H21.1925V22.8641ZM4.98906 19.3465H3.75283H3.97358C4.32679 19.3465 4.68 19.3026 5.03321 19.1707C4.98906 19.2146 4.98906 19.3026 4.98906 19.3465ZM5.91623 19.3465C6.04868 18.9508 6.26943 18.643 6.53434 18.3352L6.66679 18.2473L6.79924 18.3352C7.06415 18.643 7.28491 18.9948 7.41736 19.3465H5.91623ZM9.2717 19.3465H8.25623C8.25623 19.3026 8.25623 19.2146 8.21208 19.1707C8.56528 19.3026 8.91849 19.3465 9.2717 19.3465ZM20.4419 10.6846C20.6185 10.5087 20.8834 10.5087 21.06 10.6846C21.1483 10.7725 21.1925 10.8604 21.1925 10.9923C21.1925 11.1243 21.1483 11.2122 21.06 11.3001L19.1615 13.1908H17.9253L20.4419 10.6846ZM21.1042 14.0702L20.9717 14.9496H19.8679V15.829H20.7068C19.8238 17.9835 17.3513 19.0387 15.1879 18.1594C14.1283 17.7197 13.2894 16.8842 12.8479 15.829H18.9849V14.9496H12.583L12.4506 14.0702H21.1042ZM13.6426 0.879388L13.5543 1.75878H11.1702L11.0819 0.879388H13.6426ZM10.5962 2.63816H14.1283V3.51755H10.5962V2.63816ZM13.2453 4.39694V6.15572H11.4792V4.39694H13.2453ZM9.2717 8.57403L11.2143 7.0351H13.5543L15.4528 8.57403V9.67327C15.0113 9.71724 14.5698 9.71724 14.1725 9.67327C13.6426 9.6293 13.1128 9.54136 12.583 9.45342C12.2298 9.36548 11.9208 9.27754 11.5675 9.23357C10.817 9.14563 10.0664 9.14564 9.31585 9.27754V8.57403H9.2717ZM9.2717 10.1569C9.97811 10.025 10.6845 10.025 11.4351 10.113C11.7442 10.1569 12.0532 10.2009 12.3623 10.2888C12.9362 10.4207 13.5102 10.5087 14.0842 10.5527C14.3049 10.5527 14.4815 10.5527 14.6581 10.5527C14.8347 10.5527 15.1879 10.5527 15.4087 10.5527V13.1908H11.8766C11.7442 13.1908 11.6117 13.2348 11.5234 13.3667C11.4792 13.4546 11.4792 13.5865 11.4792 13.7185L11.7 15.0815C12.1415 17.5438 14.2608 19.3465 16.7774 19.3465H10.5079C10.4638 19.2586 10.4638 19.2146 10.4196 19.1707C11.126 18.9068 11.7883 18.4671 12.274 17.8955C12.4064 17.7197 12.4064 17.4998 12.274 17.3239C11.7883 16.7523 11.1702 16.3126 10.4196 16.0488C10.7287 15.3453 10.8611 14.5978 10.817 13.8504C10.817 13.6305 10.6404 13.4546 10.4196 13.4546C10.0223 13.4107 9.66906 13.4546 9.2717 13.4986V10.1569ZM8.38868 14.7297C8.87434 14.4659 9.40415 14.2901 9.93396 14.2901C9.93396 14.8177 9.75736 15.3893 9.49245 15.829H9.2717C8.91849 15.829 8.56528 15.873 8.21208 16.0049C8.30038 15.6531 8.38868 15.3014 8.38868 14.9496C8.38868 14.8617 8.38868 14.8177 8.38868 14.7297ZM9.2717 16.7084C10.0223 16.7084 10.7728 17.0601 11.3026 17.5878C10.7728 18.1154 10.0223 18.4671 9.2717 18.4671C8.56528 18.4671 7.90302 18.1594 7.37321 17.6757L7.24075 17.5878C7.28491 17.5438 7.28491 17.4998 7.32906 17.4998C7.85887 17.0162 8.56528 16.7084 9.2717 16.7084ZM6.62264 12.927C7.15245 13.4546 7.50566 14.2021 7.50566 14.9496C7.50566 15.6531 7.1966 16.3566 6.71094 16.8842L6.62264 16.9722L6.53434 16.8842C6.04868 16.3566 5.73962 15.6531 5.73962 14.9496C5.73962 14.2021 6.09283 13.4546 6.62264 12.927ZM4.8566 14.7297C4.8566 14.8177 4.8566 14.8617 4.8566 14.9496C4.8566 15.3014 4.90075 15.6531 5.03321 16.0049C4.68 15.873 4.32679 15.829 3.97358 15.829H3.75283C3.48792 15.3453 3.31132 14.8177 3.31132 14.2901C3.84113 14.2901 4.37094 14.422 4.8566 14.7297ZM1.94264 17.5878C2.47245 17.0601 3.22302 16.7084 3.97358 16.7084C4.68 16.7084 5.38641 17.0162 5.91623 17.4998C5.96038 17.5438 5.96038 17.5878 6.00453 17.5878C5.96038 17.6317 5.91623 17.6757 5.91623 17.6757C5.38641 18.1594 4.68 18.4671 3.97358 18.4671C3.22302 18.4671 2.47245 18.1154 1.94264 17.5878Z" fill="black"/>
</svg>
