<svg width="18" height="26" viewBox="0 0 18 26" fill="none" xmlns="http://www.w3.org/2000/svg">
<mask id="path-1-inside-1_594_11070" fill="white">
<path d="M17.8514 25.1406L12.8888 23.6679C12.4864 23.5608 12.1913 23.0788 12.1913 22.5432V20.9366C13.2375 20.0529 14.0959 18.7141 14.6861 17.2146C14.7129 17.2146 14.7129 17.2146 14.7397 17.2146C15.625 17.2146 16.2956 16.2773 16.5638 15.3134C16.698 14.8582 16.6443 14.3494 16.4297 13.9745C16.8053 13.1444 16.993 12.234 16.993 11.2432V10.547C16.993 9.7437 16.8857 9.02071 16.7248 8.35128C16.6711 8.11029 16.5907 7.86929 16.5102 7.65507C15.8395 5.70033 14.6592 4.28114 13.1839 3.5046C12.7815 1.71052 11.172 0.398438 9.26742 0.398438C7.36284 0.398438 5.75334 1.71052 5.32414 3.5046C3.82194 4.25436 2.64164 5.67356 1.97101 7.6283C1.89054 7.84251 1.83689 8.08351 1.75641 8.3245C1.59546 8.99394 1.51499 9.69014 1.48816 10.5202V11.2164C1.48816 12.1804 1.70276 13.1176 2.05149 13.9477C1.83689 14.3494 1.78324 14.8314 1.91736 15.2866C2.18561 16.2506 2.85624 17.1878 3.74146 17.1878C3.76829 17.1878 3.76829 17.1878 3.79511 17.1878C4.38526 18.6873 5.24367 20.0262 6.28984 20.9098V22.5164C6.28984 23.052 5.99477 23.5072 5.59239 23.6411L0.656586 25.1406C0.549286 25.1674 0.495636 25.2745 0.522461 25.3816C0.549286 25.4619 0.629761 25.5155 0.710236 25.5155C0.737061 25.5155 0.737061 25.5155 0.763886 25.5155L5.72652 24.0428C6.28984 23.8821 6.69222 23.2662 6.69222 22.5432V21.2579C7.47014 21.8202 8.32854 22.1416 9.24059 22.1416C10.1526 22.1416 11.011 21.8202 11.789 21.2579V22.5432C11.789 23.2662 12.1913 23.8821 12.7547 24.0428L17.7173 25.5155C17.7441 25.5155 17.7441 25.5155 17.771 25.5155C17.8514 25.5155 17.9319 25.4619 17.9587 25.3816C18.0124 25.2745 17.9587 25.1674 17.8514 25.1406ZM16.1883 15.1795C15.9737 15.956 15.464 16.7326 14.847 16.7861C15.1958 15.7954 15.4372 14.7243 15.5713 13.68C15.8127 13.7603 15.9469 13.921 16.0542 14.0548C16.2419 14.3762 16.2956 14.8046 16.1883 15.1795ZM2.31974 15.1795C2.21244 14.7778 2.26609 14.3762 2.48069 14.0548C2.56116 13.921 2.72211 13.7603 2.96354 13.68C3.07084 14.751 3.31226 15.7954 3.68781 16.7861C3.04401 16.7326 2.56116 15.956 2.31974 15.1795ZM9.26742 21.7399C5.91429 21.7399 3.28544 16.7058 3.28544 12.3946L3.33909 10.9219C6.02159 11.0826 8.89187 9.10104 10.0185 8.19062C10.1795 8.05673 10.3941 8.08351 10.5282 8.24417C11.628 9.47593 13.6131 11.4842 15.1421 11.6181L15.2226 12.3679C15.2226 16.7058 12.6205 21.7399 9.26742 21.7399ZM8.70409 16.9736C8.65044 16.8932 8.62362 16.7326 8.73092 16.5451C9.02599 16.0631 9.32107 14.9653 9.32107 14.9385C9.34789 14.8582 9.42837 14.8046 9.50884 14.8314C9.58932 14.8582 9.64297 14.9385 9.61614 15.0188C9.61614 15.0724 9.32107 16.197 8.99917 16.7058C8.94552 16.7861 8.97234 16.8129 8.97234 16.8129C9.02599 16.9468 9.42837 17.0271 9.66979 17.0539C9.75027 17.0539 9.83074 17.1342 9.80392 17.2146C9.80392 17.2949 9.72344 17.3484 9.64297 17.3484C9.64297 17.3484 9.64297 17.3484 9.61614 17.3484C9.53567 17.402 8.86504 17.3217 8.70409 16.9736ZM5.19002 12.475C4.89494 12.5285 4.62669 12.6356 4.38526 12.7963C4.59986 12.5821 4.86812 12.4482 5.13637 12.3411C5.43144 12.234 5.72652 12.1804 6.02159 12.1537C6.31667 12.1269 6.63857 12.1537 6.96047 12.2072C7.28237 12.2608 7.57744 12.3679 7.87252 12.6089C7.97982 12.6892 8.00664 12.8766 7.92617 12.9837C7.84569 13.0909 7.65792 13.1176 7.55062 13.0373L7.52379 13.0105C7.47014 12.9302 7.36284 12.8766 7.28237 12.8231C7.14824 12.7428 7.01412 12.6624 6.87999 12.6089C6.61174 12.5018 6.34349 12.4482 6.04842 12.4482C5.75334 12.3946 5.45827 12.4214 5.19002 12.475ZM10.6355 13.0105C10.5282 12.9034 10.5282 12.7428 10.6087 12.6356L10.6355 12.6089C10.9306 12.3946 11.2256 12.2875 11.5475 12.2072C11.8694 12.1537 12.1645 12.1269 12.4864 12.1537C12.7815 12.1804 13.1034 12.234 13.3716 12.3411C13.6667 12.4482 13.935 12.5821 14.1227 12.7963C13.8813 12.6089 13.6131 12.5285 13.318 12.475C13.0229 12.4214 12.7547 12.4214 12.4596 12.4214C12.1645 12.4482 11.8963 12.5018 11.628 12.5821C11.5207 12.6624 11.3866 12.716 11.2525 12.7963C11.172 12.8499 11.0647 12.9302 11.011 12.9837C10.9037 13.1176 10.7428 13.1176 10.6355 13.0105ZM11.0647 18.7141C11.0647 18.9015 10.8233 19.0086 10.4745 19.0622V19.089C10.4745 19.5174 9.69662 19.5977 9.24059 19.5977C8.78457 19.5977 8.00664 19.5442 8.00664 19.089V19.0622C7.68474 19.0086 7.41649 18.9015 7.41649 18.7141C7.41649 18.6337 7.49697 18.5534 7.57744 18.5534C7.65792 18.5534 7.71157 18.607 7.73839 18.6605C7.79204 18.6873 7.87252 18.7141 8.03347 18.7409C8.06029 18.7141 8.08712 18.6873 8.11394 18.6605L8.62362 18.4195C8.65044 18.4195 8.67727 18.3928 8.70409 18.3928C8.91869 18.3928 9.10647 18.4463 9.24059 18.5266C9.37472 18.4463 9.56249 18.3928 9.77709 18.3928C9.80392 18.3928 9.83074 18.3928 9.85757 18.4195L10.3672 18.6605C10.3941 18.6873 10.4209 18.6873 10.4477 18.7409C10.5818 18.7141 10.6891 18.6873 10.7428 18.6605C10.7696 18.607 10.8233 18.5534 10.9037 18.5534C10.9842 18.5534 11.0647 18.6337 11.0647 18.7141ZM7.12142 14.6172C7.06777 14.6172 7.01412 14.6439 6.96047 14.6439C7.01412 14.6975 7.04094 14.7778 7.06777 14.8046C7.12142 14.8582 7.12142 14.9385 7.09459 14.992C7.06777 15.0188 7.04094 15.0456 6.98729 15.0456C6.96047 15.0456 6.93364 15.0456 6.90682 15.0188C6.82634 14.9385 6.71904 14.8046 6.66539 14.6975C6.58492 14.6975 6.53127 14.6975 6.45079 14.6975V14.992C6.45079 15.0724 6.39714 15.1259 6.31667 15.1259C6.23619 15.1259 6.18254 15.0724 6.18254 14.992V14.6975C6.10207 14.6975 6.04842 14.6975 5.96794 14.6975C5.91429 14.8046 5.80699 14.9385 5.72652 15.0188C5.69969 15.0456 5.67287 15.0456 5.64604 15.0456C5.61922 15.0456 5.56557 15.0188 5.53874 14.992C5.48509 14.9385 5.51192 14.8582 5.56557 14.8046C5.59239 14.7778 5.64604 14.7243 5.67287 14.6439C5.61922 14.6439 5.56557 14.6172 5.51192 14.6172C5.43144 14.6707 5.27049 14.7778 5.13637 14.8314C5.10954 14.8314 5.10954 14.8314 5.08272 14.8314C5.02907 14.8314 4.97542 14.8046 4.94859 14.751C4.92177 14.6707 4.97542 14.6172 5.02907 14.5904C5.05589 14.5904 5.10954 14.5636 5.16319 14.5368C5.00224 14.4565 4.92177 14.3494 4.92177 14.2155C4.92177 14.1352 5.00224 14.0548 5.08272 14.0548C5.16319 14.0548 5.24367 14.1352 5.24367 14.2155C5.27049 14.2691 5.64604 14.4029 6.31667 14.4029C6.98729 14.4029 7.33602 14.2423 7.38967 14.1887C7.38967 14.1084 7.47014 14.0281 7.55062 14.0281C7.63109 14.0281 7.71157 14.1084 7.71157 14.1887C7.71157 14.3226 7.60427 14.4297 7.47014 14.51C7.52379 14.5368 7.55062 14.5636 7.60427 14.5636C7.68474 14.5904 7.71157 14.6707 7.68474 14.7243C7.65792 14.7778 7.60427 14.8046 7.55062 14.8046C7.52379 14.8046 7.52379 14.8046 7.49697 14.8046C7.36284 14.7778 7.20189 14.6975 7.12142 14.6172ZM12.2182 15.1259C12.1377 15.1259 12.084 15.0724 12.084 14.992V14.6975C12.0036 14.6975 11.9499 14.6975 11.8694 14.6975C11.8158 14.8046 11.7085 14.9385 11.628 15.0188C11.6012 15.0456 11.5744 15.0456 11.5475 15.0456C11.5207 15.0456 11.4671 15.0188 11.4402 14.992C11.3866 14.9385 11.4134 14.8582 11.4671 14.8046C11.4939 14.7778 11.5475 14.7243 11.5744 14.6439C11.5207 14.6439 11.4671 14.6172 11.4134 14.6172C11.3329 14.6707 11.172 14.7778 11.0379 14.8314C11.011 14.8314 11.011 14.8314 10.9842 14.8314C10.9306 14.8314 10.8769 14.8046 10.8501 14.751C10.8233 14.6707 10.8769 14.6172 10.9306 14.5904C10.9574 14.5904 11.011 14.5636 11.0647 14.5368C10.9037 14.4565 10.8233 14.3494 10.8233 14.2155C10.8233 14.1352 10.9037 14.0548 10.9842 14.0548C11.0647 14.0548 11.1452 14.1084 11.1452 14.1887C11.1988 14.2691 11.5744 14.4029 12.2182 14.4029C12.8888 14.4029 13.2375 14.2423 13.2912 14.1887C13.2912 14.1084 13.3716 14.0281 13.4521 14.0281C13.5326 14.0281 13.6131 14.1084 13.6131 14.1887C13.6131 14.3226 13.5058 14.4297 13.3716 14.51C13.4253 14.5368 13.4521 14.5636 13.5058 14.5636C13.5862 14.5904 13.6131 14.6707 13.5862 14.7243C13.5594 14.7778 13.5058 14.8046 13.4521 14.8046C13.4253 14.8046 13.4253 14.8046 13.3985 14.8046C13.2912 14.7778 13.1302 14.6707 13.0229 14.5904C12.9693 14.5904 12.9156 14.6172 12.862 14.6172C12.9156 14.6707 12.9424 14.751 12.9693 14.7778C13.0229 14.8314 13.0229 14.9117 12.9961 14.9653C12.9693 14.992 12.9424 15.0188 12.8888 15.0188C12.862 15.0188 12.8351 15.0188 12.8083 14.992C12.7278 14.9117 12.6205 14.7778 12.5669 14.6707C12.4864 14.6707 12.4328 14.6707 12.3523 14.6707V14.9653C12.3523 15.0724 12.2718 15.1259 12.2182 15.1259ZM13.1302 15.8757C13.1302 16.0096 13.0229 16.1167 12.8888 16.1167C12.7547 16.1167 12.6474 16.0096 12.6474 15.8757C12.6474 15.7418 12.7547 15.6347 12.8888 15.6347C13.0229 15.6347 13.1302 15.7418 13.1302 15.8757ZM14.0154 15.5276C14.0154 15.6347 13.9081 15.7418 13.8008 15.7418C13.6935 15.7418 13.5862 15.6347 13.5862 15.5276C13.5862 15.4205 13.6935 15.3134 13.8008 15.3134C13.9081 15.3134 14.0154 15.3937 14.0154 15.5276Z"/>
</mask>
<path d="M17.8514 25.1406L12.8888 23.6679C12.4864 23.5608 12.1913 23.0788 12.1913 22.5432V20.9366C13.2375 20.0529 14.0959 18.7141 14.6861 17.2146C14.7129 17.2146 14.7129 17.2146 14.7397 17.2146C15.625 17.2146 16.2956 16.2773 16.5638 15.3134C16.698 14.8582 16.6443 14.3494 16.4297 13.9745C16.8053 13.1444 16.993 12.234 16.993 11.2432V10.547C16.993 9.7437 16.8857 9.02071 16.7248 8.35128C16.6711 8.11029 16.5907 7.86929 16.5102 7.65507C15.8395 5.70033 14.6592 4.28114 13.1839 3.5046C12.7815 1.71052 11.172 0.398438 9.26742 0.398438C7.36284 0.398438 5.75334 1.71052 5.32414 3.5046C3.82194 4.25436 2.64164 5.67356 1.97101 7.6283C1.89054 7.84251 1.83689 8.08351 1.75641 8.3245C1.59546 8.99394 1.51499 9.69014 1.48816 10.5202V11.2164C1.48816 12.1804 1.70276 13.1176 2.05149 13.9477C1.83689 14.3494 1.78324 14.8314 1.91736 15.2866C2.18561 16.2506 2.85624 17.1878 3.74146 17.1878C3.76829 17.1878 3.76829 17.1878 3.79511 17.1878C4.38526 18.6873 5.24367 20.0262 6.28984 20.9098V22.5164C6.28984 23.052 5.99477 23.5072 5.59239 23.6411L0.656586 25.1406C0.549286 25.1674 0.495636 25.2745 0.522461 25.3816C0.549286 25.4619 0.629761 25.5155 0.710236 25.5155C0.737061 25.5155 0.737061 25.5155 0.763886 25.5155L5.72652 24.0428C6.28984 23.8821 6.69222 23.2662 6.69222 22.5432V21.2579C7.47014 21.8202 8.32854 22.1416 9.24059 22.1416C10.1526 22.1416 11.011 21.8202 11.789 21.2579V22.5432C11.789 23.2662 12.1913 23.8821 12.7547 24.0428L17.7173 25.5155C17.7441 25.5155 17.7441 25.5155 17.771 25.5155C17.8514 25.5155 17.9319 25.4619 17.9587 25.3816C18.0124 25.2745 17.9587 25.1674 17.8514 25.1406ZM16.1883 15.1795C15.9737 15.956 15.464 16.7326 14.847 16.7861C15.1958 15.7954 15.4372 14.7243 15.5713 13.68C15.8127 13.7603 15.9469 13.921 16.0542 14.0548C16.2419 14.3762 16.2956 14.8046 16.1883 15.1795ZM2.31974 15.1795C2.21244 14.7778 2.26609 14.3762 2.48069 14.0548C2.56116 13.921 2.72211 13.7603 2.96354 13.68C3.07084 14.751 3.31226 15.7954 3.68781 16.7861C3.04401 16.7326 2.56116 15.956 2.31974 15.1795ZM9.26742 21.7399C5.91429 21.7399 3.28544 16.7058 3.28544 12.3946L3.33909 10.9219C6.02159 11.0826 8.89187 9.10104 10.0185 8.19062C10.1795 8.05673 10.3941 8.08351 10.5282 8.24417C11.628 9.47593 13.6131 11.4842 15.1421 11.6181L15.2226 12.3679C15.2226 16.7058 12.6205 21.7399 9.26742 21.7399ZM8.70409 16.9736C8.65044 16.8932 8.62362 16.7326 8.73092 16.5451C9.02599 16.0631 9.32107 14.9653 9.32107 14.9385C9.34789 14.8582 9.42837 14.8046 9.50884 14.8314C9.58932 14.8582 9.64297 14.9385 9.61614 15.0188C9.61614 15.0724 9.32107 16.197 8.99917 16.7058C8.94552 16.7861 8.97234 16.8129 8.97234 16.8129C9.02599 16.9468 9.42837 17.0271 9.66979 17.0539C9.75027 17.0539 9.83074 17.1342 9.80392 17.2146C9.80392 17.2949 9.72344 17.3484 9.64297 17.3484C9.64297 17.3484 9.64297 17.3484 9.61614 17.3484C9.53567 17.402 8.86504 17.3217 8.70409 16.9736ZM5.19002 12.475C4.89494 12.5285 4.62669 12.6356 4.38526 12.7963C4.59986 12.5821 4.86812 12.4482 5.13637 12.3411C5.43144 12.234 5.72652 12.1804 6.02159 12.1537C6.31667 12.1269 6.63857 12.1537 6.96047 12.2072C7.28237 12.2608 7.57744 12.3679 7.87252 12.6089C7.97982 12.6892 8.00664 12.8766 7.92617 12.9837C7.84569 13.0909 7.65792 13.1176 7.55062 13.0373L7.52379 13.0105C7.47014 12.9302 7.36284 12.8766 7.28237 12.8231C7.14824 12.7428 7.01412 12.6624 6.87999 12.6089C6.61174 12.5018 6.34349 12.4482 6.04842 12.4482C5.75334 12.3946 5.45827 12.4214 5.19002 12.475ZM10.6355 13.0105C10.5282 12.9034 10.5282 12.7428 10.6087 12.6356L10.6355 12.6089C10.9306 12.3946 11.2256 12.2875 11.5475 12.2072C11.8694 12.1537 12.1645 12.1269 12.4864 12.1537C12.7815 12.1804 13.1034 12.234 13.3716 12.3411C13.6667 12.4482 13.935 12.5821 14.1227 12.7963C13.8813 12.6089 13.6131 12.5285 13.318 12.475C13.0229 12.4214 12.7547 12.4214 12.4596 12.4214C12.1645 12.4482 11.8963 12.5018 11.628 12.5821C11.5207 12.6624 11.3866 12.716 11.2525 12.7963C11.172 12.8499 11.0647 12.9302 11.011 12.9837C10.9037 13.1176 10.7428 13.1176 10.6355 13.0105ZM11.0647 18.7141C11.0647 18.9015 10.8233 19.0086 10.4745 19.0622V19.089C10.4745 19.5174 9.69662 19.5977 9.24059 19.5977C8.78457 19.5977 8.00664 19.5442 8.00664 19.089V19.0622C7.68474 19.0086 7.41649 18.9015 7.41649 18.7141C7.41649 18.6337 7.49697 18.5534 7.57744 18.5534C7.65792 18.5534 7.71157 18.607 7.73839 18.6605C7.79204 18.6873 7.87252 18.7141 8.03347 18.7409C8.06029 18.7141 8.08712 18.6873 8.11394 18.6605L8.62362 18.4195C8.65044 18.4195 8.67727 18.3928 8.70409 18.3928C8.91869 18.3928 9.10647 18.4463 9.24059 18.5266C9.37472 18.4463 9.56249 18.3928 9.77709 18.3928C9.80392 18.3928 9.83074 18.3928 9.85757 18.4195L10.3672 18.6605C10.3941 18.6873 10.4209 18.6873 10.4477 18.7409C10.5818 18.7141 10.6891 18.6873 10.7428 18.6605C10.7696 18.607 10.8233 18.5534 10.9037 18.5534C10.9842 18.5534 11.0647 18.6337 11.0647 18.7141ZM7.12142 14.6172C7.06777 14.6172 7.01412 14.6439 6.96047 14.6439C7.01412 14.6975 7.04094 14.7778 7.06777 14.8046C7.12142 14.8582 7.12142 14.9385 7.09459 14.992C7.06777 15.0188 7.04094 15.0456 6.98729 15.0456C6.96047 15.0456 6.93364 15.0456 6.90682 15.0188C6.82634 14.9385 6.71904 14.8046 6.66539 14.6975C6.58492 14.6975 6.53127 14.6975 6.45079 14.6975V14.992C6.45079 15.0724 6.39714 15.1259 6.31667 15.1259C6.23619 15.1259 6.18254 15.0724 6.18254 14.992V14.6975C6.10207 14.6975 6.04842 14.6975 5.96794 14.6975C5.91429 14.8046 5.80699 14.9385 5.72652 15.0188C5.69969 15.0456 5.67287 15.0456 5.64604 15.0456C5.61922 15.0456 5.56557 15.0188 5.53874 14.992C5.48509 14.9385 5.51192 14.8582 5.56557 14.8046C5.59239 14.7778 5.64604 14.7243 5.67287 14.6439C5.61922 14.6439 5.56557 14.6172 5.51192 14.6172C5.43144 14.6707 5.27049 14.7778 5.13637 14.8314C5.10954 14.8314 5.10954 14.8314 5.08272 14.8314C5.02907 14.8314 4.97542 14.8046 4.94859 14.751C4.92177 14.6707 4.97542 14.6172 5.02907 14.5904C5.05589 14.5904 5.10954 14.5636 5.16319 14.5368C5.00224 14.4565 4.92177 14.3494 4.92177 14.2155C4.92177 14.1352 5.00224 14.0548 5.08272 14.0548C5.16319 14.0548 5.24367 14.1352 5.24367 14.2155C5.27049 14.2691 5.64604 14.4029 6.31667 14.4029C6.98729 14.4029 7.33602 14.2423 7.38967 14.1887C7.38967 14.1084 7.47014 14.0281 7.55062 14.0281C7.63109 14.0281 7.71157 14.1084 7.71157 14.1887C7.71157 14.3226 7.60427 14.4297 7.47014 14.51C7.52379 14.5368 7.55062 14.5636 7.60427 14.5636C7.68474 14.5904 7.71157 14.6707 7.68474 14.7243C7.65792 14.7778 7.60427 14.8046 7.55062 14.8046C7.52379 14.8046 7.52379 14.8046 7.49697 14.8046C7.36284 14.7778 7.20189 14.6975 7.12142 14.6172ZM12.2182 15.1259C12.1377 15.1259 12.084 15.0724 12.084 14.992V14.6975C12.0036 14.6975 11.9499 14.6975 11.8694 14.6975C11.8158 14.8046 11.7085 14.9385 11.628 15.0188C11.6012 15.0456 11.5744 15.0456 11.5475 15.0456C11.5207 15.0456 11.4671 15.0188 11.4402 14.992C11.3866 14.9385 11.4134 14.8582 11.4671 14.8046C11.4939 14.7778 11.5475 14.7243 11.5744 14.6439C11.5207 14.6439 11.4671 14.6172 11.4134 14.6172C11.3329 14.6707 11.172 14.7778 11.0379 14.8314C11.011 14.8314 11.011 14.8314 10.9842 14.8314C10.9306 14.8314 10.8769 14.8046 10.8501 14.751C10.8233 14.6707 10.8769 14.6172 10.9306 14.5904C10.9574 14.5904 11.011 14.5636 11.0647 14.5368C10.9037 14.4565 10.8233 14.3494 10.8233 14.2155C10.8233 14.1352 10.9037 14.0548 10.9842 14.0548C11.0647 14.0548 11.1452 14.1084 11.1452 14.1887C11.1988 14.2691 11.5744 14.4029 12.2182 14.4029C12.8888 14.4029 13.2375 14.2423 13.2912 14.1887C13.2912 14.1084 13.3716 14.0281 13.4521 14.0281C13.5326 14.0281 13.6131 14.1084 13.6131 14.1887C13.6131 14.3226 13.5058 14.4297 13.3716 14.51C13.4253 14.5368 13.4521 14.5636 13.5058 14.5636C13.5862 14.5904 13.6131 14.6707 13.5862 14.7243C13.5594 14.7778 13.5058 14.8046 13.4521 14.8046C13.4253 14.8046 13.4253 14.8046 13.3985 14.8046C13.2912 14.7778 13.1302 14.6707 13.0229 14.5904C12.9693 14.5904 12.9156 14.6172 12.862 14.6172C12.9156 14.6707 12.9424 14.751 12.9693 14.7778C13.0229 14.8314 13.0229 14.9117 12.9961 14.9653C12.9693 14.992 12.9424 15.0188 12.8888 15.0188C12.862 15.0188 12.8351 15.0188 12.8083 14.992C12.7278 14.9117 12.6205 14.7778 12.5669 14.6707C12.4864 14.6707 12.4328 14.6707 12.3523 14.6707V14.9653C12.3523 15.0724 12.2718 15.1259 12.2182 15.1259ZM13.1302 15.8757C13.1302 16.0096 13.0229 16.1167 12.8888 16.1167C12.7547 16.1167 12.6474 16.0096 12.6474 15.8757C12.6474 15.7418 12.7547 15.6347 12.8888 15.6347C13.0229 15.6347 13.1302 15.7418 13.1302 15.8757ZM14.0154 15.5276C14.0154 15.6347 13.9081 15.7418 13.8008 15.7418C13.6935 15.7418 13.5862 15.6347 13.5862 15.5276C13.5862 15.4205 13.6935 15.3134 13.8008 15.3134C13.9081 15.3134 14.0154 15.3937 14.0154 15.5276Z" fill="black"/>
<path d="M17.8514 25.1406L12.8888 23.6679C12.4864 23.5608 12.1913 23.0788 12.1913 22.5432V20.9366C13.2375 20.0529 14.0959 18.7141 14.6861 17.2146C14.7129 17.2146 14.7129 17.2146 14.7397 17.2146C15.625 17.2146 16.2956 16.2773 16.5638 15.3134C16.698 14.8582 16.6443 14.3494 16.4297 13.9745C16.8053 13.1444 16.993 12.234 16.993 11.2432V10.547C16.993 9.7437 16.8857 9.02071 16.7248 8.35128C16.6711 8.11029 16.5907 7.86929 16.5102 7.65507C15.8395 5.70033 14.6592 4.28114 13.1839 3.5046C12.7815 1.71052 11.172 0.398438 9.26742 0.398438C7.36284 0.398438 5.75334 1.71052 5.32414 3.5046C3.82194 4.25436 2.64164 5.67356 1.97101 7.6283C1.89054 7.84251 1.83689 8.08351 1.75641 8.3245C1.59546 8.99394 1.51499 9.69014 1.48816 10.5202V11.2164C1.48816 12.1804 1.70276 13.1176 2.05149 13.9477C1.83689 14.3494 1.78324 14.8314 1.91736 15.2866C2.18561 16.2506 2.85624 17.1878 3.74146 17.1878C3.76829 17.1878 3.76829 17.1878 3.79511 17.1878C4.38526 18.6873 5.24367 20.0262 6.28984 20.9098V22.5164C6.28984 23.052 5.99477 23.5072 5.59239 23.6411L0.656586 25.1406C0.549286 25.1674 0.495636 25.2745 0.522461 25.3816C0.549286 25.4619 0.629761 25.5155 0.710236 25.5155C0.737061 25.5155 0.737061 25.5155 0.763886 25.5155L5.72652 24.0428C6.28984 23.8821 6.69222 23.2662 6.69222 22.5432V21.2579C7.47014 21.8202 8.32854 22.1416 9.24059 22.1416C10.1526 22.1416 11.011 21.8202 11.789 21.2579V22.5432C11.789 23.2662 12.1913 23.8821 12.7547 24.0428L17.7173 25.5155C17.7441 25.5155 17.7441 25.5155 17.771 25.5155C17.8514 25.5155 17.9319 25.4619 17.9587 25.3816C18.0124 25.2745 17.9587 25.1674 17.8514 25.1406ZM16.1883 15.1795C15.9737 15.956 15.464 16.7326 14.847 16.7861C15.1958 15.7954 15.4372 14.7243 15.5713 13.68C15.8127 13.7603 15.9469 13.921 16.0542 14.0548C16.2419 14.3762 16.2956 14.8046 16.1883 15.1795ZM2.31974 15.1795C2.21244 14.7778 2.26609 14.3762 2.48069 14.0548C2.56116 13.921 2.72211 13.7603 2.96354 13.68C3.07084 14.751 3.31226 15.7954 3.68781 16.7861C3.04401 16.7326 2.56116 15.956 2.31974 15.1795ZM9.26742 21.7399C5.91429 21.7399 3.28544 16.7058 3.28544 12.3946L3.33909 10.9219C6.02159 11.0826 8.89187 9.10104 10.0185 8.19062C10.1795 8.05673 10.3941 8.08351 10.5282 8.24417C11.628 9.47593 13.6131 11.4842 15.1421 11.6181L15.2226 12.3679C15.2226 16.7058 12.6205 21.7399 9.26742 21.7399ZM8.70409 16.9736C8.65044 16.8932 8.62362 16.7326 8.73092 16.5451C9.02599 16.0631 9.32107 14.9653 9.32107 14.9385C9.34789 14.8582 9.42837 14.8046 9.50884 14.8314C9.58932 14.8582 9.64297 14.9385 9.61614 15.0188C9.61614 15.0724 9.32107 16.197 8.99917 16.7058C8.94552 16.7861 8.97234 16.8129 8.97234 16.8129C9.02599 16.9468 9.42837 17.0271 9.66979 17.0539C9.75027 17.0539 9.83074 17.1342 9.80392 17.2146C9.80392 17.2949 9.72344 17.3484 9.64297 17.3484C9.64297 17.3484 9.64297 17.3484 9.61614 17.3484C9.53567 17.402 8.86504 17.3217 8.70409 16.9736ZM5.19002 12.475C4.89494 12.5285 4.62669 12.6356 4.38526 12.7963C4.59986 12.5821 4.86812 12.4482 5.13637 12.3411C5.43144 12.234 5.72652 12.1804 6.02159 12.1537C6.31667 12.1269 6.63857 12.1537 6.96047 12.2072C7.28237 12.2608 7.57744 12.3679 7.87252 12.6089C7.97982 12.6892 8.00664 12.8766 7.92617 12.9837C7.84569 13.0909 7.65792 13.1176 7.55062 13.0373L7.52379 13.0105C7.47014 12.9302 7.36284 12.8766 7.28237 12.8231C7.14824 12.7428 7.01412 12.6624 6.87999 12.6089C6.61174 12.5018 6.34349 12.4482 6.04842 12.4482C5.75334 12.3946 5.45827 12.4214 5.19002 12.475ZM10.6355 13.0105C10.5282 12.9034 10.5282 12.7428 10.6087 12.6356L10.6355 12.6089C10.9306 12.3946 11.2256 12.2875 11.5475 12.2072C11.8694 12.1537 12.1645 12.1269 12.4864 12.1537C12.7815 12.1804 13.1034 12.234 13.3716 12.3411C13.6667 12.4482 13.935 12.5821 14.1227 12.7963C13.8813 12.6089 13.6131 12.5285 13.318 12.475C13.0229 12.4214 12.7547 12.4214 12.4596 12.4214C12.1645 12.4482 11.8963 12.5018 11.628 12.5821C11.5207 12.6624 11.3866 12.716 11.2525 12.7963C11.172 12.8499 11.0647 12.9302 11.011 12.9837C10.9037 13.1176 10.7428 13.1176 10.6355 13.0105ZM11.0647 18.7141C11.0647 18.9015 10.8233 19.0086 10.4745 19.0622V19.089C10.4745 19.5174 9.69662 19.5977 9.24059 19.5977C8.78457 19.5977 8.00664 19.5442 8.00664 19.089V19.0622C7.68474 19.0086 7.41649 18.9015 7.41649 18.7141C7.41649 18.6337 7.49697 18.5534 7.57744 18.5534C7.65792 18.5534 7.71157 18.607 7.73839 18.6605C7.79204 18.6873 7.87252 18.7141 8.03347 18.7409C8.06029 18.7141 8.08712 18.6873 8.11394 18.6605L8.62362 18.4195C8.65044 18.4195 8.67727 18.3928 8.70409 18.3928C8.91869 18.3928 9.10647 18.4463 9.24059 18.5266C9.37472 18.4463 9.56249 18.3928 9.77709 18.3928C9.80392 18.3928 9.83074 18.3928 9.85757 18.4195L10.3672 18.6605C10.3941 18.6873 10.4209 18.6873 10.4477 18.7409C10.5818 18.7141 10.6891 18.6873 10.7428 18.6605C10.7696 18.607 10.8233 18.5534 10.9037 18.5534C10.9842 18.5534 11.0647 18.6337 11.0647 18.7141ZM7.12142 14.6172C7.06777 14.6172 7.01412 14.6439 6.96047 14.6439C7.01412 14.6975 7.04094 14.7778 7.06777 14.8046C7.12142 14.8582 7.12142 14.9385 7.09459 14.992C7.06777 15.0188 7.04094 15.0456 6.98729 15.0456C6.96047 15.0456 6.93364 15.0456 6.90682 15.0188C6.82634 14.9385 6.71904 14.8046 6.66539 14.6975C6.58492 14.6975 6.53127 14.6975 6.45079 14.6975V14.992C6.45079 15.0724 6.39714 15.1259 6.31667 15.1259C6.23619 15.1259 6.18254 15.0724 6.18254 14.992V14.6975C6.10207 14.6975 6.04842 14.6975 5.96794 14.6975C5.91429 14.8046 5.80699 14.9385 5.72652 15.0188C5.69969 15.0456 5.67287 15.0456 5.64604 15.0456C5.61922 15.0456 5.56557 15.0188 5.53874 14.992C5.48509 14.9385 5.51192 14.8582 5.56557 14.8046C5.59239 14.7778 5.64604 14.7243 5.67287 14.6439C5.61922 14.6439 5.56557 14.6172 5.51192 14.6172C5.43144 14.6707 5.27049 14.7778 5.13637 14.8314C5.10954 14.8314 5.10954 14.8314 5.08272 14.8314C5.02907 14.8314 4.97542 14.8046 4.94859 14.751C4.92177 14.6707 4.97542 14.6172 5.02907 14.5904C5.05589 14.5904 5.10954 14.5636 5.16319 14.5368C5.00224 14.4565 4.92177 14.3494 4.92177 14.2155C4.92177 14.1352 5.00224 14.0548 5.08272 14.0548C5.16319 14.0548 5.24367 14.1352 5.24367 14.2155C5.27049 14.2691 5.64604 14.4029 6.31667 14.4029C6.98729 14.4029 7.33602 14.2423 7.38967 14.1887C7.38967 14.1084 7.47014 14.0281 7.55062 14.0281C7.63109 14.0281 7.71157 14.1084 7.71157 14.1887C7.71157 14.3226 7.60427 14.4297 7.47014 14.51C7.52379 14.5368 7.55062 14.5636 7.60427 14.5636C7.68474 14.5904 7.71157 14.6707 7.68474 14.7243C7.65792 14.7778 7.60427 14.8046 7.55062 14.8046C7.52379 14.8046 7.52379 14.8046 7.49697 14.8046C7.36284 14.7778 7.20189 14.6975 7.12142 14.6172ZM12.2182 15.1259C12.1377 15.1259 12.084 15.0724 12.084 14.992V14.6975C12.0036 14.6975 11.9499 14.6975 11.8694 14.6975C11.8158 14.8046 11.7085 14.9385 11.628 15.0188C11.6012 15.0456 11.5744 15.0456 11.5475 15.0456C11.5207 15.0456 11.4671 15.0188 11.4402 14.992C11.3866 14.9385 11.4134 14.8582 11.4671 14.8046C11.4939 14.7778 11.5475 14.7243 11.5744 14.6439C11.5207 14.6439 11.4671 14.6172 11.4134 14.6172C11.3329 14.6707 11.172 14.7778 11.0379 14.8314C11.011 14.8314 11.011 14.8314 10.9842 14.8314C10.9306 14.8314 10.8769 14.8046 10.8501 14.751C10.8233 14.6707 10.8769 14.6172 10.9306 14.5904C10.9574 14.5904 11.011 14.5636 11.0647 14.5368C10.9037 14.4565 10.8233 14.3494 10.8233 14.2155C10.8233 14.1352 10.9037 14.0548 10.9842 14.0548C11.0647 14.0548 11.1452 14.1084 11.1452 14.1887C11.1988 14.2691 11.5744 14.4029 12.2182 14.4029C12.8888 14.4029 13.2375 14.2423 13.2912 14.1887C13.2912 14.1084 13.3716 14.0281 13.4521 14.0281C13.5326 14.0281 13.6131 14.1084 13.6131 14.1887C13.6131 14.3226 13.5058 14.4297 13.3716 14.51C13.4253 14.5368 13.4521 14.5636 13.5058 14.5636C13.5862 14.5904 13.6131 14.6707 13.5862 14.7243C13.5594 14.7778 13.5058 14.8046 13.4521 14.8046C13.4253 14.8046 13.4253 14.8046 13.3985 14.8046C13.2912 14.7778 13.1302 14.6707 13.0229 14.5904C12.9693 14.5904 12.9156 14.6172 12.862 14.6172C12.9156 14.6707 12.9424 14.751 12.9693 14.7778C13.0229 14.8314 13.0229 14.9117 12.9961 14.9653C12.9693 14.992 12.9424 15.0188 12.8888 15.0188C12.862 15.0188 12.8351 15.0188 12.8083 14.992C12.7278 14.9117 12.6205 14.7778 12.5669 14.6707C12.4864 14.6707 12.4328 14.6707 12.3523 14.6707V14.9653C12.3523 15.0724 12.2718 15.1259 12.2182 15.1259ZM13.1302 15.8757C13.1302 16.0096 13.0229 16.1167 12.8888 16.1167C12.7547 16.1167 12.6474 16.0096 12.6474 15.8757C12.6474 15.7418 12.7547 15.6347 12.8888 15.6347C13.0229 15.6347 13.1302 15.7418 13.1302 15.8757ZM14.0154 15.5276C14.0154 15.6347 13.9081 15.7418 13.8008 15.7418C13.6935 15.7418 13.5862 15.6347 13.5862 15.5276C13.5862 15.4205 13.6935 15.3134 13.8008 15.3134C13.9081 15.3134 14.0154 15.3937 14.0154 15.5276Z" stroke="black" stroke-width="1.17736" mask="url(#path-1-inside-1_594_11070)"/>
<path d="M17.8514 25.1406L12.8888 23.6679C12.4864 23.5608 12.1913 23.0788 12.1913 22.5432V20.9366C13.2375 20.0529 14.0959 18.7141 14.6861 17.2146C14.7129 17.2146 14.7129 17.2146 14.7397 17.2146C15.625 17.2146 16.2956 16.2773 16.5638 15.3134C16.698 14.8582 16.6443 14.3494 16.4297 13.9745C16.8053 13.1444 16.993 12.234 16.993 11.2432V10.547C16.993 9.7437 16.8857 9.02071 16.7248 8.35128C16.6711 8.11029 16.5907 7.86929 16.5102 7.65507C15.8395 5.70033 14.6592 4.28114 13.1839 3.5046C12.7815 1.71052 11.172 0.398438 9.26742 0.398438C7.36284 0.398438 5.75334 1.71052 5.32414 3.5046C3.82194 4.25436 2.64164 5.67356 1.97101 7.6283C1.89054 7.84251 1.83689 8.08351 1.75641 8.3245C1.59546 8.99394 1.51499 9.69014 1.48816 10.5202V11.2164C1.48816 12.1804 1.70276 13.1176 2.05149 13.9477C1.83689 14.3494 1.78324 14.8314 1.91736 15.2866C2.18561 16.2506 2.85624 17.1878 3.74146 17.1878C3.76829 17.1878 3.76829 17.1878 3.79511 17.1878C4.38526 18.6873 5.24367 20.0262 6.28984 20.9098V22.5164C6.28984 23.052 5.99477 23.5072 5.59239 23.6411L0.656586 25.1406C0.549286 25.1674 0.495636 25.2745 0.522461 25.3816C0.549286 25.4619 0.629761 25.5155 0.710236 25.5155C0.737061 25.5155 0.737061 25.5155 0.763886 25.5155L5.72652 24.0428C6.28984 23.8821 6.69222 23.2662 6.69222 22.5432V21.2579C7.47014 21.8202 8.32854 22.1416 9.24059 22.1416C10.1526 22.1416 11.011 21.8202 11.789 21.2579V22.5432C11.789 23.2662 12.1913 23.8821 12.7547 24.0428L17.7173 25.5155C17.7441 25.5155 17.7441 25.5155 17.771 25.5155C17.8514 25.5155 17.9319 25.4619 17.9587 25.3816C18.0124 25.2745 17.9587 25.1674 17.8514 25.1406ZM16.1883 15.1795C15.9737 15.956 15.464 16.7326 14.847 16.7861C15.1958 15.7954 15.4372 14.7243 15.5713 13.68C15.8127 13.7603 15.9469 13.921 16.0542 14.0548C16.2419 14.3762 16.2956 14.8046 16.1883 15.1795ZM2.31974 15.1795C2.21244 14.7778 2.26609 14.3762 2.48069 14.0548C2.56116 13.921 2.72211 13.7603 2.96354 13.68C3.07084 14.751 3.31226 15.7954 3.68781 16.7861C3.04401 16.7326 2.56116 15.956 2.31974 15.1795ZM9.26742 21.7399C5.91429 21.7399 3.28544 16.7058 3.28544 12.3946L3.33909 10.9219C6.02159 11.0826 8.89187 9.10104 10.0185 8.19062C10.1795 8.05673 10.3941 8.08351 10.5282 8.24417C11.628 9.47593 13.6131 11.4842 15.1421 11.6181L15.2226 12.3679C15.2226 16.7058 12.6205 21.7399 9.26742 21.7399ZM8.70409 16.9736C8.65044 16.8932 8.62362 16.7326 8.73092 16.5451C9.02599 16.0631 9.32107 14.9653 9.32107 14.9385C9.34789 14.8582 9.42837 14.8046 9.50884 14.8314C9.58932 14.8582 9.64297 14.9385 9.61614 15.0188C9.61614 15.0724 9.32107 16.197 8.99917 16.7058C8.94552 16.7861 8.97234 16.8129 8.97234 16.8129C9.02599 16.9468 9.42837 17.0271 9.66979 17.0539C9.75027 17.0539 9.83074 17.1342 9.80392 17.2146C9.80392 17.2949 9.72344 17.3484 9.64297 17.3484C9.64297 17.3484 9.64297 17.3484 9.61614 17.3484C9.53567 17.402 8.86504 17.3217 8.70409 16.9736ZM5.19002 12.475C4.89494 12.5285 4.62669 12.6356 4.38526 12.7963C4.59986 12.5821 4.86812 12.4482 5.13637 12.3411C5.43144 12.234 5.72652 12.1804 6.02159 12.1537C6.31667 12.1269 6.63857 12.1537 6.96047 12.2072C7.28237 12.2608 7.57744 12.3679 7.87252 12.6089C7.97982 12.6892 8.00664 12.8766 7.92617 12.9837C7.84569 13.0909 7.65792 13.1176 7.55062 13.0373L7.52379 13.0105C7.47014 12.9302 7.36284 12.8766 7.28237 12.8231C7.14824 12.7428 7.01412 12.6624 6.87999 12.6089C6.61174 12.5018 6.34349 12.4482 6.04842 12.4482C5.75334 12.3946 5.45827 12.4214 5.19002 12.475ZM10.6355 13.0105C10.5282 12.9034 10.5282 12.7428 10.6087 12.6356L10.6355 12.6089C10.9306 12.3946 11.2256 12.2875 11.5475 12.2072C11.8694 12.1537 12.1645 12.1269 12.4864 12.1537C12.7815 12.1804 13.1034 12.234 13.3716 12.3411C13.6667 12.4482 13.935 12.5821 14.1227 12.7963C13.8813 12.6089 13.6131 12.5285 13.318 12.475C13.0229 12.4214 12.7547 12.4214 12.4596 12.4214C12.1645 12.4482 11.8963 12.5018 11.628 12.5821C11.5207 12.6624 11.3866 12.716 11.2525 12.7963C11.172 12.8499 11.0647 12.9302 11.011 12.9837C10.9037 13.1176 10.7428 13.1176 10.6355 13.0105ZM11.0647 18.7141C11.0647 18.9015 10.8233 19.0086 10.4745 19.0622V19.089C10.4745 19.5174 9.69662 19.5977 9.24059 19.5977C8.78457 19.5977 8.00664 19.5442 8.00664 19.089V19.0622C7.68474 19.0086 7.41649 18.9015 7.41649 18.7141C7.41649 18.6337 7.49697 18.5534 7.57744 18.5534C7.65792 18.5534 7.71157 18.607 7.73839 18.6605C7.79204 18.6873 7.87252 18.7141 8.03347 18.7409C8.06029 18.7141 8.08712 18.6873 8.11394 18.6605L8.62362 18.4195C8.65044 18.4195 8.67727 18.3928 8.70409 18.3928C8.91869 18.3928 9.10647 18.4463 9.24059 18.5266C9.37472 18.4463 9.56249 18.3928 9.77709 18.3928C9.80392 18.3928 9.83074 18.3928 9.85757 18.4195L10.3672 18.6605C10.3941 18.6873 10.4209 18.6873 10.4477 18.7409C10.5818 18.7141 10.6891 18.6873 10.7428 18.6605C10.7696 18.607 10.8233 18.5534 10.9037 18.5534C10.9842 18.5534 11.0647 18.6337 11.0647 18.7141ZM7.12142 14.6172C7.06777 14.6172 7.01412 14.6439 6.96047 14.6439C7.01412 14.6975 7.04094 14.7778 7.06777 14.8046C7.12142 14.8582 7.12142 14.9385 7.09459 14.992C7.06777 15.0188 7.04094 15.0456 6.98729 15.0456C6.96047 15.0456 6.93364 15.0456 6.90682 15.0188C6.82634 14.9385 6.71904 14.8046 6.66539 14.6975C6.58492 14.6975 6.53127 14.6975 6.45079 14.6975V14.992C6.45079 15.0724 6.39714 15.1259 6.31667 15.1259C6.23619 15.1259 6.18254 15.0724 6.18254 14.992V14.6975C6.10207 14.6975 6.04842 14.6975 5.96794 14.6975C5.91429 14.8046 5.80699 14.9385 5.72652 15.0188C5.69969 15.0456 5.67287 15.0456 5.64604 15.0456C5.61922 15.0456 5.56557 15.0188 5.53874 14.992C5.48509 14.9385 5.51192 14.8582 5.56557 14.8046C5.59239 14.7778 5.64604 14.7243 5.67287 14.6439C5.61922 14.6439 5.56557 14.6172 5.51192 14.6172C5.43144 14.6707 5.27049 14.7778 5.13637 14.8314C5.10954 14.8314 5.10954 14.8314 5.08272 14.8314C5.02907 14.8314 4.97542 14.8046 4.94859 14.751C4.92177 14.6707 4.97542 14.6172 5.02907 14.5904C5.05589 14.5904 5.10954 14.5636 5.16319 14.5368C5.00224 14.4565 4.92177 14.3494 4.92177 14.2155C4.92177 14.1352 5.00224 14.0548 5.08272 14.0548C5.16319 14.0548 5.24367 14.1352 5.24367 14.2155C5.27049 14.2691 5.64604 14.4029 6.31667 14.4029C6.98729 14.4029 7.33602 14.2423 7.38967 14.1887C7.38967 14.1084 7.47014 14.0281 7.55062 14.0281C7.63109 14.0281 7.71157 14.1084 7.71157 14.1887C7.71157 14.3226 7.60427 14.4297 7.47014 14.51C7.52379 14.5368 7.55062 14.5636 7.60427 14.5636C7.68474 14.5904 7.71157 14.6707 7.68474 14.7243C7.65792 14.7778 7.60427 14.8046 7.55062 14.8046C7.52379 14.8046 7.52379 14.8046 7.49697 14.8046C7.36284 14.7778 7.20189 14.6975 7.12142 14.6172ZM12.2182 15.1259C12.1377 15.1259 12.084 15.0724 12.084 14.992V14.6975C12.0036 14.6975 11.9499 14.6975 11.8694 14.6975C11.8158 14.8046 11.7085 14.9385 11.628 15.0188C11.6012 15.0456 11.5744 15.0456 11.5475 15.0456C11.5207 15.0456 11.4671 15.0188 11.4402 14.992C11.3866 14.9385 11.4134 14.8582 11.4671 14.8046C11.4939 14.7778 11.5475 14.7243 11.5744 14.6439C11.5207 14.6439 11.4671 14.6172 11.4134 14.6172C11.3329 14.6707 11.172 14.7778 11.0379 14.8314C11.011 14.8314 11.011 14.8314 10.9842 14.8314C10.9306 14.8314 10.8769 14.8046 10.8501 14.751C10.8233 14.6707 10.8769 14.6172 10.9306 14.5904C10.9574 14.5904 11.011 14.5636 11.0647 14.5368C10.9037 14.4565 10.8233 14.3494 10.8233 14.2155C10.8233 14.1352 10.9037 14.0548 10.9842 14.0548C11.0647 14.0548 11.1452 14.1084 11.1452 14.1887C11.1988 14.2691 11.5744 14.4029 12.2182 14.4029C12.8888 14.4029 13.2375 14.2423 13.2912 14.1887C13.2912 14.1084 13.3716 14.0281 13.4521 14.0281C13.5326 14.0281 13.6131 14.1084 13.6131 14.1887C13.6131 14.3226 13.5058 14.4297 13.3716 14.51C13.4253 14.5368 13.4521 14.5636 13.5058 14.5636C13.5862 14.5904 13.6131 14.6707 13.5862 14.7243C13.5594 14.7778 13.5058 14.8046 13.4521 14.8046C13.4253 14.8046 13.4253 14.8046 13.3985 14.8046C13.2912 14.7778 13.1302 14.6707 13.0229 14.5904C12.9693 14.5904 12.9156 14.6172 12.862 14.6172C12.9156 14.6707 12.9424 14.751 12.9693 14.7778C13.0229 14.8314 13.0229 14.9117 12.9961 14.9653C12.9693 14.992 12.9424 15.0188 12.8888 15.0188C12.862 15.0188 12.8351 15.0188 12.8083 14.992C12.7278 14.9117 12.6205 14.7778 12.5669 14.6707C12.4864 14.6707 12.4328 14.6707 12.3523 14.6707V14.9653C12.3523 15.0724 12.2718 15.1259 12.2182 15.1259ZM13.1302 15.8757C13.1302 16.0096 13.0229 16.1167 12.8888 16.1167C12.7547 16.1167 12.6474 16.0096 12.6474 15.8757C12.6474 15.7418 12.7547 15.6347 12.8888 15.6347C13.0229 15.6347 13.1302 15.7418 13.1302 15.8757ZM14.0154 15.5276C14.0154 15.6347 13.9081 15.7418 13.8008 15.7418C13.6935 15.7418 13.5862 15.6347 13.5862 15.5276C13.5862 15.4205 13.6935 15.3134 13.8008 15.3134C13.9081 15.3134 14.0154 15.3937 14.0154 15.5276Z" stroke="black" stroke-width="1.17736" mask="url(#path-1-inside-1_594_11070)"/>
</svg>
