<svg width="64" height="64" viewBox="0 0 64 64" fill="none" xmlns="http://www.w3.org/2000/svg">
<g id="Group 1000007789">
<g id="Ellipse 41">
<circle cx="32" cy="32" r="32" fill="white"/>
<circle cx="32" cy="32" r="31.5" stroke="#DCA822" stroke-opacity="0.07"/>
</g>
<g id="XMLID_925_">
<path id="XMLID_1014_" d="M25.3045 45.1093C31.988 45.1093 37.4061 39.6913 37.4061 33.0078C37.4061 26.3243 31.988 20.9062 25.3045 20.9062C18.621 20.9062 13.203 26.3243 13.203 33.0078C13.203 39.6913 18.621 45.1093 25.3045 45.1093Z" fill="#BCD8F2"/>
<g id="XMLID_926_">
<path id="XMLID_1011_" d="M33.9185 8.71045C33.9974 8.31576 34.3921 8 34.7868 8C35.0631 8 35.3394 8.11841 35.4973 8.35522C35.6551 8.59204 35.7341 8.86831 35.6551 9.14459L33.8001 17.2357H31.9451L33.9185 8.71045Z" fill="#526BB7"/>
<path id="XMLID_1010_" d="M49.2325 19.4019L34.2738 10.7188L33.6818 13.521L49.2325 22.5594V19.4019Z" fill="#C9C7CF"/>
<g id="XMLID_1001_">
<g id="XMLID_1006_">
<path id="XMLID_1007_" d="M31.7872 53.0339C31.2741 53.3496 30.6031 53.3496 30.09 53.0339C29.8138 52.876 29.6559 52.5997 29.6559 52.284C29.6559 51.9682 29.8138 51.692 30.09 51.5341L39.9178 45.6532C40.2335 45.4559 40.4704 45.1401 40.5098 44.7849L41.536 37.6016L43.6673 37.9173L42.6411 45.2191C42.5227 46.1663 41.9702 46.9952 41.1413 47.4688L31.7872 53.0339Z" fill="#5A5961"/>
</g>
<path id="XMLID_1005_" d="M33.1416 55.0421C34.0494 55.3515 35.1159 54.6323 35.5238 53.4356C35.9317 52.239 35.5264 51.0181 34.6186 50.7087C33.7108 50.3993 32.6442 51.1185 32.2364 52.3152C31.8285 53.5118 32.2338 54.7327 33.1416 55.0421Z" fill="#5A5961"/>
<path id="XMLID_1004_" d="M33.6395 53.5793C33.949 53.6848 34.3082 53.4525 34.4418 53.0605C34.5754 52.6685 34.4328 52.2652 34.1233 52.1597C33.8139 52.0543 33.4547 52.2865 33.3211 52.6785C33.1875 53.0705 33.33 53.4738 33.6395 53.5793Z" fill="#DBD9DE"/>
<path id="XMLID_1003_" d="M39.53 51.5265C40.4378 51.8359 41.5044 51.1167 41.9122 49.92C42.3201 48.7234 41.9148 47.5025 41.007 47.1931C40.0992 46.8836 39.0326 47.6029 38.6248 48.7995C38.2169 49.9962 38.6222 51.2171 39.53 51.5265Z" fill="#5A5961"/>
<path id="XMLID_1002_" d="M40.0273 50.0715C40.3368 50.177 40.696 49.9447 40.8296 49.5527C40.9632 49.1607 40.8206 48.7574 40.5112 48.6519C40.2017 48.5464 39.8425 48.7787 39.7089 49.1707C39.5753 49.5627 39.7178 49.966 40.0273 50.0715Z" fill="#DBD9DE"/>
</g>
<g id="XMLID_992_">
<g id="XMLID_997_">
<path id="XMLID_998_" d="M25.7485 49.2839C25.2354 49.5996 24.5644 49.5996 24.0513 49.2839C23.7751 49.126 23.6172 48.8497 23.6172 48.534C23.6172 48.2182 23.7751 47.942 24.0513 47.7841L33.8791 41.9032C34.1948 41.7059 34.4317 41.3901 34.4711 41.0349L35.4973 33.8516L37.6286 34.1673L36.6024 41.4691C36.484 42.4163 35.9315 43.2452 35.1026 43.7188L25.7485 49.2839Z" fill="#5A5961"/>
</g>
<path id="XMLID_996_" d="M27.103 51.2921C28.0108 51.6015 29.0774 50.8823 29.4852 49.6856C29.8931 48.489 29.4878 47.2681 28.58 46.9587C27.6722 46.6493 26.6056 47.3685 26.1978 48.5652C25.7899 49.7618 26.1952 50.9827 27.103 51.2921Z" fill="#5A5961"/>
<path id="XMLID_995_" d="M27.5993 49.8293C27.9088 49.9348 28.268 49.7025 28.4016 49.3105C28.5352 48.9185 28.3927 48.5152 28.0832 48.4097C27.7737 48.3043 27.4145 48.5365 27.2809 48.9285C27.1473 49.3205 27.2899 49.7238 27.5993 49.8293Z" fill="#DBD9DE"/>
<path id="XMLID_994_" d="M33.4927 47.7765C34.4005 48.0859 35.467 47.3667 35.8749 46.17C36.2827 44.9734 35.8775 43.7525 34.9697 43.4431C34.0618 43.1336 32.9953 43.8529 32.5874 45.0495C32.1796 46.2462 32.5849 47.4671 33.4927 47.7765Z" fill="#5A5961"/>
<path id="XMLID_993_" d="M33.984 46.3215C34.2935 46.427 34.6527 46.1947 34.7863 45.8027C34.9199 45.4107 34.7773 45.0074 34.4678 44.9019C34.1584 44.7964 33.7992 45.0287 33.6655 45.4207C33.5319 45.8127 33.6745 46.216 33.984 46.3215Z" fill="#DBD9DE"/>
</g>
<path id="XMLID_991_" d="M34.2737 15.5L13 27.538L17.3416 42.8519L34.2737 33.0242V15.5Z" fill="#4C6CB8"/>
<path id="XMLID_990_" d="M34.2737 15.5L49.4692 24.2621L46.1933 38.7472L34.2737 33.0242V15.5Z" fill="#5A80C4"/>
<g id="XMLID_984_">
<path id="XMLID_989_" d="M35.8525 29.6328L24.2881 36.3425V42.9338L35.8525 36.2636V29.6328Z" fill="#DBCFBE"/>
<path id="XMLID_988_" d="M17.46 32.3906L24.2881 36.3375V42.9288L17.46 38.9819V32.3906Z" fill="#C2AF93"/>
<path id="XMLID_987_" d="M17.46 32.3894L24.2881 36.3363L35.8524 29.6266L29.0638 25.6797L17.46 32.3894Z" fill="#EADFD0"/>
<path id="XMLID_986_" d="M21.6436 34.8008L19.6702 33.6562V36.3401L19.907 36.3007L20.1833 36.6164H20.499L20.8148 36.9716H21.2095L21.6436 37.4847V34.8008Z" fill="#A88D68"/>
<path id="XMLID_985_" d="M21.6436 34.7996L19.6702 33.655L31.2345 26.9453L33.208 28.0899L21.6436 34.7996Z" fill="#B59E7F"/>
</g>
<g id="XMLID_978_">
<path id="XMLID_983_" d="M46.8249 29.1875L37.6681 34.4763V41.1071L46.8249 35.8183V29.1875Z" fill="#DBCFBE"/>
<path id="XMLID_982_" d="M30.84 30.5312L37.6681 34.4781V41.1089L30.84 37.162V30.5312Z" fill="#C2AF93"/>
<path id="XMLID_981_" d="M46.8249 26.3858L42.4438 23.8203L30.84 30.53L37.6681 34.4769L46.8249 29.1881V26.3858Z" fill="#EADFD0"/>
<path id="XMLID_980_" d="M35.0236 32.9809L33.0502 31.7969V34.4808L33.287 34.4413L33.5633 34.7965H33.879L34.1948 35.1517H34.5895L35.0236 35.6648V32.9809Z" fill="#A88D68"/>
<path id="XMLID_979_" d="M35.0236 32.9797L33.0502 31.7956L44.6145 25.0859L46.588 26.27L35.0236 32.9797Z" fill="#B59E7F"/>
</g>
<g id="XMLID_964_">
<path id="XMLID_977_" d="M42.049 17.8672L36.7207 20.9852V27.1818L42.049 24.0638V17.8672Z" fill="#E7981D"/>
<path id="XMLID_976_" d="M42.8384 17.4739L36.7207 20.9866V18.9737L42.8384 15.4609V17.4739Z" fill="#EFA635"/>
<path id="XMLID_975_" d="M30.4452 17.3957L36.7207 20.9874V18.9745L30.4452 15.3828V17.3957Z" fill="#E1981F"/>
<path id="XMLID_974_" d="M31.3135 17.8672L36.7207 20.9852V27.1818L31.3135 24.0638V17.8672Z" fill="#C77725"/>
<path id="XMLID_973_" d="M30.4452 15.3795L36.7207 18.9712L42.8384 15.4584L36.7207 11.9062L30.4452 15.3795Z" fill="#F2B557"/>
<path id="XMLID_972_" d="M40.0361 25.2091L38.8521 25.8801V17.71L40.0361 17.0391V25.2091Z" fill="#E55E3D"/>
<path id="XMLID_971_" d="M33.9184 13.4062L32.7344 14.0772L38.852 17.7084L40.0361 17.0374L33.9184 13.4062Z" fill="#E87552"/>
<path id="XMLID_970_" d="M34.2737 25.7633L33.0896 25.0923V16.8828L34.2737 17.5538V25.7633Z" fill="#E55E3D"/>
<path id="XMLID_969_" d="M40.5097 14.1167L39.3257 13.4062L33.0896 16.8795L34.2737 17.5505L40.5097 14.1167Z" fill="#E17551"/>
<path id="XMLID_968_" d="M40.5097 11.6641L37.1943 15.9267L40.5097 14.1111V11.6641Z" fill="#DE5E39"/>
<path id="XMLID_967_" d="M37.1944 15.932L36.405 15.4189L39.6809 11.1562L40.5098 11.6694L37.1944 15.932Z" fill="#CD512F"/>
<path id="XMLID_966_" d="M37.1944 15.9267L34.2737 17.5449V14.7031L37.1944 15.9267Z" fill="#DE5E39"/>
<path id="XMLID_965_" d="M34.2737 14.71L33.0896 14.0391V16.8808L34.2737 17.5518V14.71Z" fill="#D45233"/>
</g>
<g id="XMLID_958_">
<path id="XMLID_963_" d="M34.7867 21.8594L23.1829 28.5691V35.1998L34.7867 28.4901V21.8594Z" fill="#DBCFBE"/>
<path id="XMLID_962_" d="M16.3943 24.6172L23.1829 28.5641V35.1948L16.3943 31.248V24.6172Z" fill="#C2AF93"/>
<path id="XMLID_961_" d="M16.3943 24.616L23.1829 28.5628L34.7868 21.8531L27.9981 17.9062L16.3943 24.616Z" fill="#EADFD0"/>
<path id="XMLID_960_" d="M20.5385 27.0274L18.6045 25.8828V28.5667L18.8413 28.5272L19.1176 28.8824H19.4333L19.7491 29.2377L20.1043 29.1982L20.5385 29.7113V27.0274Z" fill="#A88D68"/>
<path id="XMLID_959_" d="M20.5385 27.0262L18.6045 25.8816L30.1689 19.1719L32.1423 20.3559L20.5385 27.0262Z" fill="#B59E7F"/>
</g>
<path id="XMLID_957_" d="M37.1549 20.9843L36.7602 20.2344L29.498 24.4181L28.5112 37.0876H30.5636L32.1029 38.0743L40.6282 33.2591L39.4046 21.2211L37.1549 20.9843Z" fill="#8E361E"/>
<path id="XMLID_956_" d="M40.6282 33.2646L32.1029 38.0798V25.4103L39.4046 21.2266L40.6282 33.2646Z" fill="#D85D36"/>
<path id="XMLID_951_" d="M30.5636 37.0914L32.1029 38.0781V25.4086L30.5636 24.4219V37.0914Z" fill="#A74929"/>
<path id="XMLID_947_" d="M30.5636 37.0914H28.5112L29.498 24.4219H30.5636V37.0914Z" fill="#D85D36"/>
<g id="XMLID_936_">
<path id="XMLID_937_" d="M36.4445 29.1938C35.8525 29.549 35.1421 29.549 34.55 29.1938C33.958 28.8385 33.6028 28.207 33.6028 27.5361V25.9573L34.4711 25.4442V27.4571C34.4711 27.8518 34.6684 28.207 35.0237 28.3649C35.3394 28.5623 35.7736 28.5623 36.0893 28.3649C36.7998 27.9702 37.2339 27.1809 37.2339 26.352V23.7865L38.1022 23.2734V26.2731C38.1022 27.5361 37.4707 28.6017 36.4445 29.1938Z" fill="#F8E05B"/>
</g>
<path id="XMLID_933_" d="M13 27.5391L28.5113 36.3801V49.0891L17.3021 42.8135L13 27.5391Z" fill="#5A80C4"/>
<path id="XMLID_931_" d="M49.4692 24.2656L28.5112 36.3826V49.0915L46.1933 38.7507L49.4692 24.2656Z" fill="#779FD6"/>
<path id="XMLID_927_" d="M49.2324 17.4761C49.3508 17.0814 49.706 16.7656 50.1007 16.7656C50.377 16.7656 50.6533 16.884 50.8112 17.1208C50.969 17.3577 51.048 17.6339 50.969 17.9102L49.0745 25.725H47.2195L49.2324 17.4761Z" fill="#7C9FD5"/>
</g>
</g>
</g>
</svg>
