<svg width="20" height="20" viewBox="0 0 20 20" fill="none" xmlns="http://www.w3.org/2000/svg">
<g id="fluent:ios-arrow-24-filled">
<path id="Vector" d="M9.39405 3.07401C9.31887 2.99445 9.26009 2.90086 9.22108 2.79859C9.18207 2.69631 9.16358 2.58736 9.16668 2.47794C9.16977 2.36852 9.19439 2.26078 9.23912 2.16088C9.28385 2.06097 9.34783 1.97086 9.42738 1.89568C9.50694 1.82049 9.60053 1.76172 9.70281 1.72271C9.80508 1.68369 9.91404 1.66521 10.0235 1.6683C10.1329 1.6714 10.2406 1.69601 10.3405 1.74075C10.4404 1.78548 10.5305 1.84945 10.6057 1.92901L17.6891 9.42901C17.8353 9.58373 17.9168 9.78858 17.9168 10.0015C17.9168 10.2144 17.8353 10.4193 17.6891 10.574L10.6057 18.0748C10.531 18.1561 10.4409 18.2218 10.3407 18.268C10.2404 18.3142 10.1319 18.34 10.0216 18.3439C9.91129 18.3478 9.80128 18.3298 9.69798 18.2908C9.59468 18.2519 9.50015 18.1928 9.41989 18.117C9.33962 18.0412 9.27521 17.9502 9.23041 17.8493C9.1856 17.7484 9.16129 17.6396 9.15889 17.5292C9.15649 17.4189 9.17604 17.3091 9.21641 17.2064C9.25678 17.1036 9.31716 17.0099 9.39405 16.9307L15.9374 10.0015L9.39405 3.07401Z" fill="black"/>
</g>
</svg>
