<svg width="48.666016" height="48.666992" viewBox="0 0 48.666 48.667" fill="none" xmlns="http://www.w3.org/2000/svg" xmlns:xlink="http://www.w3.org/1999/xlink">
	<desc>
			Created with Pixso.
	</desc>
	<defs/>
	<path id="Vector" d="M24.2109 38.9336C25.0625 38.9336 25.7832 38.6396 26.3711 38.0508C26.959 37.4629 27.2539 36.7432 27.2539 35.8916C27.2539 35.04 26.959 34.3203 26.3711 33.7324C25.7832 33.1436 25.0625 32.8496 24.2109 32.8496C23.3594 32.8496 22.6406 33.1436 22.0527 33.7324C21.4648 34.3203 21.1699 35.04 21.1699 35.8916C21.1699 36.7432 21.4648 37.4629 22.0527 38.0508C22.6406 38.6396 23.3594 38.9336 24.2109 38.9336ZM22.0215 29.5654L26.5234 29.5654C26.5234 28.2266 26.6758 27.1719 26.9805 26.4014C27.2832 25.6309 28.1465 24.5771 29.5645 23.2383C30.6191 22.1836 31.4512 21.1797 32.0586 20.2275C32.668 19.2744 32.9707 18.1279 32.9707 16.79C32.9707 14.5186 32.1406 12.7754 30.4766 11.5586C28.8145 10.3418 26.8477 9.7334 24.5762 9.7334C22.2656 9.7334 20.3887 10.3418 18.9492 11.5586C17.5098 12.7754 16.5059 14.2354 15.9375 15.9385L19.9531 17.5195C20.1562 16.79 20.6133 15.999 21.3223 15.1475C22.0312 14.2959 23.1172 13.8701 24.5762 13.8701C25.875 13.8701 26.8477 14.2246 27.4961 14.9346C28.1465 15.6445 28.4707 16.4248 28.4707 17.2764C28.4707 18.0879 28.2266 18.8486 27.7402 19.5576C27.2539 20.2676 26.6445 20.9268 25.9141 21.5352C24.1309 23.1162 23.0352 24.3135 22.6309 25.124C22.2246 25.9355 22.0215 27.416 22.0215 29.5654ZM24.334 48.667C20.9668 48.667 17.8047 48.0283 14.8438 46.75C11.8828 45.4727 9.30664 43.7393 7.11719 41.5488C4.92773 39.3594 3.19336 36.7842 1.91602 33.8232C0.638672 30.8623 0 27.6992 0 24.333C0 20.9668 0.638672 17.8037 1.91602 14.8438C3.19336 11.8828 4.92773 9.30762 7.11719 7.11719C9.30664 4.92773 11.8828 3.19336 14.8438 1.91602C17.8047 0.638672 20.9668 0 24.334 0C27.6992 0 30.8633 0.638672 33.8242 1.91602C36.7832 3.19336 39.3594 4.92773 41.5488 7.11719C43.7383 9.30762 45.4727 11.8828 46.75 14.8438C48.0273 17.8037 48.666 20.9668 48.666 24.333C48.666 27.6992 48.0273 30.8623 46.75 33.8232C45.4727 36.7842 43.7383 39.3594 41.5488 41.5488C39.3594 43.7393 36.7832 45.4727 33.8242 46.75C30.8633 48.0283 27.6992 48.667 24.334 48.667ZM24.334 43.7998C29.7676 43.7998 34.3711 41.9141 38.1426 38.1426C41.9141 34.3711 43.8008 29.7676 43.8008 24.333C43.8008 18.8984 41.9141 14.2959 38.1426 10.5244C34.3711 6.75293 29.7676 4.86621 24.334 4.86621C18.8984 4.86621 14.2949 6.75293 10.5234 10.5244C6.75195 14.2959 4.86719 18.8984 4.86719 24.333C4.86719 29.7676 6.75195 34.3711 10.5234 38.1426C14.2949 41.9141 18.8984 43.7998 24.334 43.7998Z" fill="#000000" fill-opacity="0.500000" fill-rule="nonzero"/>
</svg>
