<svg width="18" height="18" viewBox="0 0 18 18" fill="none" xmlns="http://www.w3.org/2000/svg">
<path d="M4.5 13.85C4.7 13.85 4.875 13.775 5.025 13.625C5.175 13.475 5.25 13.3 5.25 13.1C5.25 12.9 5.175 12.725 5.025 12.575C4.875 12.425 4.7 12.35 4.5 12.35C4.3 12.35 4.125 12.425 3.975 12.575C3.825 12.725 3.75 12.9 3.75 13.1C3.75 13.3 3.825 13.475 3.975 13.625C4.125 13.775 4.3 13.85 4.5 13.85ZM4.5 9.75C4.7 9.75 4.875 9.675 5.025 9.525C5.175 9.375 5.25 9.2 5.25 9C5.25 8.8 5.175 8.625 5.025 8.475C4.875 8.325 4.7 8.25 4.5 8.25C4.3 8.25 4.125 8.325 3.975 8.475C3.825 8.625 3.75 8.8 3.75 9C3.75 9.2 3.825 9.375 3.975 9.525C4.125 9.675 4.3 9.75 4.5 9.75ZM4.5 5.65C4.7 5.65 4.875 5.575 5.025 5.425C5.175 5.275 5.25 5.1 5.25 4.9C5.25 4.7 5.175 4.525 5.025 4.375C4.875 4.225 4.7 4.15 4.5 4.15C4.3 4.15 4.125 4.225 3.975 4.375C3.825 4.525 3.75 4.7 3.75 4.9C3.75 5.1 3.825 5.275 3.975 5.425C4.125 5.575 4.3 5.65 4.5 5.65ZM8.55 13.85H13.15C13.3625 13.85 13.5406 13.7777 13.6844 13.6331C13.8281 13.4885 13.9 13.3094 13.9 13.0956C13.9 12.8819 13.8281 12.7042 13.6844 12.5625C13.5406 12.4208 13.3625 12.35 13.15 12.35H8.55C8.3375 12.35 8.15938 12.4223 8.01562 12.5669C7.87188 12.7115 7.8 12.8906 7.8 13.1044C7.8 13.3181 7.87188 13.4958 8.01562 13.6375C8.15938 13.7792 8.3375 13.85 8.55 13.85ZM8.55 9.75H13.15C13.3625 9.75 13.5406 9.67771 13.6844 9.53313C13.8281 9.38853 13.9 9.20936 13.9 8.99563C13.9 8.78188 13.8281 8.60417 13.6844 8.4625C13.5406 8.32083 13.3625 8.25 13.15 8.25H8.55C8.3375 8.25 8.15938 8.32229 8.01562 8.46688C7.87188 8.61147 7.8 8.79064 7.8 9.00437C7.8 9.21812 7.87188 9.39583 8.01562 9.5375C8.15938 9.67917 8.3375 9.75 8.55 9.75ZM8.55 5.65H13.15C13.3625 5.65 13.5406 5.57771 13.6844 5.43313C13.8281 5.28853 13.9 5.10936 13.9 4.89563C13.9 4.68188 13.8281 4.50417 13.6844 4.3625C13.5406 4.22083 13.3625 4.15 13.15 4.15H8.55C8.3375 4.15 8.15938 4.22229 8.01562 4.36687C7.87188 4.51147 7.8 4.69064 7.8 4.90437C7.8 5.11812 7.87188 5.29583 8.01562 5.4375C8.15938 5.57917 8.3375 5.65 8.55 5.65ZM1.5 18C1.1 18 0.75 17.85 0.45 17.55C0.15 17.25 0 16.9 0 16.5V1.5C0 1.1 0.15 0.75 0.45 0.45C0.75 0.15 1.1 0 1.5 0H16.5C16.9 0 17.25 0.15 17.55 0.45C17.85 0.75 18 1.1 18 1.5V16.5C18 16.9 17.85 17.25 17.55 17.55C17.25 17.85 16.9 18 16.5 18H1.5ZM1.5 16.5H16.5V1.5H1.5V16.5Z" fill="#767A7D"/>
</svg>
