<svg width="57" height="70" viewBox="0 0 57 70" fill="none" xmlns="http://www.w3.org/2000/svg">
<g id="Group 1000006131">
<path id="Vector" d="M30.1484 13.7059C29.921 13.7083 29.6954 13.666 29.4844 13.5812C29.2734 13.4965 29.0812 13.371 28.9187 13.212C28.7562 13.053 28.6266 12.8635 28.5373 12.6544C28.4481 12.4452 28.4009 12.2206 28.3984 11.9932C28.3984 5.36671 33.8863 0.000158424 40.6435 0.000158424C40.871 -0.00292385 41.0969 0.0389977 41.3082 0.123513C41.5195 0.208028 41.7119 0.33347 41.8746 0.492626C42.0372 0.651783 42.1668 0.841514 42.2558 1.05091C42.3449 1.26031 42.3916 1.48525 42.3935 1.71279C42.3935 8.33931 36.9103 13.7059 30.1484 13.7059Z" fill="black"/>
<path id="Vector_2" d="M30.1478 13.7059C29.9204 13.7083 29.6948 13.666 29.4838 13.5812C29.2728 13.4965 29.0806 13.371 28.9181 13.212C28.7556 13.053 28.626 12.8635 28.5367 12.6544C28.4475 12.4452 28.4003 12.2206 28.3978 11.9932C28.3978 5.36671 33.8857 0.000158424 40.6429 0.000158424C40.8704 -0.00292385 41.0963 0.0389977 41.3076 0.123513C41.5189 0.208028 41.7113 0.33347 41.874 0.492626C42.0366 0.651783 42.1661 0.841514 42.2552 1.05091C42.3442 1.26031 42.391 1.48525 42.3929 1.71279C42.3929 8.33931 36.9096 13.7059 30.1478 13.7059ZM55.6972 49.7831C56.3739 50.2777 56.5932 51.183 56.2106 51.9204C50.0507 63.9881 45.1368 69.9986 40.6476 69.9986C38.5569 69.9986 36.5036 69.336 34.5017 68.048C33.0648 67.1255 31.4009 66.6181 29.6937 66.5819C27.9866 66.5456 26.3026 66.982 24.8279 67.8427C22.4013 69.266 20.0913 69.9986 17.8981 69.9986C11.2949 69.9986 0.398438 50.0864 0.398438 39.162C0.398438 27.4956 6.64697 18.6011 16.1481 18.6011C20.6187 18.6011 24.4779 19.2451 27.7212 20.5564C29.0931 21.107 30.6471 21.0697 31.9864 20.4397C34.6184 19.1984 38.0903 18.6011 42.3929 18.6011C47.6521 18.6011 52.2393 21.1677 56.0472 26.1376C56.185 26.3168 56.2853 26.5219 56.3424 26.7406C56.3994 26.9593 56.412 27.1872 56.3794 27.4109C56.3468 27.6346 56.2696 27.8494 56.1524 28.0427C56.0352 28.236 55.8804 28.4038 55.6972 28.5362C51.446 31.6628 49.3974 35.1674 49.3974 39.162C49.3974 43.1519 51.446 46.6611 55.6972 49.7831Z" fill="black"/>
<path id="Vector_3" d="M55.6972 49.7835C56.3739 50.2782 56.5932 51.1835 56.2106 51.9208C50.0507 63.9886 45.1368 69.9991 40.6476 69.9991C38.5569 69.9991 36.5036 69.3364 34.5017 68.0485C33.0648 67.126 31.4009 66.6186 29.6937 66.5823C27.9866 66.5461 26.3026 66.9824 24.8279 67.8432C22.4013 69.2665 20.0913 69.9991 17.8981 69.9991C11.2949 69.9991 0.398438 50.0869 0.398438 39.1624C0.398438 27.496 6.64697 18.6016 16.1481 18.6016C20.6187 18.6016 24.4779 19.2455 27.7212 20.5569C29.0931 21.1075 30.6471 21.0702 31.9864 20.4402C34.6184 19.1989 38.0903 18.6016 42.3929 18.6016C47.6521 18.6016 52.2393 21.1682 56.0472 26.1381C56.185 26.3173 56.2853 26.5223 56.3424 26.741C56.3994 26.9598 56.412 27.1877 56.3794 27.4114C56.3468 27.635 56.2696 27.8499 56.1524 28.0432C56.0352 28.2365 55.8804 28.4043 55.6972 28.5367C51.446 31.6633 49.3974 35.1679 49.3974 39.1624C49.3974 43.1524 51.446 46.6616 55.6972 49.7835Z" fill="black"/>
</g>
</svg>
