<svg width="15" height="19" viewBox="0 0 15 19" fill="none" xmlns="http://www.w3.org/2000/svg">
<path d="M1.40625 19C1.01953 19 0.688477 18.8671 0.413086 18.6013C0.137695 18.3356 0 18.0161 0 17.6429V7.82619C0 7.45298 0.137695 7.13348 0.413086 6.86771C0.688477 6.60193 1.01953 6.46905 1.40625 6.46905H3.04688V4.29762C3.04688 3.10861 3.4813 2.09509 4.35014 1.25705C5.21898 0.419018 6.26977 0 7.50248 0C8.7352 0 9.78516 0.419018 10.6523 1.25705C11.5195 2.09509 11.9531 3.10861 11.9531 4.29762V6.46905H13.5938C13.9805 6.46905 14.3115 6.60193 14.5869 6.86771C14.8623 7.13348 15 7.45298 15 7.82619V17.6429C15 18.0161 14.8623 18.3356 14.5869 18.6013C14.3115 18.8671 13.9805 19 13.5938 19H1.40625ZM1.40625 17.6429H13.5938V7.82619H1.40625V17.6429ZM7.50394 14.4762C8.00131 14.4762 8.42578 14.3101 8.77734 13.9779C9.12891 13.6457 9.30469 13.2463 9.30469 12.7798C9.30469 12.3274 9.12759 11.9165 8.77341 11.547C8.41922 11.1776 7.99344 10.9929 7.49606 10.9929C6.99869 10.9929 6.57422 11.1776 6.22266 11.547C5.87109 11.9165 5.69531 12.3312 5.69531 12.7911C5.69531 13.251 5.87241 13.6468 6.22659 13.9786C6.58078 14.3103 7.00656 14.4762 7.50394 14.4762ZM4.45312 6.46905H10.5469V4.29762C10.5469 3.48082 10.2509 2.78654 9.65902 2.21479C9.06709 1.64302 8.34834 1.35714 7.50277 1.35714C6.65717 1.35714 5.9375 1.64302 5.34375 2.21479C4.75 2.78654 4.45312 3.48082 4.45312 4.29762V6.46905Z" fill="#767A7D"/>
</svg>
