<svg width="18" height="18" viewBox="0 0 18 18" fill="none" xmlns="http://www.w3.org/2000/svg">
<path d="M10.9248 10.8739C10.6611 10.5748 10.3711 10.3109 10.0547 10.0821C9.73828 9.85337 9.39844 9.65689 9.03516 9.49267C8.67188 9.32845 8.30273 9.20821 7.92773 9.13196C7.55273 9.05572 7.16016 9.01466 6.75 9.0088C6.23438 9.0088 5.73633 9.07625 5.25586 9.21114C4.77539 9.34604 4.32715 9.53372 3.91113 9.77419C3.49512 10.0147 3.11719 10.3079 2.77734 10.654C2.4375 11 2.14453 11.3812 1.89844 11.7977C1.65234 12.2141 1.46191 12.6628 1.32715 13.1437C1.19238 13.6246 1.125 14.1232 1.125 14.6393H0C0 13.9355 0.102539 13.2581 0.307617 12.607C0.512695 11.956 0.808594 11.3548 1.19531 10.8035C1.58203 10.2522 2.03906 9.76246 2.56641 9.33431C3.09375 8.90616 3.69141 8.56892 4.35938 8.32258C3.69727 7.88856 3.18164 7.34311 2.8125 6.68622C2.44336 6.02933 2.25586 5.30205 2.25 4.5044C2.25 3.8827 2.36719 3.29912 2.60156 2.75367C2.83594 2.20821 3.15527 1.73021 3.55957 1.31965C3.96387 0.909091 4.44141 0.58651 4.99219 0.351906C5.54297 0.117302 6.12891 0 6.75 0C7.37109 0 7.9541 0.117302 8.49902 0.351906C9.04395 0.58651 9.52148 0.906158 9.93164 1.31085C10.3418 1.71554 10.6641 2.19355 10.8984 2.74487C11.1328 3.29619 11.25 3.8827 11.25 4.5044C11.25 4.8915 11.2031 5.26979 11.1094 5.6393C11.0156 6.0088 10.875 6.35777 10.6875 6.68622C10.5 7.01466 10.2803 7.31672 10.0283 7.59238C9.77637 7.86804 9.48047 8.11144 9.14062 8.32258C9.63281 8.51026 10.0957 8.75073 10.5293 9.04399C10.9629 9.33724 11.3584 9.68035 11.7158 10.0733L10.9248 10.8739ZM3.375 4.5044C3.375 4.97361 3.46289 5.41056 3.63867 5.81525C3.81445 6.21994 4.05469 6.57771 4.35938 6.88856C4.66406 7.19941 5.02148 7.44282 5.43164 7.61877C5.8418 7.79472 6.28125 7.8827 6.75 7.8827C7.21289 7.8827 7.64941 7.79472 8.05957 7.61877C8.46973 7.44282 8.82715 7.20235 9.13184 6.89736C9.43652 6.59238 9.67969 6.2346 9.86133 5.82405C10.043 5.41349 10.1309 4.97361 10.125 4.5044C10.125 4.04106 10.0371 3.60411 9.86133 3.19355C9.68555 2.78299 9.44531 2.42522 9.14062 2.12023C8.83594 1.81525 8.47559 1.57185 8.05957 1.39003C7.64355 1.20821 7.20703 1.12023 6.75 1.1261C6.28125 1.1261 5.84473 1.21408 5.44043 1.39003C5.03613 1.56598 4.67871 1.80645 4.36816 2.11144C4.05762 2.41642 3.81445 2.77713 3.63867 3.19355C3.46289 3.60997 3.375 4.04692 3.375 4.5044ZM16.2422 7.8827C16.4883 7.8827 16.7168 7.92669 16.9277 8.01466C17.1387 8.10264 17.3262 8.22287 17.4902 8.37537C17.6543 8.52786 17.7773 8.71261 17.8594 8.92962C17.9414 9.14663 17.9883 9.3783 18 9.62463C18 9.85337 17.9561 10.0762 17.8682 10.2933C17.7803 10.5103 17.6543 10.7009 17.4902 10.8651L11.1885 17.173L7.875 18L8.70117 14.6833L15.0029 8.38416C15.1729 8.21408 15.3633 8.08798 15.5742 8.00587C15.7852 7.92375 16.0078 7.8827 16.2422 7.8827ZM16.6904 10.0733C16.8135 9.95015 16.875 9.80059 16.875 9.62463C16.875 9.44281 16.8164 9.29619 16.6992 9.18475C16.582 9.07331 16.4297 9.01466 16.2422 9.0088C16.1602 9.0088 16.0811 9.02053 16.0049 9.04399C15.9287 9.06745 15.8613 9.11144 15.8027 9.17595L9.7207 15.2639L9.42188 16.4516L10.6084 16.1525L16.6904 10.0733Z" fill="#767A7D"/>
</svg>
