<svg width="21" height="18" viewBox="0 0 21 18" fill="none" xmlns="http://www.w3.org/2000/svg">
<path d="M20.25 11.25C20.25 10.6313 19.7437 10.125 19.125 10.125H16.875V12.375H19.125C19.7437 12.375 20.25 11.8688 20.25 11.25ZM19.125 14.625H16.875V16.875H19.125C19.7437 16.875 20.25 16.3688 20.25 15.75C20.25 15.1312 19.7437 14.625 19.125 14.625ZM10.125 11.25H7.875V15.75H10.125C10.125 16.9875 11.1375 18 12.375 18H15.75V9H12.375C11.1375 9 10.125 10.0125 10.125 11.25Z" fill="black"/>
<path d="M2.25 10.125C2.25 8.8875 3.2625 7.875 4.5 7.875H6.1875C8.35875 7.875 10.125 6.10875 10.125 3.9375C10.125 1.76625 8.35875 0 6.1875 0H2.25C1.63125 0 1.125 0.50625 1.125 1.125C1.125 1.74375 1.63125 2.25 2.25 2.25H6.1875C7.12125 2.25 7.875 3.00375 7.875 3.9375C7.875 4.87125 7.12125 5.625 6.1875 5.625H4.5C2.01375 5.625 0 7.63875 0 10.125C0 12.6112 2.01375 14.625 4.5 14.625H6.75V12.375H4.5C3.2625 12.375 2.25 11.3625 2.25 10.125Z" fill="black"/>
</svg>
