<svg width="20" height="16" viewBox="0 0 20 16" fill="none" xmlns="http://www.w3.org/2000/svg">
<path d="M10 16H0V14H5.75C5 11.19 2.81 9 0 8.26C0.64 8.1 1.31 8 2 8C6.42 8 10 11.58 10 16ZM20 8.26C19.36 8.1 18.69 8 18 8C15.07 8 12.5 9.58 11.12 11.93C11.41 12.59 11.65 13.28 11.79 14C11.92 14.65 12 15.32 12 16H20V14H14.24C15 11.19 17.19 9 20 8.26ZM13.64 7C14.42 4.93 15.87 3.18 17.73 2C13.44 2.16 10 5.67 10 10C10.95 8.75 12.2 7.72 13.64 7ZM9.42 4.85C9.00591 3.76225 8.37351 2.77079 7.56176 1.93669C6.75001 1.10258 5.7761 0.443487 4.7 0C6.14 1.86 7 4.18 7 6.71C7 6.92 6.97 7.12 6.96 7.32C7.39 7.56 7.79 7.84 8.18 8.14C8.39393 6.97819 8.81388 5.86399 9.42 4.85Z" fill="black"/>
</svg>
