<svg width="23" height="23" viewBox="0 0 23 23" fill="none" xmlns="http://www.w3.org/2000/svg">
<path d="M14.8099 0L11.5454 3.27101C10.6572 4.17256 10.6572 5.64047 11.5454 6.54202L13.1719 8.17175L7.92335 13.4308L4.6704 10.1598L3.03238 11.778C-2.67759 17.5571 1.42897 21.6026 1.42897 21.6026C1.42897 21.6026 5.46633 25.648 11.234 19.9728L12.8605 18.3431L9.63058 15.1068L14.8676 9.85927L16.471 11.4659C17.3708 12.3559 18.8358 12.3559 19.7355 11.4659L23 8.19487L14.8099 0ZM18.0744 9.78992L16.4825 8.19487L14.8215 6.53047L13.2065 4.9123L14.833 3.28257L19.7124 8.17175L18.0744 9.78992Z" fill="black"/>
</svg>
