<svg width="21" height="21" viewBox="0 0 21 21" fill="none" xmlns="http://www.w3.org/2000/svg">
<path d="M9.84772 0L9.16924 1.54223C8.81803 1.56357 8.46858 1.6076 8.1231 1.67404L7.08522 0.339779L5.96656 0.718435L5.96099 2.416C5.48712 2.65849 5.03299 2.95167 4.60401 3.29385L3.02302 2.58518L2.2136 3.4423L3.02298 4.97064C2.76475 5.33712 2.53783 5.7245 2.34458 6.12871L0.608768 6.17584L0.256328 7.29779L1.6578 8.32556C1.59071 8.74185 1.55794 9.16249 1.55607 9.58348L0 10.3684L0.16298 11.5334L1.87093 11.8663C1.97303 12.2222 2.09964 12.5707 2.24985 12.9092L1.12428 14.3004L1.75253 15.2961L3.50224 14.8884C3.61296 15.0181 3.72771 15.1443 3.8463 15.2669C4.09401 15.522 4.35786 15.761 4.63624 15.9826L4.29633 17.7273L5.31887 18.3153L6.65481 17.1573C7.03708 17.3102 7.43065 17.4336 7.832 17.5262L8.26807 19.2307L9.44518 19.3264L10.1529 17.7189C10.6419 17.6896 11.1293 17.6168 11.6086 17.4998L12.7329 18.7966L13.8292 18.3597L13.7971 17.7023L11.238 15.7704C10.493 15.9579 9.7205 16.0081 8.96172 15.9229C7.54617 15.764 6.1858 15.1276 5.11823 14.0284C2.67807 11.5159 2.74784 7.51912 5.27149 5.08989C6.49384 3.91323 8.06613 3.31631 9.64021 3.2994C11.3159 3.28138 12.9932 3.92055 14.2514 5.21607C16.2991 7.32468 16.5782 10.4967 15.1234 12.8981L16.5486 13.9744C16.7258 13.6977 16.8858 13.4106 17.0278 13.1145L18.751 13.0673L19.1034 11.9454L17.7118 10.9246C17.7789 10.5049 17.8129 10.0806 17.8135 9.6556L19.3598 8.87339L19.1969 7.7084L17.4904 7.37554C17.3468 6.88342 17.1565 6.40602 16.922 5.94981L17.9389 4.54765L17.259 3.58649L15.5847 4.07051C15.5636 4.04832 15.5432 4.02582 15.5219 4.00394C15.2583 3.73246 14.9763 3.47942 14.6777 3.24663L14.9981 1.59899L13.9755 1.01099L12.705 2.11226C12.2937 1.94747 11.8712 1.81921 11.4428 1.72392L11.0263 0.0956848L9.84772 0ZM7.2552 6.81244C6.79408 6.81768 6.33701 6.93041 5.91784 7.13553L7.93369 8.65841C8.54335 9.11891 8.71627 9.99405 8.24841 10.6084C7.78043 11.223 6.88181 11.3154 6.26332 10.8484L4.24889 9.32692C4.04263 10.4273 4.43323 11.5931 5.38984 12.3157C6.24776 12.9635 7.34882 13.0848 8.29727 12.7457L8.51036 12.6693L8.69001 12.8053L14.7166 17.3571L14.8963 17.493L14.8809 17.7177C14.808 18.7185 15.2193 19.7419 16.0776 20.3902C17.0343 21.1127 18.2684 21.1726 19.2775 20.6787L17.2631 19.1573C16.6447 18.6901 16.4927 17.8034 16.9609 17.1893C17.429 16.575 18.3222 16.5056 18.932 16.966L20.9465 18.4875C21.1522 17.3875 20.7632 16.2211 19.8069 15.4987C18.9459 14.8481 17.8536 14.7193 16.9107 15.0534L16.6989 15.1283L16.5193 14.9924L10.4927 10.4406L10.313 10.3047L10.3284 10.0814C10.3975 9.08789 9.97843 8.07569 9.11775 7.42547C8.55855 7.00315 7.90422 6.80512 7.25524 6.81249L7.2552 6.81244ZM9.19719 10.8178L16.5025 16.3363L15.9996 16.9978L8.69287 11.478L9.19719 10.8178Z" fill="black"/>
</svg>
