<svg width="24" height="15" viewBox="0 0 24 15" fill="none" xmlns="http://www.w3.org/2000/svg">
<path d="M2 13H8C8.55 13 9.021 12.804 9.413 12.412C9.805 12.02 10.0007 11.5493 10 11L7.25 10.175L2 13ZM23.75 13C23.75 13.1 23.7333 13.2 23.7 13.3C23.6667 13.4 23.625 13.4917 23.575 13.575C23.3083 14.0083 22.9457 14.3543 22.487 14.613C22.0283 14.8717 21.5327 15.0007 21 15H16C15.7167 15 15.479 14.904 15.287 14.712C15.095 14.52 14.9993 14.2827 15 14C15 13.7167 15.096 13.479 15.288 13.287C15.48 13.095 15.7173 12.9993 16 13H17.925L15.925 11H12C12 12.1 11.6083 13.0417 10.825 13.825C10.0417 14.6083 9.1 15 8 15H2C1.36667 15 0.875 14.7917 0.525 14.375C0.175 13.9583 0 13.5 0 13C0 12.6667 0.0833333 12.3417 0.25 12.025C0.416667 11.7083 0.683333 11.45 1.05 11.25L4.55 9.35L1.725 8.5C1.275 8.36667 0.954 8.08734 0.762 7.662C0.57 7.23667 0.582667 6.816 0.8 6.4L1.525 4.925C1.65833 4.64167 1.86667 4.429 2.15 4.287C2.43333 4.145 2.73333 4.091 3.05 4.125L11 5L14.05 2.725L13.25 2H12C11.7167 2 11.479 1.90434 11.287 1.713C11.095 1.52167 10.9993 1.284 11 1C11 0.71667 11.096 0.479004 11.288 0.287004C11.48 0.0950036 11.7173 -0.000663206 12 3.4602e-06H13.275C13.525 3.4602e-06 13.7667 0.0416701 14 0.125003C14.2333 0.208337 14.4417 0.34167 14.625 0.525004L21.175 6.625C21.4917 6.90834 21.7083 7.18767 21.825 7.463C21.9417 7.73834 22 8.00067 22 8.25C22 8.96667 21.725 9.60434 21.175 10.163C20.625 10.7217 19.7917 11.0007 18.675 11L20.825 13H21C21.1667 13 21.325 12.9623 21.475 12.887C21.625 12.8117 21.7417 12.7077 21.825 12.575C21.925 12.4083 22.0543 12.2707 22.213 12.162C22.3717 12.0533 22.5423 11.9993 22.725 12C23.0083 12 23.25 12.096 23.45 12.288C23.65 12.48 23.75 12.7173 23.75 13Z" fill="black"/>
</svg>
