<svg width="16.575195" height="16.574219" viewBox="0 0 16.5752 16.5742" fill="none" xmlns="http://www.w3.org/2000/svg" xmlns:xlink="http://www.w3.org/1999/xlink">
	<desc>
			Created with Pixso.
	</desc>
	<defs/>
	<path id="Форма 3" d="M5.52539 0L1.57812 0C0.707031 0 0 0.707031 0 1.57812L0 5.52539C0 6.39648 0.707031 7.10352 1.57812 7.10352L5.52539 7.10352C6.39648 7.10352 7.10352 6.39648 7.10352 5.52539L7.10352 1.57812C7.10352 0.707031 6.39648 0 5.52539 0ZM14.9971 0L11.0498 0C10.1787 0 9.47168 0.707031 9.47168 1.57812L9.47168 5.52539C9.47168 6.39648 10.1787 7.10352 11.0498 7.10352L14.9971 7.10352C15.8682 7.10352 16.5752 6.39648 16.5752 5.52539L16.5752 1.57812C16.5752 0.707031 15.8682 0 14.9971 0ZM5.52539 9.4707L1.57812 9.4707C0.707031 9.4707 0 10.1777 0 11.0488L0 14.9961C0 15.8672 0.707031 16.5742 1.57812 16.5742L5.52539 16.5742C6.39648 16.5742 7.10352 15.8672 7.10352 14.9961L7.10352 11.0488C7.10352 10.1777 6.39648 9.4707 5.52539 9.4707ZM11.0488 9.4707L14.9961 9.4707C15.8672 9.4707 16.5742 10.1777 16.5742 11.0488L16.5742 14.9961C16.5742 15.8672 15.8672 16.5742 14.9961 16.5742L11.0488 16.5742C10.1777 16.5742 9.4707 15.8672 9.4707 14.9961L9.4707 11.0488C9.4707 10.1777 10.1777 9.4707 11.0488 9.4707Z" fill="#D9D9D9" fill-opacity="0" fill-rule="evenodd"/>
	<path id="Форма 3" d="M1.57812 0L5.52539 0C6.39648 0 7.10352 0.707031 7.10352 1.57812L7.10352 5.52539C7.10352 6.39648 6.39648 7.10352 5.52539 7.10352L1.57812 7.10352C0.707031 7.10352 0 6.39648 0 5.52539L0 1.57812C0 0.707031 0.707031 0 1.57812 0ZM11.0498 0L14.9971 0C15.8682 0 16.5752 0.707031 16.5752 1.57812L16.5752 5.52539C16.5752 6.39648 15.8682 7.10352 14.9971 7.10352L11.0498 7.10352C10.1787 7.10352 9.47168 6.39648 9.47168 5.52539L9.47168 1.57812C9.47168 0.707031 10.1787 0 11.0498 0ZM1.57812 0.789062L5.52539 0.789062Q5.6875 0.789062 5.82617 0.845703Q5.9668 0.904297 6.08301 1.01953Q6.19922 1.13672 6.25684 1.27734Q6.31445 1.41602 6.31445 1.57812L6.31445 5.52539Q6.31445 5.6875 6.25684 5.82617Q6.19922 5.9668 6.08301 6.08398Q5.9668 6.19922 5.82617 6.25781Q5.6875 6.31445 5.52539 6.31445L1.57812 6.31445Q1.41602 6.31445 1.27734 6.25781Q1.13672 6.19922 1.02051 6.08398Q0.904297 5.9668 0.84668 5.82617Q0.789062 5.6875 0.789062 5.52539L0.789062 1.57812Q0.789062 1.41602 0.84668 1.27734Q0.904297 1.13672 1.02051 1.01953Q1.13672 0.904297 1.27734 0.845703Q1.41602 0.789062 1.57812 0.789062ZM11.0498 0.789062L14.9971 0.789062Q15.1592 0.789062 15.2979 0.845703Q15.4385 0.904297 15.5547 1.01953Q15.6709 1.13672 15.7285 1.27734Q15.7861 1.41602 15.7861 1.57812L15.7861 5.52539Q15.7861 5.6875 15.7285 5.82617Q15.6709 5.9668 15.5547 6.08398Q15.4385 6.19922 15.2979 6.25781Q15.1592 6.31445 14.9971 6.31445L11.0498 6.31445Q10.8877 6.31445 10.749 6.25781Q10.6084 6.19922 10.4922 6.08398Q10.376 5.9668 10.3184 5.82617Q10.2607 5.6875 10.2607 5.52539L10.2607 1.57812Q10.2607 1.41602 10.3184 1.27734Q10.376 1.13672 10.4922 1.01953Q10.6084 0.904297 10.749 0.845703Q10.8877 0.789062 11.0498 0.789062ZM1.57812 9.4707L5.52539 9.4707C6.39648 9.4707 7.10352 10.1777 7.10352 11.0488L7.10352 14.9961C7.10352 15.8672 6.39648 16.5742 5.52539 16.5742L1.57812 16.5742C0.707031 16.5742 0 15.8672 0 14.9961L0 11.0488C0 10.1777 0.707031 9.4707 1.57812 9.4707ZM14.9961 9.4707L11.0488 9.4707C10.1777 9.4707 9.4707 10.1777 9.4707 11.0488L9.4707 14.9961C9.4707 15.8672 10.1777 16.5742 11.0488 16.5742L14.9961 16.5742C15.8672 16.5742 16.5742 15.8672 16.5742 14.9961L16.5742 11.0488C16.5742 10.1777 15.8672 9.4707 14.9961 9.4707ZM1.57812 10.2598L5.52539 10.2598Q5.6875 10.2598 5.82617 10.3164Q5.9668 10.375 6.08301 10.4902Q6.19922 10.6074 6.25684 10.748Q6.31445 10.8867 6.31445 11.0488L6.31445 14.9961Q6.31445 15.1582 6.25684 15.2969Q6.19922 15.4375 6.08301 15.5547Q5.9668 15.6699 5.82617 15.7285Q5.6875 15.7852 5.52539 15.7852L1.57812 15.7852Q1.41602 15.7852 1.27734 15.7285Q1.13672 15.6699 1.02051 15.5547Q0.904297 15.4375 0.84668 15.2969Q0.789062 15.1582 0.789062 14.9961L0.789062 11.0488Q0.789062 10.8867 0.84668 10.748Q0.904297 10.6074 1.02051 10.4902Q1.13672 10.375 1.27734 10.3164Q1.41602 10.2598 1.57812 10.2598ZM11.0488 10.2598L14.9961 10.2598Q15.1582 10.2598 15.2969 10.3164Q15.4375 10.375 15.5537 10.4902Q15.6699 10.6074 15.7275 10.748Q15.7852 10.8867 15.7852 11.0488L15.7852 14.9961Q15.7852 15.1582 15.7275 15.2969Q15.6699 15.4375 15.5537 15.5547Q15.4375 15.6699 15.2969 15.7285Q15.1582 15.7852 14.9961 15.7852L11.0488 15.7852Q10.8867 15.7852 10.748 15.7285Q10.6074 15.6699 10.4912 15.5547Q10.375 15.4375 10.3174 15.2969Q10.2598 15.1582 10.2598 14.9961L10.2598 11.0488Q10.2598 10.8867 10.3174 10.748Q10.375 10.6074 10.4912 10.4902Q10.6074 10.375 10.748 10.3164Q10.8867 10.2598 11.0488 10.2598Z" fill="#000000" fill-opacity="1.000000" fill-rule="evenodd"/>
</svg>
