<svg width="64" height="64" viewBox="0 0 64 64" fill="none" xmlns="http://www.w3.org/2000/svg">
<g id="Group 1000007786">
<g id="Ellipse 41">
<circle cx="32" cy="32" r="32" fill="#F8F8F8"/>
<circle cx="32" cy="32" r="31.5" stroke="#2283DC" stroke-opacity="0.07"/>
</g>
<g id="Group">
<path id="Vector" d="M28.8004 47.6485L55 32.572L35.1661 21.0469L9 36.1234L28.8004 47.6485Z" fill="#858A4C"/>
<g id="Group_2">
<path id="Vector_2" d="M19.0175 39.0705H23.3729L30.3416 35.2176L31.4807 35.8541H35.8362L46.4902 29.589L35.3336 22.9219L22.2673 30.1921L19.0175 39.0705Z" fill="#858A4C"/>
<g id="Group_3">
<g id="Group_4">
<path id="Vector_3" d="M31.4808 28.0876L37.9804 24.3353L27.5274 18.3047L21.0278 22.0571L31.4808 28.0876Z" fill="#B68F79"/>
<path id="Vector_4" d="M31.4808 35.8659V28.0931L21.0278 22.0625V29.8353L31.4808 35.8659Z" fill="#CBCAC2"/>
<g id="Group_5">
<g id="Group_6">
<g id="Group_7">
<path id="Vector_5" d="M25.7515 31.7344V31.8014L31.4806 35.0847V35.0177L25.7515 31.7344Z" fill="#B68F79"/>
</g>
<g id="Group_8">
<path id="Vector_6" d="M25.7515 30.7656V30.8326L31.4806 34.1495V34.0489L25.7515 30.7656Z" fill="#B68F79"/>
</g>
<g id="Group_9">
<path id="Vector_7" d="M25.7515 29.7969V29.8974L31.4806 33.1807V33.1137L25.7515 29.7969Z" fill="#B68F79"/>
</g>
<g id="Group_10">
<path id="Vector_8" d="M25.7515 28.8594V28.9264L31.4806 32.2097V32.1427L25.7515 28.8594Z" fill="#B68F79"/>
</g>
<g id="Group_11">
<path id="Vector_9" d="M25.7515 27.8906V27.9911L31.4806 31.2745V31.2074L25.7515 27.8906Z" fill="#B68F79"/>
</g>
<g id="Group_12">
<path id="Vector_10" d="M25.7515 26.9375V27.0045L31.4806 30.2878V30.2208L25.7515 26.9375Z" fill="#B68F79"/>
</g>
<g id="Group_13">
<path id="Vector_11" d="M25.7515 25.9688V26.0358L31.4806 29.3526V29.2521L25.7515 25.9688Z" fill="#B68F79"/>
</g>
<g id="Group_14">
<path id="Vector_12" d="M25.7515 25V25.1005L31.4806 28.3838V28.3168L25.7515 25Z" fill="#B68F79"/>
</g>
</g>
<g id="Group_15">
<path id="Vector_13" d="M25.7515 31.7734V31.8404L31.4806 35.1573V35.0568L25.7515 31.7734Z" fill="#F2F2F2"/>
<path id="Vector_14" d="M25.7515 30.7969V30.8974L31.4806 34.1807V34.1137L25.7515 30.7969Z" fill="#F2F2F2"/>
<path id="Vector_15" d="M25.7515 29.8594V29.9264L31.4806 33.2097V33.1427L25.7515 29.8594Z" fill="#F2F2F2"/>
<path id="Vector_16" d="M25.7515 28.8906V28.9576L31.4806 32.2745V32.1739L25.7515 28.8906Z" fill="#F2F2F2"/>
<path id="Vector_17" d="M25.7515 27.9531V28.0201L31.4806 31.3035V31.2364L25.7515 27.9531Z" fill="#F2F2F2"/>
<path id="Vector_18" d="M25.7515 26.9844V27.0514L31.4806 30.3682V30.2677L25.7515 26.9844Z" fill="#F2F2F2"/>
<path id="Vector_19" d="M25.7515 26.0078V26.1083L31.4806 29.3916V29.3246L25.7515 26.0078Z" fill="#F2F2F2"/>
<path id="Vector_20" d="M25.7515 25.0703V25.1373L31.4806 28.4206V28.3536L25.7515 25.0703Z" fill="#F2F2F2"/>
</g>
</g>
<path id="Vector_21" d="M31.1458 35.693L31.4808 35.8605V27.1831L31.1458 27.0156V35.693Z" fill="#F2F2F2"/>
<path id="Vector_22" d="M28.0634 33.8805L28.3649 34.0815V25.4041L28.0634 25.2031V33.8805Z" fill="#F2F2F2"/>
<path id="Vector_23" d="M37.9804 32.1087V24.3359L31.4808 28.0883V35.8611L37.9804 32.1087Z" fill="#B68F79"/>
<g id="Group_16">
<g id="Group_17">
<path id="Vector_24" d="M31.4808 35.0414V35.1084L37.9804 31.3561V31.2891L31.4808 35.0414Z" fill="#CBCAC2"/>
<path id="Vector_25" d="M31.4808 34.0727V34.1397L37.9804 30.3873V30.3203L31.4808 34.0727Z" fill="#CBCAC2"/>
<path id="Vector_26" d="M31.4808 33.0961V33.1966L37.9804 29.4443V29.3438L31.4808 33.0961Z" fill="#CBCAC2"/>
<path id="Vector_27" d="M31.4808 32.1586V32.2256L37.9805 28.4733V28.4062L31.4808 32.1586Z" fill="#CBCAC2"/>
<path id="Vector_28" d="M31.4808 31.1899V31.2569L37.9805 27.5045V27.4375L31.4808 31.1899Z" fill="#CBCAC2"/>
<path id="Vector_29" d="M31.4808 30.2211V30.3216L37.9805 26.5693V26.4688L31.4808 30.2211Z" fill="#CBCAC2"/>
<path id="Vector_30" d="M31.4808 29.2836V29.3506L37.9804 25.5983V25.5312L31.4808 29.2836Z" fill="#CBCAC2"/>
<path id="Vector_31" d="M31.4808 28.3071V28.4076L37.9804 24.6552V24.5547L31.4808 28.3071Z" fill="#CBCAC2"/>
<path id="Vector_32" d="M30.8442 27.7055L30.8777 27.739H30.9112L37.4108 23.9866H37.3773L37.3438 23.9531L30.8442 27.7055Z" fill="#CBCAC2"/>
<path id="Vector_33" d="M30.0067 27.2367L30.0737 27.2702L36.6068 23.5179H36.5733L36.5398 23.4844L30.0067 27.2367Z" fill="#CBCAC2"/>
</g>
<g id="Group_18">
<path id="Vector_34" d="M31.4809 35.0805V35.1475L37.9805 31.3951V31.3281L31.4809 35.0805Z" fill="#9C6444"/>
<path id="Vector_35" d="M31.4809 34.1117V34.2123L37.9805 30.4599V30.3594L31.4809 34.1117Z" fill="#9C6444"/>
<path id="Vector_36" d="M31.4809 33.1742V33.2412L37.9805 29.4889V29.4219L31.4809 33.1742Z" fill="#9C6444"/>
<path id="Vector_37" d="M31.4809 32.1977V32.2647L37.9805 28.5123V28.4453L31.4809 32.1977Z" fill="#9C6444"/>
<path id="Vector_38" d="M31.4809 31.2289V31.3294L37.9805 27.5771V27.4766L31.4809 31.2289Z" fill="#9C6444"/>
<path id="Vector_39" d="M31.4809 30.2914V30.3584L37.9805 26.6061V26.5391L31.4809 30.2914Z" fill="#9C6444"/>
<path id="Vector_40" d="M31.4809 29.3149V29.3819L37.9805 25.6295V25.5625L31.4809 29.3149Z" fill="#9C6444"/>
<path id="Vector_41" d="M31.4809 28.3774V28.4444L37.9805 24.692V24.625L31.4809 28.3774Z" fill="#9C6444"/>
<path id="Vector_42" d="M30.8777 27.7446H30.9113L30.9448 27.7781L37.4444 24.0257L37.4109 23.9922H37.3774L30.8777 27.7446Z" fill="#9C6444"/>
<path id="Vector_43" d="M30.0737 27.2758L30.1407 27.3093L36.6403 23.5569L36.6068 23.5234H36.5733L30.0737 27.2758Z" fill="#9C6444"/>
</g>
</g>
<path id="Vector_44" d="M31.7823 35.693L31.4808 35.8605V27.1831L31.7823 27.0156V35.693Z" fill="#BFBFBF"/>
<path id="Vector_45" d="M31.4139 28.0543L31.4809 28.0878V28.3224L34.4627 23.6319L37.9805 24.57V24.3355L37.612 24.1345L34.4627 23.2969L31.4139 28.0543Z" fill="#BFBFBF"/>
<path id="Vector_46" d="M37.9804 32.1123L37.6453 32.3133V24.1385L37.9804 23.9375V32.1123Z" fill="#BFBFBF"/>
</g>
<g id="Group_19">
<path id="Vector_47" d="M19.0177 31.2681L28.0636 26.1086L21.0279 22.0547L11.982 27.2477L19.0177 31.2681Z" fill="#CBCAC2"/>
<path id="Vector_48" d="M19.0176 39.0767V31.2704L11.9819 27.25V35.0228L19.0176 39.0767Z" fill="#CBCAC2"/>
<g id="Group_20">
<g id="Group_21">
<g id="Group_22">
<path id="Vector_49" d="M11.9818 34.1797V34.2802L19.0174 38.3341V38.2336L11.9818 34.1797Z" fill="#B68F79"/>
</g>
<g id="Group_23">
<path id="Vector_50" d="M11.9818 33.25V33.317L19.0174 37.3709V37.3039L11.9818 33.25Z" fill="#B68F79"/>
</g>
<g id="Group_24">
<path id="Vector_51" d="M11.9818 32.2734V32.3404L19.0174 36.3943V36.3273L11.9818 32.2734Z" fill="#B68F79"/>
</g>
<g id="Group_25">
<path id="Vector_52" d="M11.9818 31.2969V31.3974L19.0174 35.4513V35.3508L11.9818 31.2969Z" fill="#B68F79"/>
</g>
<g id="Group_26">
<path id="Vector_53" d="M11.9818 30.3594V30.4264L19.0174 34.4803V34.4133L11.9818 30.3594Z" fill="#B68F79"/>
</g>
<g id="Group_27">
<path id="Vector_54" d="M11.9818 29.3906V29.4911L19.0174 33.5115V33.4445L11.9818 29.3906Z" fill="#B68F79"/>
</g>
<g id="Group_28">
<path id="Vector_55" d="M11.9818 28.4531V28.5201L19.0174 32.574V32.507L11.9818 28.4531Z" fill="#B68F79"/>
</g>
<g id="Group_29">
<path id="Vector_56" d="M11.9818 27.4766V27.5436L19.0174 31.5975V31.5305L11.9818 27.4766Z" fill="#B68F79"/>
</g>
<g id="Group_30">
<path id="Vector_57" d="M12.5513 26.9085L19.5535 30.9624H19.587L19.6205 30.9289L12.6183 26.875L12.5848 26.9085H12.5513Z" fill="#B68F79"/>
</g>
<g id="Group_31">
<path id="Vector_58" d="M13.3889 26.4398L19.654 30.0581V29.9911L13.4559 26.4062H13.4224L13.3889 26.4398Z" fill="#B68F79"/>
</g>
</g>
<g id="Group_32">
<path id="Vector_59" d="M11.9818 34.25V34.317L19.0174 38.3709V38.3039L11.9818 34.25Z" fill="#F2F2F2"/>
<path id="Vector_60" d="M11.9818 33.2734V33.3404L19.0174 37.3943V37.3273L11.9818 33.2734Z" fill="#F2F2F2"/>
<path id="Vector_61" d="M11.9818 32.3047V32.4052L19.0174 36.4591V36.3586L11.9818 32.3047Z" fill="#F2F2F2"/>
<path id="Vector_62" d="M11.9818 31.3672V31.4342L19.0174 35.4881V35.4211L11.9818 31.3672Z" fill="#F2F2F2"/>
<path id="Vector_63" d="M11.9818 30.3906V30.4576L19.0174 34.5115V34.4445L11.9818 30.3906Z" fill="#F2F2F2"/>
<path id="Vector_64" d="M11.9818 29.4531V29.5201L19.0174 33.574V33.4735L11.9818 29.4531Z" fill="#F2F2F2"/>
<path id="Vector_65" d="M11.9818 28.4844V28.5514L19.0174 32.6053V32.5383L11.9818 28.4844Z" fill="#F2F2F2"/>
<path id="Vector_66" d="M11.9818 27.5078V27.6083L19.0174 31.6622V31.5617L11.9818 27.5078Z" fill="#F2F2F2"/>
<path id="Vector_67" d="M12.5177 26.9398L19.5199 30.9937L19.5534 30.9601H19.5869L12.5847 26.9062H12.5512L12.5177 26.9398Z" fill="#F2F2F2"/>
<path id="Vector_68" d="M13.3554 26.4733L19.654 30.0916V30.0246L13.4224 26.4062L13.3889 26.4398L13.3554 26.4733Z" fill="#F2F2F2"/>
</g>
</g>
<path id="Vector_69" d="M18.6826 38.8727L19.0176 39.0737V30.3963L18.6826 30.1953V38.8727Z" fill="#F2F2F2"/>
<path id="Vector_70" d="M11.9819 35.0185L12.3169 35.2196V27.0113L11.9819 26.8438V35.0185Z" fill="#F2F2F2"/>
<path id="Vector_71" d="M28.0634 33.8821V26.1094L19.0175 31.2689V39.0751L28.0634 33.8821Z" fill="#B68F79"/>
<g id="Group_33">
<g id="Group_34">
<path id="Vector_72" d="M19.0175 38.2711V38.3716L28.0634 33.1451V33.0781L19.0175 38.2711Z" fill="#CBCAC2"/>
<path id="Vector_73" d="M19.0175 37.3359V37.4029L28.0634 32.1764V32.1094L19.0175 37.3359Z" fill="#CBCAC2"/>
<path id="Vector_74" d="M19.0175 36.3671V36.4341L28.0634 31.2411V31.1406L19.0175 36.3671Z" fill="#CBCAC2"/>
<path id="Vector_75" d="M19.0175 35.4218V35.4888L28.0634 30.2623V30.1953L19.0175 35.4218Z" fill="#CBCAC2"/>
<path id="Vector_76" d="M19.0175 34.4531V34.5201L28.0634 29.3271V29.2266L19.0175 34.4531Z" fill="#CBCAC2"/>
<path id="Vector_77" d="M19.0175 33.4821V33.5826L28.0634 28.3561V28.2891L19.0175 33.4821Z" fill="#CBCAC2"/>
<path id="Vector_78" d="M19.0175 32.539V32.606L28.0634 27.3795V27.3125L19.0175 32.539Z" fill="#CBCAC2"/>
<path id="Vector_79" d="M19.0175 31.5703V31.6373L28.0634 26.4443V26.3438L19.0175 31.5703Z" fill="#CBCAC2"/>
</g>
<g id="Group_35">
<path id="Vector_80" d="M19.0175 38.3359V38.4029L28.0634 33.1764V33.1094L19.0175 38.3359Z" fill="#9C6444"/>
<path id="Vector_81" d="M19.0175 37.3671V37.4341L28.0634 32.2411V32.1406L19.0175 37.3671Z" fill="#9C6444"/>
<path id="Vector_82" d="M19.0175 36.3961V36.4966L28.0634 31.2701V31.2031L19.0175 36.3961Z" fill="#9C6444"/>
<path id="Vector_83" d="M19.0175 35.4531V35.5201L28.0634 30.2936V30.2266L19.0175 35.4531Z" fill="#9C6444"/>
<path id="Vector_84" d="M19.0175 34.4821V34.5826L28.0634 29.3561V29.2891L19.0175 34.4821Z" fill="#9C6444"/>
<path id="Vector_85" d="M19.0175 33.539V33.606L28.0634 28.3795V28.3125L19.0175 33.539Z" fill="#9C6444"/>
<path id="Vector_86" d="M19.0175 32.5703V32.6373L28.0634 27.4443V27.3438L19.0175 32.5703Z" fill="#9C6444"/>
<path id="Vector_87" d="M19.0175 31.5993V31.6998L28.0634 26.4733V26.4062L19.0175 31.5993Z" fill="#9C6444"/>
</g>
</g>
<path id="Vector_88" d="M28.0635 33.8805L27.7285 34.0815V25.4041L28.0635 25.2031V33.8805Z" fill="#BFBFBF"/>
<path id="Vector_89" d="M19.3525 38.8727L19.0175 39.0737V30.3963L19.3525 30.1953V38.8727Z" fill="#BFBFBF"/>
</g>
<path id="Vector_90" d="M31.4809 29.024L28.0635 27.1143V26.3438L31.4809 28.0189V29.024Z" fill="#D6D6D6"/>
<g id="Group_36">
<path id="Vector_91" d="M38.2484 24.4029L34.4626 23.3978L24.043 17.3672L27.7954 18.3723L38.2484 24.4029Z" fill="#5598E9"/>
<path id="Vector_92" d="M31.3132 28.3563L34.4625 23.3978L24.043 17.3672L20.8602 22.3257L31.3132 28.3563Z" fill="#3F461D"/>
<path id="Vector_93" d="M20.8602 21.9531V22.3217L31.3132 28.3523V27.9837L20.8602 21.9531Z" fill="#518E90"/>
</g>
<path id="Vector_94" d="M37.9805 25.135L34.7307 24.398L31.4809 29.0214V28.0833L34.4962 23.3594L37.9805 24.331V25.135Z" fill="#A3A3A3"/>
<g id="Group_37">
<path id="Vector_95" d="M38.2485 24.0357L34.4626 23.0306L24.0431 17L27.7955 18.0051L38.2485 24.0357Z" fill="#74CF88"/>
<path id="Vector_96" d="M31.3133 27.9891L34.4626 23.0306L24.043 17L20.8602 21.9585L31.3133 27.9891Z" fill="#D2FF8F"/>
<g id="Group_38">
<path id="Vector_97" d="M30.9783 24.6442L32.6869 23.7731L33.022 22.969L32.3854 22.5L30.9783 23.1366V24.6442Z" fill="#518E90"/>
<g id="Group_39">
<g id="Group_40">
<path id="Vector_98" d="M30.9783 23.3621L31.6149 22.9935L30.9783 22.625L30.3082 22.9935L30.9783 23.3621Z" fill="#F2F2F2"/>
<g id="Group_41">
<path id="Vector_99" d="M30.9782 23.3666L31.6483 22.9645L30.9782 22.5625L30.2747 22.9645L30.9782 23.3666Z" fill="white"/>
<path id="Vector_100" d="M30.9782 23.5048L30.2747 23.1028V22.9688L30.9782 23.3708V23.5048Z" fill="#F2F2F2"/>
<path id="Vector_101" d="M31.6483 23.1028L30.9783 23.5048V23.3708L31.6483 22.9688V23.1028Z" fill="#BFBFBF"/>
</g>
<path id="Vector_102" d="M30.5092 23.0024L30.9782 23.2704L31.4137 23.0024L30.9782 22.7344L30.5092 23.0024Z" fill="#F2F2F2"/>
<path id="Vector_103" d="M30.5092 23.0024L30.9782 23.2704V22.7344L30.5092 23.0024Z" fill="#BFBFBF"/>
<path id="Vector_104" d="M30.9783 24.6417L30.3082 24.2731V23L30.9783 23.3685V24.6417Z" fill="#F2F2F2"/>
<path id="Vector_105" d="M31.6148 23.6366L30.9783 24.6417V23.3685L31.6148 23V23.6366Z" fill="#BFBFBF"/>
</g>
<g id="Group_42">
<path id="Vector_106" d="M30.9782 22.7021L31.0452 22.6686L30.9782 22.6016L30.8777 22.6686L30.9782 22.7021Z" fill="#F2F2F2"/>
<path id="Vector_107" d="M30.9782 23.3419L30.8777 23.3084V22.6719L30.9782 22.7054V23.3419Z" fill="#F2F2F2"/>
<path id="Vector_108" d="M31.0451 23.3084L30.9781 23.3419V22.7054L31.0451 22.6719V23.3084Z" fill="#BFBFBF"/>
</g>
<path id="Vector_109" d="M30.9782 22.625L30.8777 22.692V22.8595L30.9782 22.893L31.0452 22.8595V22.692L30.9782 22.625Z" fill="#C4C4C4"/>
<g id="Group_43">
<path id="Vector_110" d="M30.4087 22.3974L30.5092 22.3304L30.4087 22.2969L30.3082 22.3304L30.4087 22.3974Z" fill="#F2F2F2"/>
<path id="Vector_111" d="M30.4087 23.0317L30.3082 22.9647V22.3281L30.4087 22.3951V23.0317Z" fill="#F2F2F2"/>
<path id="Vector_112" d="M30.5092 22.9647L30.4087 23.0317V22.3951L30.5092 22.3281V22.9647Z" fill="#BFBFBF"/>
</g>
<path id="Vector_113" d="M30.3082 22.3951V22.5291L30.4087 22.5962L30.5092 22.5291V22.3616L30.4422 22.3281L30.3082 22.3951Z" fill="#C4C4C4"/>
<g id="Group_44">
<path id="Vector_114" d="M31.5142 22.3974L31.6147 22.3304L31.5142 22.2969L31.4137 22.3304L31.5142 22.3974Z" fill="#F2F2F2"/>
<path id="Vector_115" d="M31.5142 23.0317L31.4137 22.9647V22.3281L31.5142 22.3951V23.0317Z" fill="#F2F2F2"/>
<path id="Vector_116" d="M31.6147 22.9647L31.5142 23.0317V22.3951L31.6147 22.3281V22.9647Z" fill="#BFBFBF"/>
</g>
<path id="Vector_117" d="M31.4137 22.3616V22.5291L31.5142 22.5962L31.6147 22.5291V22.3951L31.5142 22.3281L31.4137 22.3616Z" fill="#C4C4C4"/>
<g id="Group_45">
<path id="Vector_118" d="M30.9782 22.6992L31.7153 22.2637L30.9782 21.8281L30.2076 22.2637L30.9782 22.6992Z" fill="#ECFF8F"/>
<path id="Vector_119" d="M30.9782 22.8274L30.2076 22.3918V22.2578L30.9782 22.6934V22.8274Z" fill="#518E90"/>
<path id="Vector_120" d="M31.7153 22.3918L30.9783 22.8274V22.6934L31.7153 22.2578V22.3918Z" fill="#006A90"/>
</g>
</g>
</g>
</g>
<g id="Group_46">
<path id="Vector_121" d="M19.4196 31.9023L28.4654 26.7093L25.6512 24.0625L16.6053 29.2555L19.4196 31.9023Z" fill="#5598E9"/>
<path id="Vector_122" d="M20.5922 22.2195L23.909 21.0469L14.8966 26.2064L11.5798 27.4125L20.5922 22.2195Z" fill="#DDB79B"/>
<path id="Vector_123" d="M14.8966 26.2064L16.6053 29.2552L25.6512 24.0622L23.909 21.0469L14.8966 26.2064Z" fill="#433E44"/>
</g>
<path id="Vector_124" d="M19.0175 32.3097V31.2711L28.0634 26.0781V27.1167L19.0175 32.3097Z" fill="#A3A3A3"/>
<path id="Vector_125" d="M11.9819 28.0485V26.9094L14.8967 25.4688L16.6053 28.5175L19.0176 30.7623V32.3034L16.6053 30.0587L14.8967 27.0099L11.9819 28.0485Z" fill="#D6D6D6"/>
<g id="Group_47">
<path id="Vector_126" d="M19.4196 31.5406L28.4654 26.3476L25.6512 23.7344L16.6053 28.8939L19.4196 31.5406Z" fill="#74CF88"/>
<path id="Vector_127" d="M20.5922 21.8936L23.909 20.6875L14.8966 25.847L11.5798 27.0531L20.5922 21.8936Z" fill="#74CF88"/>
<path id="Vector_128" d="M14.8966 25.847L16.6053 28.8958L25.6512 23.7363L23.909 20.6875L14.8966 25.847Z" fill="#CAF589"/>
</g>
<path id="Vector_129" d="M34.4626 23.0312V23.3998L38.2485 24.4049V24.0363L34.4626 23.0312Z" fill="#006A90"/>
<path id="Vector_130" d="M34.4626 23.0312V23.3998L31.3133 28.3583V27.9897L34.4626 23.0312Z" fill="#006A90"/>
<path id="Vector_131" d="M11.5798 27.4184V27.0499L14.8966 25.8438L16.6053 28.8925L19.4195 31.5393V31.9078L16.6053 29.2611L14.8966 26.2123L11.5798 27.4184Z" fill="#518E90"/>
<path id="Vector_132" d="M19.4195 31.9053V31.5368L28.4654 26.3438V26.7123L19.4195 31.9053Z" fill="#006A90"/>
<g id="Group_48">
<path id="Vector_133" d="M32.3854 28.4504L37.1094 25.7366L37.0424 25.7031L32.3184 28.4169L32.3854 28.4504Z" fill="white"/>
<path id="Vector_134" d="M32.3854 35.3906L32.3184 35.3571V28.4219L32.3854 28.4554V35.3906Z" fill="#F2F2F2"/>
<path id="Vector_135" d="M37.1093 25.7344V32.6696L32.3853 35.3833V28.4481L37.1093 25.7344Z" fill="#BFBFBF"/>
<path id="Vector_136" d="M32.3853 28.4459V28.7139L37.0758 26.0337V25.7656L32.3853 28.4459Z" fill="#CFCFCF"/>
<path id="Vector_137" d="M37.0759 26.0337L37.1094 25.8996L37.2434 25.8326H37.1094L37.0759 25.7656V26.0337Z" fill="#CFCFCF"/>
</g>
<g id="Group_49">
<g id="Group_50">
<path id="Vector_138" d="M35.903 33.137L36.8746 32.601V31.7969L35.903 32.3664V33.137Z" fill="#BFBFBF"/>
<path id="Vector_139" d="M35.9699 32.3675V33.0375L36.8075 32.535V31.8984L35.9699 32.3675Z" fill="#BFBFBF"/>
<path id="Vector_140" d="M36.7405 32.5305V31.9609L36.0035 32.3965V32.9325L36.7405 32.5305Z" fill="#E6E6E6"/>
<path id="Vector_141" d="M36.707 32.497V31.9944L36.7405 31.9609V32.5305L36.0035 32.9325V32.899L36.707 32.497Z" fill="white"/>
<path id="Vector_142" d="M36.7406 32.5305L36.7071 32.497V31.9944L36.7406 31.9609V32.5305Z" fill="#F2F2F2"/>
<path id="Vector_143" d="M35.9699 33.032V33.0655L36.841 32.5629V31.8594L36.8075 31.8929V32.5294L35.9699 33.032Z" fill="#DBC79A"/>
<path id="Vector_144" d="M35.9699 33.032V33.0655L36.841 32.5629V31.8594L36.8075 31.8929V32.5294L35.9699 33.032Z" fill="white"/>
<path id="Vector_145" d="M36.8077 32.5294L36.8412 32.5629V31.8594L36.8077 31.8929V32.5294Z" fill="#F2F2F2"/>
</g>
<g id="Group_51">
<path id="Vector_146" d="M34.8981 33.7386L35.8362 33.2025V32.3984L34.8981 32.9345V33.7386Z" fill="#BFBFBF"/>
<path id="Vector_147" d="M34.9316 32.969V33.6391L35.7692 33.1366V32.5L34.9316 32.969Z" fill="#BFBFBF"/>
<path id="Vector_148" d="M35.7356 33.0986V32.5625L34.965 32.998V33.5341L35.7356 33.0986Z" fill="#E6E6E6"/>
<path id="Vector_149" d="M35.6686 33.0986V32.596L35.7356 32.5625V33.0986L34.965 33.5341V33.5006L35.6686 33.0986Z" fill="white"/>
<path id="Vector_150" d="M35.7358 33.0986H35.6688V32.596L35.7358 32.5625V33.0986Z" fill="#F2F2F2"/>
<path id="Vector_151" d="M34.9316 33.6414V33.6749L35.8027 33.1723V32.4688L35.7692 32.5023V33.1388L34.9316 33.6414Z" fill="#DBC79A"/>
<path id="Vector_152" d="M34.9316 33.6414V33.6749L35.8027 33.1723V32.4688L35.7692 32.5023V33.1388L34.9316 33.6414Z" fill="white"/>
<path id="Vector_153" d="M35.7691 33.1388L35.8026 33.1723V32.4688L35.7691 32.5023V33.1388Z" fill="#F2F2F2"/>
</g>
<g id="Group_52">
<path id="Vector_154" d="M33.8593 34.3479L34.8309 33.7784V33.0078L33.8593 33.5439V34.3479Z" fill="#BFBFBF"/>
<path id="Vector_155" d="M33.8929 33.5807V34.2172L34.7305 33.7482V33.0781L33.8929 33.5807Z" fill="#BFBFBF"/>
<path id="Vector_156" d="M34.6969 33.7079V33.1719L33.9263 33.6074V34.1435L34.6969 33.7079Z" fill="#E6E6E6"/>
<path id="Vector_157" d="M34.6634 33.6744V33.1719H34.6969V33.7079L33.9263 34.1435V34.11L34.6634 33.6744Z" fill="white"/>
<path id="Vector_158" d="M34.6969 33.7079L34.6634 33.6744V33.1719H34.6969V33.7079Z" fill="#F2F2F2"/>
<path id="Vector_159" d="M33.8929 34.2172V34.2842L34.7975 33.7817V33.0781H34.7305V33.7482L33.8929 34.2172Z" fill="#DBC79A"/>
<path id="Vector_160" d="M33.8929 34.2172V34.2842L34.7975 33.7817V33.0781H34.7305V33.7482L33.8929 34.2172Z" fill="white"/>
<path id="Vector_161" d="M34.7304 33.7482L34.7639 33.7817V33.0781H34.7304V33.7482Z" fill="#F2F2F2"/>
</g>
<g id="Group_53">
<path id="Vector_162" d="M32.8209 34.9518L33.7925 34.3822V33.5781L32.8209 34.1477V34.9518Z" fill="#BFBFBF"/>
<path id="Vector_163" d="M32.8543 34.1822V34.8188L33.6919 34.3498V33.6797L32.8543 34.1822Z" fill="#BFBFBF"/>
<path id="Vector_164" d="M33.6584 34.3173V33.7812L32.9213 34.2168V34.7528L33.6584 34.3173Z" fill="#E6E6E6"/>
<path id="Vector_165" d="M33.6249 34.2838V33.7812H33.6584V34.3173L32.9213 34.7528V34.7193L33.6249 34.2838Z" fill="white"/>
<path id="Vector_166" d="M33.6584 34.3173L33.6249 34.2838V33.7812H33.6584V34.3173Z" fill="#F2F2F2"/>
<path id="Vector_167" d="M32.8543 34.8132V34.8802L33.7589 34.3442V33.6406L33.6919 33.6741V34.3442L32.8543 34.8132Z" fill="#DBC79A"/>
<path id="Vector_168" d="M32.8543 34.8132V34.8802L33.7589 34.3442V33.6406L33.6919 33.6741V34.3442L32.8543 34.8132Z" fill="white"/>
<path id="Vector_169" d="M33.6918 34.3442H33.7588V33.6406L33.6918 33.6741V34.3442Z" fill="#F2F2F2"/>
</g>
</g>
<g id="Group_54">
<path id="Vector_170" d="M32.5194 28.283L37.2434 25.5693L37.0424 25.4688L32.3184 28.1825L32.5194 28.283Z" fill="white"/>
<path id="Vector_171" d="M32.5194 28.556L32.3184 28.4555V28.1875L32.5194 28.288V28.556Z" fill="#F2F2F2"/>
<path id="Vector_172" d="M37.2434 25.5703V25.8383L32.5195 28.5521V28.2841L37.2434 25.5703Z" fill="#BFBFBF"/>
</g>
<g id="Group_55">
<g id="Group_56">
<g id="Group_57">
<g id="Group_58">
<g id="Group_59">
<path id="Vector_173" d="M36.8749 31.7082V27.2188L35.9033 27.7883V32.2777L36.8749 31.7082Z" fill="#BFBFBF"/>
<path id="Vector_174" d="M36.7745 27.4219V31.6433L36.0375 32.0788V27.8239L36.7745 27.4219Z" fill="#75BBE0"/>
<path id="Vector_175" d="M36.6405 27.4889V31.6098L36.0375 31.9448V32.0788L36.7745 31.6433V27.4219L36.6405 27.4889Z" fill="#F2F2F2"/>
<path id="Vector_176" d="M36.6405 31.6094L36.7745 31.6429L36.0375 32.0784V31.9444L36.6405 31.6094Z" fill="white"/>
</g>
</g>
<g id="Group_60">
<path id="Vector_177" d="M35.8362 32.3176V27.8281L34.8981 28.3642V32.8871L35.8362 32.3176Z" fill="#BFBFBF"/>
<path id="Vector_178" d="M35.7357 28.0312V32.2527L34.9986 32.6882V28.4333L35.7357 28.0312Z" fill="#75BBE0"/>
<path id="Vector_179" d="M35.6017 28.0983V32.1857L34.9986 32.5542V32.6882L35.7357 32.2527V28.0312L35.6017 28.0983Z" fill="#F2F2F2"/>
<path id="Vector_180" d="M35.6017 32.1875L35.7357 32.2545L34.9986 32.69V32.556L35.6017 32.1875Z" fill="white"/>
</g>
<g id="Group_61">
<path id="Vector_181" d="M34.8312 32.9136V28.3906L33.8596 28.9602V33.4496L34.8312 32.9136Z" fill="#BFBFBF"/>
<path id="Vector_182" d="M34.6971 28.5938V32.8487L33.96 33.2507V29.0293L34.6971 28.5938Z" fill="#75BBE0"/>
<path id="Vector_183" d="M34.5631 28.6608V32.7817L33.96 33.1502V33.2507L34.6971 32.8487V28.5938L34.5631 28.6608Z" fill="#F2F2F2"/>
<path id="Vector_184" d="M34.5631 32.7812L34.6971 32.8483L33.96 33.2503V33.1498L34.5631 32.7812Z" fill="white"/>
</g>
<g id="Group_62">
<g id="Group_63">
<path id="Vector_185" d="M33.7926 33.4816V28.9922L32.821 29.5617V34.0512L33.7926 33.4816Z" fill="#BFBFBF"/>
<path id="Vector_186" d="M33.6922 29.1875V33.4424L32.9551 33.8445V29.623L33.6922 29.1875Z" fill="#75BBE0"/>
<path id="Vector_187" d="M33.5582 29.2545V33.3754L32.9551 33.7104V33.8445L33.6922 33.4424V29.1875L33.5582 29.2545Z" fill="#F2F2F2"/>
<path id="Vector_188" d="M33.5582 33.3828L33.6922 33.4498L32.9551 33.8519V33.7178L33.5582 33.3828Z" fill="white"/>
</g>
</g>
</g>
</g>
</g>
<g id="Group_64">
<g id="Group_65">
<path id="Vector_189" d="M35.9033 27.6236L36.8749 27.0541V26.25L35.9033 26.8196V27.6236Z" fill="#BFBFBF"/>
<path id="Vector_190" d="M35.9702 26.8541V27.4907L36.8077 26.9881V26.3516L35.9702 26.8541Z" fill="#BFBFBF"/>
<path id="Vector_191" d="M36.7408 26.9836V26.4141L36.0037 26.8496V27.4192L36.7408 26.9836Z" fill="#E6E6E6"/>
<path id="Vector_192" d="M36.7073 26.9501V26.4476L36.7408 26.4141V26.9836L36.0037 27.4192V27.3522L36.7073 26.9501Z" fill="white"/>
<path id="Vector_193" d="M36.7408 26.9836L36.7073 26.9501V26.4476L36.7408 26.4141V26.9836Z" fill="#F2F2F2"/>
<path id="Vector_194" d="M35.9702 27.4851V27.5521L36.8412 27.0161V26.3125L36.8077 26.346V26.9826L35.9702 27.4851Z" fill="#DBC79A"/>
<path id="Vector_195" d="M35.9702 27.4851V27.5521L36.8412 27.0161V26.3125L36.8077 26.346V26.9826L35.9702 27.4851Z" fill="white"/>
<path id="Vector_196" d="M36.8079 26.9826L36.8414 27.0161V26.3125L36.8079 26.346V26.9826Z" fill="#F2F2F2"/>
</g>
<g id="Group_66">
<path id="Vector_197" d="M34.8981 28.1917L35.8362 27.6556V26.8516L34.8981 27.4211V28.1917Z" fill="#BFBFBF"/>
<path id="Vector_198" d="M34.9316 27.4222V28.0922L35.7692 27.5897V26.9531L34.9316 27.4222Z" fill="#BFBFBF"/>
<path id="Vector_199" d="M35.7356 27.5517V27.0156L34.965 27.4512V27.9872L35.7356 27.5517Z" fill="#E6E6E6"/>
<path id="Vector_200" d="M35.6686 27.5517V27.0491L35.7356 27.0156V27.5517L34.965 27.9872V27.9537L35.6686 27.5517Z" fill="white"/>
<path id="Vector_201" d="M35.7358 27.5517H35.6688V27.0491L35.7358 27.0156V27.5517Z" fill="#F2F2F2"/>
<path id="Vector_202" d="M34.9316 28.0945V28.128L35.8027 27.6254V26.9219L35.7692 26.9554V27.5919L34.9316 28.0945Z" fill="#DBC79A"/>
<path id="Vector_203" d="M34.9316 28.0945V28.128L35.8027 27.6254V26.9219L35.7692 26.9554V27.5919L34.9316 28.0945Z" fill="white"/>
<path id="Vector_204" d="M35.7691 27.5919L35.8026 27.6254V26.9219L35.7691 26.9554V27.5919Z" fill="#F2F2F2"/>
</g>
<g id="Group_67">
<path id="Vector_205" d="M33.8594 28.8011L34.831 28.2315V27.4609L33.8594 27.997V28.8011Z" fill="#BFBFBF"/>
<path id="Vector_206" d="M33.8929 28.0315V28.7016L34.7305 28.1991V27.5625L33.8929 28.0315Z" fill="#BFBFBF"/>
<path id="Vector_207" d="M34.6969 28.1611V27.625L33.9263 28.0605V28.5966L34.6969 28.1611Z" fill="#E6E6E6"/>
<path id="Vector_208" d="M34.6634 28.1611V27.6585L34.6969 27.625V28.1611L33.9263 28.5966V28.5631L34.6634 28.1611Z" fill="white"/>
<path id="Vector_209" d="M34.697 28.1611H34.6635V27.6585L34.697 27.625V28.1611Z" fill="#F2F2F2"/>
<path id="Vector_210" d="M33.8929 28.7039V28.7374L34.7975 28.2348V27.5312L34.7305 27.5648V28.2013L33.8929 28.7039Z" fill="#DBC79A"/>
<path id="Vector_211" d="M33.8929 28.7039V28.7374L34.7975 28.2348V27.5312L34.7305 27.5648V28.2013L33.8929 28.7039Z" fill="white"/>
<path id="Vector_212" d="M34.7304 28.2013L34.7639 28.2348V27.5312L34.7304 27.5648V28.2013Z" fill="#F2F2F2"/>
</g>
<g id="Group_68">
<path id="Vector_213" d="M32.8209 29.3948L33.7925 28.8253V28.0547L32.8209 28.5907V29.3948Z" fill="#BFBFBF"/>
<path id="Vector_214" d="M32.8543 28.6275V29.2641L33.6919 28.7951V28.125L32.8543 28.6275Z" fill="#BFBFBF"/>
<path id="Vector_215" d="M33.6584 28.7548V28.2188L32.9213 28.6543V29.1903L33.6584 28.7548Z" fill="#E6E6E6"/>
<path id="Vector_216" d="M33.6249 28.7213V28.2188H33.6584V28.7548L32.9213 29.1903V29.1568L33.6249 28.7213Z" fill="white"/>
<path id="Vector_217" d="M33.6584 28.7548L33.6249 28.7213V28.2188H33.6584V28.7548Z" fill="#F2F2F2"/>
<path id="Vector_218" d="M32.8543 29.2641V29.3311L33.7589 28.8286V28.125H33.6919V28.7951L32.8543 29.2641Z" fill="#DBC79A"/>
<path id="Vector_219" d="M32.8543 29.2641V29.3311L33.7589 28.8286V28.125H33.6919V28.7951L32.8543 29.2641Z" fill="white"/>
<path id="Vector_220" d="M33.6918 28.7951L33.7588 28.8286V28.125H33.6918V28.7951Z" fill="#F2F2F2"/>
</g>
</g>
<path id="Vector_221" d="M32.3183 28.1875L32.1843 28.3885V28.5225L32.2848 28.4555L32.2513 35.3907L32.3183 35.3572V28.1875Z" fill="#91ADBA"/>
<g id="Group_69">
<path id="Vector_222" d="M29.0015 34.2107L30.7102 35.2158V30.2238L29.0015 29.2188V34.2107Z" fill="#518E90"/>
<path id="Vector_223" d="M29.0015 34.2175L28.8005 34.318V29.125L29.0015 29.2255V34.2175Z" fill="#BFBFBF"/>
<path id="Vector_224" d="M28.5994 34.2143L28.8004 34.3149V28.9208L28.5994 28.8203V34.2143Z" fill="#F2F2F2"/>
<g id="Group_70">
<g id="Group_71">
<path id="Vector_225" d="M29.2026 32.3739H29.2361L29.0686 32.2734L29.0351 32.3069L29.2026 32.3739Z" fill="white"/>
<path id="Vector_226" d="M29.2026 32.5392L29.0351 32.4722V32.3047L29.2026 32.3717V32.5392Z" fill="#F2F2F2"/>
<path id="Vector_227" d="M29.2362 32.375V32.509L29.2027 32.5425V32.375H29.2362Z" fill="#BFBFBF"/>
</g>
<g id="Group_72">
<path id="Vector_228" d="M29.035 32.509L29.169 32.4085L29.102 32.375L28.9345 32.4755L29.035 32.509Z" fill="white"/>
<path id="Vector_229" d="M29.035 32.5771L28.9345 32.5436V32.4766L29.035 32.5101V32.5771Z" fill="#BFBFBF"/>
<path id="Vector_230" d="M29.169 32.4062V32.4733L29.035 32.5738V32.5068L29.169 32.4062Z" fill="#F2F2F2"/>
</g>
<g id="Group_73">
<path id="Vector_231" d="M29.0351 32.509L29.1356 32.442L28.9681 32.375L28.8676 32.4085L29.0351 32.509Z" fill="white"/>
<path id="Vector_232" d="M29.0351 32.6743L28.8676 32.5738V32.4062L29.0351 32.5068V32.6743Z" fill="#F2F2F2"/>
<path id="Vector_233" d="M29.1357 32.4375V32.605L29.0352 32.672V32.5045L29.1357 32.4375Z" fill="#BFBFBF"/>
</g>
</g>
<g id="Group_74">
<path id="Vector_234" d="M30.4086 34.6528L29.303 33.9827V33.0781L30.4086 33.7147V34.6528Z" fill="#518E90"/>
<path id="Vector_235" d="M30.3751 33.7492V34.5198L29.4035 33.9503V33.1797L30.3751 33.7492Z" fill="#518E90"/>
<path id="Vector_236" d="M29.4372 33.9178V33.2812L30.3083 33.7838V34.4204L29.4372 33.9178Z" fill="#247578"/>
<path id="Vector_237" d="M29.5042 33.8843V33.3148L29.4372 33.2812V33.9178L30.3083 34.4204V34.3534L29.5042 33.8843Z" fill="#CAF589"/>
<path id="Vector_238" d="M29.4372 33.9178L29.5042 33.8843V33.3148L29.4372 33.2812V33.9178Z" fill="#006A90"/>
<path id="Vector_239" d="M30.3752 34.5143V34.5813L29.3366 33.9782V33.1406L29.4036 33.1741V33.9447L30.3752 34.5143Z" fill="#DBC79A"/>
<path id="Vector_240" d="M30.3752 34.5143V34.5813L29.3366 33.9782V33.1406L29.4036 33.1741V33.9447L30.3752 34.5143Z" fill="#CAF589"/>
<path id="Vector_241" d="M29.4036 33.9447L29.3366 33.9782V33.1406L29.4036 33.1741V33.9447Z" fill="#006A90"/>
</g>
<g id="Group_75">
<path id="Vector_242" d="M29.2696 29.8281V32.9774L30.4087 33.614V30.4647L29.2696 29.8281Z" fill="#BFF8FF"/>
<path id="Vector_243" d="M29.4036 29.8951V32.9104L30.4087 33.5135V33.614L29.2696 32.9774V29.8281L29.4036 29.8951Z" fill="#006A90"/>
<path id="Vector_244" d="M29.4036 32.9062L29.2696 32.9733L30.4087 33.6098V33.5093L29.4036 32.9062Z" fill="#CAF589"/>
</g>
<path id="Vector_245" d="M28.5994 28.8203L30.8776 30.1269V30.328L28.5994 29.0213V28.8203Z" fill="#F2F2F2"/>
<path id="Vector_246" d="M30.7101 35.4175L30.8777 35.518V30.1239L30.7101 30.0234V35.4175Z" fill="#F2F2F2"/>
</g>
<path id="Vector_247" d="M30.7102 35.4249V35.2238L29.0015 34.2188L28.8005 34.3193L30.7102 35.4249Z" fill="#858A4C"/>
<path id="Vector_248" d="M30.7102 35.4249V35.2238L29.0015 34.2188L28.8005 34.3193L30.7102 35.4249Z" fill="#858A4C"/>
<g id="Group_76">
<path id="Vector_249" d="M26.7232 34.4607L20.2906 38.1461V33.1541L26.7232 29.4688V34.4607Z" fill="#BFBFBF"/>
<g id="Group_77">
<g id="Group_78">
<path id="Vector_250" d="M20.2907 37.4767V37.5772L26.7233 33.8248V33.7578L20.2907 37.4767Z" fill="#949494"/>
<path id="Vector_251" d="M20.2907 36.5414V36.6084L26.7233 32.8896V32.7891L20.2907 36.5414Z" fill="#949494"/>
<path id="Vector_252" d="M20.2907 35.5626V35.6631L26.7233 31.9108V31.8438L20.2907 35.5626Z" fill="#949494"/>
<path id="Vector_253" d="M20.2907 34.6274V34.6944L26.7233 30.942V30.875L20.2907 34.6274Z" fill="#949494"/>
<path id="Vector_254" d="M20.2907 33.6564V33.7234L26.7233 30.0045V29.9375L20.2907 33.6564Z" fill="#949494"/>
</g>
<g id="Group_79">
<path id="Vector_255" d="M20.2907 37.5492V37.6162L26.7233 33.8974V33.7969L20.2907 37.5492Z" fill="white"/>
<path id="Vector_256" d="M20.2907 36.5782V36.6452L26.7233 32.9264V32.8594L20.2907 36.5782Z" fill="white"/>
<path id="Vector_257" d="M20.2907 35.643V35.71L26.7233 31.9576V31.8906L20.2907 35.643Z" fill="white"/>
<path id="Vector_258" d="M20.2907 34.6642V34.7312L26.7233 31.0123V30.9453L20.2907 34.6642Z" fill="white"/>
<path id="Vector_259" d="M20.2907 33.6954V33.7959L26.7233 30.0436V29.9766L20.2907 33.6954Z" fill="white"/>
</g>
</g>
<path id="Vector_260" d="M26.7231 34.4541L26.8906 34.5546V29.3281L26.7231 29.4621V34.4541Z" fill="#F2F2F2"/>
<path id="Vector_261" d="M27.0917 34.4565L26.8907 34.557V29.163L27.0917 29.0625V34.4565Z" fill="#BFBFBF"/>
<path id="Vector_262" d="M27.0917 29.0625L20.123 33.0494V33.2504L27.0917 29.23V29.0625Z" fill="#F2F2F2"/>
<path id="Vector_263" d="M20.2905 38.3472L20.123 38.4477V33.0536L20.2905 32.9531V38.3472Z" fill="#BFBFBF"/>
</g>
<path id="Vector_264" d="M26.8909 34.5536L26.7233 34.4531L20.2907 38.1385V38.3395L26.8909 34.5536Z" fill="#858A4C"/>
<path id="Vector_265" d="M26.8909 34.5536L26.7233 34.4531L20.2907 38.1385V38.3395L26.8909 34.5536Z" fill="#858A4C"/>
<g id="Group_80">
<path id="Vector_266" d="M20.1901 32.9737L27.3263 28.8863L27.0583 28.7188L19.9221 32.8062L20.1901 32.9737Z" fill="white"/>
<path id="Vector_267" d="M20.1901 33.2402L19.9221 33.0727V32.8047L20.1901 32.9722V33.2402Z" fill="#F2F2F2"/>
<path id="Vector_268" d="M27.3262 28.8828V29.1508L20.19 33.2382V32.9702L27.3262 28.8828Z" fill="#BFBFBF"/>
</g>
<g id="Group_81">
<g id="Group_82">
<path id="Vector_269" d="M25.584 31.5042L26.5556 30.9681V30.1641L25.584 30.7001V31.5042Z" fill="#F2F2F2"/>
<path id="Vector_270" d="M25.6509 30.7347V31.4047L26.4885 30.9022V30.2656L25.6509 30.7347Z" fill="#F2F2F2"/>
<path id="Vector_271" d="M26.4216 30.8642V30.3281L25.6845 30.7637V31.2997L26.4216 30.8642Z" fill="#75BBE0"/>
<path id="Vector_272" d="M26.3881 30.8642V30.3616L26.4216 30.3281V30.8642L25.6845 31.2997V31.2662L26.3881 30.8642Z" fill="white"/>
<path id="Vector_273" d="M26.4216 30.8642H26.3881V30.3616L26.4216 30.3281V30.8642Z" fill="#BFBFBF"/>
<path id="Vector_274" d="M25.6509 31.407V31.4405L26.522 30.9379V30.2344L26.4885 30.2679V30.9044L25.6509 31.407Z" fill="#DBC79A"/>
<path id="Vector_275" d="M25.6509 31.407V31.4405L26.522 30.9379V30.2344L26.4885 30.2679V30.9044L25.6509 31.407Z" fill="white"/>
<path id="Vector_276" d="M26.4887 30.9044L26.5222 30.9379V30.2344L26.4887 30.2679V30.9044Z" fill="#BFBFBF"/>
</g>
<g id="Group_83">
<path id="Vector_277" d="M24.3445 32.2386L25.2826 31.669V30.8984L24.3445 31.4345V32.2386Z" fill="#F2F2F2"/>
<path id="Vector_278" d="M24.3779 31.469V32.1391L25.2155 31.6366V31L24.3779 31.469Z" fill="#F2F2F2"/>
<path id="Vector_279" d="M25.1485 31.5986V31.0625L24.4114 31.498V32.0341L25.1485 31.5986Z" fill="#75BBE0"/>
<path id="Vector_280" d="M25.1149 31.5986V31.096L25.1485 31.0625V31.5986L24.4114 32.0341V32.0006L25.1149 31.5986Z" fill="white"/>
<path id="Vector_281" d="M25.1486 31.5986H25.1151V31.096L25.1486 31.0625V31.5986Z" fill="#BFBFBF"/>
<path id="Vector_282" d="M24.3779 32.1414V32.1749L25.249 31.6723V30.9688L25.2155 31.0023V31.6388L24.3779 32.1414Z" fill="#DBC79A"/>
<path id="Vector_283" d="M24.3779 32.1414V32.1749L25.249 31.6723V30.9688L25.2155 31.0023V31.6388L24.3779 32.1414Z" fill="white"/>
<path id="Vector_284" d="M25.2155 31.6388L25.249 31.6723V30.9688L25.2155 31.0023V31.6388Z" fill="#BFBFBF"/>
</g>
<g id="Group_84">
<path id="Vector_285" d="M23.0714 32.9808L24.0094 32.4112V31.6406L23.0714 32.1767V32.9808Z" fill="#F2F2F2"/>
<path id="Vector_286" d="M23.1048 32.2057V32.8422L23.9424 32.3732V31.7031L23.1048 32.2057Z" fill="#F2F2F2"/>
<path id="Vector_287" d="M23.9088 32.3407V31.8047L23.1382 32.2402V32.7763L23.9088 32.3407Z" fill="#75BBE0"/>
<path id="Vector_288" d="M23.8753 32.3072V31.8047H23.9088V32.3407L23.1382 32.7763V32.7428L23.8753 32.3072Z" fill="white"/>
<path id="Vector_289" d="M23.9089 32.3407L23.8754 32.3072V31.8047H23.9089V32.3407Z" fill="#BFBFBF"/>
<path id="Vector_290" d="M23.1048 32.8422V32.9092L23.9759 32.4067V31.7031H23.9424V32.3732L23.1048 32.8422Z" fill="#DBC79A"/>
<path id="Vector_291" d="M23.1048 32.8422V32.9092L23.9759 32.4067V31.7031H23.9424V32.3732L23.1048 32.8422Z" fill="white"/>
<path id="Vector_292" d="M23.9423 32.3732L23.9758 32.4067V31.7031H23.9423V32.3732Z" fill="#BFBFBF"/>
</g>
<g id="Group_85">
<path id="Vector_293" d="M21.7982 33.7151L22.7697 33.1456V32.375L21.7982 32.9111V33.7151Z" fill="#F2F2F2"/>
<path id="Vector_294" d="M21.8316 32.94V33.5766L22.6692 33.1076V32.4375L21.8316 32.94Z" fill="#F2F2F2"/>
<path id="Vector_295" d="M22.6356 33.0751V32.5391L21.8651 32.9746V33.5107L22.6356 33.0751Z" fill="#75BBE0"/>
<path id="Vector_296" d="M22.6021 33.0416V32.5391H22.6356V33.0751L21.8651 33.5107V33.4772L22.6021 33.0416Z" fill="white"/>
<path id="Vector_297" d="M22.6357 33.0751L22.6022 33.0416V32.5391H22.6357V33.0751Z" fill="#BFBFBF"/>
<path id="Vector_298" d="M21.8316 33.5766V33.6436L22.7362 33.1411V32.4375H22.6692V33.1076L21.8316 33.5766Z" fill="#DBC79A"/>
<path id="Vector_299" d="M21.8316 33.5766V33.6436L22.7362 33.1411V32.4375H22.6692V33.1076L21.8316 33.5766Z" fill="white"/>
<path id="Vector_300" d="M22.6691 33.1076L22.7361 33.1411V32.4375H22.6691V33.1076Z" fill="#BFBFBF"/>
</g>
<g id="Group_86">
<path id="Vector_301" d="M20.5251 34.4573L21.4967 33.8878V33.1172L20.5251 33.6532V34.4573Z" fill="#F2F2F2"/>
<path id="Vector_302" d="M20.5585 33.69V34.3266L21.3961 33.8576V33.1875L20.5585 33.69Z" fill="#F2F2F2"/>
<path id="Vector_303" d="M21.3625 33.8173V33.2812L20.6254 33.7168V34.2528L21.3625 33.8173Z" fill="#75BBE0"/>
<path id="Vector_304" d="M21.329 33.7838V33.2812H21.3625V33.8173L20.6254 34.2528V34.2193L21.329 33.7838Z" fill="white"/>
<path id="Vector_305" d="M21.3627 33.8173L21.3292 33.7838V33.2812H21.3627V33.8173Z" fill="#BFBFBF"/>
<path id="Vector_306" d="M20.5585 34.3266V34.3936L21.4631 33.8911V33.1875H21.3961V33.8576L20.5585 34.3266Z" fill="#DBC79A"/>
<path id="Vector_307" d="M20.5585 34.3266V34.3936L21.4631 33.8911V33.1875H21.3961V33.8576L20.5585 34.3266Z" fill="white"/>
<path id="Vector_308" d="M21.3961 33.8576L21.4631 33.8911V33.1875H21.3961V33.8576Z" fill="#BFBFBF"/>
</g>
</g>
<path id="Vector_309" d="M20.1232 26.8777L18.4145 27.8493L17.912 27.7153L17.7444 26.8442L18.716 26.1406L20.1232 26.8777Z" fill="#518E90"/>
<path id="Vector_310" d="M22.7363 25.3777L21.0277 26.3828L20.5251 26.2153L20.3576 25.3777L21.3292 24.6406L22.7363 25.3777Z" fill="#518E90"/>
<path id="Vector_311" d="M25.3495 23.8933L23.6409 24.8649L23.1048 24.7309L22.9373 23.8598L23.9424 23.1562L25.3495 23.8933Z" fill="#518E90"/>
<g id="Group_87">
<g id="Group_88">
<g id="Group_89">
<g id="Group_90">
<path id="Vector_312" d="M22.5019 22.5781V23.6502L23.105 24.7223V22.8797L22.5019 22.5781Z" fill="#F2F2F2"/>
<path id="Vector_313" d="M23.105 24.7204L24.3447 24.0168V22.1406L23.105 22.8777V24.7204Z" fill="#BFBFBF"/>
<g id="Group_91">
<path id="Vector_314" d="M23.2726 22.8089L24.6798 22.0048L23.7082 21.4688L22.3345 22.2728L23.2726 22.8089Z" fill="white"/>
<path id="Vector_315" d="M23.2726 22.7464L24.6798 21.9758L23.7082 21.4062L22.3345 22.2103L23.2726 22.7464Z" fill="#ECFF8F"/>
<path id="Vector_316" d="M23.2056 22.9848L22.5021 22.5828L22.3345 22.2812L23.2726 22.8173L23.2056 22.9848Z" fill="#F2F2F2"/>
<path id="Vector_317" d="M24.6796 22.0156L24.5791 22.1831L23.2055 22.9872L23.2725 22.8197L24.6796 22.0156Z" fill="#A6A6A6"/>
</g>
</g>
<path id="Vector_318" d="M23.2724 22.8218V22.7548L22.3343 22.2188V22.2858L23.2724 22.8218Z" fill="#518E90"/>
<path id="Vector_319" d="M23.2725 22.822V22.755L24.6797 21.9844V22.0179L23.2725 22.822Z" fill="#006A90"/>
</g>
<g id="Group_92">
<path id="Vector_320" d="M24.2439 23.9976V22.5234L23.2388 23.093V24.5671L24.2439 23.9976Z" fill="#BFBFBF"/>
<path id="Vector_321" d="M24.1099 22.7188V23.9249L23.3393 24.3604V23.1543L24.1099 22.7188Z" fill="#75BBE0"/>
<path id="Vector_322" d="M23.9759 22.7858V23.8579L23.3393 24.2264V24.3604L24.1099 23.9249V22.7188L23.9759 22.7858Z" fill="#F2F2F2"/>
<path id="Vector_323" d="M23.9759 23.8594L24.1099 23.9264L23.3393 24.3619V24.2279L23.9759 23.8594Z" fill="white"/>
<g id="Group_93">
<path id="Vector_324" d="M24.1097 23.936H23.8752V22.8639L23.9757 22.7969V23.869L24.1097 23.936Z" fill="#A3A3A3"/>
</g>
</g>
</g>
</g>
<g id="Group_94">
<g id="Group_95">
<g id="Group_96">
<g id="Group_97">
<path id="Vector_325" d="M19.8889 24.1094V25.148L20.5255 26.2536V24.3774L19.8889 24.1094Z" fill="#F2F2F2"/>
<path id="Vector_326" d="M20.5256 26.2516L21.7318 25.5146V23.6719L20.5256 24.3754V26.2516Z" fill="#BFBFBF"/>
<g id="Group_98">
<path id="Vector_327" d="M20.6932 24.3401L22.0668 23.5361L21.0952 23L19.7216 23.8041L20.6932 24.3401Z" fill="white"/>
<path id="Vector_328" d="M20.6932 24.2776L22.0668 23.4736L21.0952 22.9375L19.7216 23.7416L20.6932 24.2776Z" fill="#ECFF8F"/>
<path id="Vector_329" d="M20.5926 24.4826L19.8891 24.114L19.7216 23.8125L20.6932 24.3486L20.5926 24.4826Z" fill="#F2F2F2"/>
<path id="Vector_330" d="M22.0667 23.5469L21.9662 23.6809L20.5925 24.485L20.693 24.351L22.0667 23.5469Z" fill="#A6A6A6"/>
</g>
</g>
<path id="Vector_331" d="M20.693 24.3374V24.2704L19.7214 23.7344V23.8014L20.693 24.3374Z" fill="#518E90"/>
<path id="Vector_332" d="M20.6931 24.3398V24.2728L22.0667 23.4688V23.5358L20.6931 24.3398Z" fill="#006A90"/>
</g>
<g id="Group_99">
<path id="Vector_333" d="M21.631 25.4741V24L20.6259 24.6031V26.0772L21.631 25.4741Z" fill="#BFBFBF"/>
<path id="Vector_334" d="M21.5305 24.2031V25.4092L20.7264 25.8783V24.6722L21.5305 24.2031Z" fill="#75BBE0"/>
<path id="Vector_335" d="M21.3964 24.3036V25.3757L20.7264 25.7443V25.8783L21.5305 25.4092V24.2031L21.3964 24.3036Z" fill="#F2F2F2"/>
<path id="Vector_336" d="M21.3964 25.375L21.5305 25.4085L20.7264 25.8775V25.7435L21.3964 25.375Z" fill="white"/>
<path id="Vector_337" d="M21.5305 25.4025H21.296V24.3639L21.3965 24.2969V25.369L21.5305 25.4025Z" fill="#A3A3A3"/>
</g>
</g>
</g>
<g id="Group_100">
<g id="Group_101">
<g id="Group_102">
<g id="Group_103">
<path id="Vector_338" d="M17.2758 25.5781V26.6167L17.9123 27.7223V25.8797L17.2758 25.5781Z" fill="#F2F2F2"/>
<path id="Vector_339" d="M17.9124 27.7204L19.152 27.0168V25.1406L17.9124 25.8777V27.7204Z" fill="#BFBFBF"/>
<g id="Group_104">
<path id="Vector_340" d="M18.0799 25.8089L19.4535 25.0048L18.5154 24.4688L17.1083 25.2728L18.0799 25.8089Z" fill="white"/>
<path id="Vector_341" d="M18.0799 25.7464L19.4535 24.9758L18.5154 24.4062L17.1083 25.2103L18.0799 25.7464Z" fill="#ECFF8F"/>
<path id="Vector_342" d="M17.9794 25.9848L17.2758 25.5828L17.1083 25.2812L18.0799 25.8173L17.9794 25.9848Z" fill="#F2F2F2"/>
<path id="Vector_343" d="M19.4534 25.0156L19.3864 25.1831L17.9792 25.9872L18.0798 25.8197L19.4534 25.0156Z" fill="#A6A6A6"/>
</g>
</g>
<path id="Vector_344" d="M18.0797 25.8062V25.7392L17.1081 25.2031V25.2701L18.0797 25.8062Z" fill="#518E90"/>
<path id="Vector_345" d="M18.0798 25.8063V25.7393L19.4534 24.9688V25.0023L18.0798 25.8063Z" fill="#006A90"/>
</g>
<g id="Group_105">
<path id="Vector_346" d="M19.0176 26.9741V25.5L18.0125 26.0696V27.5437L19.0176 26.9741Z" fill="#BFBFBF"/>
<path id="Vector_347" d="M18.9172 25.7031V26.9092L18.1467 27.3448V26.1387L18.9172 25.7031Z" fill="#75BBE0"/>
<path id="Vector_348" d="M18.7832 25.7701V26.8422L18.1467 27.2108V27.3448L18.9172 26.9092V25.7031L18.7832 25.7701Z" fill="#F2F2F2"/>
<path id="Vector_349" d="M18.7832 26.8438L18.9172 26.9108L18.1467 27.3463V27.2123L18.7832 26.8438Z" fill="white"/>
<g id="Group_106">
<path id="Vector_350" d="M18.9171 26.9125H18.6826V25.8404L18.7831 25.7734V26.8455L18.9171 26.9125Z" fill="#A3A3A3"/>
</g>
</g>
</g>
</g>
</g>
</g>
<g id="Group_107">
<path id="Vector_351" d="M44.3125 34.7808C43.5419 35.2164 42.2688 35.2164 41.4982 34.7808C40.7276 34.3453 40.7276 33.6082 41.4982 33.1392C42.2688 32.7036 43.5419 32.7036 44.3125 33.1392C45.0831 33.6082 45.0831 34.3453 44.3125 34.7808Z" fill="#858A4C"/>
<g id="Group_108">
<g id="Group_109">
<path id="Vector_352" d="M42.3357 33.2809C42.4028 33.3479 42.5033 33.3814 42.6038 33.4149C42.7043 33.4484 42.8048 33.4484 42.8718 33.4819C43.0058 33.5154 43.1063 33.6159 43.2068 33.6829C43.3073 33.7499 43.4079 33.8169 43.5419 33.8839C43.7429 33.9509 43.9439 33.9509 44.0779 33.7834C44.1449 33.6829 44.1784 33.5824 44.1449 33.4819C44.1449 33.4149 44.1449 33.3479 44.0779 33.2809C44.0444 33.3144 44.0444 33.3479 44.0444 33.3814C44.0109 33.4149 43.9774 33.4484 43.9439 33.4484C43.8769 33.4484 43.8434 33.4484 43.7764 33.4484C43.5754 33.4149 43.3408 33.3479 43.1733 33.2473C42.9723 33.1468 42.8048 33.0463 42.6038 32.9458C42.5033 32.9123 42.4028 32.8788 42.3022 32.9123C42.1347 32.9793 42.2352 33.1803 42.3357 33.2809Z" fill="#225A78"/>
<path id="Vector_353" d="M44.145 33.5098C44.1115 33.6438 44.011 33.7443 43.9105 33.8113C43.6089 33.9118 43.3409 33.6438 43.1399 33.4763C43.0729 33.4427 43.0394 33.3757 42.9724 33.3422C42.8718 33.2752 42.7378 33.2417 42.6038 33.2417C42.5033 33.2417 42.4363 33.2417 42.3358 33.1747C42.2018 33.1077 42.1683 32.9737 42.2018 32.8397V32.8062C42.2353 32.7057 42.3023 32.6387 42.3023 32.5717C42.3358 32.4712 42.3023 32.4041 42.3023 32.3036C42.3023 32.2366 42.3358 32.2031 42.4028 32.2031C42.4363 32.2031 42.4363 32.2031 42.4698 32.2366L42.5033 32.2701C42.5368 32.2701 42.5703 32.3036 42.6373 32.3036C42.6708 32.3036 42.7378 32.3036 42.7713 32.3036L42.8718 32.2701C42.9389 32.4041 42.9724 32.5382 43.0729 32.6387L43.1064 32.6722C43.1399 32.7057 43.1734 32.7057 43.2069 32.7392C43.2404 32.7727 43.2739 32.7727 43.2739 32.7727C43.3074 32.8062 43.3744 32.8062 43.4079 32.8397C43.4414 32.8732 43.5084 32.8732 43.5419 32.8732C43.6089 32.9067 43.7094 32.9402 43.7764 32.9737C43.8099 32.9737 43.8434 33.0072 43.8769 33.0407C43.9775 33.1077 44.078 33.2417 44.1115 33.3757C44.1785 33.4092 44.1785 33.4763 44.145 33.5098Z" fill="#407896"/>
<g id="Group_110">
<path id="Vector_354" d="M43.9439 33.0045C43.9104 33.0045 43.9104 33.0045 43.9439 33.0045C43.8769 33.038 43.8434 33.0715 43.8099 33.0715C43.7429 33.1385 43.6759 33.172 43.6424 33.2725C43.6089 33.306 43.6089 33.3395 43.5754 33.373H43.5419C43.5084 33.373 43.5084 33.373 43.5084 33.3395C43.4749 33.306 43.5084 33.2725 43.5419 33.239C43.5754 33.2055 43.5754 33.172 43.6089 33.1385C43.6759 33.0715 43.7429 33.0045 43.8099 32.971C43.8434 32.971 43.8434 32.9375 43.8769 32.9375C43.8769 32.971 43.9104 33.0045 43.9439 33.0045Z" fill="white"/>
</g>
<g id="Group_111">
<path id="Vector_355" d="M43.6088 32.8717C43.5753 32.8717 43.5418 32.9052 43.5418 32.9052C43.4748 32.9722 43.4078 33.0057 43.3743 33.1062C43.3408 33.1397 43.3408 33.1732 43.3073 33.2067C43.3073 33.2067 43.3073 33.2067 43.2738 33.2067C43.2738 33.2067 43.2403 33.2067 43.2403 33.1732C43.2068 33.1397 43.2403 33.1062 43.2738 33.0727C43.3073 33.0392 43.3073 33.0057 43.3408 32.9722C43.3743 32.9052 43.4413 32.8382 43.5083 32.8047C43.5083 32.8382 43.5418 32.8382 43.6088 32.8717Z" fill="white"/>
</g>
<g id="Group_112">
<path id="Vector_356" d="M43.2738 32.7389L43.2403 32.7724C43.1733 32.8394 43.1063 32.8729 43.0728 32.9734C43.0393 33.0069 43.0393 33.0404 43.0058 33.0739C43.0058 33.0739 43.0058 33.0739 42.9723 33.0739C42.9723 33.0739 42.9388 33.0739 42.9388 33.0404C42.9053 33.0069 42.9388 32.9734 42.9723 32.9399C43.0058 32.9064 43.0058 32.8729 43.0393 32.8394C43.0728 32.7724 43.1398 32.7054 43.2068 32.6719C43.2068 32.7054 43.2403 32.7054 43.2738 32.7389Z" fill="white"/>
</g>
<path id="Vector_357" d="M44.6139 25.3403C44.5469 25.3403 44.5134 25.3068 44.4464 25.3068C44.3124 25.2733 44.2119 25.2398 44.0779 25.2398C44.0444 25.2398 44.0444 25.2398 44.0109 25.2398C44.0109 25.2398 43.9439 24.8712 43.9439 24.8042C43.9104 24.6702 43.8099 24.5362 43.7429 24.4022C43.7429 24.4022 43.7429 24.3687 43.7094 24.3687C43.5418 24.0337 43.3743 23.7321 43.2403 23.3971C43.2068 23.3301 43.2068 23.2966 43.1733 23.2296C43.1063 23.0621 43.0393 22.8945 42.9388 22.7605C42.9053 22.6935 42.8718 22.6265 42.9723 22.593C43.0058 22.5595 43.0728 22.593 43.1063 22.593C43.3073 22.6265 43.4748 22.727 43.6088 22.8945L43.6423 22.928C43.7429 23.0956 43.8434 23.2631 43.9104 23.4306C44.0109 23.5981 44.0779 23.7991 44.1784 23.9667C44.2789 24.2012 44.3794 24.4357 44.5134 24.6702C44.5469 24.8042 44.882 25.3403 44.6139 25.3403Z" fill="#FFF8F2"/>
<path id="Vector_358" d="M43.8769 28.5232C43.8099 28.8582 43.6759 29.1598 43.5754 29.4613C43.3744 30.0309 43.1734 30.6674 43.1399 31.2705C43.1064 31.505 43.1064 31.773 43.1064 32.041C43.1064 32.2086 43.1399 32.3426 43.1399 32.5101C43.1399 32.5436 43.1399 32.5436 43.1399 32.5771C43.1399 32.6106 43.1064 32.6441 43.0729 32.6776C43.0394 32.7111 43.0394 32.7111 43.0059 32.7111C42.8718 32.8116 42.7043 32.8116 42.5703 32.8116C42.5033 32.8116 42.4363 32.7781 42.3693 32.7446C42.2688 32.6776 42.2688 32.6106 42.2688 32.5101C42.2688 32.4096 42.2688 32.2756 42.2353 32.1751C42.2353 31.9405 42.2018 31.706 42.2018 31.505C42.1348 30.6004 42.3023 29.6623 42.5033 28.7912C42.6038 28.3892 42.7043 27.9536 42.9388 27.5851C42.9723 27.5181 43.0059 27.4511 43.0729 27.4511C43.1399 27.4176 43.2404 27.4511 43.3074 27.4511H43.3409C43.4414 27.4511 43.5754 27.4176 43.6759 27.4176C43.7094 27.4176 43.7429 27.3171 43.8099 27.3506C43.8434 27.3506 43.8434 27.3841 43.8769 27.4176C44.078 27.7526 43.9439 28.2217 43.8769 28.5232Z" fill="#D4976A"/>
<path id="Vector_359" d="M41.3641 33.8126C41.3976 33.8796 41.4311 33.9466 41.4646 33.9801C41.5316 34.0806 41.6656 34.1811 41.7326 34.2816C41.7996 34.3821 41.8331 34.5162 41.9336 34.6167C42.0341 34.7507 42.1346 34.8512 42.3022 34.8847C42.4027 34.9182 42.5032 34.9182 42.6037 34.8847C42.7712 34.8512 42.9722 34.7507 43.0057 34.5832C43.0392 34.5162 43.0057 34.4157 42.9722 34.3486C42.9387 34.3821 42.9387 34.4492 42.9052 34.4827C42.8717 34.5162 42.8382 34.5497 42.8047 34.5497C42.7712 34.5497 42.7377 34.5832 42.7042 34.5832C42.6707 34.5832 42.6372 34.5497 42.6037 34.5497C42.4362 34.4827 42.3022 34.3821 42.1681 34.2816C41.9671 34.1141 41.8331 33.9131 41.6991 33.6786C41.6321 33.5781 41.5986 33.5111 41.4981 33.4776C41.3306 33.4106 41.3306 33.7456 41.3641 33.8126Z" fill="#225A78"/>
<path id="Vector_360" d="M42.8049 34.751C42.7044 34.818 42.6039 34.8515 42.4699 34.8515H42.4364C42.3023 34.8515 42.1683 34.818 42.0678 34.751C41.8668 34.617 41.8333 34.349 41.6993 34.1815C41.6323 34.081 41.5653 34.014 41.4648 33.9135C41.3978 33.8129 41.3307 33.7124 41.3307 33.6119C41.3307 33.5449 41.3308 33.4779 41.3978 33.3774C41.4313 33.2769 41.4983 33.2099 41.4983 33.1094C41.5988 33.1429 41.6993 33.1429 41.7998 33.1429C41.8333 33.1429 41.8333 33.1429 41.8668 33.1429C41.9003 33.1429 41.9673 33.1094 42.0343 33.1429C42.0678 33.1429 42.1013 33.2099 42.1348 33.2434C42.2353 33.4109 42.3358 33.5449 42.4699 33.6789C42.6039 33.8129 42.7379 33.947 42.8384 34.081C42.9389 34.1815 42.9724 34.3155 43.0059 34.483C43.0059 34.5835 42.9389 34.684 42.8049 34.751Z" fill="#407896"/>
<g id="Group_113">
<path id="Vector_361" d="M42.2017 34.3477C42.2352 34.3142 42.2687 34.2807 42.3022 34.2807C42.3692 34.2137 42.4362 34.1802 42.5367 34.1467C42.5702 34.1467 42.6373 34.1131 42.6708 34.1131C42.7043 34.1131 42.7378 34.1131 42.7378 34.1131H42.7713C42.7713 34.1131 42.8048 34.0796 42.7713 34.0796C42.7713 34.0461 42.7378 34.0461 42.7378 34.0461C42.6708 34.0126 42.6037 34.0461 42.5032 34.0461C42.4027 34.0796 42.3357 34.1131 42.2687 34.1467C42.2352 34.1802 42.2017 34.1802 42.1682 34.2137C42.1347 34.2472 42.1012 34.2807 42.1012 34.3142C42.1347 34.3142 42.1347 34.3477 42.2017 34.3477C42.1682 34.3477 42.1682 34.3477 42.2017 34.3477Z" fill="white"/>
</g>
<g id="Group_114">
<path id="Vector_362" d="M42.0008 34.082C42.0343 34.0485 42.0678 34.015 42.1013 34.015C42.1683 33.948 42.2353 33.9145 42.3358 33.881C42.3693 33.881 42.4363 33.8475 42.4698 33.8475C42.5033 33.8475 42.5368 33.8475 42.5368 33.8475H42.5703C42.5703 33.8475 42.6038 33.814 42.5703 33.814C42.5703 33.7805 42.5368 33.7805 42.5368 33.7805C42.4698 33.747 42.4028 33.7805 42.3023 33.7805C42.2018 33.814 42.1348 33.8475 42.0678 33.881C42.0343 33.9145 42.0008 33.9145 41.9673 33.948C41.9338 33.9815 41.9003 34.015 41.9003 34.0485C41.9338 34.082 41.9338 34.082 42.0008 34.082C41.9673 34.082 41.9673 34.082 42.0008 34.082Z" fill="white"/>
</g>
<g id="Group_115">
<path id="Vector_363" d="M41.7662 33.8477C41.7997 33.8142 41.8332 33.7807 41.8667 33.7807C41.9337 33.7137 42.0007 33.6802 42.1012 33.6467C42.1347 33.6467 42.2017 33.6131 42.2352 33.6131C42.2687 33.6131 42.3022 33.6131 42.3022 33.6131H42.3357C42.3357 33.6131 42.3692 33.5796 42.3357 33.5796C42.3357 33.5461 42.3022 33.5461 42.3022 33.5461C42.2352 33.5126 42.1682 33.5461 42.0677 33.5461C41.9672 33.5796 41.9002 33.6131 41.8332 33.6467C41.7997 33.6802 41.7662 33.6802 41.7327 33.7137C41.6992 33.7472 41.6656 33.7807 41.6656 33.8142C41.6992 33.8142 41.7327 33.8477 41.7662 33.8477Z" fill="white"/>
</g>
<path id="Vector_364" d="M43.1064 27.3472C43.1064 27.4812 43.1064 27.5817 43.1064 27.7157C43.0394 28.4193 42.8719 29.1564 42.7043 29.8599C42.6373 30.195 42.5703 30.53 42.4698 30.865C42.4363 30.9321 42.4363 30.9991 42.4028 31.0996C42.3023 31.4346 42.1683 31.7696 42.1348 32.1047C42.1013 32.4732 42.1013 32.8082 42.1013 33.1768C42.1013 33.2103 42.1013 33.2438 42.1013 33.2773C42.1013 33.3108 42.0678 33.3443 42.0343 33.3443C42.0008 33.3778 41.9338 33.4113 41.8668 33.4448C41.8333 33.4448 41.7997 33.4448 41.7997 33.4783C41.6657 33.5118 41.5317 33.5118 41.3977 33.4783C41.3642 33.4783 41.3642 33.4783 41.3642 33.4448C41.3642 33.4448 41.3307 33.4113 41.3307 33.3778C41.2972 33.2103 41.2972 33.0763 41.2637 32.9087C41.1632 32.5067 41.0962 32.0712 41.1297 31.6691C41.1632 31.3676 41.2302 31.0661 41.2637 30.7645C41.2972 30.463 41.2972 30.1615 41.2302 29.8264C41.1632 29.3909 41.0627 28.9554 41.0292 28.4863C41.0292 28.2853 41.0292 28.0843 41.0292 27.8833C41.0627 27.6822 41.0962 27.5147 41.1632 27.3137C41.1632 27.2802 41.1967 27.2467 41.1967 27.2132L41.2302 27.1797C41.2302 27.1797 41.2302 27.1797 41.2637 27.2132C41.2972 27.3137 41.2972 27.3807 41.3307 27.4812C41.3642 27.6487 41.4647 27.7827 41.6322 27.8498C41.7997 27.9168 42.0008 27.8833 42.2018 27.8498C42.2688 27.8498 42.3358 27.8163 42.4028 27.7827C42.5033 27.7492 42.6373 27.7157 42.7378 27.6487C42.7713 27.6487 42.8048 27.6152 42.8383 27.5817C42.8719 27.5482 42.8719 27.5482 42.9054 27.5147C43.0059 27.5147 43.0729 27.4142 43.1064 27.3472Z" fill="#DDB79B"/>
<g id="Group_116">
<path id="Vector_365" d="M43.944 27.5121C43.9775 27.6126 44.0445 27.6461 43.944 27.7466C43.877 27.8136 43.81 27.8807 43.743 27.9477C43.609 28.0482 43.4749 28.1152 43.3409 28.1822C43.3074 28.1822 43.3074 28.1822 43.2739 28.2157C43.0059 28.3162 42.6709 28.3497 42.3693 28.3497C42.1348 28.3497 41.9003 28.3497 41.6658 28.2492C41.4312 28.1822 41.2302 28.0147 41.1297 27.8137C41.0962 27.7801 41.0962 27.7466 41.0962 27.7131C41.0962 27.6796 41.0962 27.6461 41.1297 27.6126C41.2302 27.3446 41.2972 27.0431 41.3307 26.775C41.3642 26.3395 41.2637 25.904 41.0962 25.5019C41.0292 25.3344 40.8952 25.1334 40.8617 24.9324C40.8282 24.6978 40.7947 24.4968 40.7947 24.2623C40.7947 24.1283 40.7612 23.9943 40.7947 23.8268C40.7947 23.7933 40.7947 23.7262 40.8282 23.6927C40.8617 23.6257 40.8952 23.5587 40.9287 23.5252C41.0962 23.3242 41.2972 23.1567 41.5318 22.9892C41.7663 22.8552 42.0008 22.7547 42.2353 22.6206C42.3358 22.5871 42.4363 22.5201 42.5369 22.4866C42.6039 22.4531 42.6709 22.4531 42.7044 22.4531C42.7379 22.4531 42.7379 22.4531 42.7714 22.4866C42.8049 22.5201 42.8384 22.5536 42.8719 22.5871C42.9389 22.6206 43.0059 22.6206 43.0729 22.6541C43.1734 22.6876 43.3074 22.7547 43.4079 22.8217C43.542 22.9222 43.609 23.0897 43.6425 23.2237C43.676 23.3242 44.0445 24.2288 44.078 24.5303C44.1115 24.8654 43.944 25.1669 43.8435 25.4684C43.5754 26.0715 43.676 26.8421 43.944 27.5121Z" fill="#FAECE2"/>
</g>
<path id="Vector_366" d="M43.1398 22.6936C43.1063 22.7271 43.1063 22.7606 43.1063 22.7941C43.0728 22.9951 43.1398 23.1962 43.1734 23.3972C43.2069 23.5647 43.2404 23.7657 43.2739 23.9332C43.2739 24.0337 43.3074 24.1677 43.3074 24.2683C43.3074 24.3018 43.3074 24.3353 43.2739 24.3688C43.2739 24.3688 43.2739 24.3688 43.2739 24.3353V24.3018C43.2739 24.2683 43.2739 24.2683 43.2404 24.2348C43.2404 24.2348 43.2404 24.2348 43.2404 24.2013V24.1677C43.2404 24.0672 43.2069 23.9667 43.1734 23.8997C43.1398 23.7992 43.1063 23.6987 43.0728 23.5982C43.0393 23.4977 43.0058 23.4307 43.0058 23.3302C43.0058 23.2967 42.9723 23.2632 42.9723 23.2297C42.9723 23.1962 42.9723 23.1962 42.9723 23.1627C42.9723 23.1291 42.9723 23.1291 42.9388 23.0956C42.9053 23.0286 42.8718 22.9281 42.8383 22.8611C42.8048 22.7941 42.7713 22.6936 42.7378 22.6266C42.7378 22.5931 42.7043 22.5596 42.6708 22.5261C42.6373 22.4926 42.6038 22.4591 42.6038 22.4256C42.5703 22.2916 42.9053 22.4256 42.9388 22.4591C43.0058 22.5261 43.1733 22.6601 43.1398 22.6936Z" fill="#FFF8F2"/>
<path id="Vector_367" d="M43.207 24.236C43.073 24.1355 42.9389 24.0685 42.8384 24.0015C42.7379 23.9345 42.6374 23.834 42.5369 23.767C42.3359 23.6329 42.1349 23.4989 41.9338 23.3314C41.8333 23.2644 41.7663 23.1974 41.6658 23.0969C41.6323 23.0634 41.5988 23.0299 41.5653 22.9964C41.5653 22.9629 41.5988 22.8959 41.6323 22.8959C41.7328 22.7954 41.8333 22.6949 41.8668 22.5273C41.9003 22.4268 41.9003 22.2928 41.9003 22.1923C41.9003 22.1588 41.9003 22.0918 41.9003 22.0583C41.8668 21.9243 41.8668 21.7903 41.8333 21.6562C41.8333 21.6562 41.8668 21.6898 41.9003 21.7233C41.9338 21.7568 41.9338 21.7568 41.9673 21.7903C42.0008 21.8238 42.0343 21.8573 42.1014 21.9243C42.1684 22.0248 42.2354 22.1253 42.3359 22.1923C42.4029 22.2593 42.4699 22.2928 42.5704 22.3263C42.6709 22.3598 42.7714 22.3598 42.9054 22.3598C42.9054 22.4603 42.8719 22.5943 42.8719 22.6949C42.8384 22.8624 42.8719 22.9964 42.9724 23.1304C43.0729 23.2979 43.1065 23.4654 43.1735 23.6664C43.14 23.834 43.207 24.035 43.207 24.236Z" fill="#FFBF99"/>
<path id="Vector_368" d="M41.3643 23.227C41.4648 23.227 41.5653 23.2605 41.6323 23.294C41.7998 23.361 41.9673 23.4615 42.1348 23.562C42.2353 23.629 42.3358 23.6961 42.4699 23.7631C42.5704 23.8301 42.6709 23.8971 42.7714 23.9976C42.8719 24.0646 42.9724 24.1651 43.0729 24.2321C43.1064 24.2656 43.1399 24.2991 43.1734 24.2991L43.2069 24.3326L43.2404 24.3661C43.2404 24.3661 43.2404 24.3661 43.2404 24.3326V24.2991C43.2404 24.2656 43.2069 24.2656 43.2069 24.2321C43.1734 24.1986 43.1734 24.1986 43.1399 24.1651C43.0729 24.0981 43.0059 24.0311 42.9389 23.9976C42.7714 23.8636 42.5704 23.7631 42.4029 23.629C42.2353 23.495 42.0678 23.361 41.9338 23.16C41.8668 23.0595 41.8333 22.959 41.8333 22.8585C41.8333 22.758 41.8668 22.6575 41.8668 22.5234C41.7328 22.5904 41.6323 22.7245 41.5318 22.825C41.4648 22.959 41.3978 23.093 41.3643 23.227Z" fill="#FFF8F2"/>
<path id="Vector_369" d="M43.5084 21.9898C43.4749 22.0233 43.4414 22.0233 43.4414 22.0903C43.4079 22.1238 43.4414 22.1908 43.4079 22.2578C43.4079 22.2913 43.3744 22.2913 43.3744 22.3248C43.3744 22.3583 43.3744 22.3583 43.3744 22.3918C43.3744 22.4588 43.3409 22.5593 43.2739 22.6263C43.2069 22.6933 43.1399 22.6933 43.0729 22.6933C42.9724 22.6933 42.9054 22.6598 42.8049 22.6598C42.6374 22.6263 42.4698 22.5593 42.3023 22.4588C42.2688 22.4253 42.2688 22.4253 42.2353 22.3918C42.2018 22.3583 42.2018 22.3583 42.1683 22.3248C42.1348 22.2913 42.1348 22.2578 42.1013 22.2243C42.0678 22.1908 42.0008 22.1908 41.9673 22.1573C41.9003 22.1238 41.8333 22.0233 41.7663 21.9563C41.6993 21.8558 41.6658 21.7552 41.6323 21.6882C41.5988 21.6212 41.5988 21.5877 41.5988 21.5207C41.6323 21.4537 41.6993 21.4202 41.7663 21.4202C41.7998 21.4202 41.8333 21.4537 41.9003 21.4537C41.9338 21.4537 41.9673 21.4872 42.0008 21.4537C42.0343 21.4537 42.0678 21.4202 42.0678 21.3867C42.1013 21.3532 42.1348 21.2862 42.1683 21.2192C42.2018 21.1187 42.2353 21.0517 42.2688 20.9512C42.3358 20.7501 42.5033 20.6161 42.7044 20.5491C42.7714 20.5156 42.8384 20.5156 42.9054 20.5156C42.9389 20.5156 42.9389 20.5156 42.9724 20.5156C43.0394 20.5156 43.1399 20.5491 43.1734 20.5826C43.2069 20.6161 43.2404 20.6831 43.2404 20.7166C43.2739 20.7501 43.2739 20.8172 43.3074 20.8507C43.3409 20.9512 43.3744 21.0182 43.4079 21.1187C43.4079 21.1522 43.4414 21.1857 43.4414 21.2192C43.4414 21.2527 43.4414 21.2862 43.4414 21.2862C43.4414 21.3197 43.4079 21.3197 43.4079 21.3532C43.4079 21.3867 43.4079 21.4202 43.4079 21.4537C43.4079 21.5542 43.4414 21.6882 43.4749 21.7887C43.5419 21.8558 43.5419 21.9228 43.5084 21.9898Z" fill="#FFD7BF"/>
<path id="Vector_370" d="M42.2688 20.2447C42.2688 20.5128 42.0342 20.7473 41.7662 20.7473C41.5652 20.7473 41.3977 20.6133 41.2972 20.4458C41.2637 20.3787 41.2637 20.3117 41.2637 20.2447C41.2637 19.9767 41.4982 19.7422 41.7662 19.7422C41.7997 19.7422 41.8332 19.7422 41.9002 19.7422C42.1348 19.8092 42.2688 20.0102 42.2688 20.2447Z" fill="#B57177"/>
<path id="Vector_371" d="M43.2739 20.6134L43.2404 20.6469H43.2069C43.1064 20.6469 42.9724 20.6469 42.8718 20.6804C42.7378 20.7139 42.5703 20.7809 42.5033 20.9149C42.5033 20.9149 42.5033 20.9149 42.4698 20.9484C42.4028 21.0489 42.4028 21.2164 42.3693 21.3504C42.3693 21.4845 42.3358 21.6185 42.2353 21.719C42.2353 21.719 42.2353 21.719 42.2018 21.719C42.1683 21.719 42.1348 21.719 42.1348 21.6855C42.1013 21.652 42.1013 21.652 42.1013 21.6185C42.0678 21.5515 41.9338 21.4845 41.8667 21.518C41.7997 21.518 41.7662 21.5515 41.7327 21.6185C41.7327 21.652 41.6992 21.6855 41.7327 21.719C41.7327 21.8195 41.7997 21.92 41.8667 21.987C41.9003 22.0205 41.9337 22.054 41.9337 22.0875V22.121H41.9003C41.7997 22.0875 41.7327 21.987 41.6657 21.92C41.5987 21.853 41.5317 21.7525 41.4982 21.652C41.4312 21.4845 41.3977 21.3169 41.3977 21.1494C41.3977 21.0154 41.3977 20.8479 41.4312 20.7139C41.4312 20.6804 41.4312 20.6804 41.4647 20.6469C41.5317 20.5129 41.5987 20.4124 41.6992 20.3118C41.9673 20.0773 42.3023 19.9768 42.6038 20.0438C42.6708 20.0438 42.7713 20.0773 42.8383 20.1108C42.9389 20.1443 43.0394 20.2113 43.1064 20.3118C43.1064 20.3118 43.1064 20.3118 43.1399 20.3453C43.2069 20.4124 43.2404 20.4794 43.2739 20.5464C43.2739 20.5799 43.3074 20.6134 43.2739 20.6134Z" fill="#995C61"/>
<path id="Vector_372" d="M41.9003 24.934C41.8668 24.9675 41.8333 25.0345 41.7663 25.0345H41.7328C41.7328 25.0345 41.7328 25.068 41.6993 25.068C41.5988 25.5036 41.4648 25.9391 41.4313 26.4082C41.4313 26.5087 41.3978 26.6092 41.3308 26.7097C41.2638 26.8437 41.0962 26.8772 40.9622 26.9107C40.9622 26.9107 40.9287 26.9107 40.8952 26.9107H40.8617C40.8282 26.9107 40.8282 26.8772 40.8282 26.8772C40.6942 26.6762 40.6607 26.4752 40.6272 26.2407C40.6272 26.0061 40.6272 25.8051 40.6272 25.5706C40.6272 25.2691 40.6272 24.9675 40.6272 24.666C40.6272 24.398 40.6272 24.13 40.6942 23.8619V23.8284C40.7277 23.6609 40.7947 23.3929 40.9957 23.3594C41.0292 23.3594 41.0962 23.3594 41.1297 23.3594C41.1297 23.3594 41.1297 23.3594 41.1633 23.3594C41.2638 23.3929 41.3308 23.4264 41.3978 23.4934C41.5653 23.6274 41.6323 23.8619 41.6993 24.0629C41.7328 24.197 41.7663 24.3645 41.7998 24.4985C41.9003 24.666 41.9338 24.8335 41.9003 24.934Z" fill="#FFF8F2"/>
<path id="Vector_373" d="M41.2301 26.774C41.1966 26.841 41.1295 26.908 41.029 26.908C40.9955 26.908 40.9285 26.908 40.895 26.908C40.7945 26.8745 40.694 26.774 40.627 26.6735C40.56 26.573 40.5265 26.4725 40.5265 26.372C40.5265 26.305 40.5265 26.2045 40.5265 26.1375C40.5265 26.037 40.5265 25.9364 40.5265 25.8359C40.5265 25.8694 40.6605 25.97 40.694 26.0035H40.7275C40.7945 26.0035 40.8615 25.97 40.895 25.9029C40.962 26.037 41.0625 26.1375 41.1295 26.238C41.1966 26.3385 41.2301 26.439 41.2636 26.5395C41.2636 26.64 41.2636 26.707 41.2301 26.774Z" fill="#FFF8F2"/>
<path id="Vector_374" d="M40.9621 26.101C40.9286 26.1345 40.9286 26.1345 40.8951 26.168C40.8616 26.2015 40.8281 26.168 40.7946 26.168C40.6941 26.1345 40.6271 26.0675 40.5266 26.0339C40.4931 26.0004 40.4261 26.0004 40.3926 25.9669C40.3591 25.9334 40.3256 25.8999 40.2921 25.8999C40.2586 25.8999 40.2251 25.8999 40.1916 25.8664C40.1246 25.8329 40.0576 25.7659 39.9906 25.7324C39.957 25.7324 39.957 25.7324 39.9235 25.7324C39.8565 25.6989 39.823 25.6654 39.7895 25.5984C39.7895 25.5984 39.7895 25.5649 39.756 25.5649C39.7225 25.5314 39.689 25.4979 39.6555 25.4309C39.6555 25.3974 39.6555 25.3974 39.6555 25.3639C39.689 25.2634 39.823 25.2969 39.8565 25.3304C39.89 25.3639 39.9235 25.3974 39.957 25.4309C40.0241 25.4979 40.1246 25.5314 40.2251 25.5314C40.3256 25.5314 40.4261 25.5314 40.5266 25.5649C40.6271 25.5984 40.7276 25.6319 40.7611 25.7324C40.7611 25.7324 40.7611 25.7659 40.7946 25.7659C40.8281 25.7994 40.8281 25.8664 40.8281 25.9334C40.8281 25.9669 40.8616 26.0004 40.8616 26.0339C40.8616 26.0675 40.9956 26.0675 40.9621 26.101Z" fill="#FFD7BF"/>
<path id="Vector_375" d="M44.614 25.6773C44.547 25.7778 44.4465 25.8783 44.3125 25.9453C44.2455 25.9788 44.1785 26.0123 44.1115 26.0459C44.078 26.0459 44.011 26.0459 43.9775 26.0459C43.944 26.0459 43.9105 26.0459 43.877 26.0123C43.877 25.9788 43.877 25.9453 43.8435 25.9453C43.81 25.8783 43.743 25.8113 43.6425 25.8113L43.7095 25.7443C43.743 25.7108 43.743 25.6773 43.7765 25.6773C43.81 25.6103 43.8435 25.5768 43.877 25.5098C43.944 25.3758 43.944 25.2418 44.0445 25.1413C44.078 25.1078 44.145 25.0408 44.1785 25.0408C44.2455 25.0072 44.346 25.0072 44.413 25.0408C44.4465 25.0408 44.4465 25.0408 44.48 25.0743C44.5135 25.0743 44.5471 25.1078 44.5806 25.1413C44.6476 25.2083 44.6476 25.2753 44.6476 25.3423C44.7481 25.4093 44.7146 25.5433 44.614 25.6773Z" fill="#FFF8F2"/>
<path id="Vector_376" d="M44.346 25.7408C44.3125 25.7743 44.279 25.8078 44.2455 25.8413C44.2455 25.8413 44.2455 25.8413 44.212 25.8413V25.8748C44.212 25.9083 44.1785 25.9418 44.145 25.9418C44.1115 25.9753 44.078 25.9753 44.0445 26.0088C44.0445 26.0088 44.0445 26.0423 44.011 26.0423C43.9775 26.1093 43.9105 26.1093 43.8435 26.1428C43.7765 26.1763 43.743 26.2098 43.6759 26.2433C43.6089 26.2433 43.5754 26.2433 43.5084 26.2433C43.4414 26.2433 43.3744 26.2768 43.3074 26.2433C43.2404 26.2433 43.1734 26.2098 43.1399 26.1428C43.1064 26.1093 43.1064 26.0758 43.0729 26.0423C43.0394 26.0088 43.0059 26.0088 43.0059 25.9753C42.9724 25.9418 43.0059 25.8078 43.0729 25.8413C43.1064 25.8413 43.1064 25.8748 43.1064 25.8748C43.1399 25.8748 43.1399 25.9083 43.1734 25.9083C43.2069 25.9083 43.2404 25.9418 43.2739 25.9418C43.3409 25.9418 43.3744 25.8748 43.4079 25.8413C43.4749 25.7408 43.5754 25.6738 43.6759 25.6402C43.7765 25.6067 43.9105 25.5732 44.011 25.6402C44.0445 25.6402 44.0445 25.6738 44.078 25.6738C44.145 25.6738 44.1785 25.6402 44.2455 25.6402C44.346 25.6402 44.3795 25.7073 44.346 25.7408Z" fill="#FFD7BF"/>
</g>
</g>
</g>
<g id="Group_117">
<path id="Vector_377" d="M49.9745 34.4371C49.2039 34.8726 47.9308 34.8726 47.1602 34.4371C46.3896 34.0015 46.3896 33.2645 47.1602 32.7954C47.9308 32.3599 49.2039 32.3599 49.9745 32.7954C50.7451 33.2645 50.7451 33.968 49.9745 34.4371Z" fill="#858A4C"/>
<g id="Group_118">
<g id="Group_119">
<path id="Vector_378" d="M47.7297 22.1487C47.7297 22.2492 47.6627 22.3497 47.6292 22.4502C47.5622 22.5507 47.4952 22.6177 47.4617 22.7182C47.4282 22.7852 47.3947 22.8857 47.3612 22.9862C47.3276 23.0197 47.3276 23.0532 47.2941 23.0867C47.2606 23.1202 47.1936 23.1202 47.1601 23.1202C47.1266 23.1202 47.1266 23.1202 47.1266 23.1202C47.0596 23.5893 46.9591 24.0583 46.8586 24.5274C46.8251 24.6949 46.7581 24.8959 46.6241 25.0299C46.5571 25.0634 46.4901 25.0969 46.4231 25.0969C46.3561 25.1304 46.2555 25.1304 46.1885 25.0634C46.155 25.0299 46.155 24.9964 46.1215 24.9629C46.021 24.7284 46.021 24.4269 46.1215 24.1924C46.1885 24.0918 46.2555 23.9578 46.3225 23.8573C46.4231 23.7233 46.4901 23.5893 46.5236 23.4553C46.5571 23.3548 46.6241 23.2543 46.6576 23.1202C46.7246 22.9862 46.6911 22.8187 46.6911 22.6847C46.6911 22.5507 46.6911 22.4167 46.6911 22.2492C46.6911 22.1151 46.6911 21.9811 46.6911 21.8471C46.6911 21.8136 46.6911 21.7801 46.6911 21.7466C46.6911 21.7131 46.7246 21.6796 46.7581 21.7131C46.7916 21.7131 46.8251 21.7801 46.8251 21.8136C46.8586 21.9141 46.8586 21.9811 46.8921 22.0816L46.9256 22.0481C46.9591 21.9476 46.9591 21.8471 46.9591 21.7801C46.9591 21.7131 46.9591 21.6796 46.9591 21.6126C46.9591 21.5791 46.9591 21.5456 46.9926 21.5121C47.0261 21.4786 47.0596 21.4786 47.0931 21.4786C47.0931 21.4116 47.1601 21.3781 47.1936 21.4116C47.2606 21.4116 47.2941 21.4786 47.2941 21.5121C47.3276 21.5791 47.3612 21.6461 47.3612 21.6796C47.3612 21.7131 47.3612 21.7801 47.3947 21.8136C47.4282 21.8471 47.4617 21.8471 47.5287 21.8806C47.5957 21.9141 47.6627 21.9476 47.6962 22.0146C47.7297 22.0481 47.7297 22.1152 47.7297 22.1487Z" fill="#FFBF99"/>
<g id="Group_120">
<path id="Vector_379" d="M47.1936 33.802C47.2941 33.8355 47.3947 33.8355 47.5287 33.8355C47.6292 33.8355 47.6962 33.802 47.7967 33.7685C47.9977 33.668 48.1652 33.5339 48.3662 33.4334C48.5673 33.3329 48.8353 33.2994 49.0363 33.2324C49.0363 33.2324 49.0698 33.2324 49.0698 33.1989C49.1033 33.1654 49.1033 33.1654 49.1033 33.1319C49.1033 33.0649 49.1368 32.9979 49.1033 32.9309C49.0698 32.8639 49.0363 32.7969 48.9358 32.7969C48.8688 32.7969 48.8353 32.8639 48.7683 32.8974C48.6343 32.9979 48.5003 33.0649 48.3327 33.1319C48.1652 33.1989 47.9642 33.2994 47.7632 33.3329C47.6962 33.3664 47.6292 33.3664 47.5287 33.3664C47.4617 33.3664 47.3947 33.3664 47.3276 33.3329C47.2606 33.3329 47.1936 33.2994 47.1266 33.2994C47.0261 33.2994 46.9591 33.3999 46.9591 33.5004C46.9926 33.6345 47.0596 33.735 47.1936 33.802Z" fill="#AC241F"/>
</g>
<path id="Vector_380" d="M48.9694 33.0351C48.9359 33.1021 48.8689 33.1691 48.8019 33.2026C48.7014 33.2696 48.5673 33.2696 48.4333 33.3031C48.2323 33.3701 48.0648 33.5041 47.8973 33.6046C47.7298 33.7051 47.5287 33.8056 47.3612 33.7721H47.3277C47.2272 33.7721 47.1267 33.7051 47.0597 33.6046C46.9592 33.4706 47.0597 33.2361 47.1602 33.1356C47.1602 33.1021 47.1937 33.1021 47.2272 33.0686C47.2607 33.0351 47.2942 33.0016 47.3277 33.0016C47.3277 33.0016 47.3277 33.0016 47.3612 32.9681C47.4282 32.9346 47.4617 32.9011 47.5287 32.8676C47.5622 32.8341 47.6293 32.8341 47.6628 32.8006C47.7298 32.767 47.7968 32.7335 47.8638 32.7C47.8638 32.7 47.8973 32.7 47.8973 32.6665C47.9308 32.6665 47.9308 32.633 47.9643 32.633C47.9978 32.5995 48.0313 32.566 48.0648 32.5325C48.0983 32.499 48.0983 32.4655 48.1318 32.432C48.1318 32.3985 48.1653 32.365 48.1653 32.3315C48.1988 32.2645 48.2993 32.2645 48.3328 32.3315C48.3998 32.365 48.5003 32.3985 48.5673 32.365C48.6344 32.365 48.7014 32.298 48.7684 32.365C48.8019 32.3985 48.8019 32.432 48.8019 32.4655C48.8689 32.566 48.9694 32.6665 49.0029 32.767C49.0029 32.8341 49.0029 32.9346 48.9694 33.0351Z" fill="#FF5851"/>
<g id="Group_121">
<path id="Vector_381" d="M47.7296 33.402L47.6961 33.4355C47.6961 33.4355 47.6961 33.4355 47.6626 33.4355C47.6291 33.402 47.6291 33.3685 47.5956 33.335C47.5286 33.268 47.4616 33.201 47.3946 33.1675C47.3611 33.134 47.3276 33.134 47.2606 33.1005C47.227 33.1005 47.227 33.1005 47.1935 33.067C47.1935 33.067 47.1935 33.067 47.16 33.067C47.1935 33.0335 47.227 33 47.2606 33C47.3276 33 47.3611 33.0335 47.3946 33.067C47.4616 33.1005 47.5286 33.1675 47.5956 33.2345C47.6291 33.268 47.6626 33.3015 47.6626 33.335C47.7296 33.335 47.7296 33.3685 47.7296 33.402Z" fill="white"/>
</g>
<g id="Group_122">
<path id="Vector_382" d="M47.9978 33.238L47.9643 33.2715C47.9643 33.2715 47.9643 33.2715 47.9308 33.2715C47.8973 33.238 47.8973 33.2045 47.8638 33.171C47.8303 33.104 47.7298 33.037 47.6628 33.0035C47.6293 32.97 47.5958 32.97 47.5622 32.9364C47.5287 32.9364 47.4952 32.9364 47.4952 32.9029C47.5287 32.8694 47.5957 32.8694 47.6293 32.8359C47.6628 32.8359 47.6963 32.8694 47.7298 32.9029C47.7968 32.9364 47.8638 33.0035 47.9308 33.0705C47.9643 33.104 47.9978 33.1375 47.9978 33.171C47.9978 33.1375 47.9978 33.171 47.9978 33.238Z" fill="white"/>
</g>
<g id="Group_123">
<path id="Vector_383" d="M48.2657 33.0404L48.2322 33.0739C48.2322 33.0739 48.2322 33.0739 48.1987 33.0739C48.1652 33.0404 48.1652 33.0069 48.1317 32.9734C48.0982 32.9064 47.9977 32.8394 47.9307 32.8059C47.8972 32.7724 47.8637 32.7724 47.7967 32.7389C47.7967 32.7389 47.7967 32.7389 47.7632 32.7389C47.7632 32.7389 47.7967 32.7389 47.7967 32.7054C47.8302 32.7054 47.8302 32.6719 47.8637 32.6719C47.8972 32.6719 47.9307 32.7054 47.9307 32.7054C47.9977 32.7389 48.0647 32.8059 48.1317 32.8729C48.1652 32.9064 48.1987 32.9399 48.1987 32.9734C48.1987 33.0069 48.2657 33.0069 48.2657 33.0404Z" fill="white"/>
</g>
<g id="Group_124">
<path id="Vector_384" d="M49.6394 33.1406C49.6394 33.1741 49.6394 33.2076 49.6394 33.2411C49.6059 33.4087 49.4719 33.5427 49.3379 33.6767C49.2039 33.8107 49.0698 33.9112 48.9023 33.9782C48.8018 34.0452 48.6678 34.0787 48.5338 34.1122C48.4333 34.1122 48.3328 34.1122 48.1988 34.1122C48.1653 34.1122 48.1318 34.1122 48.0983 34.1122C48.0648 34.1122 48.0312 34.1122 47.9977 34.0787C47.9642 34.1122 47.9642 34.1792 47.9642 34.2127C47.9977 34.3467 48.0312 34.4137 48.1653 34.4808C48.2658 34.5143 48.3328 34.5478 48.4333 34.5478C48.5673 34.5478 48.7348 34.5478 48.8688 34.4808C48.9693 34.4473 49.0698 34.3802 49.1368 34.3132C49.2709 34.1792 49.3714 34.0117 49.4719 33.8777C49.5724 33.7102 49.7734 33.5762 49.7399 33.3751C49.7734 33.2746 49.7064 33.2076 49.6394 33.1406Z" fill="#AC241F"/>
</g>
<path id="Vector_385" d="M49.7399 33.4451C49.7064 33.4786 49.6729 33.5456 49.6394 33.5791C49.6059 33.6126 49.5389 33.6796 49.5054 33.7131C49.4719 33.7466 49.4384 33.8136 49.4049 33.8471C49.3044 33.9476 49.2374 34.0816 49.1704 34.1821C49.0363 34.3497 48.8018 34.4502 48.5673 34.4502C48.4668 34.4502 48.3998 34.4502 48.2993 34.4167C48.1317 34.3832 47.9642 34.2156 48.0312 34.0146C48.0647 33.9476 48.0982 33.9141 48.1317 33.8471C48.2658 33.6796 48.3998 33.5456 48.5673 33.3781C48.6008 33.3446 48.6343 33.3111 48.6343 33.3111C48.7013 33.2105 48.8018 33.1435 48.8688 33.043C48.9023 33.0095 48.9358 32.976 48.9358 32.909C48.9358 32.8755 48.9693 32.8085 49.0028 32.8085C49.0363 32.8085 49.0363 32.8085 49.0698 32.8085C49.1704 32.842 49.2709 32.842 49.3714 32.8085C49.4384 32.8085 49.4384 32.7415 49.5054 32.775C49.5389 32.775 49.5724 32.842 49.6059 32.8755C49.6394 32.909 49.6729 32.976 49.7064 33.043C49.7399 33.11 49.7734 33.177 49.7734 33.2441C49.7734 33.3111 49.7734 33.3781 49.7399 33.4451Z" fill="#FF5851"/>
<g id="Group_125">
<path id="Vector_386" d="M48.8688 34.1133C48.8352 34.0798 48.8017 34.0463 48.7682 34.0463C48.7012 33.9793 48.6342 33.9458 48.5337 33.9123C48.5002 33.9123 48.4332 33.8788 48.3997 33.8788C48.3662 33.8788 48.3327 33.8788 48.3327 33.8788H48.2992C48.2992 33.8788 48.2657 33.8453 48.2992 33.8453C48.2992 33.8118 48.3327 33.8118 48.3327 33.8118C48.3997 33.7783 48.4667 33.8118 48.5672 33.8118C48.6677 33.8453 48.7347 33.8788 48.8017 33.9123C48.8352 33.9458 48.8688 33.9458 48.9023 33.9793C48.9358 34.0128 48.9693 34.0463 48.9693 34.0798C48.9358 34.1133 48.9023 34.1133 48.8688 34.1133C48.9023 34.1468 48.9023 34.1468 48.8688 34.1133Z" fill="white"/>
</g>
<g id="Group_126">
<path id="Vector_387" d="M49.0698 33.8789C49.0363 33.8454 49.0028 33.8119 48.9693 33.8119C48.9023 33.7449 48.8353 33.7114 48.7348 33.6779C48.7013 33.6779 48.6343 33.6444 48.6008 33.6444C48.5673 33.6444 48.5337 33.6444 48.5337 33.6444H48.5002C48.5002 33.6444 48.4667 33.6109 48.5002 33.6109C48.5002 33.5774 48.5337 33.5774 48.5337 33.5774C48.6008 33.5439 48.6678 33.5774 48.7683 33.5774C48.8688 33.6109 48.9358 33.6444 49.0028 33.6779C49.0363 33.7114 49.0698 33.7114 49.1033 33.7449C49.1368 33.7784 49.1703 33.8119 49.1703 33.8454C49.1368 33.8454 49.1033 33.8789 49.0698 33.8789C49.1033 33.8789 49.1033 33.8789 49.0698 33.8789Z" fill="white"/>
</g>
<g id="Group_127">
<path id="Vector_388" d="M49.271 33.6055C49.2375 33.572 49.204 33.5385 49.1705 33.5385C49.1035 33.4715 49.0365 33.438 48.9359 33.4045C48.9024 33.4045 48.8354 33.371 48.8019 33.371C48.7684 33.371 48.7349 33.371 48.7349 33.371H48.7014C48.7014 33.371 48.6679 33.3375 48.7014 33.3375C48.7014 33.304 48.7349 33.304 48.7349 33.304C48.8019 33.2704 48.8689 33.304 48.9694 33.304C49.0699 33.3375 49.137 33.371 49.204 33.4045C49.2375 33.438 49.271 33.438 49.3045 33.4715C49.338 33.505 49.3715 33.5385 49.3715 33.572C49.338 33.6055 49.3045 33.6055 49.271 33.6055Z" fill="white"/>
</g>
<g id="Group_128">
<path id="Vector_389" d="M48.7681 32.2374C48.7681 32.3044 48.8016 32.4384 48.7346 32.4719C48.7011 32.5054 48.6341 32.5389 48.5671 32.5724C48.5001 32.6059 48.4331 32.6059 48.3996 32.6059C48.2656 32.6059 48.1316 32.5724 48.0645 32.4719C48.0645 32.4719 48.0645 32.4719 48.031 32.4384V32.4049C47.9975 32.2039 47.9975 31.9694 47.964 31.7684C47.9305 31.5673 47.8635 31.3328 47.83 31.1318C47.7295 30.7298 47.5285 30.3277 47.361 29.9592C47.2605 29.7247 47.16 29.4566 47.093 29.1886C46.9589 28.7196 46.8919 28.217 46.8249 27.748V27.7145C46.7914 27.4129 46.7244 26.7429 47.227 26.8769C47.361 26.9104 47.4615 27.0109 47.562 27.1114C47.763 27.3459 47.897 27.6139 47.9975 27.9155C48.098 28.217 48.1651 28.5185 48.2321 28.8201C48.2991 29.0881 48.3661 29.3896 48.3996 29.6912C48.4331 29.8922 48.4331 30.1267 48.3996 30.3277L48.5336 30.4952C48.6006 30.5622 48.6341 30.6292 48.6676 30.6962C48.7346 30.8303 48.7681 30.9643 48.7681 31.1318C48.7681 31.2658 48.7681 31.3998 48.7681 31.5338C48.7681 31.6678 48.7681 31.8019 48.7681 31.9359C48.7681 32.0364 48.7681 32.1369 48.7681 32.2374Z" fill="#2E5582"/>
</g>
<path id="Vector_390" d="M49.8068 31.763C49.7733 32.0646 49.6728 32.3996 49.6058 32.7011C49.6058 32.7681 49.6058 32.8351 49.5723 32.8686C49.5723 32.9356 49.5053 32.9691 49.4383 33.0026C49.4048 33.0361 49.3713 33.0361 49.3378 33.0697C49.2708 33.1032 49.1703 33.1367 49.0698 33.1367C49.0027 33.1367 48.9357 33.1032 48.8687 33.0697C48.8352 33.0026 48.8352 32.9356 48.8352 32.8686C48.8352 32.6676 48.8017 32.5001 48.8017 32.2991C48.7682 31.9305 48.6342 31.562 48.5337 31.1935C48.4332 30.8584 48.3327 30.4899 48.1987 30.1549C48.0982 29.9203 48.0312 29.6523 47.9306 29.4178C47.7966 29.0158 47.6961 28.5802 47.5956 28.1782C47.5621 28.0777 47.5621 28.0107 47.5286 27.9101C47.4616 27.6421 47.4281 27.3741 47.3611 27.1061C47.5621 27.2736 47.7631 27.4076 47.9976 27.4746C48.2322 27.5416 48.4667 27.5416 48.7012 27.4746C48.8687 27.4411 49.0363 27.3741 49.2373 27.3071C49.3043 27.2736 49.3713 27.2736 49.4383 27.2401C49.4718 27.1731 49.4718 27.1061 49.4383 27.0391C49.4718 27.0726 49.5053 27.1396 49.5388 27.1731C49.7733 27.6086 49.7733 28.1112 49.7063 28.5802C49.6728 28.8147 49.6393 29.0493 49.6058 29.2838C49.5723 29.6188 49.5388 29.9203 49.5723 30.2219C49.6058 30.5234 49.7733 30.8249 49.8068 31.1265C49.8403 31.3275 49.8403 31.562 49.8068 31.763Z" fill="#87B5E6"/>
<g id="Group_129">
<path id="Vector_391" d="M48.2658 19.6362C48.3328 19.6027 48.3998 19.5692 48.4333 19.5357C48.8353 19.4017 49.3379 19.5357 49.5724 19.8708C50.0079 20.4738 49.7734 21.1774 49.6394 21.8475C49.5389 22.2495 49.4719 22.685 49.5054 23.1206C49.5054 23.0871 49.4384 22.9866 49.4049 22.9531C49.3714 22.8861 49.3379 22.8526 49.2709 22.7855C49.1704 22.685 49.1033 22.551 49.0028 22.484C48.8353 22.3165 48.5673 22.1825 48.4333 21.948C48.3998 21.881 48.3663 21.7804 48.3663 21.7134C48.3663 21.5794 48.3328 21.4454 48.3663 21.3114C48.3998 21.1104 48.4333 20.9094 48.4333 20.7083C48.4333 20.5743 48.4333 20.4403 48.3663 20.3398C48.3328 20.2728 48.2993 20.2393 48.2658 20.1723C48.2323 20.1388 48.1652 20.1388 48.1317 20.1053C47.9977 19.9043 48.1317 19.7367 48.2658 19.6362Z" fill="#F0DACB"/>
</g>
<path id="Vector_392" d="M49.9743 23.9943C49.9743 24.0613 49.9408 24.1619 49.9073 24.2289C49.8403 24.4634 49.7398 24.6979 49.6728 24.9324C49.4718 25.435 49.3043 26.0045 49.3713 26.5406C49.4048 26.8421 49.5388 27.1101 49.6393 27.3782C49.6393 27.4117 49.6728 27.4117 49.6393 27.4452C49.6393 27.4787 49.6058 27.4787 49.5723 27.5122C49.3043 27.7132 48.9692 27.8472 48.6342 27.9142C48.3997 27.9477 48.1652 27.9812 47.8971 27.9477C47.6291 27.9477 47.3946 27.8807 47.1601 27.7802C46.959 27.7132 46.758 27.5122 46.691 27.3112C46.6575 27.2107 46.691 27.1101 46.691 27.0431C46.758 26.4736 46.825 25.904 46.8585 25.3345C46.9255 24.8654 46.557 24.4299 46.557 23.9273C46.557 23.5923 46.7245 23.2908 46.9255 22.9892C47.0261 22.8552 47.1266 22.7212 47.1936 22.5872C47.2606 22.4867 47.3276 22.3527 47.3946 22.2522C47.4951 22.0847 47.7631 21.9171 47.9641 21.8501C48.0982 21.8166 48.1987 21.8166 48.3327 21.8836C48.3662 21.8836 48.3662 21.9171 48.3997 21.9171C48.7012 22.0847 48.9692 22.2857 49.2373 22.4867C49.3713 22.5872 49.5053 22.6877 49.6393 22.8217C49.7733 22.9222 49.8738 23.0227 49.9073 23.1568C50.0749 23.4583 50.0413 23.7263 49.9743 23.9943Z" fill="#EBEBEB"/>
<path id="Vector_393" d="M49.0698 22.5209C49.0028 22.6214 48.9023 22.6884 48.8018 22.7554C48.6678 22.8559 48.5338 22.9229 48.3663 22.9899C48.2658 23.0234 48.1653 23.0569 48.0647 23.0904C47.9977 23.0904 47.9307 23.0904 47.8302 23.0904C47.7967 23.0904 47.7632 23.0569 47.7297 23.0569C47.6962 23.0234 47.6962 22.9899 47.6962 22.9229C47.6962 22.8894 47.6962 22.8224 47.7297 22.7889C47.7632 22.6884 47.7632 22.6214 47.7297 22.5209C47.7297 22.4874 47.6962 22.4539 47.6627 22.4204C47.5622 22.3199 47.5287 22.2528 47.5287 22.1188C47.5287 22.0183 47.5287 21.9178 47.5957 21.8508C47.6292 21.7838 47.7297 21.7168 47.7967 21.7168C47.8637 21.6833 47.9642 21.6833 48.0312 21.6498C48.1317 21.6163 48.1987 21.5828 48.2993 21.5158C48.3328 21.4823 48.3663 21.4488 48.3998 21.4153C48.4333 21.3818 48.4333 21.3483 48.4668 21.2812C48.5003 21.3483 48.5003 21.4153 48.5338 21.4823C48.5673 21.5828 48.6008 21.7168 48.6343 21.8173C48.6678 21.9178 48.7013 21.9848 48.7348 22.0853C48.7683 22.1523 48.8018 22.2193 48.8688 22.2863C48.9023 22.3199 48.9023 22.3534 48.9358 22.3534C48.9693 22.3869 49.0028 22.3869 49.0363 22.4204L49.0698 22.4539C49.0698 22.4539 49.1033 22.4874 49.1033 22.5209C49.1033 22.4539 49.0698 22.4874 49.0698 22.5209Z" fill="#FFBF99"/>
<path id="Vector_394" d="M48.8688 21.3802C48.8688 21.5143 48.7683 21.6148 48.6678 21.6483C48.6343 21.6483 48.6008 21.6818 48.5673 21.6818C48.5003 21.7153 48.4667 21.7153 48.4667 21.7823C48.4332 21.8493 48.4332 21.9163 48.3662 21.9498C48.3327 21.9833 48.2657 22.0168 48.1987 22.0503C48.0312 22.1173 47.8637 22.2178 47.6962 22.2513C47.6627 22.2848 47.5957 22.2848 47.5287 22.2848C47.4616 22.2848 47.4281 22.2848 47.3611 22.2513C47.1936 22.1508 47.2606 21.8493 47.0931 21.7488C47.0596 21.7488 47.0596 21.7153 47.0261 21.7153C46.9926 21.6818 46.9926 21.6148 47.0261 21.5813C47.0596 21.4808 47.0596 21.4137 47.0931 21.3132C47.0931 21.2462 47.1266 21.1792 47.0931 21.1457C47.0931 21.1122 47.0596 21.0787 47.0261 21.0452C46.9926 20.9782 47.0261 20.9112 47.0261 20.8442C47.0596 20.7437 47.0596 20.6767 47.0931 20.5762C47.1266 20.4757 47.1601 20.3416 47.1936 20.2746C47.2606 20.1741 47.3946 20.1406 47.5287 20.1406C47.6627 20.1406 47.7967 20.1741 47.9307 20.2411C47.9977 20.2746 48.0647 20.3416 48.1317 20.4087C48.1652 20.4422 48.1987 20.5092 48.2322 20.5427C48.2657 20.6097 48.2657 20.6767 48.2992 20.7437C48.3327 20.8442 48.4332 20.9112 48.5002 20.9782C48.5673 21.0117 48.6343 21.0452 48.6678 21.0787C48.7013 21.1122 48.7013 21.1122 48.7348 21.1457C48.7683 21.1792 48.7683 21.1792 48.8018 21.2127C48.8688 21.2797 48.8688 21.3132 48.8688 21.3802Z" fill="#FFD7BF"/>
<g id="Group_130">
<path id="Vector_395" d="M48.9357 21.4042C48.9022 21.4712 48.8352 21.5717 48.7347 21.5717C48.7347 21.5717 48.7347 21.5717 48.7347 21.5382C48.7347 21.5047 48.7682 21.4712 48.7682 21.4377C48.7682 21.4042 48.8017 21.3372 48.8017 21.3037C48.8017 21.2032 48.8017 21.1362 48.7012 21.1027C48.6342 21.0692 48.5337 21.1362 48.5002 21.2032C48.4331 21.3037 48.3661 21.4377 48.3326 21.5717C48.3326 21.6052 48.2991 21.6387 48.2656 21.6052C48.2321 21.6052 48.2321 21.5717 48.2321 21.5717C48.1986 21.4042 48.2321 21.2367 48.1651 21.1027C48.1316 21.0357 48.0311 20.9687 47.9976 20.9017C47.9641 20.8347 47.9641 20.8012 47.9641 20.7342C47.9641 20.7007 47.9306 20.6672 47.8971 20.6336C47.8636 20.6001 47.7966 20.5666 47.7296 20.5666C47.6291 20.5331 47.5286 20.5666 47.4281 20.5331C47.3275 20.5331 47.1935 20.5331 47.16 20.4326C47.1265 20.3321 47.16 20.1646 47.2605 20.0641C47.3275 19.9636 47.4281 19.8966 47.5621 19.8631C47.7631 19.7626 48.0311 19.7291 48.2656 19.7626C48.4667 19.7961 48.6342 19.8631 48.8017 19.9636C48.8687 19.9971 48.9022 20.0641 48.9357 20.0976C49.0027 20.1981 49.0697 20.2986 49.1032 20.4326C49.2037 20.8012 49.1032 21.1362 48.9357 21.4042Z" fill="#FAECE2"/>
</g>
<path id="Vector_396" d="M49.6393 24.4605C49.6393 24.561 49.5723 24.6615 49.5053 24.762C49.4383 24.8625 49.3713 24.9295 49.3378 25.03C49.2038 25.231 49.0363 25.3986 48.8687 25.5326C48.6677 25.7001 48.5002 25.8676 48.2322 25.9681C48.1987 26.0016 48.1317 26.0016 48.0982 26.0016C48.0647 26.0016 47.9976 26.0016 47.9641 25.9681C47.8971 25.9011 47.8971 25.8341 47.8636 25.7671C47.6961 25.164 47.5286 24.5275 47.4951 23.8909C47.4951 23.7569 47.4951 23.6229 47.4616 23.4889C47.4616 23.3884 47.4281 23.2878 47.4281 23.1538C47.4281 23.0198 47.4616 22.8188 47.5286 22.6848C47.5621 22.6178 47.5956 22.5508 47.6291 22.4503C47.6626 22.3833 47.6961 22.2827 47.7296 22.2157C47.7631 22.1822 47.7631 22.1487 47.7966 22.1152H47.8301C47.8301 22.1152 47.8301 22.1152 47.8301 22.0817C47.8636 22.0147 47.8971 21.9142 47.9306 21.8472C47.9306 21.8137 47.9641 21.8137 47.9641 21.7802C47.9976 21.7802 47.9977 21.7467 48.0312 21.7802C48.0312 21.7802 48.0647 21.6797 48.0982 21.6797C48.1317 21.6797 48.1317 21.6797 48.1652 21.7132C48.1987 21.7467 48.1652 21.7802 48.1652 21.8472C48.1652 21.8807 48.1652 21.9142 48.1652 21.9477C48.1652 22.1152 48.0312 22.2157 48.0312 22.3833C48.0312 22.4168 48.0312 22.4168 48.0647 22.4168C48.0647 22.4168 48.0982 22.4168 48.0982 22.3833C48.1317 22.3498 48.1652 22.2492 48.2322 22.2492C48.2322 22.2492 48.2322 22.2492 48.2657 22.2492C48.2657 22.2827 48.2657 22.3162 48.2657 22.3498C48.1987 22.5173 48.1652 22.6848 48.0647 22.8523C47.9642 23.0198 47.8971 23.1873 47.9306 23.3884C47.9977 23.7569 48.0982 24.0919 48.2322 24.427C48.2657 24.494 48.2992 24.561 48.3327 24.5945C48.3662 24.5275 48.4332 24.494 48.4667 24.427C48.5002 24.3599 48.5337 24.2929 48.6007 24.2259C48.7012 24.0919 48.8017 23.9579 48.9022 23.8574C49.0363 23.7569 49.2708 23.8239 49.4048 23.9579C49.4383 23.9914 49.4383 24.0249 49.4718 24.0249C49.6393 24.1589 49.6393 24.3264 49.6393 24.4605Z" fill="#FFD7BF"/>
<path id="Vector_397" d="M50.0414 23.9214C50.0079 24.0889 49.9744 24.2564 49.9409 24.424C49.9409 24.491 49.9074 24.558 49.8739 24.625C49.8404 24.6585 49.7734 24.692 49.7399 24.692C49.6393 24.7255 49.5388 24.7255 49.4383 24.7255C49.3378 24.7255 49.2038 24.7255 49.1033 24.692C48.9693 24.6585 48.8688 24.5915 48.7683 24.491C48.7013 24.424 48.5672 24.29 48.6007 24.1894C48.6343 24.0554 48.7013 23.9214 48.7683 23.7874C48.8688 23.5194 49.0363 23.2849 49.2373 23.0838C49.2708 23.0503 49.3378 22.9833 49.4048 22.9498C49.5053 22.9163 49.6058 22.8828 49.7064 22.8828C49.7734 22.8828 49.8404 22.9163 49.9074 22.9498C49.9744 23.0168 50.0079 23.1173 50.0414 23.2178C50.0749 23.4524 50.0749 23.6869 50.0414 23.9214Z" fill="#F7F7F7"/>
</g>
</g>
</g>
<path id="Vector_398" d="M30.0401 36.088L30.6767 35.7195L28.633 34.5469L27.9965 34.9154L27.6279 34.6809L20.1902 38.9693L30.2077 44.7989L37.6454 40.5105L30.0401 36.088Z" fill="#F0EFDE"/>
<path id="Vector_399" d="M30.0401 35.351L23.373 39.0698H20.3577L20.1902 39.0028L27.6279 34.6809L27.9965 34.8819L28.633 34.5469L30.0401 35.351Z" fill="#FADAC3"/>
</g>
</g>
</svg>
