<svg width="34" height="48" viewBox="0 0 34 48" fill="none" xmlns="http://www.w3.org/2000/svg">
<path id="Vector" d="M17 22.8C15.3898 22.8 13.8455 22.1679 12.7069 21.0426C11.5682 19.9174 10.9286 18.3913 10.9286 16.8C10.9286 15.2087 11.5682 13.6826 12.7069 12.5574C13.8455 11.4321 15.3898 10.8 17 10.8C18.6102 10.8 20.1545 11.4321 21.2931 12.5574C22.4318 13.6826 23.0714 15.2087 23.0714 16.8C23.0714 17.5879 22.9144 18.3681 22.6093 19.0961C22.3041 19.8241 21.8569 20.4855 21.2931 21.0426C20.7294 21.5998 20.0601 22.0417 19.3234 22.3433C18.5868 22.6448 17.7973 22.8 17 22.8ZM17 0C12.4913 0 8.1673 1.76999 4.97918 4.92061C1.79107 8.07122 0 12.3444 0 16.8C0 29.4 17 48 17 48C17 48 34 29.4 34 16.8C34 12.3444 32.2089 8.07122 29.0208 4.92061C25.8327 1.76999 21.5087 0 17 0Z" fill="black"/>
</svg>
