<svg width="31" height="31" viewBox="0 0 31 31" fill="none" xmlns="http://www.w3.org/2000/svg">
<path d="M1.5 24.8138V15.4805C1.5 11.7675 2.975 8.20649 5.60051 5.58098C8.22602 2.95547 11.787 1.48047 15.5 1.48047C19.213 1.48047 22.774 2.95547 25.3995 5.58098C28.025 8.20649 29.5 11.7675 29.5 15.4805V24.8138" stroke="white" stroke-width="2" stroke-linecap="round" stroke-linejoin="round"/>
<path d="M29.5 26.3696C29.5 27.1947 29.1722 27.986 28.5888 28.5695C28.0053 29.1529 27.214 29.4807 26.3889 29.4807H24.8333C24.0082 29.4807 23.2169 29.1529 22.6335 28.5695C22.05 27.986 21.7222 27.1947 21.7222 26.3696V21.7029C21.7222 20.8778 22.05 20.0865 22.6335 19.503C23.2169 18.9196 24.0082 18.5918 24.8333 18.5918H29.5V26.3696ZM1.5 26.3696C1.5 27.1947 1.82778 27.986 2.41122 28.5695C2.99467 29.1529 3.78599 29.4807 4.61111 29.4807H6.16667C6.99179 29.4807 7.78311 29.1529 8.36656 28.5695C8.95 27.986 9.27778 27.1947 9.27778 26.3696V21.7029C9.27778 20.8778 8.95 20.0865 8.36656 19.503C7.78311 18.9196 6.99179 18.5918 6.16667 18.5918H1.5V26.3696Z" stroke="white" stroke-width="2" stroke-linecap="round" stroke-linejoin="round"/>
</svg>
