<svg width="25" height="25" viewBox="0 0 25 25" fill="none" xmlns="http://www.w3.org/2000/svg">
<path d="M18.5 20.5V20M18.5 20.5C18.5 21.2956 18.1839 22.0587 17.6213 22.6213C17.0587 23.1839 16.2956 23.5 15.5 23.5H13V23.25L13.22 22.893C14.384 21.0015 15.0002 18.824 15 16.603V16.5H18.5M18.5 20.5C18.5 21.2956 18.8161 22.0587 19.3787 22.6213C19.9413 23.1839 20.7044 23.5 21.5 23.5H24V23.25L23.78 22.893C22.616 21.0015 21.9998 18.824 22 16.603V16.5H18.5M18.5 16.5V0M4 13.5V11C4 10.337 4.26339 9.70107 4.73223 9.23223C5.20107 8.76339 5.83696 8.5 6.5 8.5C7.16304 8.5 7.79893 8.76339 8.26777 9.23223C8.73661 9.70107 9 10.337 9 11V13.5M3 23.5V22.47C2.99974 19.5261 2.34961 16.6186 1.096 13.955L1 13.75V13.5H12V13.75L11.904 13.955C10.6504 16.6186 10.0003 19.5261 10 22.47V23.5H3Z" stroke="black" stroke-width="1.5"/>
</svg>
