<svg width="26.908203" height="23.320312" viewBox="0 0 26.9082 23.3203" fill="none" xmlns="http://www.w3.org/2000/svg" xmlns:xlink="http://www.w3.org/1999/xlink">
	<desc>
			Created with Pixso.
	</desc>
	<defs/>
	<path id="Vector" d="M7.17578 23.3203L7.17578 21.5264L8.96875 21.5264L8.96875 19.7324L4.48438 19.7324C3.32812 19.7344 2.2168 19.2891 1.38086 18.4902C0.544922 17.6914 0.0507812 16.6006 0 15.4453L0 4.48438C-0.00195312 3.3291 0.443359 2.2168 1.24219 1.38086C2.04102 0.545898 3.13281 0.0507812 4.28711 0L22.4238 0C23.5801 -0.000976562 24.6914 0.444336 25.5273 1.24316C26.3633 2.04199 26.8574 3.13281 26.9082 4.28711L26.9082 15.248C26.9102 16.4043 26.4648 17.5156 25.666 18.3516C24.8672 19.1875 23.7754 19.6816 22.6211 19.7324L17.9395 19.7324L17.9395 21.5264L19.7324 21.5264L19.7324 23.3203L7.17578 23.3203ZM16.1445 19.7324L10.7637 19.7324L10.7637 21.5264L16.1445 21.5264L16.1445 19.7324ZM22.4238 1.79395L4.48438 1.79395C3.79883 1.79297 3.13672 2.05371 2.63672 2.52441C2.13672 2.99414 1.83594 3.6377 1.79297 4.32324L1.79297 15.248C1.79297 15.9346 2.05469 16.5957 2.52344 17.0957C2.99414 17.5967 3.63867 17.8975 4.32422 17.9395L22.4238 17.9395C23.1094 17.9404 23.7715 17.6787 24.2715 17.209C24.7715 16.7383 25.0742 16.0947 25.1152 15.4092L25.1152 4.48438C25.1152 3.79785 24.8555 3.13672 24.3848 2.63672C23.9141 2.13672 23.2695 1.83496 22.5859 1.79395L22.4238 1.79395Z" fill="#222222" fill-opacity="1.000000" fill-rule="nonzero"/>
</svg>
