<svg width="15" height="25" viewBox="0 0 15 25" fill="none" xmlns="http://www.w3.org/2000/svg">
<path d="M8.95833 21.7798C8.95833 21.3673 8.81554 21.0141 8.52995 20.7204C8.24436 20.4266 7.90104 20.2798 7.5 20.2798C7.09896 20.2798 6.75564 20.4266 6.47005 20.7204C6.18446 21.0141 6.04167 21.3673 6.04167 21.7798C6.04167 22.1923 6.18446 22.5454 6.47005 22.8391C6.75564 23.1329 7.09896 23.2798 7.5 23.2798C7.90104 23.2798 8.24436 23.1329 8.52995 22.8391C8.81554 22.5454 8.95833 22.1923 8.95833 21.7798ZM12.75 18.7797V5.57971C12.75 5.4172 12.6923 5.27658 12.5768 5.15783C12.4614 5.03908 12.3247 4.9797 12.1667 4.9797H2.83333C2.67535 4.9797 2.53863 5.03908 2.42318 5.15783C2.30773 5.27658 2.25 5.4172 2.25 5.57971V18.7797C2.25 18.9422 2.30773 19.0829 2.42318 19.2016C2.53863 19.3204 2.67535 19.3798 2.83333 19.3798H12.1667C12.3247 19.3798 12.4614 19.3204 12.5768 19.2016C12.6923 19.0829 12.75 18.9422 12.75 18.7797ZM9.25 2.8797C9.25 2.6797 9.15278 2.5797 8.95833 2.5797H6.04167C5.84722 2.5797 5.75 2.6797 5.75 2.8797C5.75 3.0797 5.84722 3.1797 6.04167 3.1797H8.95833C9.15278 3.1797 9.25 3.0797 9.25 2.8797ZM14.5 2.5797V21.7798C14.5 22.4298 14.2691 22.9923 13.8073 23.4673C13.3455 23.9423 12.7986 24.1798 12.1667 24.1798H2.83333C2.20139 24.1798 1.65451 23.9423 1.19271 23.4673C0.730903 22.9923 0.5 22.4298 0.5 21.7798V2.5797C0.5 1.92969 0.730903 1.36719 1.19271 0.89219C1.65451 0.417188 2.20139 0.179688 2.83333 0.179688H12.1667C12.7986 0.179688 13.3455 0.417188 13.8073 0.89219C14.2691 1.36719 14.5 1.92969 14.5 2.5797Z" fill="black"/>
</svg>
