<svg width="25" height="25" viewBox="0 0 25 25" fill="none" xmlns="http://www.w3.org/2000/svg">
<path d="M20.0998 13.1139L19.5348 12.5507C19.5348 12.5507 18.8486 13.2346 17.7993 13.2346C16.7902 13.2346 16.0637 12.5507 16.0637 12.5507L15.4987 13.1139C15.539 13.1541 16.427 14.0391 17.7993 14.0391C19.1715 14.0391 20.0595 13.1541 20.0998 13.1139Z" fill="black"/>
<path d="M13.077 12.5507C13.077 12.5507 12.3909 13.2346 11.3415 13.2346C10.3325 13.2346 9.60599 12.5507 9.60599 12.5507L9.04093 13.1139C9.0813 13.1541 9.96924 14.0391 11.3415 14.0391C12.7138 14.0391 13.6017 13.1541 13.6421 13.1139L13.077 12.5507Z" fill="black"/>
<path d="M16.712 19.2705L16.4699 18.5062C14.9765 18.9889 14.5729 18.9889 13.0796 18.5062L12.8374 19.2705C13.6446 19.5521 14.2097 19.6727 14.7747 19.6727C15.3398 19.6727 15.9048 19.5118 16.712 19.2705Z" fill="black"/>
<path d="M0.848922 24.9016H4.48141C4.72357 24.9016 4.88502 24.7406 4.88502 24.4993V22.0857C4.88502 20.5169 6.13621 19.2698 7.71028 19.2698H8.92111C9.0422 19.2698 9.16328 19.2296 9.28436 19.1894C9.52653 19.5514 9.80905 19.8732 10.1319 20.1548V24.9016H10.9392V20.9594C10.9795 20.9996 10.9795 20.9996 11.0199 21.0398C11.4639 21.4421 11.9078 21.7237 12.3518 21.9248C13.1187 22.2868 13.9662 22.4477 14.7735 22.4477C16.065 22.4477 17.3566 22.0052 18.4059 21.1203C18.4867 21.08 18.527 20.9996 18.6077 20.9191V24.9016H19.415V20.195C19.6168 19.9939 19.8186 19.7526 20.0204 19.5514L19.415 19.0285C18.971 19.5917 18.4463 20.1146 17.9216 20.5571C16.4686 21.7639 14.4909 22.0455 12.7554 21.2409C12.3922 21.08 11.9885 20.7984 11.5849 20.4766C10.9795 19.9537 10.4548 19.3905 9.9705 18.7871C10.0916 18.586 10.1723 18.3849 10.1723 18.1033V15.2874C10.1723 14.6036 9.64761 14.0806 8.96147 14.0806H7.75065C7.66992 13.799 7.5892 13.5979 7.54884 13.3163C7.54884 11.4257 8.92111 9.09252 10.4548 8.32822C11.5849 7.76504 12.8765 7.32255 14.1277 6.92029C14.168 6.92029 14.2084 6.88006 14.2891 6.88006C15.7825 7.20187 17.6794 7.76504 19.0114 8.89139C19.6571 9.45456 20.2625 10.1786 20.8276 11.1843C20.989 11.5061 21.1908 11.8279 21.3926 12.2302C21.4734 12.3911 21.5945 12.5922 21.7155 12.7934C21.877 13.0749 21.9981 13.3565 22.1191 13.6783L22.1595 13.799C22.1999 13.9599 22.4017 14.0806 22.5631 14.0806C22.7649 14.0806 22.886 13.9599 22.9264 13.7588C22.9264 13.7186 23.0878 13.0347 23.1282 12.7129C23.2493 11.9084 23.3703 11.0636 23.4511 9.9775C23.4914 9.2132 23.5721 8.40867 23.5318 7.60414C23.4914 6.4778 23.2493 4.86873 22.1999 3.54126C21.433 2.53559 20.3029 1.77129 18.9306 1.3288C17.8005 0.926531 16.5493 0.765625 15.056 0.765625C13.4819 0.765625 12.2307 0.926531 11.0602 1.28857C9.64761 1.73106 8.47714 2.53559 7.66992 3.54126C6.82234 4.58715 6.33801 5.99508 6.21693 7.56391C6.13621 8.97184 6.37837 12.3509 6.70126 13.7588C6.70126 13.8393 6.74162 13.8795 6.82234 13.9197C6.82234 13.9599 6.8627 14.0002 6.8627 14.0404H4.0778C2.05975 14.0404 0.445312 15.6494 0.445312 17.6608V24.4993C0.445312 24.7004 0.606756 24.9016 0.848922 24.9016ZM8.11389 14.8449H8.92111C9.16328 14.8449 9.32472 15.0058 9.32472 15.2472V18.063C9.32472 18.3044 9.16328 18.4653 8.92111 18.4653H8.11389V14.8449ZM21.5137 3.98375C22.442 5.15032 22.6438 6.59847 22.6438 7.60414C22.6438 8.36844 22.6035 9.13275 22.5631 9.89705C22.4824 10.8223 22.4017 11.5866 22.3209 12.2704C22.2402 12.1095 22.1191 11.9486 22.0788 11.8279C21.8366 11.3854 21.6752 11.0636 21.4734 10.7418C20.8276 9.65569 20.1818 8.85116 19.4553 8.20754C18.3252 7.2421 16.9126 6.67893 15.621 6.31689C15.9036 6.19621 16.2264 6.11576 16.509 5.99508C17.9216 5.4319 19.9397 4.58715 21.3926 3.82284C21.3926 3.86307 21.4734 3.94352 21.5137 3.98375ZM7.02415 7.60414C7.06451 6.6387 7.34704 5.19055 8.27534 4.02398C8.96147 3.13899 10.0109 2.45514 11.3024 2.05287C12.3518 1.73106 13.4819 1.57016 14.9349 1.57016C14.9753 1.57016 14.9753 1.57016 15.0156 1.57016C16.4686 1.57016 17.5987 1.73106 18.6077 2.05287C19.2132 2.25401 20.0204 2.61605 20.7469 3.21944C19.3342 3.94352 17.4373 4.74805 16.1457 5.23077C15.3789 5.55258 14.5716 5.79394 13.7644 6.07553C12.5132 6.47779 11.2217 6.92029 10.0109 7.52368C8.80003 8.12708 7.71028 9.49479 7.10487 11.0234C7.02415 9.73615 6.98379 8.36844 7.02415 7.60414ZM4.0778 14.8449H7.30667V18.5055C5.49043 18.7067 4.0778 20.2353 4.0778 22.0857V24.097H3.27058V20.2353C3.27058 19.5112 2.94769 18.8273 2.34228 18.3446L1.25253 17.4596C1.37361 16.0115 2.58444 14.8449 4.0778 14.8449ZM1.25253 18.5055L1.85795 18.9883C2.26156 19.2698 2.46336 19.7526 2.46336 20.2353V24.097H1.25253V18.5055Z" fill="black"/>
<path d="M5.08682 18.2642C5.65188 18.2642 6.09585 17.8217 6.09585 17.2585V16.6551C6.09585 16.0919 5.65188 15.6494 5.08682 15.6494C4.52177 15.6494 4.0778 16.0919 4.0778 16.6551V17.2585C4.0778 17.8217 4.52177 18.2642 5.08682 18.2642ZM4.88502 16.6551C4.88502 16.5344 4.96574 16.454 5.08682 16.454C5.20791 16.454 5.28863 16.5344 5.28863 16.6551V17.2585C5.28863 17.3792 5.20791 17.4596 5.08682 17.4596C4.96574 17.4596 4.88502 17.3792 4.88502 17.2585V16.6551Z" fill="black"/>
<path d="M18.2849 17.6601C18.3656 17.6601 19.6975 17.2981 20.868 15.2063L20.989 15.7695L21.7559 15.5684L21.3523 13.9593C21.3119 13.8386 21.2312 13.7582 21.1101 13.6777C20.989 13.6375 20.868 13.6375 20.7469 13.6777L19.1324 14.4823L19.4957 15.2063L20.0204 14.965C19.0517 16.574 18.0427 16.8958 18.0023 16.8958L18.1234 17.2981L18.2849 17.6601Z" fill="black"/>
<path d="M21.1101 19.2698C21.1908 19.2698 22.5228 18.9077 23.6932 16.816L23.8143 17.3791L24.5812 17.178L24.1776 15.5689C24.1372 15.4483 24.0565 15.3678 23.9354 15.2873C23.8143 15.2069 23.6932 15.2471 23.5721 15.2873L21.9577 16.0919L22.3209 16.816L22.8456 16.5746C21.877 18.1837 20.868 18.5055 20.8276 18.5055L20.9487 18.9077L21.1101 19.2698Z" fill="black"/>
</svg>
