<svg width="25" height="26" viewBox="0 0 25 26" fill="none" xmlns="http://www.w3.org/2000/svg">
<path d="M19.2347 3.28058C19.153 1.76995 17.8857 0.585938 16.3731 0.585938C14.7787 0.585938 13.5114 1.8516 13.5114 3.44389C13.5114 5.03618 14.7787 6.30184 16.3731 6.30184C16.7819 6.30184 17.1498 6.22019 17.5177 6.05687C20.1341 7.73082 21.6875 10.5479 21.6875 13.6509C21.6875 18.591 17.6404 22.633 12.6938 22.633C7.7473 22.633 3.70013 18.591 3.70013 13.6509C3.70013 10.5479 5.25359 7.73082 7.86994 6.05687C8.23786 6.22019 8.60579 6.30184 9.01459 6.30184C10.6089 6.30184 11.8762 5.03618 11.8762 3.44389C11.8762 1.8516 10.6089 0.585938 9.01459 0.585938C7.50201 0.585938 6.23472 1.76995 6.15296 3.28058C2.55547 5.56694 0.429688 9.40476 0.429688 13.6509C0.429688 20.3875 5.94855 25.8992 12.6938 25.8992C19.4391 25.8992 24.958 20.3875 24.958 13.6509C24.958 9.40476 22.8322 5.56694 19.2347 3.28058ZM23.2001 9.03731C22.6278 8.75152 21.8102 8.42489 20.8291 8.1391C20.5838 7.77165 20.2976 7.40419 20.0114 7.07757C21.2379 7.20006 22.1781 7.44502 22.3825 7.48585C22.6687 7.97579 22.9548 8.50655 23.2001 9.03731ZM23.6089 10.2213C23.7725 10.7929 23.8951 11.3645 24.0177 11.9361C23.5272 11.5278 22.8322 10.9562 21.9737 10.4663C21.8102 10.058 21.6467 9.64973 21.4423 9.24145C22.6278 9.64973 23.4454 10.0988 23.6089 10.2213ZM22.3416 15.4881C22.4234 15.039 22.4643 14.6307 22.5052 14.1816C23.2819 15.1207 23.7725 15.9372 23.8951 16.1414C23.7725 16.713 23.6089 17.2845 23.3636 17.8153C23.1592 17.2029 22.8322 16.3455 22.3416 15.4881ZM22.8322 18.9177C22.546 19.4484 22.2599 19.9384 21.892 20.4283C21.8511 19.775 21.7284 18.9177 21.4831 17.9378C21.6875 17.5295 21.8511 17.1212 21.9737 16.713C22.546 17.7745 22.7913 18.6727 22.8322 18.9177ZM22.4643 12.916C22.4234 12.4669 22.3825 12.0177 22.2599 11.6095C23.241 12.3035 23.936 12.9568 24.0995 13.1201C24.0995 13.2834 24.0995 13.4467 24.0995 13.6509C24.0995 14.0591 24.0586 14.4674 24.0177 14.9165C23.6907 14.3858 23.1592 13.6509 22.4643 12.916ZM19.1121 4.21962C19.1121 4.17879 19.1121 4.17879 19.1121 4.21962C19.2347 4.26045 19.3574 4.3421 19.48 4.42376C19.3574 4.42376 19.1938 4.46459 19.0712 4.46459C19.0712 4.38293 19.1121 4.30128 19.1121 4.21962ZM14.3291 3.44389C14.3291 2.30071 15.2284 1.4025 16.3731 1.4025C17.4769 1.4025 18.4171 2.30071 18.4171 3.44389V3.48472C18.4171 3.6072 18.4171 3.68886 18.3762 3.81134C18.3762 3.85217 18.3762 3.893 18.3353 3.93382C18.3353 4.01548 18.2945 4.09714 18.2536 4.13796C18.2536 4.17879 18.2127 4.21962 18.2127 4.26045C18.1718 4.3421 18.1309 4.46459 18.0492 4.54624C18.0492 4.58707 18.0083 4.58707 17.9674 4.6279C17.9265 4.70955 17.8448 4.75038 17.8039 4.83204L17.763 4.87287C17.6813 4.95452 17.5995 5.03618 17.4769 5.07701L17.436 5.11783C17.1498 5.3628 16.7819 5.48528 16.3731 5.48528C15.2284 5.48528 14.3291 4.58707 14.3291 3.44389ZM18.2945 5.52611C18.3762 5.48528 18.4171 5.40363 18.458 5.3628C19.4391 5.19949 20.2158 5.19949 20.3794 5.19949C20.8291 5.60777 21.2379 6.01605 21.6058 6.50598C20.9926 6.3835 20.0932 6.26101 19.0712 6.22019C18.8259 6.01605 18.5397 5.77108 18.2945 5.52611C18.2945 5.56694 18.2945 5.56694 18.2945 5.52611ZM19.2347 20.9182C19.1121 22.1431 18.9077 23.0413 18.8259 23.2454C18.3353 23.572 17.8039 23.8578 17.2725 24.062C17.5586 23.4904 17.8857 22.6738 18.1718 21.694C18.5806 21.4898 18.9077 21.2448 19.2347 20.9182ZM16.1687 24.5519C15.5964 24.7152 15.024 24.8785 14.4517 24.9602C14.8605 24.4703 15.4328 23.7762 15.9234 22.9188C16.3322 22.7555 16.741 22.5922 17.1498 22.388C16.741 23.5312 16.2504 24.3478 16.1687 24.5519ZM10.8542 23.2862C11.3039 23.3679 11.7127 23.4087 12.1624 23.4496C11.2221 24.2253 10.4045 24.7152 10.2001 24.8377C9.6278 24.7152 9.05547 24.5519 8.52403 24.3069C9.13723 24.1028 9.99572 23.7762 10.8542 23.2862ZM7.42025 23.7762C6.88881 23.4904 6.39824 23.2046 5.90767 22.8371C6.56176 22.7963 7.42025 22.6738 8.40139 22.4289C8.81019 22.633 9.219 22.7963 9.6278 22.9188C8.56491 23.4904 7.66554 23.7353 7.42025 23.7762ZM2.22843 18.2644C2.80076 18.5502 3.61837 18.8768 4.5995 19.1626C4.84478 19.5301 5.13095 19.8975 5.41711 20.2242C4.19069 20.1017 3.29132 19.8975 3.08692 19.8159C2.75988 19.3259 2.47371 18.7952 2.22843 18.2644ZM2.18755 9.8947L2.96428 9.6089C2.719 8.95566 2.59635 8.50655 2.55547 8.38406C2.84164 7.8533 3.1278 7.36337 3.49573 6.87343C3.53661 7.52668 3.65925 8.38406 3.90453 9.36393C3.70013 9.77221 3.53661 10.1805 3.41396 10.5888C3.37308 10.5479 3.37308 10.5071 3.3322 10.4255L2.55547 10.7929C2.719 11.1604 2.88252 11.487 3.04604 11.8136C2.96428 12.2627 2.9234 12.7118 2.88252 13.1609C2.10579 12.2219 1.61522 11.4053 1.49258 11.2012C1.61522 10.6296 1.77874 10.058 1.98315 9.48642C2.06491 9.6089 2.10579 9.73138 2.18755 9.8947ZM2.9234 14.3858C2.96428 14.8349 3.00516 15.284 3.08692 15.6923C2.10579 14.9982 1.41082 14.3449 1.2473 14.1816C1.2473 14.0183 1.2473 13.855 1.2473 13.6509C1.2473 13.2426 1.28818 12.8343 1.32906 12.426C1.69698 12.9568 2.22843 13.6509 2.9234 14.3858ZM3.41396 16.8763C3.57749 17.2845 3.74101 17.6928 3.94541 18.1011C2.80076 17.6928 1.94227 17.2029 1.77874 17.1212C1.61522 16.5496 1.4517 15.9781 1.36994 15.4065C1.86051 15.8147 2.55547 16.3455 3.41396 16.8763ZM7.13409 5.56694C6.76617 5.81191 6.43912 6.05687 6.15296 6.34267C6.23472 5.60777 6.31648 4.99535 6.39824 4.58707C6.43912 4.70955 6.52088 4.83204 6.56176 4.91369V4.95452C6.64352 5.077 6.72529 5.15866 6.80705 5.28114C6.80705 5.28114 6.80705 5.28114 6.84793 5.32197C6.92969 5.40363 7.01145 5.48528 7.13409 5.56694C7.09321 5.56694 7.09321 5.56694 7.13409 5.56694ZM9.01459 1.4025C10.1592 1.4025 11.0586 2.30071 11.0586 3.44389C11.0586 4.58707 10.1592 5.48528 9.01459 5.48528C8.60579 5.48528 8.23786 5.3628 7.91082 5.15866L7.86994 5.11783C7.78818 5.03618 7.66554 4.99535 7.58378 4.91369L7.54289 4.87287C7.46113 4.79121 7.42025 4.75038 7.37937 4.66873C7.33849 4.6279 7.33849 4.6279 7.29761 4.58707C7.25673 4.50541 7.17497 4.42376 7.13409 4.30128C7.13409 4.26045 7.09321 4.21962 7.09321 4.17879C7.05233 4.09714 7.05233 4.05631 7.01145 3.97465C7.01145 3.93382 6.97057 3.893 6.97057 3.85217C6.97057 3.68886 6.97057 3.56637 6.97057 3.48472V3.44389C6.97057 2.30071 7.91082 1.4025 9.01459 1.4025ZM5.53975 4.75038C5.41711 5.3628 5.29447 6.26101 5.29447 7.24088C5.0083 7.56751 4.72214 7.93496 4.47686 8.30241C4.27245 7.07757 4.27245 6.13853 4.27245 5.93439C4.64038 5.48528 5.04918 5.11783 5.53975 4.75038ZM3.78189 20.7957C4.3951 20.9182 5.29447 21.0407 6.31648 21.0407C6.64352 21.3265 7.01145 21.6123 7.37937 21.8573C6.19384 22.0614 5.25359 22.1022 5.0083 22.0614C4.55862 21.694 4.14981 21.2448 3.78189 20.7957ZM11.4265 25.001C11.958 24.6336 12.653 24.1028 13.3888 23.4087C13.8385 23.3679 14.2882 23.3271 14.697 23.2046C14.002 24.2253 13.3479 24.8785 13.1844 25.0418C13.0209 25.0418 12.8574 25.0418 12.653 25.0418C12.285 25.0827 11.8762 25.0418 11.4265 25.001ZM19.8479 22.5513C19.9706 21.9389 20.0932 21.0407 20.0932 20.02C20.3794 19.6934 20.6655 19.3259 20.9108 18.9585C21.1152 20.1425 21.1561 21.0815 21.1152 21.3265C20.7473 21.7756 20.2976 22.1839 19.8479 22.5513Z" fill="black"/>
</svg>
