<svg width="20" height="20" viewBox="0 0 20 20" fill="none" xmlns="http://www.w3.org/2000/svg">
<path d="M10.7741 3.74671L7.9748 3.04688C7.94438 3.04688 7.88352 3.04688 7.85309 3.04688L5.05376 3.77714C4.96248 3.80757 4.8712 3.89885 4.8712 3.99013C4.84077 4.08141 4.90162 4.20312 4.99291 4.26398C5.66231 4.72039 6.7577 4.99424 7.94438 4.99424C9.13105 4.99424 10.2264 4.72039 10.8958 4.26398C10.9871 4.20312 11.0176 4.11184 11.0176 3.99013C10.9263 3.86842 10.8654 3.77714 10.7741 3.74671ZM7.88352 4.41612C7.12283 4.41612 6.39257 4.29441 5.84488 4.08141L7.88352 3.56414L9.92216 4.08141C9.37447 4.29441 8.64421 4.41612 7.88352 4.41612Z" fill="black"/>
<path d="M15.7919 3.53064C15.7919 3.43936 15.731 3.34807 15.6397 3.28722C14.8182 2.83081 14.1792 2.25268 13.5098 1.64413C13.1143 1.279 12.6883 0.913866 12.2623 0.548734C11.3495 -0.151101 10.0715 -0.181528 9.09783 0.457451C8.36757 0.944293 7.39389 0.944293 6.66363 0.457451C5.68995 -0.181528 4.44242 -0.151101 3.49916 0.548734C3.04275 0.883438 2.64719 1.279 2.25164 1.64413C1.58223 2.25268 0.943253 2.86123 0.12171 3.28722C0.060855 3.34807 0 3.43936 0 3.53064C0 3.62192 0.060855 3.71321 0.152138 3.77406C0.97368 4.23048 1.61266 4.8086 2.28206 5.41715C3.6513 6.66468 5.08139 7.97307 7.91115 7.97307C10.7409 7.97307 12.171 6.66468 13.5402 5.41715C14.2096 4.8086 14.8486 4.20005 15.6702 3.77406C15.731 3.71321 15.7919 3.62192 15.7919 3.53064ZM13.1447 5.02159C11.7754 6.26913 10.4975 7.42537 7.88073 7.42537C5.26396 7.42537 3.986 6.2387 2.61677 4.99117C2.03864 4.4739 1.46052 3.9262 0.760688 3.50021C1.46052 3.07423 2.03864 2.52653 2.61677 2.00926C3.01232 1.64413 3.40788 1.279 3.83387 0.944293C4.56413 0.427024 5.59866 0.396596 6.35935 0.913866C7.27218 1.52242 8.45885 1.52242 9.4021 0.913866C10.1932 0.396596 11.1973 0.427024 11.9276 0.974721C12.3536 1.30942 12.7491 1.67456 13.1447 2.03969C13.7228 2.55696 14.3009 3.10465 14.9703 3.53064C14.3009 3.95663 13.7228 4.50432 13.1447 5.02159Z" fill="black"/>
<path d="M18.9874 12.0778H18.7136V11.165C18.7136 11.0129 18.5919 10.8912 18.4397 10.8912H18.105V3.89282C18.105 3.83196 18.0746 3.77111 18.0442 3.74068C18.0138 3.71025 18.0138 3.67982 17.9833 3.61897C17.5878 3.19298 16.6749 3.6494 15.9447 4.28838C15.3057 4.83607 14.7884 5.53591 14.9102 5.99232V10.8607H14.5754C14.4233 10.8607 14.3016 10.9825 14.3016 11.1346V12.0474H14.0278C13.8756 12.0474 13.7539 12.1691 13.7539 12.3213V18.1025C13.7539 18.7111 14.2712 19.2283 14.8797 19.2283H18.1355C18.744 19.2283 19.2613 18.7111 19.2613 18.1025V12.3213C19.2309 12.1691 19.1091 12.0778 18.9874 12.0778ZM16.2794 4.71436C16.9184 4.16667 17.4052 3.9841 17.5573 4.01453C17.5573 4.16667 17.3139 4.62308 16.6749 5.17078C16.036 5.71847 15.5491 5.87061 15.397 5.87061C15.4274 5.71847 15.6708 5.26206 16.2794 4.71436ZM15.4274 6.38788C15.8838 6.38788 16.5228 6.02275 17.0401 5.56634C17.2226 5.4142 17.4052 5.23163 17.5573 5.01864V10.8607H15.397L15.4274 6.38788ZM14.8189 11.4084H18.1659V12.0474H14.8189V11.4084ZM18.7136 12.5951V16.8246H14.3016V12.5951H18.7136ZM18.1355 18.7111H14.8797C14.545 18.7111 14.3016 18.4372 14.3016 18.1329V17.4027H18.7136V18.1329C18.7136 18.4372 18.4397 18.7111 18.1355 18.7111Z" fill="black"/>
</svg>
