<svg width="27" height="28" viewBox="0 0 27 28" fill="none" xmlns="http://www.w3.org/2000/svg">
<path d="M6.19848 0.625L2.85901 1.46074L0.25 7.56271L2.25633 8.90328L3.9113 5.5881L4.93887 5.88399L4.03063 14.9479H12.9425L13.497 9.63998L13.5512 9.15086H13.8224L13.497 5.88399L14.5276 5.5881L16.1789 8.90328L18.1858 7.56271L15.5762 1.46074L12.2374 0.625C11.9059 0.858693 11.5021 0.999995 11.0621 1.10507C10.4956 1.23852 9.85676 1.30072 9.21792 1.30072C8.57907 1.30072 7.94023 1.23852 7.37371 1.10507C6.93375 0.999995 6.52995 0.859297 6.19848 0.625ZM14.5276 10.2378L14.4372 11.0832H25.2131L25.1227 10.2378H14.5276ZM14.3226 12.1701L12.7135 27.5081H16.4923L19.2948 14.4105H20.3555L23.158 27.5081H26.9368L25.3276 12.1701H14.3226Z" fill="black"/>
</svg>
