<svg width="18" height="18" viewBox="0 0 18 18" fill="none" xmlns="http://www.w3.org/2000/svg">
<path d="M14.1654 13.9974C14.6074 13.9974 15.0313 14.173 15.3439 14.4856C15.6564 14.7981 15.832 15.222 15.832 15.6641C15.832 16.1061 15.6564 16.53 15.3439 16.8426C15.0313 17.1551 14.6074 17.3307 14.1654 17.3307C13.7233 17.3307 13.2994 17.1551 12.9869 16.8426C12.6743 16.53 12.4987 16.1061 12.4987 15.6641C12.4987 14.7391 13.2404 13.9974 14.1654 13.9974ZM0.832031 0.664062H3.55703L4.34036 2.33073H16.6654C16.8864 2.33073 17.0983 2.41853 17.2546 2.57481C17.4109 2.73109 17.4987 2.94305 17.4987 3.16406C17.4987 3.30573 17.457 3.4474 17.3987 3.58073L14.4154 8.9724C14.132 9.48073 13.582 9.83073 12.957 9.83073H6.7487L5.9987 11.1891L5.9737 11.2891C5.9737 11.3443 5.99565 11.3973 6.03472 11.4364C6.07379 11.4754 6.12678 11.4974 6.18203 11.4974H15.832V13.1641H5.83203C5.39 13.1641 4.96608 12.9885 4.65352 12.6759C4.34096 12.3633 4.16536 11.9394 4.16536 11.4974C4.16536 11.2057 4.24036 10.9307 4.36536 10.6974L5.4987 8.65573L2.4987 2.33073H0.832031V0.664062ZM5.83203 13.9974C6.27406 13.9974 6.69798 14.173 7.01054 14.4856C7.3231 14.7981 7.4987 15.222 7.4987 15.6641C7.4987 16.1061 7.3231 16.53 7.01054 16.8426C6.69798 17.1551 6.27406 17.3307 5.83203 17.3307C5.39 17.3307 4.96608 17.1551 4.65352 16.8426C4.34096 16.53 4.16536 16.1061 4.16536 15.6641C4.16536 14.7391 4.90703 13.9974 5.83203 13.9974ZM13.332 8.16406L15.6487 3.9974H5.11536L7.08203 8.16406H13.332Z" fill="black"/>
</svg>
