<svg width="18" height="18" viewBox="0 0 18 18" fill="none" xmlns="http://www.w3.org/2000/svg">
<path d="M2.2 15.4719H3.9V6.9719C3.9 6.74646 3.98955 6.53026 4.14896 6.37085C4.30837 6.21145 4.52457 6.12189 4.75 6.12189H14.95V4.42189C14.95 4.19645 14.8604 3.98025 14.701 3.82085C14.5416 3.66144 14.3254 3.57189 14.1 3.57189H11.5066C11.2924 1.66448 9.6885 0.171875 7.725 0.171875C5.7615 0.171875 4.15755 1.66448 3.94335 3.57189H1.35C1.12457 3.57189 0.908365 3.66144 0.748959 3.82085C0.589553 3.98025 0.5 4.19645 0.5 4.42189V13.7719C0.5 14.2228 0.679107 14.6552 0.997918 14.974C1.31673 15.2928 1.74913 15.4719 2.2 15.4719ZM7.725 1.87188C8.75095 1.87188 9.6103 2.60288 9.8075 3.57189H5.6425C5.8397 2.60288 6.69905 1.87188 7.725 1.87188Z" fill="black"/>
<path d="M16.6516 7.82812H6.45156C6.22613 7.82812 6.00993 7.91768 5.85052 8.07709C5.69112 8.23649 5.60156 8.45269 5.60156 8.67813V15.4782C5.60156 15.929 5.78067 16.3614 6.09948 16.6802C6.41829 16.999 6.85069 17.1782 7.30156 17.1782H15.8016C16.2524 17.1782 16.6848 16.999 17.0036 16.6802C17.3225 16.3614 17.5016 15.929 17.5016 15.4782V8.67813C17.5016 8.45269 17.412 8.23649 17.2526 8.07709C17.0932 7.91768 16.877 7.82812 16.6516 7.82812ZM11.5516 13.7781C9.20811 13.7781 7.30156 11.8716 7.30156 9.52813H9.00156C9.00156 10.934 10.1457 12.0781 11.5516 12.0781C12.9575 12.0781 14.1016 10.934 14.1016 9.52813H15.8016C15.8016 11.8716 13.895 13.7781 11.5516 13.7781Z" fill="black"/>
</svg>
