<svg width="30" height="25" viewBox="0 0 30 25" fill="none" xmlns="http://www.w3.org/2000/svg">
<path d="M8.23073 0.0469711C8.15837 0.0464533 8.07998 0.0480066 8.00762 0.0521485C7.41666 0.0837309 6.8076 0.23543 6.24076 0.415604C5.1113 0.776471 4.13803 1.27143 4.13803 1.27143L4.68919 2.07394C4.68919 2.07394 5.60337 1.61366 6.62067 1.28955C7.1272 1.1275 7.66389 1.00428 8.07395 0.982015C8.49003 0.959752 8.71315 1.02913 8.8217 1.14252C8.94833 1.27092 8.98451 1.49355 8.87597 1.86114C8.77345 2.22874 8.52018 2.68228 8.2247 3.10632C7.79053 3.72812 7.28399 4.27952 7.04278 4.53322C5.80659 4.6523 4.83572 5.55835 4.83572 6.64561C4.83572 7.3135 5.20236 7.91408 5.77041 8.30239C5.20236 8.69069 4.83572 9.29128 4.83572 9.95916C4.83572 10.9636 5.66789 11.8127 6.76539 12.0301V15.1004C5.98749 14.2305 4.70969 13.7128 3.58445 13.7283C1.59871 13.7439 0.512664 15.587 0.523518 16.6018C0.580202 18.1706 1.84293 19.2319 3.40777 20.402C4.76999 21.422 6.33725 22.4937 7.29002 24.0418C7.29605 24.0366 7.29605 24.0366 7.30208 24.0366C7.30811 24.0366 7.30811 24.0366 7.30811 24.0418C8.26089 22.4937 9.83477 21.422 11.1916 20.402C12.7655 19.2319 14.0197 18.1706 14.08 16.6018C14.0861 15.587 13.0006 13.7439 11.0227 13.7283C9.89507 13.7128 8.62873 14.2202 7.85083 15.09V12.0301C8.94833 11.8127 9.7805 10.9636 9.7805 9.95916C9.7805 9.29128 9.41266 8.69069 8.84582 8.30239C9.41266 7.91408 9.7805 7.3135 9.7805 6.64561C9.7805 5.7758 9.15939 5.01989 8.27898 4.69372C8.53827 4.39342 8.85788 4.01029 9.15336 3.58419C9.47899 3.11512 9.7805 2.6041 9.93125 2.0874C10.082 1.57069 10.082 0.989264 9.65386 0.546075C9.29205 0.171747 8.75536 0.0500775 8.23073 0.0469711ZM23.6681 0.0469711C23.5957 0.0464533 23.5173 0.0480066 23.445 0.0521485C22.854 0.0837309 22.2449 0.23543 21.6781 0.415604C20.5505 0.776471 19.5736 1.27143 19.5736 1.27143L20.1283 2.07394C20.1283 2.07394 21.0389 1.61366 22.058 1.28955C22.5646 1.1275 23.1012 1.00428 23.5113 0.982015C23.9274 0.959752 24.1505 1.02913 24.259 1.14252C24.3857 1.27092 24.4219 1.49355 24.3133 1.86114C24.2108 2.22874 23.9575 2.68228 23.6621 3.10632C23.2279 3.72812 22.7213 4.27952 22.4801 4.53322C21.2439 4.6523 20.2731 5.55835 20.2731 6.64561C20.2731 7.3135 20.6409 7.91408 21.2078 8.30239C20.6409 8.69069 20.2731 9.29128 20.2731 9.95916C20.2731 10.9636 21.1052 11.8127 22.2027 12.0301V15.1004C21.4309 14.2305 20.1525 13.718 19.0308 13.7335C17.0469 13.749 15.9615 15.5922 15.9735 16.607C16.0278 18.1757 17.2941 19.2371 18.856 20.4072C20.2188 21.4272 21.7867 22.4989 22.7334 24.047C22.7394 24.0418 22.7394 24.0418 22.7455 24.0418C22.7515 24.0418 22.7515 24.0418 22.7515 24.047C23.7043 22.4989 25.2781 21.4272 26.6349 20.4072C28.2088 19.2371 29.4631 18.1757 29.5234 16.607C29.5294 15.5922 28.444 13.749 26.4661 13.7335C25.3384 13.718 24.06 14.2305 23.2882 15.1004V12.0301C24.3857 11.8127 25.2178 10.9636 25.2178 9.95916C25.2178 9.29128 24.85 8.69069 24.2832 8.30239C24.85 7.91408 25.2178 7.3135 25.2178 6.64561C25.2178 5.7758 24.5967 5.01989 23.7163 4.69372C23.9756 4.39342 24.2952 4.01029 24.5907 3.58419C24.9163 3.11512 25.2178 2.6041 25.3686 2.0874C25.5194 1.57069 25.5194 0.989264 25.0912 0.546075C24.7294 0.171747 24.1927 0.0500775 23.6681 0.0469711ZM7.30811 5.4548C8.07998 5.4548 8.69506 5.9829 8.69506 6.64561C8.69506 7.30832 8.07998 7.83642 7.30811 7.83642C6.53624 7.83642 5.92116 7.30832 5.92116 6.64561C5.92116 5.9829 6.53624 5.4548 7.30811 5.4548ZM22.7455 5.4548C23.5173 5.4548 24.1324 5.9829 24.1324 6.64561C24.1324 7.30832 23.5173 7.83642 22.7455 7.83642C21.9736 7.83642 21.3585 7.30832 21.3585 6.64561C21.3585 5.9829 21.9736 5.4548 22.7455 5.4548ZM7.30811 8.76835C8.07998 8.76835 8.69506 9.29645 8.69506 9.95916C8.69506 10.6219 8.07998 11.15 7.30811 11.15C6.53624 11.15 5.92116 10.6219 5.92116 9.95916C5.92116 9.29645 6.53624 8.76835 7.30811 8.76835ZM22.7455 8.76835C23.5173 8.76835 24.1324 9.29645 24.1324 9.95916C24.1324 10.6219 23.5173 11.15 22.7455 11.15C21.9736 11.15 21.3585 10.6219 21.3585 9.95916C21.3585 9.29645 21.9736 8.76835 22.7455 8.76835Z" fill="black"/>
</svg>
