<svg width="19" height="23" viewBox="0 0 19 23" fill="none" xmlns="http://www.w3.org/2000/svg">
<path d="M1.40571 0.171875H1.45882C1.76419 0.186523 2.0253 0.39585 2.22002 0.639198C2.45901 0.939248 2.63648 1.33947 2.73826 1.80112C2.84448 2.26278 2.85776 2.70506 2.77367 3.08733C2.75154 3.18986 2.72056 3.29287 2.68073 3.39068C2.91086 3.40202 3.13657 3.51307 3.32687 3.65529C3.62339 3.88541 3.88893 4.22563 4.09693 4.64617C4.30493 5.06671 4.42 5.49198 4.43328 5.88417C4.4377 6.15824 4.38902 6.44647 4.23413 6.66856C4.52622 6.58823 4.83158 6.68746 5.07942 6.84811C5.39806 7.04657 5.68573 7.36316 5.92914 7.7648C6.16812 8.16172 6.31859 8.57754 6.35842 8.965C6.3717 9.10676 6.3717 9.25324 6.34957 9.395C6.57085 9.3572 6.80541 9.40917 7.01342 9.49423C7.34976 9.64071 7.68169 9.90532 7.9782 10.2644C8.27029 10.6188 8.4783 11.0016 8.57124 11.3843C8.61992 11.5733 8.64205 11.7812 8.61107 11.9797C8.8589 11.8285 9.16427 11.7529 9.50062 11.7529C9.84139 11.7529 10.1423 11.8285 10.3946 11.9797C10.3636 11.786 10.3813 11.578 10.43 11.3843C10.5274 11.0016 10.7309 10.6188 11.0275 10.2597C11.3195 9.90059 11.6515 9.64071 11.9967 9.4895C12.2002 9.39972 12.4348 9.35247 12.6561 9.39027C12.634 9.24852 12.634 9.10204 12.6472 8.965C12.6871 8.57281 12.8331 8.16172 13.0765 7.76008C13.3199 7.35844 13.6076 7.04657 13.9262 6.84339C14.1741 6.68746 14.475 6.5835 14.7583 6.66383C14.6122 6.44175 14.5635 6.15351 14.568 5.87945C14.5768 5.48726 14.6919 5.06199 14.8999 4.64617C15.1079 4.2209 15.3734 3.88541 15.6744 3.65671C15.8602 3.5107 16.0859 3.39872 16.3205 3.38738C16.2807 3.29098 16.2497 3.18986 16.2276 3.08874C16.1479 2.70742 16.1568 2.26514 16.263 1.80349C16.3648 1.34231 16.5418 0.942556 16.7808 0.642505C17.0153 0.341982 17.3649 0.0948542 17.7633 0.197391C18.1616 0.299928 18.3651 0.68834 18.4448 1.07061C18.5289 1.45288 18.5156 1.89563 18.4138 2.35728C18.3076 2.81893 18.1306 3.21916 17.896 3.51779C17.6969 3.76775 17.4313 3.97992 17.1171 3.98937C17.1702 4.15475 17.1923 4.33903 17.1835 4.51386C17.1791 4.90606 17.064 5.3266 16.856 5.75187C16.648 6.16769 16.3825 6.5079 16.0859 6.73471C15.8293 6.93317 15.5106 7.06547 15.1964 6.98042C15.3601 7.22141 15.3955 7.53799 15.369 7.83568C15.3247 8.22787 15.1787 8.63897 14.9353 9.04061C14.6963 9.44225 14.4042 9.75411 14.09 9.9573C13.8599 10.0991 13.5855 10.1983 13.3244 10.151C13.3465 10.3353 13.3244 10.5243 13.2801 10.7039C13.1827 11.0819 12.9792 11.4646 12.6826 11.8238C12.3905 12.1829 12.0586 12.4428 11.7134 12.594C11.4921 12.6885 11.2355 12.7404 10.9965 12.6837C11.0452 12.783 11.085 12.8869 11.116 12.9909C11.1469 13.0901 11.1735 13.1893 11.1956 13.2886C10.9124 13.3216 10.6557 13.3878 10.4211 13.487C10.4034 13.4067 10.3857 13.3264 10.3636 13.2555C10.2884 13.0287 10.1954 12.8727 10.0759 12.7735C9.95203 12.6743 9.78828 12.6034 9.50062 12.6034C9.21295 12.6034 9.0492 12.6743 8.92529 12.7735C8.80579 12.8727 8.71286 13.0287 8.63762 13.2555C8.61549 13.3264 8.59779 13.4067 8.58009 13.487C8.34553 13.3878 8.08884 13.3216 7.8056 13.2886C7.82773 13.1893 7.85428 13.0901 7.88526 12.9909C7.91624 12.8869 7.95607 12.783 8.00033 12.6885C7.76577 12.7404 7.50909 12.6885 7.28781 12.594C6.94703 12.4475 6.61511 12.1829 6.31859 11.8285C6.0265 11.4694 5.8185 11.0866 5.72556 10.7086C5.6813 10.529 5.65918 10.3353 5.6813 10.1558C5.41577 10.203 5.14138 10.1038 4.91567 9.9573C4.59703 9.75884 4.30936 9.44225 4.06595 9.04061C3.82697 8.64369 3.6765 8.22787 3.63667 7.84041C3.60569 7.54272 3.64109 7.22613 3.80484 6.98042C3.49062 7.0702 3.17198 6.93317 2.91529 6.74416C2.61435 6.51262 2.35279 6.17241 2.14036 5.75187C1.93236 5.33132 1.81729 4.91078 1.80844 4.51386C1.80844 4.33903 1.82614 4.15475 1.88368 3.98464C1.56946 3.97519 1.29949 3.76445 1.10477 3.51826C0.870209 3.21774 0.693185 2.81752 0.58697 2.35586C0.48518 1.89421 0.471903 1.45193 0.551565 1.06966C0.640077 0.68645 0.83923 0.29851 1.23754 0.195974C1.29507 0.181325 1.34818 0.173765 1.40571 0.171875ZM1.32605 1.26292C1.28622 1.47556 1.28179 1.80821 1.36145 2.15835C1.44111 2.50802 1.58273 2.80334 1.7155 2.97156C1.82172 3.10623 1.8881 3.12796 1.89695 3.12513C1.91023 3.1204 1.95891 3.06984 1.99874 2.89879C2.03857 2.68568 2.043 2.3535 1.96334 2.00336C1.88368 1.65323 1.74206 1.35837 1.61371 1.18968C1.50307 1.05549 1.43669 1.03328 1.42341 1.03611C1.41456 1.04084 1.36588 1.0914 1.32605 1.26292ZM17.3915 1.18968C17.2587 1.35743 17.1171 1.65275 17.0375 2.00289C16.9578 2.35303 16.9578 2.68521 17.0065 2.89879C17.0419 3.06606 17.0906 3.11993 17.1038 3.12324C17.1171 3.12796 17.1835 3.10197 17.2853 2.97061C17.4181 2.80334 17.5597 2.50754 17.6393 2.15788C17.719 1.80774 17.719 1.47556 17.6703 1.26198C17.6349 1.09423 17.5862 1.04037 17.573 1.03706C17.5597 1.03233 17.4933 1.05832 17.3915 1.18968ZM16.1346 4.34376C15.9665 4.47134 15.7629 4.72177 15.6035 5.03836C15.4487 5.35495 15.369 5.67626 15.3646 5.89835C15.3601 6.06846 15.3955 6.13461 15.4088 6.13933C15.4177 6.14878 15.4885 6.13933 15.6213 6.0401C15.7894 5.91252 15.993 5.66681 16.1523 5.3455C16.3072 5.02891 16.3869 4.7076 16.3913 4.49024C16.3957 4.32486 16.3603 4.25398 16.3515 4.24453C16.3382 4.2398 16.2674 4.24453 16.1346 4.34376ZM2.6055 4.49024C2.61435 4.7076 2.68958 5.03364 2.84448 5.35022C3.0038 5.66681 3.21181 5.91725 3.37555 6.04483C3.50832 6.14878 3.57913 6.15351 3.59684 6.15351C3.60126 6.14406 3.63667 6.08263 3.63667 5.89835C3.62782 5.68099 3.55258 5.35968 3.39326 5.03836C3.23836 4.72177 3.03036 4.47606 2.86218 4.34376C2.72499 4.2398 2.6586 4.2398 2.64533 4.24453C2.63648 4.24925 2.60107 4.31541 2.6055 4.49024ZM14.3334 7.57107C14.1519 7.68447 13.9307 7.91128 13.7448 8.2137C13.5633 8.51611 13.4615 8.8327 13.4394 9.05006C13.4217 9.22017 13.4527 9.28632 13.466 9.29577C13.4748 9.30522 13.5456 9.30522 13.6828 9.21544C13.8599 9.10676 14.0856 8.87523 14.267 8.57281C14.4485 8.2704 14.5503 7.95854 14.5724 7.73645C14.5945 7.56634 14.5635 7.50019 14.5547 7.49074C14.5414 7.48129 14.4706 7.48602 14.3334 7.57107ZM4.44656 7.48602C4.4377 7.50492 4.41115 7.57107 4.42885 7.74118C4.45541 7.95854 4.55277 8.27513 4.73865 8.57754C4.9201 8.87995 5.1458 9.10676 5.3184 9.22017C5.46887 9.31467 5.53968 9.30522 5.54854 9.30049C5.55296 9.29577 5.58394 9.22489 5.56624 9.05478C5.53968 8.83742 5.44232 8.52084 5.25644 8.21842C5.07499 7.91601 4.84929 7.6892 4.67226 7.5758C4.52179 7.48129 4.45541 7.49074 4.44656 7.48602ZM12.2932 10.2786C12.0985 10.3589 11.8462 10.5479 11.6249 10.8173C11.3992 11.0866 11.2576 11.3796 11.2001 11.5922C11.1602 11.7623 11.1779 11.8332 11.1912 11.8427C11.2001 11.8521 11.2709 11.8616 11.4169 11.8001C11.6116 11.7151 11.8639 11.5261 12.0852 11.2567C12.3109 10.9874 12.4525 10.6944 12.51 10.4818C12.5499 10.3164 12.5322 10.2408 12.5233 10.2314C12.51 10.2219 12.4392 10.2125 12.2932 10.2786ZM6.49562 10.4865C6.54873 10.6944 6.69477 10.9874 6.91605 11.2615C7.14176 11.5308 7.39402 11.7198 7.58432 11.8049C7.73922 11.871 7.8056 11.8568 7.81445 11.8474C7.82331 11.8379 7.84543 11.7718 7.80118 11.5969C7.74807 11.3843 7.60202 11.0913 7.38074 10.822C7.15946 10.5527 6.90278 10.3637 6.71247 10.2786C6.55758 10.2125 6.49119 10.2266 6.48234 10.2361C6.47349 10.2455 6.45579 10.3211 6.49562 10.4865ZM11.6249 14.1155C12.2002 14.1155 13.0323 14.3943 13.3288 14.8715C13.6253 15.3488 13.7935 16.0292 13.7935 16.7143C13.7935 17.6594 12.7225 18.7273 11.8595 19.7337C11.1027 20.6268 10.2043 21.4537 9.50062 22.1719C8.79694 21.4537 7.89854 20.6268 7.14176 19.7337C6.27876 18.7273 5.20776 17.6594 5.20776 16.7143C5.20776 16.0292 5.37594 15.3488 5.67245 14.8715C5.96897 14.3943 6.80099 14.1155 7.37632 14.1155C8.01803 14.1155 8.33225 14.2478 8.6863 14.5596C9.12001 14.9377 9.45636 16.1237 9.50062 16.1237C9.54487 16.1237 9.88122 14.9377 10.3149 14.5596C10.669 14.2478 10.9832 14.1155 11.6249 14.1155Z" fill="black"/>
</svg>
