<svg width="20" height="23" viewBox="0 0 20 23" fill="none" xmlns="http://www.w3.org/2000/svg">
<path d="M4 11.5H11.5M4 14.5H14.5M4 17.5H8.5M19 19V8.5L11.5 1H4C3.20435 1 2.44129 1.31607 1.87868 1.87868C1.31607 2.44129 1 3.20435 1 4V19C1 19.7956 1.31607 20.5587 1.87868 21.1213C2.44129 21.6839 3.20435 22 4 22H16C16.7956 22 17.5587 21.6839 18.1213 21.1213C18.6839 20.5587 19 19.7956 19 19Z" stroke="#767A7D" stroke-linecap="round" stroke-linejoin="round"/>
<path d="M11.5 1V5.5C11.5 6.29565 11.8161 7.05871 12.3787 7.62132C12.9413 8.18393 13.7044 8.5 14.5 8.5H19" stroke="#767A7D" stroke-linecap="round" stroke-linejoin="round"/>
</svg>
