<svg width="18" height="18" viewBox="0 0 18 18" fill="none" xmlns="http://www.w3.org/2000/svg">
<path d="M9.07144 13.5C9.26381 13.5 9.42375 13.4353 9.55125 13.3059C9.67875 13.1766 9.7425 13.0163 9.7425 12.825V8.775C9.7425 8.58375 9.67744 8.42344 9.54731 8.29406C9.41717 8.16469 9.25592 8.1 9.06356 8.1C8.87119 8.1 8.71125 8.16469 8.58375 8.29406C8.45625 8.42344 8.3925 8.58375 8.3925 8.775V12.825C8.3925 13.0163 8.45756 13.1766 8.58769 13.3059C8.71783 13.4353 8.87908 13.5 9.07144 13.5ZM8.9996 6.435C9.20987 6.435 9.38625 6.366 9.52875 6.228C9.67125 6.09 9.7425 5.919 9.7425 5.715C9.7425 5.49825 9.67139 5.31656 9.52916 5.16994C9.38691 5.02331 9.21066 4.95 9.00041 4.95C8.79014 4.95 8.61375 5.02331 8.47125 5.16994C8.32875 5.31656 8.2575 5.49825 8.2575 5.715C8.2575 5.919 8.32862 6.09 8.47085 6.228C8.61309 6.366 8.78934 6.435 8.9996 6.435ZM9.00599 18C7.76498 18 6.59872 17.7638 5.50724 17.2913C4.41574 16.8188 3.46125 16.1737 2.64375 15.3563C1.82625 14.5388 1.18125 13.5837 0.70875 12.4911C0.23625 11.3985 0 10.231 0 8.98875C0 7.74647 0.23625 6.57902 0.70875 5.48642C1.18125 4.39381 1.82625 3.4425 2.64375 2.6325C3.46125 1.8225 4.41631 1.18125 5.50892 0.70875C6.60152 0.23625 7.76897 0 9.01125 0C10.2535 0 11.421 0.23625 12.5136 0.70875C13.6062 1.18125 14.5575 1.8225 15.3675 2.6325C16.1775 3.4425 16.8188 4.395 17.2913 5.49C17.7638 6.585 18 7.75301 18 8.99402C18 10.235 17.7638 11.4013 17.2913 12.4928C16.8188 13.5843 16.1775 14.5374 15.3675 15.3521C14.5575 16.1669 13.605 16.8118 12.51 17.2871C11.415 17.7624 10.247 18 9.00599 18ZM9.01125 16.65C11.1338 16.65 12.9375 15.9038 14.4225 14.4113C15.9075 12.9188 16.65 11.1113 16.65 8.98875C16.65 6.86625 15.9089 5.0625 14.4267 3.5775C12.9445 2.0925 11.1356 1.35 9 1.35C6.885 1.35 5.08125 2.09109 3.58875 3.57327C2.09625 5.05547 1.35 6.86438 1.35 9C1.35 11.115 2.09625 12.9188 3.58875 14.4113C5.08125 15.9038 6.88875 16.65 9.01125 16.65Z" fill="#767A7D"/>
</svg>
