<svg width="18" height="18" viewBox="0 0 18 18" fill="none" xmlns="http://www.w3.org/2000/svg">
<path fill-rule="evenodd" clip-rule="evenodd" d="M8.95646 0H9.04353C9.79619 0 10.4233 3.74262e-08 10.9206 0.0669768C11.4463 0.137302 11.921 0.293023 12.302 0.673954C12.6837 1.05572 12.8394 1.53042 12.9098 2.05535C12.96 2.42372 12.9726 2.86242 12.9759 3.36977C13.5184 3.38735 14.0023 3.42 14.4327 3.47693C15.4139 3.60921 16.2084 3.88716 16.8354 4.5134C17.4617 5.14046 17.7396 5.93498 17.8719 6.91619C18 7.8706 18 9.08874 18 10.6275V10.7213C18 12.2601 18 13.4791 17.8719 14.4327C17.7396 15.4139 17.4617 16.2084 16.8354 16.8354C16.2084 17.4617 15.4139 17.7396 14.4327 17.8719C13.4782 18 12.2601 18 10.7213 18H7.2787C5.73991 18 4.52093 18 3.56735 17.8719C2.58614 17.7396 1.79163 17.4617 1.16456 16.8354C0.538326 16.2084 0.260372 15.4139 0.128093 14.4327C0 13.4782 0 12.2601 0 10.7213V10.6275C0 9.08874 0 7.86977 0.128093 6.91619C0.260372 5.93498 0.538326 5.14046 1.16456 4.5134C1.79163 3.88716 2.58614 3.60921 3.56735 3.47693C4.05085 3.41707 4.53703 3.3813 5.02409 3.36977C5.02744 2.86242 5.04084 2.42372 5.09023 2.05535C5.16056 1.53042 5.31628 1.05572 5.69721 0.673954C6.07898 0.293023 6.55367 0.13814 7.0786 0.0669768C7.57674 3.74262e-08 8.20465 0 8.95646 0ZM6.28074 3.35051C6.59721 3.34884 6.92958 3.34884 7.2787 3.34884H10.7213C11.0704 3.34884 11.4028 3.34884 11.7193 3.35051C11.7159 2.8733 11.7042 2.5133 11.6657 2.22279C11.6129 1.83684 11.5233 1.67107 11.4145 1.56223C11.3057 1.4534 11.1399 1.36381 10.7531 1.31107C10.3496 1.25749 9.80707 1.25581 9 1.25581C8.19293 1.25581 7.65042 1.25749 7.24605 1.31191C6.86009 1.36381 6.69433 1.4534 6.58549 1.56307C6.47665 1.67191 6.38707 1.83684 6.33433 2.22279C6.29581 2.51247 6.28409 2.87246 6.28074 3.35051ZM3.73395 4.72186C2.89172 4.83488 2.40614 5.04753 2.05116 5.40167C1.69786 5.75581 1.48521 6.2414 1.37219 7.08363C1.25665 7.94344 1.25498 9.07786 1.25498 10.6744C1.25498 12.271 1.25665 13.4054 1.37219 14.266C1.48521 15.1074 1.69786 15.593 2.052 15.9472C2.40614 16.3013 2.89172 16.514 3.73395 16.627C4.5946 16.7425 5.72819 16.7442 7.32474 16.7442H10.6736C12.2701 16.7442 13.4046 16.7425 14.2652 16.627C15.1066 16.514 15.5922 16.3013 15.9463 15.9472C16.3005 15.593 16.5131 15.1074 16.6261 14.2652C16.7417 13.4054 16.7433 12.271 16.7433 10.6744C16.7433 9.07786 16.7417 7.94428 16.6261 7.08279C16.5131 6.2414 16.3005 5.75581 15.9463 5.40167C15.5922 5.04753 15.1066 4.83488 14.2644 4.72186C13.4046 4.60633 12.2701 4.60465 10.6736 4.60465H7.32474C5.72819 4.60465 4.59544 4.60633 3.73395 4.72186ZM9 6.69767C9.16653 6.69767 9.32624 6.76383 9.444 6.88158C9.56175 6.99934 9.62791 7.15905 9.62791 7.32558V7.33395C10.5396 7.56335 11.3023 8.28251 11.3023 9.27879C11.3023 9.44532 11.2362 9.60503 11.1184 9.72279C11.0007 9.84054 10.841 9.9067 10.6744 9.9067C10.5079 9.9067 10.3482 9.84054 10.2304 9.72279C10.1127 9.60503 10.0465 9.44532 10.0465 9.27879C10.0465 8.9573 9.68986 8.51191 9 8.51191C8.31014 8.51191 7.95349 8.9573 7.95349 9.27879C7.95349 9.60028 8.31014 10.0465 9 10.0465C10.1595 10.0465 11.3023 10.8502 11.3023 12.07C11.3023 13.0663 10.5396 13.7847 9.62791 14.0149V14.0233C9.62791 14.1898 9.56175 14.3495 9.444 14.4673C9.32624 14.585 9.16653 14.6512 9 14.6512C8.83347 14.6512 8.67376 14.585 8.556 14.4673C8.43825 14.3495 8.37209 14.1898 8.37209 14.0233V14.0149C7.46037 13.7855 6.69767 13.0663 6.69767 12.07C6.69767 11.9035 6.76383 11.7438 6.88158 11.626C6.99934 11.5083 7.15905 11.4421 7.32558 11.4421C7.49211 11.4421 7.65182 11.5083 7.76958 11.626C7.88733 11.7438 7.95349 11.9035 7.95349 12.07C7.95349 12.3915 8.31014 12.8369 9 12.8369C9.68986 12.8369 10.0465 12.3915 10.0465 12.07C10.0465 11.7486 9.68986 11.3023 9 11.3023C7.84047 11.3023 6.69767 10.4986 6.69767 9.27879C6.69767 8.28251 7.46037 7.56335 8.37209 7.33395V7.32558C8.37209 7.15905 8.43825 6.99934 8.556 6.88158C8.67376 6.76383 8.83347 6.69767 9 6.69767Z" fill="#767A7D"/>
</svg>
