<svg width="12" height="19" viewBox="0 0 12 19" fill="none" xmlns="http://www.w3.org/2000/svg">
<path fill-rule="evenodd" clip-rule="evenodd" d="M10.2262 1.80576C9.11161 0.670199 7.60607 0.0223447 6.02978 0H5.97009C4.39367 0.02202 2.8879 0.669659 1.7731 1.80514C0.658306 2.94062 0.0224643 4.47434 0.000845409 6.08C-0.0185546 7.22 0.296323 8.34024 0.905186 9.29784L5.60298 19H6.39838L11.0947 9.29784C11.705 8.34024 12.0199 7.22 11.999 6.08C11.9771 4.47446 11.341 2.94099 10.2262 1.80576ZM5.88801 1.52L6.01038 1.5352L6.12081 1.52C7.29312 1.57201 8.40133 2.07946 9.21763 2.93805C10.0339 3.79664 10.4963 4.94113 10.5097 6.13624C10.5211 6.98444 10.278 7.81598 9.81279 8.5196L9.78294 8.57128L9.75757 8.62448L5.99993 16.3841L2.24379 8.63208L2.21842 8.5728L2.18857 8.52112C1.72339 7.8175 1.48025 6.98596 1.49166 6.13776C1.50439 4.94126 1.9673 3.79533 2.78498 2.93618C3.60266 2.07703 4.71278 1.57014 5.88652 1.52H5.88801ZM6.8013 4.81688C6.63835 4.7059 6.45554 4.62869 6.26329 4.58967C6.07105 4.55065 5.87314 4.55059 5.68087 4.58947C5.4886 4.62836 5.30573 4.70543 5.1427 4.8163C4.97968 4.92717 4.83968 5.06966 4.73072 5.23564C4.62176 5.40162 4.54596 5.58782 4.50766 5.78364C4.46935 5.97945 4.46928 6.18103 4.50746 6.37687C4.54564 6.57271 4.62131 6.75897 4.73016 6.92502C4.83901 7.09107 4.9789 7.23366 5.14186 7.34464C5.47095 7.56878 5.87399 7.65058 6.26229 7.57205C6.6506 7.49352 6.99238 7.26108 7.21244 6.92588C7.43249 6.59068 7.5128 6.18017 7.4357 5.78465C7.3586 5.38914 7.1304 5.04102 6.8013 4.81688ZM4.31362 3.55224C4.63923 3.31911 5.00734 3.15466 5.39627 3.06858C5.7852 2.9825 6.18711 2.97652 6.57835 3.051C6.96958 3.12548 7.34224 3.27891 7.6744 3.50227C8.00655 3.72562 8.29149 4.01438 8.51245 4.35157C8.73341 4.68875 8.88593 5.06754 8.96103 5.46566C9.03612 5.86377 9.03229 6.27316 8.94974 6.66974C8.8672 7.06632 8.70761 7.44208 8.48037 7.77491C8.25313 8.10773 7.96283 8.39091 7.62655 8.60776C6.9683 9.03225 6.17317 9.17774 5.41102 9.01316C4.64886 8.84858 3.9801 8.38698 3.54758 7.72695C3.11506 7.06692 2.95306 6.26079 3.0962 5.48075C3.23933 4.70071 3.67625 4.00859 4.31362 3.55224Z" fill="#767A7D"/>
</svg>
