<svg width="18" height="19" viewBox="0 0 18 19" fill="none" xmlns="http://www.w3.org/2000/svg">
<path d="M14.75 0.5C16.5449 0.5 18 1.95507 18 3.75V15.25C18 17.0449 16.5449 18.5 14.75 18.5H3.25C1.45507 18.5 0 17.0449 0 15.25V3.75C0 1.95507 1.45507 0.5 3.25 0.5H14.75ZM16.5 6H1.5V15.25C1.5 16.2165 2.2835 17 3.25 17H14.75C15.7165 17 16.5 16.2165 16.5 15.25V6ZM4.75 12C5.44036 12 6 12.5596 6 13.25C6 13.9404 5.44036 14.5 4.75 14.5C4.05964 14.5 3.5 13.9404 3.5 13.25C3.5 12.5596 4.05964 12 4.75 12ZM9 12C9.6904 12 10.25 12.5596 10.25 13.25C10.25 13.9404 9.6904 14.5 9 14.5C8.3096 14.5 7.75 13.9404 7.75 13.25C7.75 12.5596 8.3096 12 9 12ZM4.75 8C5.44036 8 6 8.5596 6 9.25C6 9.9404 5.44036 10.5 4.75 10.5C4.05964 10.5 3.5 9.9404 3.5 9.25C3.5 8.5596 4.05964 8 4.75 8ZM9 8C9.6904 8 10.25 8.5596 10.25 9.25C10.25 9.9404 9.6904 10.5 9 10.5C8.3096 10.5 7.75 9.9404 7.75 9.25C7.75 8.5596 8.3096 8 9 8ZM13.25 8C13.9404 8 14.5 8.5596 14.5 9.25C14.5 9.9404 13.9404 10.5 13.25 10.5C12.5596 10.5 12 9.9404 12 9.25C12 8.5596 12.5596 8 13.25 8ZM14.75 2H3.25C2.2835 2 1.5 2.7835 1.5 3.75V4.5H16.5V3.75C16.5 2.7835 15.7165 2 14.75 2Z" fill="#212121" fill-opacity="0.59"/>
</svg>
