<svg width="24.000000" height="44.000000" viewBox="0 0 24 44" fill="none" xmlns="http://www.w3.org/2000/svg" xmlns:xlink="http://www.w3.org/1999/xlink">
	<desc>
			Created with Pixso.
	</desc>
	<defs/>
	<path id="Vector" d="M12 44C8.6543 44 5.81836 42.8271 3.49023 40.4805C1.16406 38.1338 0 35.2734 0 31.9004L0 8.7998C0 6.37988 0.855469 4.30859 2.56445 2.58496C4.27344 0.861328 6.32812 0 8.72656 0C11.127 0 13.1816 0.861328 14.8906 2.58496C16.5996 4.30859 17.4551 6.37988 17.4551 8.7998L17.4551 29.7002C17.4551 31.2402 16.9277 32.542 15.873 33.6055C14.8184 34.668 13.5273 35.2002 12 35.2002C10.4727 35.2002 9.18164 34.668 8.12695 33.6055C7.07227 32.542 6.54492 31.2402 6.54492 29.7002L6.54492 8.7998L9.81836 8.7998L9.81836 29.7002C9.81836 30.3232 10.0273 30.8457 10.4453 31.2676C10.8633 31.6895 11.3809 31.9004 12 31.9004C12.6191 31.9004 13.1367 31.6895 13.5547 31.2676C13.9727 30.8457 14.1816 30.3232 14.1816 29.7002L14.1816 8.7998C14.1816 7.25977 13.6543 5.95801 12.5996 4.89453C11.5449 3.83203 10.2539 3.2998 8.72656 3.2998C7.19922 3.2998 5.9082 3.83203 4.85547 4.89453C3.80078 5.95801 3.27344 7.25977 3.27344 8.7998L3.27344 31.9004C3.27344 34.3203 4.12695 36.3916 5.83594 38.1152C7.54492 39.8379 9.59961 40.7002 12 40.7002C14.4004 40.7002 16.4551 39.8379 18.1641 38.1152C19.873 36.3916 20.7266 34.3203 20.7266 31.9004L20.7266 8.7998L24 8.7998L24 31.9004C24 35.2734 22.8359 38.1338 20.5098 40.4805C18.1816 42.8271 15.3457 44 12 44Z" fill="#000000" fill-opacity="0.500000" fill-rule="nonzero"/>
</svg>
