<svg width="43.000000" height="43.000000" viewBox="0 0 43 43" fill="none" xmlns="http://www.w3.org/2000/svg" xmlns:xlink="http://www.w3.org/1999/xlink">
	<desc>
			Created with Pixso.
	</desc>
	<defs/>
	<path id="Форма 1" d="M0 21.5C0 9.62598 9.625 0 21.5 0C33.375 0 43 9.62598 43 21.5C43 33.374 33.375 43 21.5 43C9.625 43 0 33.374 0 21.5Z" fill="#D9D9D9" fill-opacity="1.000000" fill-rule="evenodd"/>
	<path id="Форма 1" d="M22 24.2627C21.0469 24.2627 20.2383 23.9404 19.5723 23.2959C18.9043 22.6514 18.5723 21.8682 18.5723 20.9473L18.5723 14.3154C18.5723 13.3945 18.9043 12.6123 19.5723 11.9668C20.2383 11.3223 21.0469 11 22 11C22.9531 11 23.7617 11.3223 24.4277 11.9668C25.0957 12.6123 25.4277 13.3945 25.4277 14.3154L25.4277 20.9473C25.4277 21.8682 25.0957 22.6514 24.4277 23.2959C23.7617 23.9404 22.9531 24.2627 22 24.2627ZM20.8574 32L20.8574 28.6016C18.877 28.3438 17.2383 27.4873 15.9434 26.0312C14.6484 24.5762 14 22.8818 14 20.9473L16.2852 20.9473C16.2852 22.4766 16.8438 23.7793 17.957 24.8574C19.0723 25.9346 20.4199 26.4736 22 26.4736C23.5801 26.4736 24.9277 25.9346 26.043 24.8574C27.1562 23.7793 27.7148 22.4766 27.7148 20.9473L30 20.9473C30 22.8818 29.3516 24.5762 28.0566 26.0312C26.7617 27.4873 25.123 28.3438 23.1426 28.6016L23.1426 32L20.8574 32ZM22 22.0527C22.3242 22.0527 22.5957 21.9463 22.8145 21.7354C23.0332 21.5234 23.1426 21.2607 23.1426 20.9473L23.1426 14.3154C23.1426 14.0029 23.0332 13.7402 22.8145 13.5283C22.5957 13.3164 22.3242 13.2109 22 13.2109C21.6758 13.2109 21.4043 13.3164 21.1855 13.5283C20.9668 13.7402 20.8574 14.0029 20.8574 14.3154L20.8574 20.9473C20.8574 21.2607 20.9668 21.5234 21.1855 21.7354C21.4043 21.9463 21.6758 22.0527 22 22.0527Z" fill="#000000" fill-opacity="0.500000" fill-rule="nonzero"/>
</svg>
