<svg width="18" height="14" viewBox="0 0 18 14" fill="none" xmlns="http://www.w3.org/2000/svg">
<path d="M16.8898 6.32005L16.0315 5.12839C15.8394 4.85856 15.5857 4.63843 15.2915 4.48626C14.9973 4.33408 14.6711 4.25425 14.3398 4.25339H10.6898V2.47005C10.6898 1.91752 10.4703 1.38761 10.0796 0.996913C9.68895 0.606212 9.15904 0.386719 8.60651 0.386719H2.79818C2.24612 0.388258 1.71711 0.608246 1.32674 0.998613C0.936371 1.38898 0.716383 1.91799 0.714844 2.47005V10.7534C0.714844 11.0849 0.84654 11.4028 1.08096 11.6373C1.31538 11.8717 1.63332 12.0034 1.96484 12.0034H2.98151C3.04444 12.4492 3.26627 12.8574 3.60618 13.1527C3.9461 13.448 4.38123 13.6106 4.83151 13.6106C5.28179 13.6106 5.71692 13.448 6.05684 13.1527C6.39675 12.8574 6.61859 12.4492 6.68151 12.0034H11.3148C11.3778 12.4492 11.5996 12.8574 11.9395 13.1527C12.2794 13.448 12.7146 13.6106 13.1648 13.6106C13.6151 13.6106 14.0503 13.448 14.3902 13.1527C14.7301 12.8574 14.9519 12.4492 15.0148 12.0034H16.0315C16.363 12.0034 16.681 11.8717 16.9154 11.6373C17.1498 11.4028 17.2815 11.0849 17.2815 10.7534V7.52839C17.2795 7.09473 17.1426 6.67244 16.8898 6.32005ZM4.83151 12.7784C4.62549 12.7784 4.42409 12.7173 4.25279 12.6028C4.08149 12.4884 3.94798 12.3257 3.86914 12.1353C3.79029 11.945 3.76967 11.7356 3.80986 11.5335C3.85005 11.3314 3.94926 11.1458 4.09494 11.0001C4.24062 10.8545 4.42623 10.7553 4.62829 10.7151C4.83035 10.6749 5.0398 10.6955 5.23014 10.7743C5.42048 10.8532 5.58316 10.9867 5.69762 11.158C5.81208 11.3293 5.87318 11.5307 5.87318 11.7367C5.87318 12.013 5.76343 12.2779 5.56808 12.4733C5.37273 12.6686 5.10778 12.7784 4.83151 12.7784ZM9.85651 11.1701H6.62318C6.50184 10.7902 6.26289 10.4587 5.94084 10.2234C5.61879 9.98823 5.23031 9.86146 4.83151 9.86146C4.43271 9.86146 4.04423 9.98823 3.72218 10.2234C3.40013 10.4587 3.16118 10.7902 3.03984 11.1701H1.96484C1.85434 11.1701 1.74836 11.1262 1.67022 11.048C1.59208 10.9699 1.54818 10.8639 1.54818 10.7534V2.47005C1.54818 2.13853 1.67987 1.82059 1.91429 1.58617C2.14871 1.35175 2.46666 1.22005 2.79818 1.22005H8.60651C8.93803 1.22005 9.25597 1.35175 9.49039 1.58617C9.72481 1.82059 9.85651 2.13853 9.85651 2.47005V11.1701ZM13.1648 12.7784C12.9588 12.7784 12.7574 12.7173 12.5861 12.6028C12.4148 12.4884 12.2813 12.3257 12.2025 12.1353C12.1236 11.945 12.103 11.7356 12.1432 11.5335C12.1834 11.3314 12.2826 11.1458 12.4283 11.0001C12.574 10.8545 12.7596 10.7553 12.9616 10.7151C13.1637 10.6749 13.3731 10.6955 13.5635 10.7743C13.7538 10.8532 13.9165 10.9867 14.031 11.158C14.1454 11.3293 14.2065 11.5307 14.2065 11.7367C14.2065 12.013 14.0968 12.2779 13.9014 12.4733C13.7061 12.6686 13.4411 12.7784 13.1648 12.7784ZM16.4482 10.7534C16.4482 10.8639 16.4043 10.9699 16.3261 11.048C16.248 11.1262 16.142 11.1701 16.0315 11.1701H14.9565C14.8352 10.7902 14.5962 10.4587 14.2742 10.2234C13.9521 9.98823 13.5636 9.86146 13.1648 9.86146C12.766 9.86146 12.3776 9.98823 12.0555 10.2234C11.7335 10.4587 11.4945 10.7902 11.3732 11.1701H10.6898V5.08672H14.3398C14.5387 5.08805 14.7344 5.13629 14.911 5.22752C15.0877 5.31875 15.2403 5.45038 15.3565 5.61172L16.2148 6.80339C16.3648 7.01556 16.4462 7.26856 16.4482 7.52839V10.7534Z" fill="black"/>
</svg>
