<svg width="25.115234" height="25.114258" viewBox="0 0 25.1152 25.1143" fill="none" xmlns="http://www.w3.org/2000/svg" xmlns:xlink="http://www.w3.org/1999/xlink">
	<desc>
			Created with Pixso.
	</desc>
	<defs/>
	<path id="Vector" d="M0.0449219 3.85645L1.79297 5.58789L1.79297 20.6299C1.79297 21.3164 2.05469 21.9775 2.52344 22.4775C2.99414 22.9775 3.63867 23.2793 4.32422 23.3203L19.5176 23.3203L21.2676 25.0693C21.123 25.0879 20.9707 25.1055 20.8184 25.1055L20.6289 25.1143L4.48438 25.1143C3.32812 25.1152 2.2168 24.6699 1.38086 23.8711C0.544922 23.0723 0.0507812 21.9824 0 20.8271L0 4.48438C0 4.26953 0.0175781 4.05469 0.0449219 3.85645ZM1.5332 0.269531L24.8535 23.5898L23.5801 24.8457L0.259766 1.52441L1.5332 0.269531ZM20.6289 0C21.7852 -0.000976562 22.8984 0.444336 23.7324 1.24316C24.5684 2.04199 25.0645 3.13281 25.1152 4.28711L25.1152 20.6299C25.1152 20.8398 25.0996 21.0498 25.0703 21.2578L23.3203 19.5264L23.3203 4.48438C23.3223 3.79785 23.0605 3.13672 22.5898 2.63672C22.1211 2.13672 21.4766 1.83496 20.791 1.79395L5.59766 1.79395L3.85742 0.0449219C4 0.0273438 4.15234 0.00878906 4.30469 0.00878906L4.48438 0L20.6289 0ZM8.16211 13.4541C8.33789 14.3164 8.76367 15.1074 9.38477 15.7295C10.0078 16.3516 10.7988 16.7764 11.6602 16.9521L11.6602 18.7734C10.3184 18.5801 9.07422 17.957 8.11523 16.998C7.1582 16.04 6.53516 14.7959 6.3418 13.4541L8.16211 13.4541ZM13.4551 17.2568L14.666 18.4775C14.2715 18.6162 13.8672 18.7148 13.4551 18.7734L13.4551 17.2568ZM17.2578 13.4541L18.7734 13.4541C18.7109 13.876 18.6113 14.2793 18.4688 14.665L17.2578 13.4541ZM13.4551 6.3418C14.7969 6.53516 16.0391 7.15723 16.998 8.11621C17.957 9.0752 18.5801 10.3184 18.7734 11.6602L16.9531 11.6602C16.7773 10.7988 16.3516 10.0068 15.7285 9.38574C15.1074 8.76367 14.3164 8.33789 13.4551 8.16211L13.4551 6.3418ZM6.63672 10.4492L7.85742 11.6602L6.3418 11.6602C6.4043 11.2393 6.50195 10.835 6.63672 10.4492ZM11.6602 6.3418L11.6602 7.85742L10.4492 6.6377C10.8418 6.49902 11.248 6.39941 11.6602 6.3418ZM18.8359 5.38184C19.0742 5.38184 19.3027 5.47656 19.4707 5.64453C19.6387 5.8125 19.7324 6.04102 19.7324 6.27832C19.7324 6.5166 19.6387 6.74512 19.4707 6.91309C19.3027 7.08105 19.0742 7.17578 18.8359 7.17578C18.5977 7.17578 18.3691 7.08105 18.2012 6.91309C18.0332 6.74512 17.9395 6.5166 17.9395 6.27832C17.9395 6.04102 18.0332 5.8125 18.2012 5.64453C18.3691 5.47656 18.5977 5.38184 18.8359 5.38184Z" fill="#222222" fill-opacity="1.000000" fill-rule="nonzero"/>
</svg>
