<svg width="25.115234" height="21.526367" viewBox="0 0 25.1152 21.5264" fill="none" xmlns="http://www.w3.org/2000/svg" xmlns:xlink="http://www.w3.org/1999/xlink">
	<desc>
			Created with Pixso.
	</desc>
	<defs/>
	<path id="Vector" d="M21.5273 12.5576C21.5273 12.7949 21.4316 13.0234 21.2637 13.1914C21.0957 13.3594 20.8672 13.4541 20.6289 13.4541C20.3926 13.4541 20.1641 13.3594 19.9961 13.1914C19.8281 13.0234 19.7324 12.7949 19.7324 12.5576C19.7324 12.3193 19.8281 12.0908 19.9961 11.9229C20.1641 11.7549 20.3926 11.6602 20.6289 11.6602C20.8672 11.6602 21.0957 11.7549 21.2637 11.9229C21.4316 12.0908 21.5273 12.3193 21.5273 12.5576ZM4.48438 11.6602C4.24609 11.6602 4.01953 11.7549 3.84961 11.9229C3.68164 12.0908 3.58789 12.3193 3.58789 12.5576C3.58789 12.7949 3.68164 13.0234 3.84961 13.1914C4.01953 13.3594 4.24609 13.4541 4.48438 13.4541C4.72266 13.4541 4.95117 13.3594 5.11914 13.1914C5.28711 13.0234 5.38086 12.7949 5.38086 12.5576C5.38086 12.3193 5.28711 12.0908 5.11914 11.9229C4.95117 11.7549 4.72266 11.6602 4.48438 11.6602ZM23.0508 7.17578L23.4199 8.18066C23.9453 8.5957 24.3711 9.12402 24.6641 9.72656C24.957 10.3291 25.1113 10.9902 25.1152 11.6602L25.1152 19.7324C25.1152 20.209 24.9258 20.665 24.5898 21.001C24.252 21.3379 23.7969 21.5264 23.3203 21.5264L21.5273 21.5264C21.0508 21.5264 20.5957 21.3379 20.2578 21.001C19.9219 20.665 19.7324 20.209 19.7324 19.7324L19.7324 17.9395L5.38086 17.9395L5.38086 19.7324C5.38086 20.209 5.19336 20.665 4.85547 21.001C4.51953 21.3379 4.06445 21.5264 3.58789 21.5264L1.79297 21.5264C1.31836 21.5264 0.861328 21.3379 0.525391 21.001C0.189453 20.665 0 20.209 0 19.7324L0 11.6602C0 10.252 0.671875 9.00586 1.69531 8.18066L2.0625 7.17578L0 7.17578L0 5.38184L2.69141 5.38184L2.69141 5.5166L4.32422 1.16602C4.45117 0.824219 4.67969 0.529297 4.98047 0.321289C5.2793 0.112305 5.63477 0.000976562 6 0L19.1133 0C19.8594 0 20.5312 0.466797 20.791 1.16602L22.4238 5.5166L22.4238 5.38184L25.1152 5.38184L25.1152 7.17578L23.0508 7.17578ZM3.58789 17.9395L1.79297 17.9395L1.79297 19.7324L3.58789 19.7324L3.58789 17.9395ZM23.3203 17.9395L21.5273 17.9395L21.5273 19.7324L23.3203 19.7324L23.3203 17.9395ZM23.3203 16.1455L23.3203 11.6602C23.3203 10.9463 23.0371 10.2627 22.5332 9.75781C22.0273 9.25293 21.3438 8.96973 20.6289 8.96973L4.48438 8.96973C3.77148 8.96973 3.08594 9.25293 2.58203 9.75781C2.07812 10.2627 1.79297 10.9463 1.79297 11.6602L1.79297 16.1455L23.3203 16.1455ZM20.6289 7.17578L21.1328 7.17578L19.1055 1.79395L6 1.79395L3.98242 7.17578L20.6289 7.17578ZM7.17578 13.4541L17.9395 13.4541L17.9395 11.6602L7.17578 11.6602L7.17578 13.4541Z" fill="#222222" fill-opacity="1.000000" fill-rule="nonzero"/>
</svg>
