<svg width="25.115234" height="25.114258" viewBox="0 0 25.1152 25.1143" fill="none" xmlns="http://www.w3.org/2000/svg" xmlns:xlink="http://www.w3.org/1999/xlink">
	<desc>
			Created with Pixso.
	</desc>
	<defs/>
	<path id="Vector" d="M21.7871 0C22.4336 0.00195312 23.0586 0.237305 23.5449 0.662109C24.0332 1.08691 24.3516 1.67383 24.4414 2.31445C24.8906 5.50684 25.1152 8.9248 25.1152 12.5576C25.1152 16.1895 24.8906 19.6074 24.4414 22.8008C24.3535 23.4141 24.0566 23.9785 23.6016 24.3984C23.1445 24.8184 22.5586 25.0684 21.9395 25.1055L21.7871 25.1143L3.31836 25.1143C2.67188 25.1123 2.04688 24.877 1.56055 24.4521C1.07227 24.0273 0.753906 23.4404 0.664062 22.8008C0.224609 19.6074 0 16.1895 0 12.5576C0 8.9248 0.224609 5.50684 0.671875 2.31445C0.759766 1.7002 1.05664 1.13574 1.51367 0.71582C1.96875 0.295898 2.55664 0.0458984 3.17578 0.00878906L3.31836 0L21.7871 0ZM21.7871 1.79395L3.33594 1.79395C3.11914 1.79199 2.9082 1.86914 2.74219 2.01074C2.57812 2.15234 2.4707 2.34961 2.43945 2.56543C1.99414 5.87695 1.77734 9.21582 1.79297 12.5576C1.79297 16.1094 2.00977 19.4365 2.44922 22.5488C2.47656 22.7441 2.56836 22.9248 2.70898 23.0625C2.85156 23.2002 3.0332 23.2881 3.22852 23.3115L3.32812 23.3203L21.7773 23.3203C21.9961 23.3232 22.207 23.2461 22.3711 23.1035C22.5371 22.9619 22.6445 22.7646 22.6758 22.5488C23.1055 19.4365 23.3203 16.1094 23.3203 12.5576C23.3203 9.00586 23.1055 5.67773 22.666 2.56543C22.6367 2.35449 22.5312 2.16113 22.373 2.01953C22.2129 1.87793 22.0098 1.79785 21.7949 1.79395L21.7871 1.79395ZM12.5566 4.48438C14.6992 4.48438 16.752 5.33496 18.2656 6.84961C19.7793 8.36328 20.6289 10.416 20.6289 12.5576C20.6289 14.6982 19.7793 16.752 18.2656 18.2656C16.752 19.7793 14.6992 20.6299 12.5566 20.6299C10.416 20.6299 8.36328 19.7793 6.84961 18.2656C5.33594 16.752 4.48438 14.6982 4.48438 12.5576C4.48438 10.416 5.33594 8.36328 6.84961 6.84961C8.36328 5.33496 10.416 4.48438 12.5566 4.48438ZM7.31836 11.2119C7.01367 11.2119 6.70898 11.2295 6.4043 11.2744C6.0957 12.7646 6.33984 14.3164 7.08984 15.6406C7.83984 16.9648 9.04492 17.9707 10.4805 18.4736C11.916 18.9756 13.4863 18.9395 14.8984 18.3701C16.3105 17.8018 17.4668 16.7402 18.1543 15.3828C17.0312 15.4746 15.9023 15.334 14.8379 14.9678C13.7715 14.6025 12.7949 14.0195 11.9648 13.2568L11.7598 13.0508C11.1777 12.4668 10.4844 12.0029 9.72266 11.6875C8.96094 11.3721 8.14453 11.21 7.31836 11.2119ZM12.5566 6.27832C11.4531 6.27734 10.3691 6.56738 9.41406 7.11816C8.45898 7.66895 7.66406 8.46289 7.11328 9.41797L7.31836 9.41797C9.3457 9.41797 11.3008 10.1719 12.8086 11.5703L13.0234 11.7861C13.7617 12.5273 14.6738 13.0713 15.6777 13.3691C16.6797 13.667 17.7402 13.708 18.7637 13.4902C18.8984 12.5967 18.8379 11.6855 18.5879 10.8174C18.3379 9.94922 17.9023 9.14648 17.3145 8.46191C16.7246 7.77734 15.9941 7.22754 15.1738 6.85059C14.3535 6.47363 13.4609 6.2793 12.5566 6.27832ZM4.48438 3.58789C4.72266 3.58789 4.95117 3.68262 5.11914 3.85059C5.28711 4.01855 5.38086 4.24707 5.38086 4.48438C5.38086 4.72266 5.28711 4.95117 5.11914 5.11914C4.95117 5.28711 4.72266 5.38184 4.48438 5.38184C4.24609 5.38184 4.01953 5.28711 3.84961 5.11914C3.68164 4.95117 3.58789 4.72266 3.58789 4.48438C3.58789 4.24707 3.68164 4.01855 3.84961 3.85059C4.01953 3.68262 4.24609 3.58789 4.48438 3.58789Z" fill="#222222" fill-opacity="1.000000" fill-rule="nonzero"/>
</svg>
