<svg width="21.527344" height="23.773438" viewBox="0 0 21.5273 23.7734" fill="none" xmlns="http://www.w3.org/2000/svg" xmlns:xlink="http://www.w3.org/1999/xlink">
	<desc>
			Created with Pixso.
	</desc>
	<defs/>
	<path id="Vector" d="M17.9395 20.6338C18.8262 20.6338 19.6875 20.9473 20.334 21.5303C20.6035 21.791 20.9707 21.9346 21.3555 21.9795L21.5273 21.9795L21.5273 23.7734L21.3203 23.7734C20.5098 23.7324 19.7383 23.416 19.1328 22.876C18.8027 22.584 18.3789 22.4238 17.9395 22.4277C17.4902 22.4277 17.0605 22.5801 16.7461 22.876C16.0859 23.4609 15.2324 23.7803 14.3516 23.7734C13.4688 23.7803 12.6172 23.4609 11.957 22.876C11.627 22.584 11.2031 22.4238 10.7637 22.4277C10.3145 22.4277 9.88477 22.5801 9.57031 22.876C8.91016 23.4609 8.05664 23.7803 7.17578 23.7734C6.29297 23.7803 5.44141 23.4609 4.78125 22.876C4.45312 22.584 4.02734 22.4238 3.58789 22.4277C3.13867 22.4277 2.70898 22.5801 2.39453 22.876C1.78906 23.416 1.01758 23.7324 0.207031 23.7734L0 23.7734L0 21.9795L0.169922 21.9795C0.550781 21.9453 0.910156 21.7881 1.19336 21.5303C1.85352 20.9463 2.70703 20.627 3.58789 20.6338C4.47656 20.6338 5.33594 20.9473 5.98242 21.5303C6.29688 21.8262 6.72656 21.9795 7.17578 21.9795C7.625 21.9795 8.05469 21.8262 8.36914 21.5303C9.02734 20.9453 9.88086 20.626 10.7637 20.6338C11.6523 20.6338 12.5117 20.9473 13.1582 21.5303C13.4727 21.8262 13.9023 21.9795 14.3516 21.9795C14.7988 21.9795 15.2305 21.8262 15.5449 21.5303C16.2051 20.9463 17.0566 20.627 17.9395 20.6338ZM17.9395 16.1484C18.8262 16.1484 19.6875 16.4629 20.334 17.0459C20.6035 17.3057 20.9707 17.4492 21.3555 17.4941L21.5273 17.4941L21.5273 19.2881L21.3203 19.2881C20.5098 19.248 19.7383 18.9316 19.1328 18.3916C18.8027 18.0996 18.3789 17.9395 17.9395 17.9424C17.4902 17.9424 17.0605 18.0957 16.7461 18.3916C16.0859 18.9756 15.2324 19.2949 14.3516 19.2881C13.4688 19.2949 12.6172 18.9756 11.957 18.3916C11.627 18.0996 11.2031 17.9395 10.7637 17.9424C10.3145 17.9424 9.88477 18.0957 9.57031 18.3916C8.91016 18.9756 8.05664 19.2949 7.17578 19.2881C6.29297 19.2949 5.44141 18.9756 4.78125 18.3916C4.45312 18.0996 4.02734 17.9395 3.58789 17.9424C3.13867 17.9424 2.70898 18.0957 2.39453 18.3916C1.78906 18.9316 1.01758 19.248 0.207031 19.2881L0 19.2881L0 17.4941L0.169922 17.4941C0.550781 17.4609 0.910156 17.3027 1.19336 17.0459C1.85352 16.4609 2.70703 16.1416 3.58789 16.1484C4.47656 16.1484 5.33594 16.4629 5.98242 17.0459C6.29688 17.3418 6.72656 17.4941 7.17578 17.4941C7.625 17.4941 8.05469 17.3418 8.36914 17.0459C9.02734 16.4609 9.88086 16.1406 10.7637 16.1484C11.6523 16.1484 12.5117 16.4629 13.1582 17.0459C13.4727 17.3418 13.9023 17.4941 14.3516 17.4941C14.7988 17.4941 15.2305 17.3418 15.5449 17.0459C16.2051 16.4609 17.0566 16.1416 17.9395 16.1484ZM14.3516 0.00390625C15.2715 0.00292969 16.1582 0.355469 16.8262 0.990234C17.4941 1.625 17.8926 2.49219 17.9395 3.41211L17.9395 5.38574L21.5273 5.38574L21.5273 7.17969L17.9395 7.17969L17.9395 11.6641C18.752 11.6602 19.543 11.9316 20.1816 12.4355L20.334 12.5703C20.6035 12.8125 20.9707 12.9648 21.3555 13.001L21.5273 13.0098L21.5273 14.8037L21.3203 14.8037C20.5098 14.7637 19.7383 14.4463 19.1328 13.9062C18.8027 13.6143 18.3789 13.4551 17.9395 13.458C17.4902 13.458 17.0605 13.6104 16.7461 13.9062C16.0859 14.4912 15.2324 14.8105 14.3516 14.8037C13.4688 14.8105 12.6172 14.4912 11.957 13.9062C11.627 13.6143 11.2031 13.4551 10.7637 13.458C10.3145 13.458 9.88477 13.6104 9.57031 13.9062C8.91016 14.4912 8.05664 14.8105 7.17578 14.8037C6.29297 14.8105 5.44141 14.4912 4.78125 13.9062C4.45312 13.6143 4.02734 13.4551 3.58789 13.458C3.13867 13.458 2.70898 13.6104 2.39453 13.9062C1.78906 14.4463 1.01758 14.7637 0.207031 14.8037L0 14.8037L0 13.0098L0.169922 13.0098C0.550781 12.9756 0.910156 12.8184 1.19336 12.5615C1.85352 11.9766 2.70703 11.6572 3.58789 11.6641C4.47656 11.6641 5.33594 11.9785 5.98242 12.5615C6.29688 12.8574 6.72656 13.0098 7.17578 13.0098C7.625 13.0098 8.05469 12.8574 8.36914 12.5615C8.97461 12.0205 9.74609 11.7041 10.5566 11.6641L10.7637 11.6641L10.7637 7.17969L0 7.17969L0 5.38574L10.7637 5.38574L10.7637 3.5918C10.7715 3.35645 10.7344 3.12109 10.6523 2.90039C10.5703 2.67871 10.4453 2.47656 10.2852 2.30371C9.96094 1.9541 9.51172 1.74805 9.03711 1.73047C8.80078 1.72168 8.56641 1.75879 8.3457 1.84082C8.125 1.92285 7.92188 2.04785 7.74805 2.20801C7.40039 2.53223 7.19336 2.98145 7.17578 3.45703L7.17578 3.5918L5.38086 3.5918C5.38086 2.8623 5.60156 2.15039 6.01562 1.55078C6.42969 0.950195 7.01758 0.490234 7.69922 0.232422C8.38086 -0.0253906 9.125 -0.0703125 9.83398 0.105469C10.541 0.28125 11.1777 0.667969 11.6602 1.21484C11.9961 0.833008 12.4102 0.527344 12.875 0.318359C13.3398 0.109375 13.8418 0.00195312 14.3516 0.00390625ZM12.5566 12.1309L12.9707 12.4082L13.1582 12.5703C13.4727 12.8477 13.9023 13.0098 14.3516 13.0098C14.7363 13.0146 15.1152 12.8955 15.4277 12.6689L15.5449 12.5703C15.7227 12.3994 15.9297 12.2559 16.1445 12.1309L16.1445 7.17969L12.5566 7.17969L12.5566 12.1309ZM14.3516 1.79785C13.8984 1.79688 13.4609 1.9668 13.1289 2.27441C12.7949 2.58301 12.5918 3.00488 12.5566 3.45703L12.5566 5.38574L16.1445 5.38574L16.1445 3.5918C16.1445 3.11621 15.957 2.65918 15.6191 2.32324C15.2832 1.98633 14.8262 1.79785 14.3516 1.79785Z" fill="#222222" fill-opacity="1.000000" fill-rule="nonzero"/>
</svg>
