<svg width="26.910156" height="26.908203" viewBox="0 0 26.9102 26.9082" fill="none" xmlns="http://www.w3.org/2000/svg" xmlns:xlink="http://www.w3.org/1999/xlink">
	<desc>
			Created with Pixso.
	</desc>
	<defs/>
	<path id="Vector" d="M2.23047 6.03613L3.52148 7.32812C2.38477 9.16895 1.78516 11.291 1.79102 13.4541C1.78906 15.5293 2.34375 17.5674 3.39258 19.3574C4.44336 21.1475 5.95312 22.625 7.76367 23.6367C9.57617 24.6484 11.625 25.1592 13.7012 25.1143C15.7754 25.0693 17.8008 24.4727 19.5684 23.3838L20.8691 24.6748C18.6699 26.1338 16.0898 26.9111 13.4512 26.9082C11.0195 26.9082 8.63477 26.249 6.54883 25.002C4.46289 23.7549 2.75391 21.9658 1.60352 19.8252C0.453125 17.6846 -0.0957031 15.2725 0.0136719 12.8447C0.123047 10.417 0.890625 8.06445 2.23047 6.03613ZM2.42773 1.15723L25.748 24.4775L24.4746 25.751L1.15234 2.43066L2.42773 1.15723ZM13.4512 0C15.8809 -0.000976562 18.2676 0.657227 20.3535 1.90332C22.4414 3.15039 24.1523 4.93848 25.3047 7.0791C26.4551 9.2207 27.0059 11.6328 26.8965 14.0615C26.7871 16.4902 26.0215 18.8438 24.6797 20.8721L23.3789 19.5713C24.5156 17.7334 25.1152 15.6143 25.1113 13.4541C25.1113 10.3613 23.8828 7.39551 21.6953 5.20898C19.5078 3.02246 16.543 1.79395 13.4512 1.79395C11.2871 1.78906 9.16602 2.38867 7.32422 3.52539L6.04102 2.24219C8.23633 0.782227 10.8145 0.00195312 13.4512 0ZM9.05469 14.3516C9.23047 15.2129 9.65625 16.0039 10.2793 16.626C10.9004 17.248 11.6914 17.6738 12.5527 17.8496L12.5527 19.6699C11.2109 19.4766 9.96875 18.8545 9.00977 17.8955C8.05078 16.9365 7.42773 15.6934 7.23438 14.3516L9.05469 14.3516ZM14.3477 18.1543L15.5586 19.374C15.166 19.5127 14.7598 19.6123 14.3477 19.6699L14.3477 18.1543ZM18.1504 14.3516L19.666 14.3516C19.6035 14.7725 19.5039 15.1768 19.3613 15.5625L18.1504 14.3516ZM14.3477 7.23828C15.6895 7.43164 16.9336 8.05469 17.8906 9.0127C18.8496 9.97168 19.4727 11.2148 19.666 12.5576L17.8457 12.5576C17.6699 11.6953 17.2441 10.9043 16.623 10.2822C16 9.66016 15.209 9.23535 14.3477 9.05957L14.3477 7.23828ZM7.53125 11.3467L8.75 12.5576L7.23438 12.5576C7.29688 12.1357 7.39648 11.7324 7.53125 11.3467ZM12.5527 7.23828L12.5527 8.75391L11.3418 7.53418C11.7344 7.39551 12.1406 7.2959 12.5527 7.23828ZM19.7285 6.27832C19.9668 6.27832 20.1953 6.37305 20.3633 6.54102C20.5312 6.70996 20.627 6.9375 20.627 7.17578C20.627 7.41309 20.5312 7.6416 20.3633 7.80957C20.1953 7.97852 19.9668 8.07227 19.7285 8.07227C19.4902 8.07227 19.2637 7.97852 19.0957 7.80957C18.9258 7.6416 18.832 7.41309 18.832 7.17578C18.832 6.9375 18.9258 6.70996 19.0957 6.54102C19.2637 6.37305 19.4902 6.27832 19.7285 6.27832Z" fill="#222222" fill-opacity="1.000000" fill-rule="nonzero"/>
</svg>
