<svg width="15.296875" height="15.078125" viewBox="0 0 15.2969 15.0781" fill="none" xmlns="http://www.w3.org/2000/svg" xmlns:xlink="http://www.w3.org/1999/xlink">
	<desc>
			Created with Pixso.
	</desc>
	<defs/>
	<path id="Vector" d="M7.72266 11.8438C7.92188 11.8438 8.09375 11.7754 8.23047 11.6406C8.36719 11.5039 8.4375 11.3379 8.4375 11.1406C8.4375 10.9434 8.36719 10.7773 8.23047 10.6426C8.09375 10.5078 7.92188 10.4395 7.72266 10.4395C7.52344 10.4395 7.35547 10.5078 7.21875 10.6426C7.07812 10.7773 7.01172 10.9434 7.01172 11.1406C7.01172 11.3379 7.07812 11.5039 7.21875 11.6406C7.35547 11.7754 7.52344 11.8438 7.72266 11.8438ZM7.70312 4.21484C8.12891 4.21484 8.47266 4.32812 8.73438 4.55664C9 4.7832 9.12891 5.07617 9.12891 5.43359C9.12891 5.67969 9.05469 5.92188 8.90625 6.16211C8.75391 6.40234 8.51172 6.66406 8.17188 6.94727C7.84766 7.23047 7.58984 7.5293 7.39453 7.84375C7.20312 8.1582 7.10547 8.44336 7.10547 8.70312C7.10547 8.83789 7.15625 8.94531 7.26562 9.02539C7.37109 9.10547 7.49219 9.14648 7.62891 9.14648C7.78125 9.14648 7.90625 9.09766 8.00391 8.99805C8.10547 8.90039 8.16797 8.77734 8.19141 8.62891C8.23047 8.38281 8.3125 8.16406 8.44531 7.97266C8.57812 7.7832 8.78125 7.57617 9.05469 7.35352C9.42969 7.04688 9.70312 6.73828 9.87109 6.43164C10.0391 6.12305 10.125 5.77734 10.125 5.39648C10.125 4.74414 9.90625 4.2207 9.47656 3.82617C9.04688 3.43164 8.47266 3.23438 7.76172 3.23438C7.28516 3.23438 6.84766 3.32812 6.44922 3.51172C6.04688 3.69727 5.71875 3.96875 5.45312 4.32422C5.35547 4.46094 5.3125 4.59961 5.33203 4.74023C5.35156 4.88281 5.41016 4.99023 5.51172 5.06445C5.64844 5.16211 5.79688 5.19336 5.95312 5.15625C6.10938 5.11914 6.23438 5.0332 6.33594 4.89844C6.5 4.67578 6.69531 4.50586 6.92578 4.39062C7.15625 4.27344 7.41797 4.21484 7.70312 4.21484ZM7.64844 14.9277C6.59766 14.9277 5.61719 14.7402 4.70312 14.3652C3.79297 13.9883 3 13.4688 2.32422 12.8027C1.64844 12.1387 1.11719 11.3574 0.730469 10.457C0.34375 9.55859 0.148438 8.58594 0.148438 7.53906C0.148438 6.50391 0.34375 5.53711 0.730469 4.63867C1.11719 3.74023 1.64844 2.95898 2.32422 2.29297C3 1.62891 3.79297 1.10547 4.70312 0.722656C5.61719 0.341797 6.59766 0.150391 7.64844 0.150391C8.6875 0.150391 9.66016 0.341797 10.5742 0.722656C11.4844 1.10547 12.2812 1.62891 12.9531 2.29297C13.6289 2.95898 14.1641 3.74023 14.5586 4.63867C14.9531 5.53711 15.1484 6.50391 15.1484 7.53906C15.1484 8.58594 14.9531 9.55859 14.5586 10.457C14.1641 11.3574 13.6289 12.1387 12.9531 12.8027C12.2812 13.4688 11.4844 13.9883 10.5742 14.3652C9.66016 14.7402 8.6875 14.9277 7.64844 14.9277ZM7.64844 13.8203C9.41016 13.8203 10.9141 13.2031 12.1562 11.9727C13.4023 10.7402 14.0234 9.26367 14.0234 7.53906C14.0234 5.81445 13.4023 4.33789 12.1562 3.10547C10.9141 1.875 9.41016 1.25781 7.64844 1.25781C5.85938 1.25781 4.35156 1.875 3.12109 3.10547C1.89062 4.33789 1.27344 5.81445 1.27344 7.53906C1.27344 9.26367 1.89062 10.7402 3.12109 11.9727C4.35156 13.2031 5.85938 13.8203 7.64844 13.8203Z" fill="#55585B" fill-opacity="1.000000" fill-rule="nonzero"/>
	<path id="Vector" d="M8.23047 11.6406C8.36719 11.5039 8.4375 11.3379 8.4375 11.1406C8.4375 10.9434 8.36719 10.7773 8.23047 10.6426C8.09375 10.5078 7.92188 10.4395 7.72266 10.4395C7.52344 10.4395 7.35547 10.5078 7.21875 10.6426C7.07812 10.7773 7.01172 10.9434 7.01172 11.1406C7.01172 11.3379 7.07812 11.5039 7.21875 11.6406C7.35547 11.7754 7.52344 11.8438 7.72266 11.8438C7.92188 11.8438 8.09375 11.7754 8.23047 11.6406ZM8.73438 4.55664C9 4.7832 9.12891 5.07617 9.12891 5.43359C9.12891 5.67969 9.05469 5.92188 8.90625 6.16211C8.75391 6.40234 8.51172 6.66406 8.17188 6.94727C7.84766 7.23047 7.58984 7.5293 7.39453 7.84375C7.20312 8.1582 7.10547 8.44336 7.10547 8.70312C7.10547 8.83789 7.15625 8.94531 7.26562 9.02539C7.37109 9.10547 7.49219 9.14648 7.62891 9.14648C7.78125 9.14648 7.90625 9.09766 8.00391 8.99805C8.10547 8.90039 8.16797 8.77734 8.19141 8.62891C8.23047 8.38281 8.3125 8.16406 8.44531 7.97266C8.57812 7.7832 8.78125 7.57617 9.05469 7.35352C9.42969 7.04688 9.70312 6.73828 9.87109 6.43164C10.0391 6.12305 10.125 5.77734 10.125 5.39648C10.125 4.74414 9.90625 4.2207 9.47656 3.82617C9.04688 3.43164 8.47266 3.23438 7.76172 3.23438C7.28516 3.23438 6.84766 3.32812 6.44922 3.51172C6.04688 3.69727 5.71875 3.96875 5.45312 4.32422C5.35547 4.46094 5.3125 4.59961 5.33203 4.74023C5.35156 4.88281 5.41016 4.99023 5.51172 5.06445C5.64844 5.16211 5.79688 5.19336 5.95312 5.15625C6.10938 5.11914 6.23438 5.0332 6.33594 4.89844C6.5 4.67578 6.69531 4.50586 6.92578 4.39062C7.15625 4.27344 7.41797 4.21484 7.70312 4.21484C8.12891 4.21484 8.47266 4.32812 8.73438 4.55664ZM4.70312 14.3652C3.79297 13.9883 3 13.4688 2.32422 12.8027C1.64844 12.1387 1.11719 11.3574 0.730469 10.457C0.34375 9.55859 0.148438 8.58594 0.148438 7.53906C0.148438 6.50391 0.34375 5.53711 0.730469 4.63867C1.11719 3.74023 1.64844 2.95898 2.32422 2.29297C3 1.62891 3.79297 1.10547 4.70312 0.722656C5.61719 0.341797 6.59766 0.150391 7.64844 0.150391C8.6875 0.150391 9.66016 0.341797 10.5742 0.722656C11.4844 1.10547 12.2812 1.62891 12.9531 2.29297C13.6289 2.95898 14.1641 3.74023 14.5586 4.63867C14.9531 5.53711 15.1484 6.50391 15.1484 7.53906C15.1484 8.58594 14.9531 9.55859 14.5586 10.457C14.1641 11.3574 13.6289 12.1387 12.9531 12.8027C12.2812 13.4688 11.4844 13.9883 10.5742 14.3652C9.66016 14.7402 8.6875 14.9277 7.64844 14.9277C6.59766 14.9277 5.61719 14.7402 4.70312 14.3652ZM12.1562 11.9727C13.4023 10.7402 14.0234 9.26367 14.0234 7.53906C14.0234 5.81445 13.4023 4.33789 12.1562 3.10547C10.9141 1.875 9.41016 1.25781 7.64844 1.25781C5.85938 1.25781 4.35156 1.875 3.12109 3.10547C1.89062 4.33789 1.27344 5.81445 1.27344 7.53906C1.27344 9.26367 1.89062 10.7402 3.12109 11.9727C4.35156 13.2031 5.85938 13.8203 7.64844 13.8203C9.41016 13.8203 10.9141 13.2031 12.1562 11.9727Z" stroke="#55585B" stroke-opacity="1.000000" stroke-width="0.300000"/>
</svg>
