<svg width="15.000000" height="14.015625" viewBox="0 0 15 14.0156" fill="none" xmlns="http://www.w3.org/2000/svg" xmlns:xlink="http://www.w3.org/1999/xlink">
	<desc>
			Created with Pixso.
	</desc>
	<defs/>
	<path id="Vector" d="M1.33594 6.55664C2.36328 9.69141 6.42188 12.2266 7.5 12.8535C8.58203 12.2188 12.668 9.65625 13.6641 6.55859C14.3164 4.55664 13.7109 2.02148 11.3047 1.25977C10.1367 0.892578 8.77734 1.11719 7.83594 1.83008C7.64062 1.97656 7.36719 1.98047 7.16797 1.83398C6.17578 1.09961 4.875 0.884766 3.69141 1.25977C1.28516 2.01953 0.683594 4.55664 1.33594 6.55664ZM7.5 14.0156C7.41016 14.0156 7.32031 13.9941 7.23828 13.9492C7.00781 13.8262 1.60547 10.9062 0.289062 6.88477L0.289062 6.88477C-0.535156 4.35352 0.382812 1.17383 3.35547 0.234375C4.75 -0.208984 6.26953 -0.0136719 7.5 0.746094C8.69141 0.0078125 10.2734 -0.195312 11.6406 0.234375C14.6133 1.17383 15.5391 4.35352 14.7109 6.88477C13.4375 10.8594 7.99609 13.8242 7.76562 13.9473C7.68359 13.9922 7.59375 14.0156 7.5 14.0156Z" fill="#55585B" fill-opacity="1.000000" fill-rule="evenodd"/>
</svg>
