<svg width="72" height="58" viewBox="0 0 72 58" fill="none" xmlns="http://www.w3.org/2000/svg">
<path id="Vector" d="M11.7 0C5.23825 0 0 5.27463 0 11.7812V46.2188C0 52.7253 5.23825 58 11.7 58H60.3C66.7616 58 72 52.7253 72 46.2188V11.7812C72 5.27463 66.7616 0 60.3 0H11.7ZM10.8 13.5938C10.8 12.0922 12.0088 10.875 13.5 10.875H33.3C34.7911 10.875 36 12.0922 36 13.5938C36 15.0953 34.7911 16.3125 33.3 16.3125H13.5C12.0088 16.3125 10.8 15.0953 10.8 13.5938ZM14.4 32.625H39.6C41.5883 32.625 43.2 34.2479 43.2 36.25V43.5C43.2 45.5021 41.5883 47.125 39.6 47.125H14.4C12.4118 47.125 10.8 45.5021 10.8 43.5V36.25C10.8 34.2479 12.4118 32.625 14.4 32.625ZM13.5 19.9375H51.3C52.7911 19.9375 54 21.1547 54 22.6562C54 24.1577 52.7911 25.375 51.3 25.375H13.5C12.0088 25.375 10.8 24.1577 10.8 22.6562C10.8 21.1547 12.0088 19.9375 13.5 19.9375Z" fill="#212121"/>
</svg>
