<svg width="20" height="21" viewBox="0 0 20 21" fill="none" xmlns="http://www.w3.org/2000/svg">
<path d="M20 13.6V11.3778H16.5889C16.5333 10.9444 16.4556 10.5222 16.3444 10.1111L19.2111 8.45556L18.1 6.53333L15.4667 8.04445C15.1556 7.51111 14.7778 7.03333 14.3667 6.61111C14.4778 5.98889 14.5889 4.73333 13.7222 3.4L15.5556 1.56667L13.9889 0L12.0778 1.91111C10.2111 0.922222 8.63333 1.54444 7.93333 1.91111L6.01111 0L4.44444 1.56667L6.27778 3.4C5.41111 4.73333 5.52222 6 5.63333 6.61111C5.22222 7.04444 4.84444 7.52222 4.53333 8.04445L1.9 6.52222L0.788889 8.44444L3.65556 10.1C3.54444 10.5111 3.46667 10.9333 3.41111 11.3667H0V13.5889H3.41111C3.46667 14.0222 3.54444 14.4444 3.65556 14.8556L0.788889 16.5111L1.9 18.4333L4.53333 16.9333C5.73333 18.9444 7.73333 20.2667 10 20.2667C12.2667 20.2667 14.2667 18.9444 15.4667 16.9333L18.1 18.4556L19.2111 16.5333L16.3444 14.8778C16.4556 14.4667 16.5333 14.0444 16.5889 13.6111H20V13.6ZM10 3.6C10.9778 3.6 11.8 4.23333 12.0889 5.11111C11.4333 4.85556 10.7333 4.71111 10 4.71111C9.26667 4.71111 8.56667 4.85556 7.91111 5.11111C8.2 4.23333 9.02222 3.6 10 3.6ZM10 18.0444C7.54444 18.0444 5.55556 15.5556 5.55556 12.4889C5.55556 9.42222 7.54444 6.93333 10 6.93333C12.4556 6.93333 14.4444 9.42222 14.4444 12.4889C14.4444 15.5556 12.4556 18.0444 10 18.0444Z" fill="black"/>
<path d="M8.89062 9.15625H11.1128V15.8229H8.89062V9.15625Z" fill="black"/>
</svg>
