<svg width="24" height="24" viewBox="0 0 24 24" fill="none" xmlns="http://www.w3.org/2000/svg">
<g id="Icon/shopping_cart">
<path id="Vector" d="M16.396 12.7894C17.1185 12.7894 17.7543 12.3945 18.0818 11.7972L21.5303 5.54556C21.8867 4.9098 21.4244 4.11991 20.6923 4.11991H6.43577L5.53029 2.19336H2.38037V4.11991H4.30692L7.77472 11.4312L6.4743 13.7816C5.77111 15.0724 6.69585 16.6425 8.16003 16.6425H19.7194V14.716H8.16003L9.21964 12.7894H16.396ZM7.35088 6.04647H19.0547L16.396 10.8629H9.63384L7.35088 6.04647ZM8.16003 17.6058C7.10043 17.6058 6.24311 18.4727 6.24311 19.5323C6.24311 20.5919 7.10043 21.4589 8.16003 21.4589C9.21964 21.4589 10.0866 20.5919 10.0866 19.5323C10.0866 18.4727 9.21964 17.6058 8.16003 17.6058ZM17.7928 17.6058C16.7332 17.6058 15.8759 18.4727 15.8759 19.5323C15.8759 20.5919 16.7332 21.4589 17.7928 21.4589C18.8524 21.4589 19.7194 20.5919 19.7194 19.5323C19.7194 18.4727 18.8524 17.6058 17.7928 17.6058Z" fill="#2283DC"/>
</g>
</svg>
