<svg width="61" height="59" viewBox="0 0 61 59" fill="none" xmlns="http://www.w3.org/2000/svg">
<path d="M49.0462 31.518V14.5228C49.0457 14.3706 49.0052 14.2211 48.9286 14.0895C48.8521 13.9579 48.7422 13.8488 48.61 13.7732L24.9544 0.115569C24.8233 0.0398585 24.6745 0 24.5231 0C24.3717 0 24.2229 0.0398585 24.0918 0.115569L0.447084 13.7668C0.311685 13.8412 0.198762 13.9506 0.120115 14.0836C0.0414678 14.2166 -1.54828e-05 14.3683 4.33465e-09 14.5228V44.2093C3.85095e-06 44.3607 0.0398641 44.5095 0.115575 44.6406C0.191285 44.7717 0.300179 44.8806 0.43131 44.9563L24.0918 58.6165C24.2229 58.6922 24.3717 58.7321 24.5231 58.7321C24.6745 58.7321 24.8233 58.6922 24.9544 58.6165L37.6623 51.2806C38.8669 53.0661 40.5062 54.5157 42.4256 55.4929C44.3451 56.4701 46.4817 56.9428 48.6343 56.8665C50.7868 56.7901 52.8846 56.1672 54.73 55.0565C56.5754 53.9457 58.1078 52.3836 59.1829 50.5172C60.258 48.6507 60.8405 46.5414 60.8755 44.3878C60.9105 42.2342 60.3968 40.1071 59.3829 38.2067C58.369 36.3064 56.8882 34.6953 55.0798 33.5251C53.2715 32.355 51.1951 31.6643 49.0462 31.518ZM38.2173 9.76509L16.2839 22.4281L11.9793 19.9425L33.9122 7.27951L38.2173 9.76509ZM15.4039 23.8975V39.7092L13.7773 37.8758C13.6547 37.7406 13.4935 37.6462 13.3155 37.6056C13.1375 37.5649 12.9514 37.5799 12.7822 37.6484L11.0908 38.3393V21.4359L15.4039 23.8975ZM24.5231 1.85868L32.187 6.28343L10.2535 18.9468L2.5902 14.5217L24.5231 1.85868ZM23.6605 56.3754L1.72524 43.7113V16.0144L9.3656 20.4405V39.6288C9.36839 39.7714 9.40584 39.9112 9.47472 40.0361C9.5436 40.1611 9.64184 40.2673 9.76097 40.3458C9.8801 40.4243 10.0165 40.4726 10.1585 40.4866C10.3005 40.5006 10.4437 40.4798 10.5759 40.4261L12.8746 39.4783L15.5929 42.5648C15.674 42.6568 15.7738 42.7305 15.8856 42.7809C15.9974 42.8314 16.1186 42.8575 16.2413 42.8574C16.3495 42.8575 16.4568 42.8387 16.5585 42.8019C16.7239 42.7405 16.8669 42.6307 16.9687 42.4866C17.0706 42.3426 17.1265 42.1712 17.1292 41.9948V24.8936L23.6605 28.6785V56.3754ZM24.5231 27.1849L18.0092 23.4241L39.9425 10.7612L46.4558 14.5216L24.5231 27.1849ZM25.3857 56.3758V28.6785L47.3209 16.0143V31.518C45.2419 31.6599 43.2297 32.3115 41.4621 33.4152C39.6944 34.5188 38.2257 36.0407 37.1854 37.8463C36.1452 39.652 35.5655 41.686 35.4974 43.7688C35.4294 45.8516 35.8752 47.9191 36.7953 49.7888L25.3857 56.3758ZM48.1835 55.1489C46.0143 55.1489 43.8939 54.5057 42.0903 53.3005C40.2866 52.0954 38.8809 50.3825 38.0508 48.3784C37.2207 46.3744 37.0035 44.1692 37.4267 42.0416C37.8499 39.9141 38.8944 37.9599 40.4283 36.426C41.9621 34.8922 43.9164 33.8476 46.0439 33.4244C48.1714 33.0013 50.3766 33.2185 52.3807 34.0486C54.3847 34.8787 56.0976 36.2844 57.3028 38.088C58.5079 39.8917 59.1511 42.0121 59.1511 44.1813C59.1406 47.0868 57.9818 49.8704 55.9272 51.9249C53.8726 53.9794 51.0891 55.1385 48.1835 55.1489Z" fill="#010F1C"/>
<path d="M31.7781 28.7061C31.6842 28.6067 31.568 28.5311 31.4392 28.4853C31.3103 28.4396 31.1725 28.4251 31.0369 28.443C30.9014 28.4609 30.772 28.5108 30.6595 28.5884C30.547 28.6661 30.4545 28.7694 30.3896 28.8897L28.307 32.7641C28.2364 32.8955 28.201 33.0429 28.2043 33.192C28.2076 33.3411 28.2496 33.4869 28.326 33.6149C28.4025 33.743 28.5108 33.849 28.6405 33.9227C28.7702 33.9964 28.9167 34.0353 29.0659 34.0354C29.2239 34.0358 29.3792 33.9938 29.5155 33.9139C29.6519 33.834 29.7643 33.7191 29.8413 33.581L30.316 32.725V40.1402C30.316 40.3689 30.4068 40.5884 30.5686 40.7501C30.7304 40.9119 30.9498 41.0028 31.1786 41.0028C31.4074 41.0028 31.6268 40.9119 31.7885 40.7501C31.9503 40.5884 32.0412 40.3689 32.0412 40.1402V31.4685L32.7424 32.2268C32.8194 32.3092 32.9119 32.3754 33.0147 32.4218C33.1174 32.4682 33.2284 32.4937 33.3411 32.497C33.4537 32.5002 33.5659 32.4812 33.6712 32.4408C33.7765 32.4005 33.8727 32.3397 33.9544 32.262C34.0366 32.184 34.1026 32.0905 34.1487 31.9869C34.1947 31.8834 34.22 31.7718 34.2229 31.6585C34.2258 31.5452 34.2064 31.4324 34.1657 31.3266C34.125 31.2209 34.0639 31.1241 33.9858 31.042L31.7781 28.7061Z" fill="#010F1C"/>
<path d="M3.9427 39.5254C3.71392 39.5254 3.49451 39.6163 3.33273 39.778C3.17096 39.9398 3.08008 40.1592 3.08008 40.388V43.5822C3.08008 43.811 3.17096 44.0304 3.33273 44.1921C3.49451 44.3539 3.71392 44.4448 3.9427 44.4448C4.17148 44.4448 4.39089 44.3539 4.55266 44.1921C4.71444 44.0304 4.80532 43.811 4.80532 43.5822V40.388C4.80532 40.1592 4.71444 39.9398 4.55266 39.778C4.39089 39.6163 4.17148 39.5254 3.9427 39.5254Z" fill="#010F1C"/>
<path d="M7.39387 41.8906C7.16509 41.8906 6.94568 41.9815 6.78391 42.1433C6.62213 42.3051 6.53125 42.5245 6.53125 42.7532V45.6307C6.53125 45.8595 6.62213 46.0789 6.78391 46.2407C6.94568 46.4024 7.16509 46.4933 7.39387 46.4933C7.62265 46.4933 7.84206 46.4024 8.00384 46.2407C8.16561 46.0789 8.25649 45.8595 8.25649 45.6307V42.7532C8.25649 42.5245 8.16561 42.3051 8.00384 42.1433C7.84206 41.9815 7.62265 41.8906 7.39387 41.8906Z" fill="#010F1C"/>
<path d="M10.9671 44.2559C10.7383 44.2559 10.5189 44.3467 10.3571 44.5085C10.1954 44.6703 10.1045 44.8897 10.1045 45.1185V47.6521C10.1045 47.8809 10.1954 48.1003 10.3571 48.2621C10.5189 48.4239 10.7383 48.5147 10.9671 48.5147C11.1959 48.5147 11.4153 48.4239 11.5771 48.2621C11.7389 48.1003 11.8297 47.8809 11.8297 47.6521V45.1185C11.8297 44.8897 11.7389 44.6703 11.5771 44.5085C11.4153 44.3467 11.1959 44.2559 10.9671 44.2559Z" fill="#010F1C"/>
<path d="M14.4181 46.6252C14.1894 46.6252 13.97 46.7161 13.8082 46.8778C13.6464 47.0396 13.5555 47.259 13.5555 47.4878V49.6776C13.5555 49.9064 13.6464 50.1258 13.8082 50.2876C13.97 50.4494 14.1894 50.5402 14.4181 50.5402C14.6469 50.5402 14.8663 50.4494 15.0281 50.2876C15.1899 50.1258 15.2808 49.9064 15.2808 49.6776V47.4878C15.2808 47.259 15.1899 47.0396 15.0281 46.8778C14.8663 46.7161 14.6469 46.6252 14.4181 46.6252Z" fill="#010F1C"/>
<path d="M17.1289 51.7457C17.1289 51.9745 17.2198 52.1939 17.3816 52.3557C17.5433 52.5174 17.7627 52.6083 17.9915 52.6083C18.2203 52.6083 18.4397 52.5174 18.6015 52.3557C18.7633 52.1939 18.8541 51.9745 18.8541 51.7457V49.8529C18.8541 49.6241 18.7633 49.4047 18.6015 49.2429C18.4397 49.0811 18.2203 48.9902 17.9915 48.9902C17.7627 48.9902 17.5433 49.0811 17.3816 49.2429C17.2198 49.4047 17.1289 49.6241 17.1289 49.8529V51.7457Z" fill="#010F1C"/>
<path d="M32.9227 41.3773L28.9929 43.646C28.7947 43.7604 28.6501 43.9488 28.5909 44.1698C28.5317 44.3908 28.5627 44.6262 28.6771 44.8244C28.7915 45.0225 28.9799 45.1671 29.2009 45.2263C29.4219 45.2855 29.6574 45.2546 29.8555 45.1402L33.7853 42.8715C33.9835 42.7571 34.1281 42.5687 34.1873 42.3477C34.2465 42.1267 34.2155 41.8912 34.1011 41.6931C33.9867 41.4949 33.7983 41.3503 33.5773 41.2911C33.3563 41.2319 33.1209 41.2629 32.9227 41.3773Z" fill="#010F1C"/>
<path d="M49.0446 43.8063V36.5091C49.0446 36.2803 48.9537 36.0609 48.7919 35.8991C48.6301 35.7374 48.4107 35.6465 48.182 35.6465C47.9532 35.6465 47.7338 35.7374 47.572 35.8991C47.4102 36.0609 47.3193 36.2803 47.3193 36.5091V44.1803C47.3193 44.2983 47.3436 44.4151 47.3905 44.5235C47.4375 44.6318 47.5062 44.7293 47.5924 44.81L51.5408 48.5069C51.708 48.6619 51.9298 48.7444 52.1577 48.7363C52.3856 48.7282 52.601 48.6302 52.7568 48.4638C52.9127 48.2973 52.9963 48.0759 52.9893 47.848C52.9824 47.6201 52.8855 47.4042 52.7198 47.2475L49.0446 43.8063Z" fill="#010F1C"/>
</svg>
