<svg width="62" height="63" viewBox="0 0 62 63" fill="none" xmlns="http://www.w3.org/2000/svg">
<path d="M58.3534 53.4901C58.3964 54.033 57.9979 54.5086 57.4636 54.5521L51.3349 55.0518C51.3091 55.054 51.283 55.055 51.2571 55.055C51.001 55.055 50.7539 54.9518 50.5709 54.7661C50.37 54.5617 50.2671 54.278 50.2899 53.9899L50.7816 47.7626C50.8246 47.2197 51.2921 46.8147 51.8267 46.8584C52.361 46.902 52.7596 47.3775 52.7167 47.9204L52.4396 51.429C57.3585 45.9721 60.0587 38.9261 60.0587 31.5C60.0587 25.4479 58.2681 19.6299 54.8803 14.6748C54.5744 14.2275 54.6834 13.6128 55.1237 13.3021C55.5638 12.9913 56.1685 13.1019 56.4747 13.5493C60.0893 18.8364 62 25.0437 62 31.5C62 39.4742 59.0811 47.0375 53.768 52.8745L57.3084 52.5859C57.842 52.5414 58.3106 52.947 58.3534 53.4901ZM14.4419 7.23452C19.3182 3.79208 25.0439 1.9726 31 1.9726C38.3084 1.9726 45.2426 4.71637 50.6125 9.71457L47.1598 9.43323C46.6265 9.38947 46.1574 9.79459 46.1145 10.3374C46.0718 10.8804 46.4703 11.3559 47.0046 11.3994L53.133 11.8987C53.1591 11.901 53.185 11.9019 53.2108 11.9019C53.4672 11.9019 53.7143 11.7988 53.897 11.6131C54.0982 11.4087 54.2011 11.125 54.1783 10.8367L53.6863 4.60948C53.6433 4.06652 53.1726 3.66164 52.6413 3.70529C52.1069 3.74881 51.7084 4.22433 51.7512 4.76729L52.0354 8.36458C46.2909 2.96593 38.8477 0 31 0C24.646 0 18.5373 1.94153 13.3342 5.61452C12.8939 5.92533 12.7852 6.53992 13.0909 6.98721C13.3969 7.43462 14.0016 7.54508 14.4419 7.23452ZM47.5581 55.7655C42.6816 59.2079 36.9561 61.0274 31 61.0274C23.6916 61.0274 16.7572 58.2836 11.3874 53.2853L14.8406 53.5668C15.3736 53.6107 15.8428 53.2055 15.8856 52.6626C15.9284 52.1196 15.5301 51.6441 14.9957 51.6006L8.86709 51.101C8.58269 51.0768 8.30424 51.1824 8.10307 51.3867C7.90215 51.5911 7.79926 51.8749 7.82207 52.163L8.31407 58.3904C8.35483 58.9066 8.77973 59.2978 9.28047 59.2978C9.30655 59.2978 9.33288 59.2967 9.35933 59.2946C9.89343 59.2509 10.2921 58.7755 10.2492 58.2326L9.96501 54.6355C15.7093 60.0342 23.1523 63 31 63C37.354 63 43.4625 61.0586 48.6658 57.3855C49.1061 57.0747 49.2148 56.4601 48.9091 56.0128C48.6031 55.5654 47.9984 55.4549 47.5581 55.7655ZM1.94129 31.5C1.94129 24.0736 4.64163 17.0276 9.5605 11.571L9.2835 15.0797C9.24055 15.6226 9.639 16.0982 10.1733 16.1417C10.1999 16.1439 10.226 16.1449 10.252 16.1449C10.7529 16.1449 11.1778 15.7536 11.2186 15.2374L11.7104 9.01011C11.7332 8.72199 11.6303 8.43818 11.4291 8.23389C11.2279 8.02948 10.9488 7.92419 10.6651 7.94823L4.53668 8.44792C4.00234 8.49144 3.60389 8.96696 3.64684 9.50992C3.68979 10.053 4.16007 10.4579 4.69186 10.4141L8.23217 10.1255C2.91885 15.9624 0 23.5256 0 31.5C0 37.9562 1.91072 44.1635 5.52552 49.4507C5.71419 49.7265 6.01631 49.8743 6.32339 49.8743C6.51461 49.8743 6.70753 49.8171 6.87654 49.6979C7.31661 49.3871 7.42556 48.7725 7.11993 48.3252C3.73213 43.37 1.94129 37.5519 1.94129 31.5ZM33.3274 34.9417V43.8641C33.3274 45.1682 32.2834 46.2291 31 46.2291C29.7168 46.2291 28.6726 45.1682 28.6726 43.8641V34.9417C28.6726 33.6377 29.7167 32.5768 31 32.5768C32.2834 32.5768 33.3274 33.6377 33.3274 34.9417ZM31.3861 34.9417C31.3861 34.7254 31.2131 34.5494 31 34.5494C30.7872 34.5494 30.6139 34.7253 30.6139 34.9417V43.8641C30.6139 44.0804 30.7872 44.2565 31 44.2565C31.2131 44.2565 31.3861 44.0805 31.3861 43.8641V34.9417ZM41.8773 35.6354L39.1744 44.5581C38.8728 45.5553 37.9805 46.2255 36.9539 46.2255C36.7229 46.2255 36.4932 46.1903 36.271 46.1209C35.0465 45.7384 34.3565 44.4149 34.7325 43.1707L37.4356 34.2475C37.7373 33.2504 38.6295 32.5804 39.6559 32.5804C39.8871 32.5804 40.117 32.6156 40.3391 32.6849C40.9323 32.8701 41.4192 33.279 41.7097 33.8364C42.0003 34.3937 42.0598 35.0326 41.8773 35.6354ZM39.9944 34.7597C39.9666 34.7067 39.9006 34.6115 39.7691 34.5705C39.7316 34.5589 39.6937 34.553 39.656 34.553C39.4901 34.553 39.34 34.6659 39.2913 34.8274L36.5881 43.7505C36.5265 43.9548 36.6401 44.1725 36.8415 44.2355C37.0421 44.298 37.259 44.1767 37.3193 43.9782L40.0219 35.0554C40.0623 34.9217 40.0218 34.8129 39.9944 34.7597ZM27.2671 43.1702C27.4496 43.7733 27.3902 44.4122 27.0996 44.9694C26.809 45.5267 26.3223 45.9356 25.7289 46.1209C25.5069 46.1903 25.277 46.2255 25.0459 46.2255C24.0196 46.2255 23.1272 45.5553 22.8255 44.5578L20.1228 35.6357C19.9403 35.0324 19.9998 34.3936 20.2904 33.8363C20.581 33.2789 21.0676 32.8701 21.6611 32.6849C21.8831 32.6155 22.113 32.5804 22.344 32.5804C23.3704 32.5804 24.2627 33.2506 24.5645 34.248L27.2671 43.1702ZM25.4116 43.7502L22.709 34.8278C22.66 34.6658 22.5099 34.553 22.344 34.553C22.3063 34.553 22.2684 34.5589 22.2312 34.5705C22.0994 34.6115 22.0333 34.7067 22.0059 34.7599C21.9781 34.813 21.9378 34.922 21.9781 35.0557L24.6807 43.9778C24.7409 44.1767 24.9575 44.2986 25.1587 44.2354C25.2902 44.1943 25.3563 44.099 25.384 44.046C25.4119 43.993 25.4522 43.8839 25.4116 43.7502ZM15.1889 25.3645H19.1381L14.4034 17.0317C14.0617 16.4305 13.9714 15.7283 14.1491 15.0545C14.3269 14.381 14.7505 13.8189 15.3423 13.4716C15.934 13.1245 16.625 13.0325 17.2878 13.2131C17.9506 13.3936 18.5039 13.8241 18.8457 14.4254L25.061 25.3643H36.9395L43.1548 14.4254C43.4962 13.8241 44.0496 13.3935 44.7124 13.2131C45.3755 13.0327 46.0665 13.1245 46.6582 13.4716C47.2499 13.8188 47.6736 14.381 47.8514 15.0547C48.0289 15.7283 47.9386 16.4304 47.5968 17.0318L42.8624 25.3645H46.8113C47.7924 25.3645 48.5905 26.1753 48.5905 27.1721V29.2728C48.5905 29.9827 48.1847 30.5964 47.5973 30.8921L42.0576 49.1799C41.9325 49.5937 41.5561 49.876 41.13 49.876H20.8703C20.4442 49.876 20.068 49.5937 19.9426 49.1799L14.4029 30.8921C13.8156 30.5965 13.4097 29.9827 13.4097 29.2728V27.1721C13.4096 26.1755 14.2078 25.3645 15.1889 25.3645ZM45.509 31.0806H16.491L21.5872 47.9035H40.4131L45.509 31.0806ZM39.1808 25.3645H40.6208L45.9157 16.0454C45.9982 15.9003 46.0194 15.7298 45.9761 15.5652C45.9328 15.4006 45.8301 15.2638 45.6874 15.18C45.5448 15.0963 45.3772 15.0745 45.2149 15.1186C45.0528 15.1628 44.9182 15.267 44.8357 15.4118L39.1808 25.3645ZM21.3794 25.3645H22.8194L17.1645 15.4118C17.082 15.2668 16.9475 15.1627 16.7854 15.1186C16.6233 15.0745 16.4555 15.0963 16.3128 15.18C16.1699 15.2638 16.0676 15.4006 16.0239 15.5653C15.9806 15.7299 16.0021 15.9004 16.0843 16.0453L21.3794 25.3645ZM15.3509 29.108H46.649V27.3372H15.3509V29.108Z" fill="#010F1C"/>
</svg>
