<svg width="67" height="65" viewBox="0 0 67 65" fill="none" xmlns="http://www.w3.org/2000/svg">
<path d="M10.2304 37.6309C4.58987 37.6309 0 42.2208 0 47.8636C0 52.8336 8.15208 61.2691 10.2304 63.3383C12.3111 61.2691 20.4632 52.8336 20.4632 47.8636C20.4632 42.2208 15.8733 37.6309 10.2304 37.6309ZM10.2304 51.9074C8 51.9074 6.18666 50.094 6.18666 47.8636C6.18666 45.6332 8 43.8175 10.2304 43.8175C12.4632 43.8175 14.2765 45.6332 14.2765 47.8636C14.2765 50.094 12.4632 51.9074 10.2304 51.9074Z" fill="black"/>
<path d="M66.1057 10.2327C66.1057 4.58985 61.5158 0 55.873 0C50.2324 0 45.6426 4.58985 45.6426 10.2327C45.6426 15.2028 53.7946 23.6382 55.873 25.7073C57.9536 23.6382 66.1057 15.2028 66.1057 10.2327ZM51.8292 10.2327C51.8292 8.0023 53.6426 6.1866 55.873 6.1866C58.1057 6.1866 59.9191 8.0023 59.9191 10.2327C59.9191 12.4631 58.1057 14.2765 55.873 14.2765C53.6426 14.2765 51.8292 12.4631 51.8292 10.2327Z" fill="black"/>
<path d="M32.7495 14.291H24.579V17.2864C24.579 17.6666 24.2679 17.9777 23.8878 17.9777H18.4223C18.0421 17.9777 17.731 17.6666 17.731 17.2864V14.291H9.56055V31.6942H32.7495V14.291Z" fill="black"/>
<path d="M18.4932 8.82031H13.1845L10.2236 12.9079H17.8342L18.4932 8.82031Z" fill="black"/>
<path d="M32.085 12.9079L29.1242 8.82031H23.8154L24.4744 12.9079H32.085Z" fill="black"/>
<path d="M22.4168 8.82031H19.8914L19.2324 12.9079H23.0758L22.4168 8.82031Z" fill="black"/>
<path d="M23.1953 14.291H19.1123V16.5952H23.1953V14.291Z" fill="black"/>
<path d="M55.8296 30.8863L35.7697 32.1789C35.5094 32.1974 35.2812 32.3586 35.1776 32.5983C35.0762 32.8379 35.1176 33.1144 35.2858 33.3148L50.3895 51.2918L13.6476 63.6536C13.2858 63.7757 13.09 64.1674 13.2121 64.5291C13.3089 64.8195 13.5785 65.0015 13.8665 65.0015C13.9402 65.0015 14.014 64.99 14.0877 64.9646L51.7905 52.278C52.007 52.2065 52.173 52.0315 52.2351 51.8102C52.2974 51.5914 52.2467 51.354 52.0992 51.1789L37.2236 33.4716L55.9195 32.2664C56.2997 32.2411 56.5877 31.914 56.5647 31.5314C56.5393 31.1513 56.2098 30.8609 55.8296 30.8863Z" fill="black"/>
</svg>
