<svg width="65" height="56" viewBox="0 0 65 56" fill="none" xmlns="http://www.w3.org/2000/svg">
<path d="M64.3877 34.503C64.3866 34.4884 64.385 34.4732 64.3834 34.4586C64.3812 34.444 64.3785 34.4261 64.3758 34.4098C64.3725 34.393 64.3698 34.3789 64.3666 34.3637C64.3628 34.3486 64.359 34.3328 64.3546 34.3177C64.3503 34.3025 64.346 34.2873 64.3411 34.2721C64.3357 34.2569 64.3302 34.2423 64.3248 34.2277C64.3189 34.213 64.3129 34.1984 64.3064 34.1843C64.2999 34.1697 64.2928 34.1556 64.2858 34.1409C64.2793 34.1268 64.2717 34.1133 64.2636 34.0997C64.2554 34.0856 64.2478 34.0726 64.2392 34.0596C64.2305 34.0466 64.2213 34.032 64.2115 34.0179C64.2018 34.0043 64.1936 33.9935 64.1844 33.9821C64.1736 33.968 64.1627 33.9539 64.1514 33.9414C64.1459 33.9355 64.1411 33.929 64.1356 33.9225L56.9866 26.1332C56.2759 25.3607 55.2752 24.9211 54.2257 24.92H42.67V14.8496C42.6679 12.7816 40.9917 11.1054 38.9231 11.1027H26.7153C25.488 4.20846 19.1797 -0.59336 12.2079 0.059314C5.23559 0.711988 -0.0714577 6.60123 0.0017243 13.6034C0.0754483 20.6055 5.50555 26.382 12.4898 26.8878V47.009C12.492 49.0776 14.1681 50.7538 16.2367 50.7559H18.8171C19.2903 53.5601 21.7194 55.6136 24.5632 55.6136C27.407 55.6136 29.8355 53.5601 30.3093 50.7559H46.572C47.0452 53.5601 49.4743 55.6136 52.3181 55.6136C55.1619 55.6136 57.5905 53.5601 58.0642 50.7559H60.6446C62.7132 50.7538 64.3893 49.0776 64.3915 47.009V34.58C64.3915 34.5719 64.3904 34.5638 64.3904 34.5562C64.3899 34.5383 64.3888 34.5209 64.3877 34.503ZM54.2257 26.8634C54.7309 26.8639 55.2129 27.0759 55.5549 27.4478L61.21 33.6091H42.6695V26.8634H54.2257ZM1.94294 13.4619C1.94294 7.1005 7.09983 1.94361 13.4612 1.94361C19.8226 1.94361 24.9795 7.1005 24.9795 13.4619C24.9795 19.8233 19.8226 24.9802 13.4612 24.9802C7.10254 24.9731 1.94999 19.8206 1.94294 13.4619ZM14.4327 47.009V26.8878C21.4679 26.3706 26.9137 20.5161 26.9224 13.4619C26.9224 13.3231 26.9197 13.1844 26.9153 13.0456H38.9231C39.9189 13.0467 40.7261 13.8538 40.7272 14.8496V48.8131H30.3093C29.8355 46.0089 27.407 43.956 24.5632 43.956C21.7194 43.956 19.2903 46.0089 18.8171 48.8131H16.2367C15.2409 48.812 14.4337 48.0048 14.4327 47.009ZM24.5632 53.6702C22.4171 53.6702 20.6775 51.9306 20.6775 49.7845C20.6775 47.6389 22.4171 45.8988 24.5632 45.8988C26.7093 45.8988 28.4489 47.6389 28.4489 49.7845C28.4467 51.9296 26.7082 53.668 24.5632 53.6702ZM52.3181 53.6702C50.172 53.6702 48.4324 51.9306 48.4324 49.7845C48.4324 47.6389 50.172 45.8988 52.3181 45.8988C54.4642 45.8988 56.2038 47.6389 56.2038 49.7845C56.2016 51.9296 54.4632 53.668 52.3181 53.6702ZM62.4487 47.009C62.4476 48.0048 61.6404 48.812 60.6446 48.8131H58.0642C57.5905 46.0089 55.1619 43.956 52.3181 43.956C49.4743 43.956 47.0452 46.0089 46.572 48.8131H42.67V35.5514H62.4487V47.009Z" fill="#010F1C"/>
<path d="M18.8343 10.2198C18.4955 9.80349 17.884 9.74061 17.4677 10.0794L11.7405 14.7397L9.58029 12.2104C9.22956 11.8103 8.62297 11.7664 8.21857 12.1117C7.81417 12.457 7.76267 13.0631 8.10256 13.4718L10.8781 16.7222C11.2207 17.1233 11.8207 17.1775 12.23 16.8447L18.6939 11.5853C19.1091 11.2465 19.172 10.6356 18.8343 10.2198Z" fill="#010F1C"/>
</svg>
