<svg width="62" height="62" viewBox="0 0 62 62" fill="none" xmlns="http://www.w3.org/2000/svg">
<path d="M45.076 58.1002C44.5138 58.1002 44.1389 58.4751 44.1389 59.0374V60.0682H1.87426V11.8059H11.3393C10.8707 13.3053 10.9644 14.3362 10.9644 15.367C10.9644 15.9293 11.3393 16.3041 11.9016 16.3041H34.2053C34.7676 16.3041 35.1424 15.9293 35.1424 15.367C35.1424 14.3362 35.2362 13.3053 34.7676 11.8059H44.2326V18.2721C44.2326 18.8344 44.6075 19.2092 45.1698 19.2092C45.732 19.2092 46.1069 18.8344 46.1069 18.2721V10.8688C46.1069 10.3065 45.732 9.93164 45.1698 9.93164H33.9242C32.987 8.24481 31.4876 6.93282 29.6134 5.99569C29.4259 2.71573 26.5208 -0.00195312 23.0534 -0.00195312C19.5861 -0.00195312 16.6809 2.62202 16.4935 5.99569C14.6193 6.83911 13.2136 8.24481 12.1827 9.93164H0.937132C0.374853 9.93164 0 10.3065 0 10.8688V61.0053C0 61.5676 0.374853 61.9425 0.937132 61.9425H45.076C45.6383 61.9425 46.0132 61.5676 46.0132 61.0053V59.0374C46.0132 58.5688 45.5446 58.1002 45.076 58.1002ZM17.7118 7.4951C18.0866 7.30767 18.3678 6.93282 18.2741 6.37054C18.2741 3.934 20.3358 1.96602 22.9597 1.96602C25.5837 1.96602 27.6454 3.934 27.6454 6.37054C27.5517 6.93282 27.8328 7.30767 28.2077 7.4951C31.2065 8.61966 33.0808 11.3373 33.1745 14.4299H12.8387C12.8387 11.4311 14.8067 8.71337 17.7118 7.4951Z" fill="#010F1C"/>
<path d="M22.9566 11.0577C24.9245 11.0577 26.6114 9.46455 26.6114 7.40286C26.6114 5.34117 25.0183 3.74805 22.9566 3.74805C20.9886 3.74805 19.3018 5.34117 19.3018 7.40286C19.3018 9.46455 20.9886 11.0577 22.9566 11.0577ZM22.9566 5.62231C23.8937 5.62231 24.7371 6.37202 24.7371 7.40286C24.7371 8.43371 23.9874 9.18341 22.9566 9.18341C22.0194 9.18341 21.176 8.43371 21.176 7.40286C21.176 6.37202 22.0194 5.62231 22.9566 5.62231Z" fill="#010F1C"/>
<path d="M13.7741 21.9254C13.7741 21.3631 13.3993 20.9883 12.837 20.9883H6.46448C5.9022 20.9883 5.52734 21.3631 5.52734 21.9254V28.7665C5.52734 29.3288 5.9022 29.7036 6.46448 29.7036H12.837C13.3993 29.7036 13.7741 29.3288 13.7741 28.7665V21.9254ZM11.8998 27.7356H7.40161V22.7688H11.8998V27.7356Z" fill="#010F1C"/>
<path d="M13.7741 34.486C13.7741 33.9237 13.3993 33.5488 12.837 33.5488H6.46448C5.9022 33.5488 5.52734 33.9237 5.52734 34.486V41.327C5.52734 41.8893 5.9022 42.2642 6.46448 42.2642H12.837C13.3993 42.2642 13.7741 41.8893 13.7741 41.327V34.486ZM11.8998 40.3899H7.40161V35.4231H11.8998V40.3899Z" fill="#010F1C"/>
<path d="M12.8369 46.1953H6.46437C5.90209 46.1953 5.52724 46.5701 5.52724 47.1324V53.9735C5.52724 54.5358 5.90209 54.9106 6.46437 54.9106H12.8369C13.3991 54.9106 13.774 54.5358 13.774 53.9735V47.1324C13.774 46.5701 13.3054 46.1953 12.8369 46.1953ZM11.8997 53.0363H7.4015V48.0695H11.8997V53.0363Z" fill="#010F1C"/>
<path d="M61.2889 30.0842L44.2331 20.8066C43.9519 20.6192 43.5771 20.6192 43.3896 20.8066C42.2651 21.3689 28.6767 28.6785 26.4276 29.8968C26.1464 30.0842 25.959 30.459 25.959 30.7402V45.7343C25.959 46.0154 26.1464 46.3903 26.4276 46.484L43.3896 57.1673C43.6708 57.3547 44.0456 57.3547 44.3268 57.1673L61.3826 48.0771C61.6637 47.8897 61.8511 47.6086 61.8511 47.2337V30.9276C61.8511 30.6465 61.6637 30.2716 61.2889 30.0842ZM43.8582 22.6808L59.0397 30.9276L55.1038 33.083L39.9222 24.7425L43.8582 22.6808ZM51.3553 35.6133L35.6114 27.0854L37.8606 25.8671L54.0729 34.7699V39.3618L51.8238 40.5801V36.4567C51.8238 36.0818 51.6364 35.707 51.3553 35.6133ZM33.6435 28.1162L48.9187 36.4567L43.8582 39.2681L28.7704 30.7402L33.6435 28.1162ZM27.7395 45.0783V32.2396L42.8274 40.7675V54.637L27.7395 45.0783ZM44.7953 54.7308V40.8612L49.9496 38.0498V42.1732C49.9496 42.548 50.137 42.8292 50.4181 43.0166C50.6993 43.204 51.0741 43.204 51.3553 43.0166L55.4786 40.7675C55.7598 40.5801 55.9472 40.2989 55.9472 39.9241V34.7699L59.9769 32.6144V46.7651L44.7953 54.7308Z" fill="#010F1C"/>
<path d="M30.7372 25.3082C30.7372 24.7459 30.3623 24.3711 29.8 24.3711H16.399C15.8368 24.3711 15.4619 24.7459 15.4619 25.3082C15.4619 25.8705 15.8368 26.2454 16.399 26.2454H29.8C30.2686 26.2454 30.7372 25.8705 30.7372 25.3082Z" fill="#010F1C"/>
<path d="M24.0814 37.0134H16.3033C15.741 37.0134 15.3661 37.3883 15.3661 37.9506C15.3661 38.5128 15.741 38.8877 16.3033 38.8877H24.0814C24.6437 38.8877 25.0186 38.5128 25.0186 37.9506C25.0186 37.3883 24.55 37.0134 24.0814 37.0134Z" fill="#010F1C"/>
<path d="M14.8047 50.5133C14.8047 51.0756 15.1795 51.4504 15.7418 51.4504H28.0182C28.5805 51.4504 28.9554 51.0756 28.9554 50.5133C28.9554 49.951 28.5805 49.5762 28.0182 49.5762H15.7418C15.2733 49.5762 14.8047 50.0447 14.8047 50.5133Z" fill="#010F1C"/>
</svg>
