<svg width="12.628906" height="14.210938" viewBox="0 0 12.6289 14.2109" fill="none" xmlns="http://www.w3.org/2000/svg" xmlns:xlink="http://www.w3.org/1999/xlink">
	<desc>
			Created with Pixso.
	</desc>
	<defs/>
	<path id="Vector" d="M3.94727 1.58008C3.73633 1.58008 3.53711 1.66406 3.38867 1.8125C3.24023 1.95898 3.15625 2.16016 3.15625 2.36914C3.15625 2.57812 3.24023 2.7793 3.38867 2.92773C3.53711 3.07617 3.73633 3.1582 3.94727 3.1582C4.15625 3.1582 4.35742 3.07617 4.50391 2.92773C4.65234 2.7793 4.73633 2.57812 4.73633 2.36914C4.73633 2.16016 4.65234 1.95898 4.50391 1.8125C4.35742 1.66406 4.15625 1.58008 3.94727 1.58008ZM1.71289 1.58008C1.875 1.11914 2.17773 0.71875 2.57812 0.435547C2.97852 0.152344 3.45703 0 3.94727 0C4.43555 0 4.91406 0.152344 5.31445 0.435547C5.71484 0.71875 6.01758 1.11914 6.17969 1.58008L11.8398 1.58008C12.0488 1.58008 12.25 1.66406 12.3965 1.8125C12.5449 1.95898 12.6289 2.16016 12.6289 2.36914C12.6289 2.57812 12.5449 2.7793 12.3965 2.92773C12.25 3.07617 12.0488 3.1582 11.8398 3.1582L6.17969 3.1582C6.01758 3.62109 5.71484 4.02148 5.31445 4.30469C4.91406 4.58789 4.43555 4.74023 3.94727 4.74023C3.45703 4.74023 2.97852 4.58789 2.57812 4.30469C2.17773 4.02148 1.875 3.62109 1.71289 3.1582L0.789062 3.1582C0.580078 3.1582 0.378906 3.07617 0.230469 2.92773C0.0839844 2.7793 0 2.57812 0 2.36914C0 2.16016 0.0839844 1.95898 0.230469 1.8125C0.378906 1.66406 0.580078 1.58008 0.789062 1.58008L1.71289 1.58008ZM8.68164 6.31641C8.47266 6.31641 8.27148 6.39844 8.12305 6.54688C7.97656 6.69531 7.89258 6.89648 7.89258 7.10547C7.89258 7.31445 7.97656 7.51562 8.12305 7.66406C8.27148 7.8125 8.47266 7.89453 8.68164 7.89453C8.89062 7.89453 9.0918 7.8125 9.24023 7.66406C9.38867 7.51562 9.4707 7.31445 9.4707 7.10547C9.4707 6.89648 9.38867 6.69531 9.24023 6.54688C9.0918 6.39844 8.89062 6.31641 8.68164 6.31641ZM6.44922 6.31641C6.61133 5.85352 6.91406 5.45312 7.31445 5.16992C7.71484 4.88672 8.19141 4.73633 8.68164 4.73633C9.17188 4.73633 9.65039 4.88672 10.0508 5.16992C10.4512 5.45312 10.752 5.85352 10.916 6.31641L11.8398 6.31641C12.0488 6.31641 12.25 6.39844 12.3965 6.54688C12.5449 6.69531 12.6289 6.89648 12.6289 7.10547C12.6289 7.31445 12.5449 7.51562 12.3965 7.66406C12.25 7.8125 12.0488 7.89453 11.8398 7.89453L10.916 7.89453C10.752 8.35742 10.4512 8.75781 10.0508 9.04102C9.65039 9.32227 9.17188 9.47461 8.68164 9.47461C8.19141 9.47461 7.71484 9.32227 7.31445 9.04102C6.91406 8.75781 6.61133 8.35742 6.44922 7.89453L0.789062 7.89453C0.580078 7.89453 0.378906 7.8125 0.230469 7.66406C0.0839844 7.51562 0 7.31445 0 7.10547C0 6.89648 0.0839844 6.69531 0.230469 6.54688C0.378906 6.39844 0.580078 6.31641 0.789062 6.31641L6.44922 6.31641ZM3.94727 11.0527C3.73633 11.0527 3.53711 11.1348 3.38867 11.2832C3.24023 11.4316 3.15625 11.6309 3.15625 11.8418C3.15625 12.0508 3.24023 12.252 3.38867 12.3984C3.53711 12.5469 3.73633 12.6309 3.94727 12.6309C4.15625 12.6309 4.35742 12.5469 4.50391 12.3984C4.65234 12.252 4.73633 12.0508 4.73633 11.8418C4.73633 11.6309 4.65234 11.4316 4.50391 11.2832C4.35742 11.1348 4.15625 11.0527 3.94727 11.0527ZM1.71289 11.0527C1.875 10.5898 2.17773 10.1895 2.57812 9.90625C2.97852 9.62305 3.45703 9.4707 3.94727 9.4707C4.43555 9.4707 4.91406 9.62305 5.31445 9.90625C5.71484 10.1895 6.01758 10.5898 6.17969 11.0527L11.8398 11.0527C12.0488 11.0527 12.25 11.1348 12.3965 11.2832C12.5449 11.4316 12.6289 11.6309 12.6289 11.8418C12.6289 12.0508 12.5449 12.252 12.3965 12.3984C12.25 12.5469 12.0488 12.6309 11.8398 12.6309L6.17969 12.6309C6.01758 13.0918 5.71484 13.4922 5.31445 13.7754C4.91406 14.0586 4.43555 14.2109 3.94727 14.2109C3.45703 14.2109 2.97852 14.0586 2.57812 13.7754C2.17773 13.4922 1.875 13.0918 1.71289 12.6309L0.789062 12.6309C0.580078 12.6309 0.378906 12.5469 0.230469 12.3984C0.0839844 12.252 0 12.0508 0 11.8418C0 11.6309 0.0839844 11.4316 0.230469 11.2832C0.378906 11.1348 0.580078 11.0527 0.789062 11.0527L1.71289 11.0527Z" fill="#FFFFFF" fill-opacity="1.000000" fill-rule="nonzero"/>
</svg>
