<svg width="14.380859" height="20.000000" viewBox="0 0 14.3809 20" fill="none" xmlns="http://www.w3.org/2000/svg" xmlns:xlink="http://www.w3.org/1999/xlink">
	<desc>
			Created with Pixso.
	</desc>
	<defs/>
	<path id="Vector" d="M1.07812 10C1.07812 5.30566 3.81445 1.5 7.19141 1.5C10.5664 1.5 13.3027 5.30566 13.3027 10C13.3027 14.6943 10.5664 18.5 7.19141 18.5C3.81445 18.5 1.07812 14.6943 1.07812 10ZM7.19141 0C3.21875 0 0 4.47754 0 10C0 15.5225 3.21875 20 7.19141 20C11.1621 20 14.3809 15.5225 14.3809 10C14.3809 4.47754 11.1621 0 7.19141 0ZM7.18555 4.64844C7.15039 4.28223 6.92383 4 6.65234 4C6.35352 4 6.11133 4.33594 6.11133 4.75L6.11133 10.75L6.11719 10.8516C6.15234 11.2178 6.37891 11.5 6.65234 11.5L9.52734 11.5L9.60156 11.4932C9.86328 11.4434 10.0664 11.1299 10.0664 10.75C10.0664 10.3359 9.82617 10 9.52734 10L7.19141 10L7.19141 4.75L7.18555 4.64844Z" fill="#D24D51" fill-opacity="1.000000" fill-rule="nonzero"/>
</svg>
