<svg width="21.527344" height="26.908203" viewBox="0 0 21.5273 26.9082" fill="none" xmlns="http://www.w3.org/2000/svg" xmlns:xlink="http://www.w3.org/1999/xlink">
	<desc>
			Created with Pixso.
	</desc>
	<defs/>
	<path id="Vector" d="M10.7637 0C11.3516 0 11.9355 0.116211 12.4805 0.341797C13.0234 0.566406 13.5176 0.897461 13.9355 1.31348C14.3516 1.73047 14.6816 2.22461 14.9062 2.76855C15.1328 3.3125 15.248 3.89551 15.248 4.48438C16.4375 4.48438 17.5781 4.95703 18.4199 5.79785C19.2598 6.63965 19.7324 7.78027 19.7324 8.96973C19.7324 10.1592 19.2598 11.2998 18.4199 12.1406C17.5781 12.9814 16.4375 13.4541 15.248 13.4541C15.248 14.4883 14.8906 15.4902 14.2383 16.291C13.584 17.0918 12.6738 17.6426 11.6602 17.8496L11.6602 21.6973C12.4277 20.7939 13.3828 20.0693 14.459 19.5752C15.5371 19.0811 16.709 18.8281 17.8945 18.8359C19.0508 18.833 20.1953 19.0811 21.248 19.5625L21.5273 19.6973L21.5273 21.7871C20.4668 21.0322 19.1953 20.627 17.8945 20.6299C16.3945 20.6025 14.9375 21.1221 13.7949 22.0908C12.6504 23.0596 11.8984 24.4121 11.6777 25.8945L11.6602 26.0293L11.6602 26.1191C11.6348 26.3193 11.5449 26.5049 11.4004 26.6465C11.2578 26.7881 11.0703 26.877 10.8711 26.8994L10.7637 26.9082C10.5625 26.9082 10.3672 26.8389 10.209 26.7139C10.0508 26.5889 9.93945 26.4141 9.89258 26.2178L9.875 26.1104C9.68945 24.5771 8.93945 23.167 7.77344 22.1543C6.60742 21.1416 5.10547 20.5986 3.56055 20.6299C2.28906 20.626 1.04688 21.0117 0 21.7334L0 19.6611C1.64062 18.8604 3.5 18.6279 5.28711 19.002C7.07422 19.375 8.68555 20.333 9.86719 21.7236L9.86719 17.8496C8.88672 17.6504 8 17.1289 7.34961 16.3682C6.69922 15.6074 6.32227 14.6514 6.2793 13.6514L6.2793 13.4541L6.08203 13.4541C4.89258 13.4541 3.75195 12.9814 2.91016 12.1406C2.06836 11.2998 1.5957 10.1592 1.5957 8.96973C1.5957 7.78027 2.06836 6.63965 2.91016 5.79785C3.75195 4.95703 4.89258 4.48438 6.08203 4.48438L6.2793 4.48438L6.2793 4.28711C6.33008 3.13281 6.82422 2.04199 7.66016 1.24316C8.49609 0.444336 9.60742 -0.000976562 10.7637 0ZM13.3281 12.6475C12.5762 13.1738 11.6816 13.457 10.7637 13.457C9.8457 13.457 8.94922 13.1738 8.19727 12.6475L8.13477 12.8535C8.04492 13.2471 8.04492 13.6562 8.13477 14.0508C8.22656 14.4443 8.4043 14.8135 8.65625 15.1289C8.9082 15.4453 9.22656 15.7002 9.5918 15.876C9.95508 16.0508 10.3555 16.1416 10.7598 16.1416C11.1621 16.1416 11.5625 16.0508 11.9258 15.876C12.291 15.7002 12.6113 15.4453 12.8633 15.1289C13.1152 14.8135 13.293 14.4443 13.3828 14.0508C13.4727 13.6562 13.4727 13.2471 13.3828 12.8535L13.3281 12.6475ZM6.2793 6.27832C5.90234 6.28223 5.5293 6.36426 5.1875 6.52051C4.84375 6.67676 4.53711 6.90332 4.28711 7.18555C4.03711 7.46777 3.84961 7.79883 3.73633 8.1582C3.62305 8.51758 3.58594 8.89746 3.62891 9.27148C3.66992 9.64551 3.79102 10.0078 3.98242 10.332C4.17383 10.6572 4.42969 10.9385 4.73633 11.1582C5.04297 11.377 5.39258 11.5293 5.76172 11.6055C6.13086 11.6807 6.51172 11.6787 6.87891 11.5977L7.08594 11.5352C6.56055 10.7832 6.27734 9.8877 6.2793 8.96973C6.2793 8.01855 6.57422 7.13086 7.08594 6.4043L6.87891 6.3418C6.68164 6.29785 6.48047 6.27734 6.2793 6.27832ZM15.248 6.27832C15.041 6.27832 14.8438 6.30566 14.6465 6.3418L14.4414 6.4043C14.9512 7.12207 15.248 8.01855 15.248 8.96973C15.248 9.8877 14.9668 10.7832 14.4414 11.5352L14.6465 11.5977C15.0156 11.6787 15.3965 11.6807 15.7656 11.6055C16.1348 11.5293 16.4844 11.377 16.791 11.1582C17.0977 10.9385 17.3535 10.6572 17.5449 10.332C17.7363 10.0078 17.8555 9.64551 17.8984 9.27148C17.9414 8.89746 17.9043 8.51758 17.791 8.1582C17.6777 7.79883 17.4883 7.46777 17.2383 7.18555C16.9883 6.90332 16.6836 6.67676 16.3398 6.52051C15.9961 6.36426 15.625 6.28223 15.248 6.27832ZM10.7637 6.27832C10.4102 6.27832 10.0605 6.34863 9.73438 6.4834C9.40625 6.61914 9.11133 6.81738 8.86133 7.06641C8.61133 7.31641 8.41211 7.61328 8.27734 7.93945C8.14258 8.2666 8.07227 8.61621 8.07227 8.96973C8.07227 9.32324 8.14258 9.67285 8.27734 9.99902C8.41211 10.3262 8.61133 10.6221 8.86133 10.8721C9.11133 11.1221 9.40625 11.3203 9.73438 11.4551C10.0605 11.5908 10.4102 11.6602 10.7637 11.6602C11.4766 11.6602 12.1621 11.377 12.666 10.8721C13.1699 10.3672 13.4551 9.68359 13.4551 8.96973C13.4551 8.25586 13.1699 7.57129 12.666 7.06641C12.1621 6.5625 11.4766 6.27832 10.7637 6.27832ZM10.7637 1.79395C10.3594 1.79297 9.95898 1.88379 9.59375 2.05859C9.22852 2.23438 8.9082 2.48926 8.65625 2.80566C8.40234 3.12207 8.22461 3.49121 8.13477 3.88672C8.04492 4.28125 8.04492 4.69141 8.13477 5.08594L8.19727 5.29199C8.94922 4.76465 9.8457 4.48242 10.7637 4.48242C11.6816 4.48242 12.5762 4.76465 13.3281 5.29199L13.3906 5.08594C13.4824 4.69141 13.4824 4.28125 13.3926 3.88672C13.3027 3.49121 13.125 3.12207 12.8711 2.80566C12.6191 2.48926 12.2988 2.23438 11.9336 2.05859C11.5684 1.88379 11.168 1.79297 10.7637 1.79395Z" fill="#222222" fill-opacity="1.000000" fill-rule="nonzero"/>
</svg>
