<svg width="12.150391" height="20.271484" viewBox="0 0 12.1504 20.2715" fill="none" xmlns="http://www.w3.org/2000/svg" xmlns:xlink="http://www.w3.org/1999/xlink">
	<desc>
			Created with Pixso.
	</desc>
	<defs/>
	<path id="Vector" d="M3.23633 19.0645C0.142578 16.5791 -0.917969 11.0752 0.869141 6.77051C1.97461 4.10449 3.94727 2.4707 6.07031 2.28613L4.9668 1.40039C4.70898 1.19336 4.61914 0.734375 4.76953 0.375977C4.9043 0.046875 5.19336 -0.0839844 5.43945 0.0556641L5.50586 0.100586L7.99609 2.10059C8.23242 2.29102 8.32617 2.69238 8.22656 3.03418L8.19336 3.12598L6.75586 6.58984C6.60742 6.94824 6.27734 7.07129 6.01953 6.86426C5.7832 6.67383 5.6875 6.27344 5.78906 5.93164L5.82227 5.83984L6.67773 3.77344C4.70898 3.66992 2.81836 5.07422 1.80273 7.52051C0.3125 11.1074 1.19727 15.6943 3.77734 17.7656C6.35547 19.8369 9.6543 18.6074 11.1445 15.0205C11.293 14.6611 11.623 14.5391 11.8809 14.7461C12.1387 14.9531 12.2266 15.4111 12.0781 15.7705C10.291 20.0752 6.33203 21.5498 3.23633 19.0645ZM5.48438 13.6514C4.53906 12.8926 4.21484 11.2109 4.75977 9.89551C5.30664 8.58008 6.51562 8.12891 7.46094 8.88867C8.4082 9.64844 8.73242 11.3301 8.18555 12.6455C7.63867 13.9609 6.42969 14.4111 5.48438 13.6514ZM6.02344 12.3525C6.45312 12.6982 7.00391 12.4932 7.25195 11.8955C7.5 11.2969 7.35156 10.5332 6.92188 10.1875C6.49219 9.84277 5.94336 10.0469 5.69531 10.6455C5.44727 11.2432 5.59375 12.0078 6.02344 12.3525Z" fill="#0DAE68" fill-opacity="1.000000" fill-rule="nonzero"/>
</svg>
