<svg width="25.115234" height="24.217773" viewBox="0 0 25.1152 24.2178" fill="none" xmlns="http://www.w3.org/2000/svg" xmlns:xlink="http://www.w3.org/1999/xlink">
	<desc>
			Created with Pixso.
	</desc>
	<defs/>
	<path id="Vector" d="M18.8359 0C19.2891 -0.000976562 19.7266 0.168945 20.0586 0.476562C20.3926 0.785156 20.5957 1.20703 20.6289 1.65918L20.6289 3.15723L25.1152 1.36328L25.1152 12.0908L20.6289 10.2969L20.6289 11.6602C20.6309 12.1133 20.4609 12.5508 20.1523 12.8838C19.8457 13.2168 19.4219 13.4199 18.9707 13.4541L13.3652 13.4541C13.1875 14.3291 12.752 15.1309 12.1172 15.7568C11.4805 16.3838 10.6719 16.8057 9.79492 16.9707C9.60938 17.9668 9.0918 18.8711 8.32617 19.5361C7.56055 20.2002 6.5918 20.5859 5.57812 20.6299L1.79297 20.6299L1.79297 24.2178L0 24.2178L0 15.248L1.79297 15.248L1.79297 18.8359L5.38086 18.8359C5.95898 18.8359 6.52148 18.6504 6.98438 18.3057C7.44727 17.9619 7.78906 17.4775 7.95508 16.9258C7.11914 16.7314 6.35547 16.3008 5.75586 15.6855C5.15625 15.0703 4.74609 14.2959 4.57422 13.4541L1.79297 13.4541C1.33984 13.4551 0.904297 13.2852 0.570312 12.9775C0.238281 12.6689 0.0332031 12.2471 0 11.7949L0 1.79395C-0.00195312 1.34082 0.169922 0.90332 0.476562 0.570312C0.785156 0.238281 1.20703 0.0341797 1.66016 0L1.79297 0L18.8359 0ZM8.96875 9.86621C8.25586 9.86621 7.57227 10.1504 7.06641 10.6543C6.5625 11.1592 6.2793 11.8438 6.2793 12.5576C6.2793 13.2705 6.5625 13.9551 7.06641 14.46C7.57227 14.9648 8.25586 15.248 8.96875 15.248C9.68359 15.248 10.3672 14.9648 10.873 14.46C11.377 13.9551 11.6602 13.2705 11.6602 12.5576C11.6602 11.8438 11.377 11.1592 10.873 10.6543C10.3672 10.1504 9.68359 9.86621 8.96875 9.86621ZM18.8359 1.79395L1.79297 1.79395L1.79297 11.6602L4.57422 11.6602C4.78125 10.6465 5.33008 9.73535 6.13086 9.08008C6.93164 8.42578 7.93555 8.06836 8.96875 8.06836C10.0039 8.06836 11.0059 8.42578 11.8086 9.08008C12.6094 9.73535 13.1582 10.6465 13.3652 11.6602L18.8359 11.6602L18.8359 1.79395ZM23.3203 4.01855L20.6289 5.09473L20.6289 8.35938L23.3203 9.43555L23.3203 4.01855ZM4.48438 3.58789C4.72266 3.58789 4.95117 3.68262 5.11914 3.85059C5.28711 4.01855 5.38086 4.24707 5.38086 4.48438C5.38086 4.72266 5.28711 4.95117 5.11914 5.11914C4.95117 5.28711 4.72266 5.38184 4.48438 5.38184C4.24609 5.38184 4.01953 5.28711 3.84961 5.11914C3.68164 4.95117 3.58789 4.72266 3.58789 4.48438C3.58789 4.24707 3.68164 4.01855 3.84961 3.85059C4.01953 3.68262 4.24609 3.58789 4.48438 3.58789Z" fill="#222222" fill-opacity="1.000000" fill-rule="nonzero"/>
</svg>
