<svg width="15.203125" height="17.375977" viewBox="0 0 15.2031 17.376" fill="none" xmlns="http://www.w3.org/2000/svg" xmlns:xlink="http://www.w3.org/1999/xlink">
	<desc>
			Created with Pixso.
	</desc>
	<defs/>
	<path id="Vector" d="M11.9648 7.60156C11.9648 8.20117 12.4316 8.68848 13.0312 8.68848L13.0312 15.2041L2.17188 15.2041L2.17188 8.68848C2.46094 8.68848 2.73633 8.57324 2.93945 8.37012C3.14453 8.16602 3.25781 7.88965 3.25781 7.60156C3.25781 7.31445 3.14453 7.03809 2.93945 6.83398C2.73633 6.63086 2.46094 6.51562 2.17188 6.51562C0.974609 6.51562 0 7.49023 0 8.68848L0 15.2041C0 16.4023 0.974609 17.376 2.17188 17.376L13.0312 17.376C14.2305 17.376 15.2031 16.4023 15.2031 15.2041L15.2031 8.68848C15.2031 7.49023 14.2305 6.51562 13.0312 6.51562C12.8906 6.5166 12.75 6.54492 12.6191 6.59961C12.4902 6.65527 12.3711 6.73535 12.2715 6.83594C12.1719 6.9375 12.0938 7.05664 12.041 7.18848C11.9902 7.32031 11.9629 7.46094 11.9648 7.60156ZM5.4375 5.23535L6.51562 4.15723L6.51562 11.9014C6.51562 12.1895 6.63086 12.4658 6.83398 12.6689C7.03711 12.873 7.31445 12.9873 7.60156 12.9873C7.89062 12.9873 8.16602 12.873 8.36914 12.6689C8.57422 12.4658 8.6875 12.1895 8.6875 11.9014L8.6875 4.15723L9.76562 5.23535C9.86719 5.33691 9.98633 5.41699 10.1191 5.47168C10.25 5.52637 10.3906 5.55469 10.5352 5.55469C10.6777 5.55469 10.8184 5.52637 10.9492 5.47168C11.082 5.41699 11.2012 5.33691 11.3027 5.23535C11.5059 5.03223 11.6191 4.75586 11.6191 4.46777C11.6191 4.17969 11.5059 3.90332 11.3027 3.7002L7.60156 0L3.90234 3.7002C3.70508 3.90527 3.59375 4.17871 3.59766 4.46387C3.59961 4.74902 3.71484 5.02148 3.91602 5.22266C4.11719 5.42383 4.38867 5.53809 4.67383 5.54004C4.95898 5.54297 5.23242 5.43359 5.4375 5.23535Z" fill="#676D73" fill-opacity="1.000000" fill-rule="nonzero"/>
</svg>
