<svg width="28.271484" height="20.934570" viewBox="0 0 28.2715 20.9346" fill="none" xmlns="http://www.w3.org/2000/svg" xmlns:xlink="http://www.w3.org/1999/xlink">
	<desc>
			Created with Pixso.
	</desc>
	<defs/>
	<path id="Vector" d="M14.1367 14.3516C15.0098 14.3516 15.8457 14.6982 16.4629 15.3154C17.0801 15.9326 17.4277 16.7695 17.4277 17.6426C17.4277 18.5156 17.0801 19.3535 16.4629 19.9707C15.8457 20.5879 15.0098 20.9346 14.1367 20.9346C13.2637 20.9346 12.4258 20.5879 11.8086 19.9707C11.1914 19.3535 10.8438 18.5156 10.8438 17.6426C10.8438 16.7695 11.1914 15.9326 11.8086 15.3154C12.4258 14.6982 13.2637 14.3516 14.1367 14.3516ZM14.1367 16.1455C13.7383 16.1455 13.3574 16.3027 13.0762 16.584C12.7949 16.8643 12.6387 17.2461 12.6387 17.6426C12.6387 18.04 12.7949 18.4209 13.0762 18.7021C13.3574 18.9834 13.7383 19.1406 14.1367 19.1406C14.5332 19.1406 14.9141 18.9834 15.1953 18.7021C15.4766 18.4209 15.6348 18.04 15.6348 17.6426C15.6348 17.2461 15.4766 16.8643 15.1953 16.584C14.9141 16.3027 14.5332 16.1455 14.1367 16.1455ZM14.1367 9.57031C15.6328 9.57129 17.0996 9.9873 18.373 10.7725C19.6465 11.5586 20.6758 12.6826 21.3477 14.0195L19.9922 15.374C19.5371 14.1914 18.7324 13.1748 17.6875 12.458C16.6406 11.7402 15.4043 11.3564 14.1367 11.3564C12.8691 11.3564 11.6309 11.7402 10.584 12.458C9.53906 13.1748 8.73633 14.1914 8.2793 15.374L6.92383 14.0195C7.5957 12.6826 8.62695 11.5586 9.90039 10.7725C11.1738 9.9873 12.6406 9.57129 14.1367 9.57031ZM14.1367 4.79004C18.6035 4.79004 22.541 7.06836 24.8457 10.5303L23.5449 11.8223C22.5547 10.2178 21.1699 8.89355 19.5234 7.97461C17.875 7.05664 16.0215 6.57422 14.1367 6.57422C12.25 6.57422 10.3965 7.05664 8.75 7.97461C7.10156 8.89355 5.71875 10.2178 4.72656 11.8223L3.42578 10.5215C4.59961 8.75488 6.19141 7.30566 8.05859 6.30469C9.92773 5.30273 12.0156 4.7793 14.1367 4.78027L14.1367 4.79004ZM14.1367 0C19.9219 0 25.0605 2.78027 28.2715 7.08594L26.9883 8.37793C25.5234 6.33691 23.5938 4.67383 21.3594 3.52734C19.125 2.37988 16.6484 1.78223 14.1367 1.78223C11.623 1.78223 9.14844 2.37988 6.91211 3.52734C4.67773 4.67383 2.74805 6.33691 1.2832 8.37793L0 7.09473C3.21094 2.78906 8.3418 0.00878906 14.1367 0.00878906L14.1367 0Z" fill="#222222" fill-opacity="1.000000" fill-rule="nonzero"/>
</svg>
