<svg width="17.364258" height="14.996094" viewBox="0 0 17.3643 14.9961" fill="none" xmlns="http://www.w3.org/2000/svg" xmlns:xlink="http://www.w3.org/1999/xlink">
	<desc>
			Created with Pixso.
	</desc>
	<defs/>
	<path id="Форма 4" d="M1.18359 0L16.1807 0C16.834 0 17.3643 0.529297 17.3643 1.18359C17.3643 1.83789 16.834 2.36719 16.1807 2.36719L1.18359 2.36719C0.530273 2.36719 0 1.83789 0 1.18359C0 0.529297 0.530273 0 1.18359 0ZM1.18359 6.31445L16.1807 6.31445C16.834 6.31445 17.3643 6.84375 17.3643 7.49805C17.3643 8.15234 16.834 8.68164 16.1807 8.68164L1.18359 8.68164C0.530273 8.68164 0 8.15234 0 7.49805C0 6.84375 0.530273 6.31445 1.18359 6.31445ZM16.1807 12.6289L1.18359 12.6289C0.530273 12.6289 0 13.1582 0 13.8125C0 14.4668 0.530273 14.9961 1.18359 14.9961L16.1807 14.9961C16.834 14.9961 17.3643 14.4668 17.3643 13.8125C17.3643 13.1582 16.834 12.6289 16.1807 12.6289Z" fill="#818487" fill-opacity="1.000000" fill-rule="evenodd"/>
</svg>
