<svg width="19" height="19" viewBox="0 0 19 19" fill="none" xmlns="http://www.w3.org/2000/svg">
<g id="Frame">
<g id="Group">
<path id="Vector" d="M9.49996 4.0625C10.8275 4.0625 12.0162 4.52 12.9537 5.4125L15.5225 2.84375C13.9625 1.3925 11.9262 0.5 9.49996 0.5C5.98246 0.5 2.94121 2.5175 1.45996 5.4575L4.45246 7.77875C5.16121 5.645 7.15246 4.0625 9.49996 4.0625Z" fill="#EA4335"/>
<path id="Vector_2" d="M18.1175 9.70625C18.1175 9.1175 18.0612 8.5475 17.975 8H9.5V11.3825H14.3525C14.135 12.4925 13.505 13.4375 12.56 14.075L15.4588 16.325C17.15 14.7575 18.1175 12.44 18.1175 9.70625Z" fill="#4285F4"/>
<path id="Vector_3" d="M4.44875 11.2169C4.26875 10.6731 4.16375 10.0956 4.16375 9.49563C4.16375 8.89562 4.265 8.31812 4.44875 7.77437L1.45625 5.45312C0.845 6.66813 0.5 8.04062 0.5 9.49563C0.5 10.9506 0.845 12.3231 1.46 13.5381L4.44875 11.2169Z" fill="#FBBC05"/>
<path id="Vector_4" d="M9.50005 18.5013C11.93 18.5013 13.9738 17.7025 15.4588 16.3225L12.56 14.0725C11.7538 14.6162 10.715 14.935 9.50005 14.935C7.15255 14.935 5.1613 13.3525 4.4488 11.2188L1.4563 13.54C2.9413 16.4838 5.98255 18.5013 9.50005 18.5013Z" fill="#34A853"/>
</g>
</g>
</svg>
