<svg width="45" height="45" viewBox="0 0 45 45" fill="none" xmlns="http://www.w3.org/2000/svg">
<path d="M2 22.5H43M22.5 43V2M4.05 28.65V16.35M40.95 28.65V16.35M28.65 40.95H16.35M28.65 4.05H16.35M4.05 7.125C4.05 6.30946 4.37397 5.52732 4.95065 4.95065C5.52732 4.37397 6.30946 4.05 7.125 4.05H37.875C38.6905 4.05 39.4727 4.37397 40.0494 4.95065C40.626 5.52732 40.95 6.30946 40.95 7.125V37.875C40.95 38.6905 40.626 39.4727 40.0494 40.0494C39.4727 40.626 38.6905 40.95 37.875 40.95H7.125C6.30946 40.95 5.52732 40.626 4.95065 40.0494C4.37397 39.4727 4.05 38.6905 4.05 37.875V7.125Z" stroke="black" stroke-width="3" stroke-linecap="round" stroke-linejoin="round"/>
<path d="M22.5003 22.5003C22.5003 22.5003 30.5948 18.8657 31.8268 17.6347C32.4184 17.0431 32.7507 16.2408 32.7507 15.4043C32.7507 14.5677 32.4184 13.7654 31.8268 13.1739C31.2353 12.5823 30.433 12.25 29.5964 12.25C28.7599 12.25 27.9576 12.5823 27.366 13.1739C26.135 14.4059 22.5003 22.5003 22.5003 22.5003ZM22.5003 22.5003C22.5003 22.5003 14.4059 18.8657 13.1739 17.6347M22.5003 22.5003C22.5003 22.5003 18.8657 14.4059 17.6347 13.1739M22.5003 22.5003C22.5003 22.5003 30.5948 26.135 31.8268 27.366M22.5003 22.5003C22.5003 22.5003 26.135 30.5948 27.366 31.8268M22.5003 22.5003C22.5003 22.5003 14.4059 26.135 13.1739 27.366C12.881 27.6589 12.6486 28.0066 12.4901 28.3893C12.3316 28.772 12.25 29.1822 12.25 29.5964C12.25 30.0106 12.3316 30.4208 12.4901 30.8035C12.6486 31.1862 12.881 31.5339 13.1739 31.8268C13.4668 32.1197 13.8145 32.3521 14.1972 32.5106C14.5799 32.6691 14.99 32.7507 15.4043 32.7507C15.8185 32.7507 16.2287 32.6691 16.6113 32.5106C16.994 32.3521 17.3418 32.1197 17.6347 31.8268C18.8657 30.5948 22.5003 22.5003 22.5003 22.5003Z" stroke="black" stroke-width="3" stroke-linecap="round" stroke-linejoin="round"/>
</svg>
