<svg width="27" height="27" viewBox="0 0 27 27" fill="none" xmlns="http://www.w3.org/2000/svg">
<path id="Vector" d="M13.5 0C20.9558 0 27 6.04415 27 13.5C27 20.9558 20.9558 27 13.5 27C6.04415 27 0 20.9558 0 13.5C0 6.04415 6.04415 0 13.5 0ZM17.8466 9.40905L11.8125 15.4431L9.15345 12.7841C8.75804 12.3887 8.11696 12.3887 7.72155 12.7841C7.32615 13.1795 7.32615 13.8205 7.72155 14.2159L11.0966 17.5909C11.492 17.9863 12.133 17.9863 12.5284 17.5909L19.2784 10.8409C19.6738 10.4455 19.6738 9.80446 19.2784 9.40905C18.883 9.01365 18.242 9.01365 17.8466 9.40905Z" fill="#00C714"/>
</svg>
