<svg width="30.445312" height="25.071289" viewBox="0 0 30.4453 25.0713" fill="none" xmlns="http://www.w3.org/2000/svg" xmlns:xlink="http://www.w3.org/1999/xlink">
	<desc>
			Created with Pixso.
	</desc>
	<defs/>
	<path id="Vector" d="M30.4453 21.9375C30.4453 22.7686 30.0938 23.5654 29.4688 24.1533C28.8438 24.7412 27.9961 25.0713 27.1133 25.0713L3.32812 25.0713C2.44531 25.0713 1.60156 24.7412 0.976562 24.1533C0.351562 23.5654 0 22.7686 0 21.9375L0 3.13379C0 1.4043 1.49219 0 3.32812 0L27.1133 0C28.9531 0 30.4453 1.4043 30.4453 3.13379L30.4453 21.9375ZM3.32812 2.68652C3.20312 2.68652 3.08203 2.7334 2.99219 2.81738C2.90234 2.90137 2.85547 3.01562 2.85547 3.13379L2.85547 21.9375C2.85547 22.1846 3.06641 22.3848 3.32812 22.3848L5.11719 22.3848L5.17578 22.3311L16.7383 11.4463C17.3438 10.8779 18.1562 10.5498 19.0117 10.5293C19.8633 10.5098 20.6953 10.7998 21.3281 11.3389L27.5898 16.6719L27.5898 3.13379C27.5898 3.01562 27.5391 2.90137 27.4492 2.81738C27.3594 2.7334 27.2383 2.68652 27.1133 2.68652L3.32812 2.68652ZM27.1133 22.3848C27.2383 22.3848 27.3594 22.3379 27.4492 22.2539C27.5391 22.1699 27.5898 22.0557 27.5898 21.9375L27.5898 20.2949L19.4102 13.3311C19.3203 13.2539 19.2031 13.2129 19.082 13.2158C18.9609 13.2188 18.8438 13.2656 18.7578 13.3467L9.15234 22.3848L27.1133 22.3848ZM13.3203 8.9541C13.332 9.43066 13.2422 9.90527 13.0547 10.3486C12.8672 10.793 12.5898 11.1973 12.2344 11.5381C11.8828 11.8799 11.457 12.1504 10.9922 12.3359C10.5234 12.5205 10.0234 12.6162 9.51562 12.6162C9.00781 12.6162 8.50781 12.5215 8.03906 12.3369C7.57422 12.1514 7.14844 11.8809 6.79297 11.54C6.44141 11.1982 6.16016 10.7949 5.97656 10.3506C5.78906 9.90723 5.69922 9.43262 5.71094 8.95605C5.73047 8.01953 6.14062 7.12988 6.85156 6.47461C7.5625 5.82031 8.51953 5.45312 9.51172 5.45312C10.5078 5.45312 11.4648 5.81934 12.1758 6.47363C12.8867 7.12793 13.2969 8.01855 13.3203 8.9541ZM10.4648 8.9541C10.4648 8.7168 10.3633 8.48828 10.1875 8.32129C10.0078 8.15332 9.76562 8.05859 9.51172 8.05859C9.26172 8.05859 9.01953 8.15332 8.83984 8.32129C8.66406 8.48828 8.5625 8.7168 8.5625 8.9541C8.5625 9.19141 8.66406 9.41895 8.83984 9.58691C9.01953 9.75488 9.26172 9.84961 9.51172 9.84961C9.76562 9.84961 10.0078 9.75488 10.1875 9.58691C10.3633 9.41895 10.4648 9.19141 10.4648 8.9541Z" fill="#FFFFFF" fill-opacity="1.000000" fill-rule="nonzero"/>
</svg>
