<svg width="20" height="20" viewBox="0 0 20 20" fill="none" xmlns="http://www.w3.org/2000/svg">
<path d="M1.5 10C1.5 5.30558 5.30558 1.5 10 1.5C14.6944 1.5 18.5 5.30558 18.5 10C18.5 14.6944 14.6944 18.5 10 18.5C5.30558 18.5 1.5 14.6944 1.5 10ZM10 0C4.47715 0 0 4.47715 0 10C0 15.5228 4.47715 20 10 20C15.5228 20 20 15.5228 20 10C20 4.47715 15.5228 0 10 0ZM9.9931 4.64827C9.9435 4.28233 9.6295 4 9.25 4C8.836 4 8.5 4.336 8.5 4.75V10.75L8.5069 10.8517C8.5565 11.2177 8.8705 11.5 9.25 11.5H13.25L13.3517 11.4931C13.7177 11.4435 14 11.1295 14 10.75C14 10.336 13.664 10 13.25 10H10V4.75L9.9931 4.64827Z" fill="#212121" fill-opacity="0.56"/>
</svg>
