<svg width="27" height="20" viewBox="0 0 27 20" fill="none" xmlns="http://www.w3.org/2000/svg">
<path d="M11.3972 4.63422C9.28222 4.63422 7.56768 6.34876 7.56768 8.46375C7.56768 10.5788 9.28222 12.2933 11.3972 12.2933C13.5123 12.2933 15.2267 10.5788 15.2267 8.46375C15.2267 6.34876 13.5123 4.63422 11.3972 4.63422ZM9.48244 8.46375C9.48244 7.40629 10.3397 6.54898 11.3972 6.54898C12.4547 6.54898 13.312 7.40629 13.312 8.46375C13.312 9.52121 12.4547 10.3785 11.3972 10.3785C10.3397 10.3785 9.48244 9.52121 9.48244 8.46375ZM0.546875 3.67684C0.546875 2.09059 1.83278 0.804688 3.41902 0.804688H19.3754C20.9616 0.804688 22.2475 2.09059 22.2475 3.67684V13.2507C22.2475 14.8369 20.9616 16.1228 19.3754 16.1228H3.41902C1.83278 16.1228 0.546875 14.8369 0.546875 13.2507V3.67684ZM3.41902 2.71945C2.89028 2.71945 2.46164 3.14809 2.46164 3.67684V4.63422H3.41902C3.94777 4.63422 4.37641 4.20558 4.37641 3.67684V2.71945H3.41902ZM2.46164 10.3785H3.41902C5.00526 10.3785 6.29117 11.6645 6.29117 13.2507V14.208H16.5033V13.2507C16.5033 11.6645 17.7892 10.3785 19.3754 10.3785H20.3328V6.54898H19.3754C17.7892 6.54898 16.5033 5.26308 16.5033 3.67684V2.71945H6.29117V3.67684C6.29117 5.26308 5.00526 6.54898 3.41902 6.54898H2.46164V10.3785ZM20.3328 4.63422V3.67684C20.3328 3.14809 19.9041 2.71945 19.3754 2.71945H18.418V3.67684C18.418 4.20558 18.8467 4.63422 19.3754 4.63422H20.3328ZM20.3328 12.2933H19.3754C18.8467 12.2933 18.418 12.7219 18.418 13.2507V14.208H19.3754C19.9041 14.208 20.3328 13.7794 20.3328 13.2507V12.2933ZM2.46164 13.2507C2.46164 13.7794 2.89028 14.208 3.41902 14.208H4.37641V13.2507C4.37641 12.7219 3.94777 12.2933 3.41902 12.2933H2.46164V13.2507ZM3.61225 18.0376C4.27439 19.1822 5.51199 19.9523 6.92945 19.9523H20.0137C23.3624 19.9523 26.0771 17.2377 26.0771 13.8889V7.18724C26.0771 5.7698 25.307 4.5322 24.1623 3.87006V13.8889C24.1623 16.1801 22.3049 18.0376 20.0137 18.0376H3.61225Z" fill="#02A0A0"/>
</svg>
