<svg width="18" height="20" viewBox="0 0 18 20" fill="none" xmlns="http://www.w3.org/2000/svg">
<path d="M2.55031 2.55031C5.95072 -0.850102 11.4639 -0.850102 14.8643 2.55031C18.2647 5.95072 18.2647 11.4639 14.8643 14.8643L13.6773 16.0382C12.8024 16.8968 11.6673 18.0008 10.2714 19.3503C9.39922 20.1937 8.01542 20.1936 7.14332 19.3501L3.65218 15.9542C3.21342 15.5234 2.84615 15.1601 2.55031 14.8643C-0.850102 11.4639 -0.850102 5.95072 2.55031 2.55031ZM13.8036 3.61097C10.989 0.796337 6.42559 0.796337 3.61097 3.61097C0.796337 6.42559 0.796337 10.989 3.61097 13.8036L5.09804 15.2711C5.91695 16.0725 6.94642 17.0729 8.18612 18.2719C8.47682 18.553 8.93802 18.5531 9.22882 18.272L12.6237 14.9705C13.0926 14.5102 13.486 14.1212 13.8036 13.8036C16.6182 10.989 16.6182 6.42559 13.8036 3.61097ZM8.70732 5.98096C10.365 5.98096 11.7088 7.3248 11.7088 8.98252C11.7088 10.6402 10.365 11.984 8.70732 11.984C7.04962 11.984 5.70575 10.6402 5.70575 8.98252C5.70575 7.3248 7.04962 5.98096 8.70732 5.98096ZM8.70732 7.48096C7.87802 7.48096 7.20572 8.15322 7.20572 8.98252C7.20572 9.81182 7.87802 10.484 8.70732 10.484C9.53662 10.484 10.2088 9.81182 10.2088 8.98252C10.2088 8.15322 9.53662 7.48096 8.70732 7.48096Z" fill="#212121" fill-opacity="0.71"/>
</svg>
