<svg width="28" height="18" viewBox="0 0 28 18" fill="none" xmlns="http://www.w3.org/2000/svg">
<path d="M0.589844 0.898438V17.5777H8.11489V0.898438H0.589844ZM6.05761 16.1853C5.92624 16.1853 5.79782 16.1463 5.68859 16.0733C5.57935 16.0004 5.49422 15.8966 5.44395 15.7752C5.39367 15.6539 5.38052 15.5203 5.40615 15.3915C5.43178 15.2626 5.49504 15.1443 5.58793 15.0514C5.68082 14.9585 5.79918 14.8952 5.92802 14.8696C6.05687 14.844 6.19042 14.8571 6.3118 14.9074C6.43317 14.9577 6.5369 15.0428 6.60989 15.152C6.68288 15.2613 6.72183 15.3897 6.72183 15.5211C6.72183 15.6972 6.65185 15.8662 6.52728 15.9907C6.40272 16.1153 6.23377 16.1853 6.05761 16.1853ZM7.14452 4.76302H1.55055V3.79688H7.14392V4.76302H7.14452ZM7.14452 2.83073H1.55055V1.86458H7.14392V2.83073H7.14452ZM16.3833 14.2137H20.7973V16.6116H23.3178V17.5777H13.864V16.6116H16.3845V14.2137H16.3833ZM9.25796 0.898438V13.2476H27.9256V0.898438H9.25735H9.25796ZM26.9595 12.2814H10.2235V1.86458H26.9595V12.2814Z" fill="black"/>
</svg>
