<svg width="21" height="25" viewBox="0 0 21 25" fill="none" xmlns="http://www.w3.org/2000/svg">
<path d="M14.0733 8.1924L11.8392 10.2032L11.8233 6.1719L14.0733 8.1924ZM11.8225 18.4952L14.0675 16.4747L11.8333 14.4639L11.8225 18.4952ZM20.5 12.3309C20.5 21.9684 16.755 24.172 10.8592 24.172C4.96333 24.172 0.5 21.9684 0.5 12.3309C0.5 2.69338 4.84333 0.171875 10.74 0.171875C16.6367 0.171875 20.5 2.69863 20.5 12.3309ZM12.245 12.3309L16.38 8.17815L9.86417 1.88263V10.1747L6.02 6.71565L4.61333 7.9764L9.44167 12.3354L4.61333 16.6952L6.01417 17.9559L9.85833 14.4969L9.97833 22.4657L16.6133 16.4889L12.245 12.3309Z" fill="black"/>
</svg>
